<svg fill="none" height="20" viewBox="0 0 20 20" width="20" xmlns="http://www.w3.org/2000/svg"><path d="m20 10c0 5.5333-4.4667 10-10 10-5.53333 0-10-4.4667-10-10 0-5.53333 4.46667-10 10-10 5.5333 0 10 4.46667 10 10z" fill="#ffdd67"/><g fill="#664e27"><path d="m15.6668 12c0-.2666-.1666-.6-.6-.7-1.1666-.2333-2.8666-.4333-5.0666-.4333-2.20004 0-3.90004.2333-5.0667.4333-.43334.1-.6.4334-.6.7 0 2.4334 1.86666 4.8667 5.6667 4.8667 3.8 0 5.6666-2.4333 5.6666-4.8667z"/><path d="m8.8334 8.30067c-.63333-1.69999-1.56666-2.56666-2.5-2.56666-.93333 0-1.86667.86667-2.5 2.56666-.06667.16667.26667.46667.43333.3.6-.63333 1.33334-.89999 2.06667-.89999.73334 0 1.46667.26666 2.06667.89999.2.16667.5-.13333.43333-.3z"/><path d="m16.1332 8.30067c-.6333-1.69999-1.5667-2.56666-2.5-2.56666s-1.8667.86667-2.5 2.56666c-.0667.16667.2667.46667.4333.3.6-.63333 1.3334-.89999 2.0667-.89999.7667 0 1.4667.26666 2.0667.89999.1666.16667.5-.13333.4333-.3z"/></g><path d="m14.2333 12.1001c-.7333-.1334-2.2666-.3334-4.23331-.3334-1.96667 0-3.5.2-4.23334.3334-.43333.0666-.46666.2333-.43333.5.03333.1333.03333.3333.1.5333.03333.2.1.3.43333.2667.63334-.0667 7.66665-.0667 8.30005 0 .3333.0333.3666-.0667.4333-.2667.0333-.2.0667-.3667.1-.5333 0-.2667-.0333-.4334-.4667-.5z" fill="#fff"/><path d="m20 10c0 5.5333-4.4667 10-10 10-5.53333 0-10-4.4667-10-10 0-5.53333 4.46667-10 10-10 5.5333 0 10 4.46667 10 10z" fill="#ffdd67"/><path d="m15.6668 12c0-.2666-.1666-.6-.6-.7-1.1666-.2333-2.8666-.4333-5.0666-.4333-2.20004 0-3.90004.2333-5.0667.4333-.43334.1-.6.4334-.6.7 0 2.4334 1.86666 4.8667 5.6667 4.8667 3.8 0 5.6666-2.4333 5.6666-4.8667z" fill="#664e27"/><path d="m8.8334 8.30067c-.63333-1.69999-1.56666-2.56666-2.5-2.56666-.93333 0-1.86667.86667-2.5 2.56666-.06667.16667.26667.46667.43333.3.6-.63333 1.33334-.89999 2.06667-.89999.73334 0 1.46667.26666 2.06667.89999.2.16667.5-.13333.43333-.3z" fill="#664e27"/><path d="m16.1332 8.30067c-.6333-1.69999-1.5667-2.56666-2.5-2.56666s-1.8667.86667-2.5 2.56666c-.0667.16667.2667.46667.4333.3.6-.63333 1.3334-.89999 2.0667-.89999.7667 0 1.4667.26666 2.0667.89999.1666.16667.5-.13333.4333-.3z" fill="#664e27"/><path d="m14.2333 12.1001c-.7333-.1334-2.2666-.3334-4.23331-.3334-1.96667 0-3.5.2-4.23334.3334-.43333.0666-.46666.2333-.43333.5.03333.1333.03333.3333.1.5333.03333.2.1.2667.43333.2667h8.30005c.3333 0 .3666-.0667.4333-.2667.0333-.2.0667-.3667.1-.5333 0-.2667-.0333-.4334-.4667-.5z" fill="#fff"/></svg>