<svg fill="none" height="247" viewBox="0 0 247 247" width="247" xmlns="http://www.w3.org/2000/svg" xmlns:xlink="http://www.w3.org/1999/xlink"><linearGradient id="a"><stop offset="0" stop-color="#34c796"/><stop offset="1" stop-color="#0b7a55"/></linearGradient><linearGradient id="b" gradientUnits="userSpaceOnUse" x1="178.394" x2="147.546" xlink:href="#a" y1="44.6525" y2="121.26"/><linearGradient id="c" gradientUnits="userSpaceOnUse" x1="167.834" x2="164.916" xlink:href="#a" y1="42.7609" y2="50.0092"/><linearGradient id="d" gradientUnits="userSpaceOnUse" x1="166.329" x2="161.431" xlink:href="#a" y1="67.0276" y2="79.1932"/><linearGradient id="e" gradientUnits="userSpaceOnUse" x1="182.513" x2="155.811" xlink:href="#a" y1="46.7848" y2="113.096"/><linearGradient id="f" gradientUnits="userSpaceOnUse" x1="161.936" x2="136.447" xlink:href="#a" y1="37.2878" y2="100.587"/><linearGradient id="g" gradientUnits="userSpaceOnUse" x1="115.034" x2="75.6983" xlink:href="#a" y1="19.1404" y2="116.829"/><linearGradient id="h" gradientUnits="userSpaceOnUse" x1="125.449" x2="118.738" xlink:href="#a" y1="27.1067" y2="43.7738"/><linearGradient id="i" gradientUnits="userSpaceOnUse" x1="93.8521" x2="82.4611" xlink:href="#a" y1="40.26" y2="68.5489"/><linearGradient id="j" gradientUnits="userSpaceOnUse" x1="121.352" x2="92.5232" xlink:href="#a" y1="23.6702" y2="95.2652"/><linearGradient id="k" gradientUnits="userSpaceOnUse" x1="113.749" x2="80.6682" xlink:href="#a" y1="21.8556" y2="104.009"/><linearGradient id="l" gradientUnits="userSpaceOnUse" x1="137.311" x2="93.6327" xlink:href="#a" y1="31.3571" y2="139.829"/><linearGradient id="m" gradientUnits="userSpaceOnUse" x1="140.566" x2="137.646" xlink:href="#a" y1="52.194" y2="59.4448"/><linearGradient id="n" gradientUnits="userSpaceOnUse" x1="119.658" x2="114.757" xlink:href="#a" y1="83.1853" y2="95.3565"/><linearGradient id="o" gradientUnits="userSpaceOnUse" x1="133.167" x2="91.2256" xlink:href="#a" y1="29.6994" y2="133.857"/><linearGradient id="p" gradientUnits="userSpaceOnUse" x1="154.122" x2="110.597" xlink:href="#a" y1="38.2777" y2="146.368"/><linearGradient id="q" gradientUnits="userSpaceOnUse" x1="201.089" x2="158.103" xlink:href="#a" y1="56.2663" y2="163.019"/><linearGradient id="r" gradientUnits="userSpaceOnUse" x1="186.731" x2="180.022" xlink:href="#a" y1="58.4304" y2="75.0927"/><linearGradient id="s" gradientUnits="userSpaceOnUse" x1="198.645" x2="187.254" xlink:href="#a" y1="93.8147" y2="122.104"/><linearGradient id="t" gradientUnits="userSpaceOnUse" x1="193.811" x2="154.518" xlink:href="#a" y1="54.1083" y2="151.689"/><linearGradient id="u" gradientUnits="userSpaceOnUse" x1="200.994" x2="166.377" xlink:href="#a" y1="56.9948" y2="142.964"/><linearGradient id="v" gradientUnits="userSpaceOnUse" x1="153.244" x2="109.569" xlink:href="#a" y1="107.083" y2="215.549"/><linearGradient id="w" gradientUnits="userSpaceOnUse" x1="132.11" x2="127.211" xlink:href="#a" y1="151.556" y2="163.722"/><linearGradient id="x" gradientUnits="userSpaceOnUse" x1="109.258" x2="106.34" xlink:href="#a" y1="187.452" y2="194.701"/><linearGradient id="y" gradientUnits="userSpaceOnUse" x1="155.664" x2="113.725" xlink:href="#a" y1="113.037" y2="217.189"/><linearGradient id="z" gradientUnits="userSpaceOnUse" x1="136.292" x2="92.769" xlink:href="#a" y1="100.525" y2="208.611"/><linearGradient id="A" gradientUnits="userSpaceOnUse" x1="88.7818" x2="45.7882" xlink:href="#a" y1="83.8503" y2="190.622"/><linearGradient id="B" gradientUnits="userSpaceOnUse" x1="59.6558" x2="48.2667" xlink:href="#a" y1="124.781" y2="153.065"/><linearGradient id="C" gradientUnits="userSpaceOnUse" x1="66.8735" x2="60.1641" xlink:href="#a" y1="171.798" y2="188.461"/><linearGradient id="D" gradientUnits="userSpaceOnUse" x1="92.3682" x2="53.0773" xlink:href="#a" y1="95.2035" y2="192.78"/><linearGradient id="E" gradientUnits="userSpaceOnUse" x1="80.5101" x2="45.895" xlink:href="#a" y1="103.929" y2="189.893"/><linearGradient id="F" gradientUnits="userSpaceOnUse" x1="99.3523" x2="68.5" xlink:href="#a" y1="125.615" y2="202.235"/><linearGradient id="G" gradientUnits="userSpaceOnUse" x1="85.4481" x2="80.5471" xlink:href="#a" y1="167.69" y2="179.861"/><linearGradient id="H" gradientUnits="userSpaceOnUse" x1="81.9872" x2="79.0676" xlink:href="#a" y1="196.884" y2="204.135"/><linearGradient id="I" gradientUnits="userSpaceOnUse" x1="91.0781" x2="64.3782" xlink:href="#a" y1="133.798" y2="200.105"/><linearGradient id="J" gradientUnits="userSpaceOnUse" x1="110.439" x2="84.9545" xlink:href="#a" y1="146.31" y2="209.599"/><linearGradient id="K" gradientUnits="userSpaceOnUse" x1="171.183" x2="131.861" xlink:href="#a" y1="130.095" y2="227.748"/><linearGradient id="L" gradientUnits="userSpaceOnUse" x1="164.423" x2="153.032" xlink:href="#a" y1="178.343" y2="206.631"/><linearGradient id="M" gradientUnits="userSpaceOnUse" x1="128.156" x2="121.447" xlink:href="#a" y1="203.121" y2="219.784"/><linearGradient id="N" gradientUnits="userSpaceOnUse" x1="154.362" x2="125.533" xlink:href="#a" y1="151.626" y2="223.221"/><linearGradient id="O" gradientUnits="userSpaceOnUse" x1="166.207" x2="133.137" xlink:href="#a" y1="142.918" y2="225.045"/><linearGradient id="P" gradientUnits="userSpaceOnUse" x1="158.724" x2="88.2421" xlink:href="#a" y1="35.913" y2="210.951"/><linearGradient id="Q" gradientUnits="userSpaceOnUse" x1="178.394" x2="147.546" xlink:href="#a" y1="44.652" y2="121.259"/><linearGradient id="R" gradientUnits="userSpaceOnUse" x1="167.833" x2="164.915" xlink:href="#a" y1="42.7604" y2="50.0088"/><linearGradient id="S" gradientUnits="userSpaceOnUse" x1="166.329" x2="161.43" xlink:href="#a" y1="67.0271" y2="79.1927"/><linearGradient id="T" gradientUnits="userSpaceOnUse" x1="182.512" x2="155.81" xlink:href="#a" y1="46.7843" y2="113.095"/><linearGradient id="U" gradientUnits="userSpaceOnUse" x1="161.935" x2="136.446" xlink:href="#a" y1="37.2878" y2="100.587"/><linearGradient id="V" gradientUnits="userSpaceOnUse" x1="115.033" x2="75.6973" xlink:href="#a" y1="19.1399" y2="116.828"/><linearGradient id="W" gradientUnits="userSpaceOnUse" x1="125.448" x2="118.737" xlink:href="#a" y1="27.1062" y2="43.7733"/><linearGradient id="X" gradientUnits="userSpaceOnUse" x1="93.8511" x2="82.4601" xlink:href="#a" y1="40.2595" y2="68.5484"/><linearGradient id="Y" gradientUnits="userSpaceOnUse" x1="121.351" x2="92.5222" xlink:href="#a" y1="23.6698" y2="95.2647"/><linearGradient id="Z" gradientUnits="userSpaceOnUse" x1="113.748" x2="80.6672" xlink:href="#a" y1="21.8551" y2="104.009"/><linearGradient id="aa" gradientUnits="userSpaceOnUse" x1="137.31" x2="93.6317" xlink:href="#a" y1="31.3566" y2="139.828"/><linearGradient id="ab" gradientUnits="userSpaceOnUse" x1="140.565" x2="137.645" xlink:href="#a" y1="52.1935" y2="59.4443"/><linearGradient id="ac" gradientUnits="userSpaceOnUse" x1="119.657" x2="114.756" xlink:href="#a" y1="83.1848" y2="95.356"/><linearGradient id="ad" gradientUnits="userSpaceOnUse" x1="133.166" x2="91.2246" xlink:href="#a" y1="29.6989" y2="133.856"/><linearGradient id="ae" gradientUnits="userSpaceOnUse" x1="154.121" x2="110.596" xlink:href="#a" y1="38.2772" y2="146.368"/><linearGradient id="af" gradientUnits="userSpaceOnUse" x1="201.088" x2="158.102" xlink:href="#a" y1="56.2658" y2="163.018"/><linearGradient id="ag" gradientUnits="userSpaceOnUse" x1="186.731" x2="180.021" xlink:href="#a" y1="58.4299" y2="75.0922"/><linearGradient id="ah" gradientUnits="userSpaceOnUse" x1="198.644" x2="187.253" xlink:href="#a" y1="93.8142" y2="122.103"/><linearGradient id="ai" gradientUnits="userSpaceOnUse" x1="193.81" x2="154.517" xlink:href="#a" y1="54.1078" y2="151.689"/><linearGradient id="aj" gradientUnits="userSpaceOnUse" x1="200.993" x2="166.376" xlink:href="#a" y1="56.9943" y2="142.963"/><linearGradient id="ak" gradientUnits="userSpaceOnUse" x1="153.243" x2="109.568" xlink:href="#a" y1="107.082" y2="215.548"/><linearGradient id="al" gradientUnits="userSpaceOnUse" x1="132.109" x2="127.211" xlink:href="#a" y1="151.556" y2="163.722"/><linearGradient id="am" gradientUnits="userSpaceOnUse" x1="109.257" x2="106.339" xlink:href="#a" y1="187.452" y2="194.7"/><linearGradient id="an" gradientUnits="userSpaceOnUse" x1="155.663" x2="113.724" xlink:href="#a" y1="113.036" y2="217.189"/><linearGradient id="ao" gradientUnits="userSpaceOnUse" x1="136.291" x2="92.768" xlink:href="#a" y1="100.525" y2="208.611"/><linearGradient id="ap" gradientUnits="userSpaceOnUse" x1="88.7808" x2="45.7872" xlink:href="#a" y1="83.8498" y2="190.621"/><linearGradient id="aq" gradientUnits="userSpaceOnUse" x1="59.6548" x2="48.2657" xlink:href="#a" y1="124.781" y2="153.065"/><linearGradient id="ar" gradientUnits="userSpaceOnUse" x1="66.8725" x2="60.1631" xlink:href="#a" y1="171.798" y2="188.46"/><linearGradient id="as" gradientUnits="userSpaceOnUse" x1="92.3673" x2="53.0763" xlink:href="#a" y1="95.203" y2="192.779"/><linearGradient id="at" gradientUnits="userSpaceOnUse" x1="80.5091" x2="45.894" xlink:href="#a" y1="103.928" y2="189.893"/><linearGradient id="au" gradientUnits="userSpaceOnUse" x1="99.3513" x2="68.499" xlink:href="#a" y1="125.615" y2="202.234"/><linearGradient id="av" gradientUnits="userSpaceOnUse" x1="85.4471" x2="80.5462" xlink:href="#a" y1="167.69" y2="179.861"/><linearGradient id="aw" gradientUnits="userSpaceOnUse" x1="81.9863" x2="79.0666" xlink:href="#a" y1="196.883" y2="204.134"/><linearGradient id="ax" gradientUnits="userSpaceOnUse" x1="91.0772" x2="64.3772" xlink:href="#a" y1="133.797" y2="200.104"/><linearGradient id="ay" gradientUnits="userSpaceOnUse" x1="110.438" x2="84.9535" xlink:href="#a" y1="146.309" y2="209.598"/><linearGradient id="az" gradientUnits="userSpaceOnUse" x1="171.182" x2="131.86" xlink:href="#a" y1="130.095" y2="227.748"/><linearGradient id="aA" gradientUnits="userSpaceOnUse" x1="164.422" x2="153.031" xlink:href="#a" y1="178.342" y2="206.631"/><linearGradient id="aB" gradientUnits="userSpaceOnUse" x1="128.155" x2="121.446" xlink:href="#a" y1="203.121" y2="219.783"/><linearGradient id="aC" gradientUnits="userSpaceOnUse" x1="154.361" x2="125.532" xlink:href="#a" y1="151.626" y2="223.22"/><linearGradient id="aD" gradientUnits="userSpaceOnUse" x1="166.206" x2="133.136" xlink:href="#a" y1="142.917" y2="225.044"/><linearGradient id="aE" gradientUnits="userSpaceOnUse" x1="158.691" x2="88.2312" xlink:href="#a" y1="35.9768" y2="210.957"/><linearGradient id="aF" gradientUnits="userSpaceOnUse" x1="153.411" x2="109.495" xlink:href="#a" y1="106.985" y2="216.046"/><linearGradient id="aG" gradientUnits="userSpaceOnUse" x1="109.199" x2="106.264" xlink:href="#a" y1="187.813" y2="195.101"/><linearGradient id="aH" gradientUnits="userSpaceOnUse" x1="132.156" x2="127.231" xlink:href="#a" y1="151.712" y2="163.943"/><linearGradient id="aI" gradientUnits="userSpaceOnUse" x1="155.84" x2="113.67" xlink:href="#a" y1="112.979" y2="217.704"/><linearGradient id="aJ" gradientUnits="userSpaceOnUse" x1="136.359" x2="92.5957" xlink:href="#a" y1="100.396" y2="209.079"/><linearGradient id="aK" gradientUnits="userSpaceOnUse" x1="88.5766" x2="45.3581" xlink:href="#a" y1="83.6617" y2="190.992"/><linearGradient id="aL" gradientUnits="userSpaceOnUse" x1="66.5608" x2="59.8165" xlink:href="#a" y1="172.069" y2="188.818"/><linearGradient id="aM" gradientUnits="userSpaceOnUse" x1="59.2898" x2="47.8348" xlink:href="#a" y1="124.791" y2="153.238"/><linearGradient id="aN" gradientUnits="userSpaceOnUse" x1="92.1945" x2="52.6884" xlink:href="#a" y1="95.0495" y2="193.16"/><linearGradient id="aO" gradientUnits="userSpaceOnUse" x1="80.2719" x2="45.4648" xlink:href="#a" y1="103.816" y2="190.257"/><linearGradient id="aP" gradientUnits="userSpaceOnUse" x1="99.2237" x2="68.1988" xlink:href="#a" y1="125.625" y2="202.673"/><linearGradient id="aQ" gradientUnits="userSpaceOnUse" x1="81.7408" x2="78.8075" xlink:href="#a" y1="197.283" y2="204.568"/><linearGradient id="aR" gradientUnits="userSpaceOnUse" x1="85.246" x2="80.3198" xlink:href="#a" y1="167.939" y2="180.173"/><linearGradient id="aS" gradientUnits="userSpaceOnUse" x1="90.8757" x2="64.0284" xlink:href="#a" y1="133.845" y2="200.518"/><linearGradient id="aT" gradientUnits="userSpaceOnUse" x1="110.365" x2="84.7395" xlink:href="#a" y1="146.432" y2="210.072"/><linearGradient id="aU" gradientUnits="userSpaceOnUse" x1="171.441" x2="131.9" xlink:href="#a" y1="130.127" y2="228.324"/><linearGradient id="aV" gradientUnits="userSpaceOnUse" x1="128.171" x2="121.423" xlink:href="#a" y1="203.553" y2="220.311"/><linearGradient id="aW" gradientUnits="userSpaceOnUse" x1="164.63" x2="153.179" xlink:href="#a" y1="178.622" y2="207.06"/><linearGradient id="aX" gradientUnits="userSpaceOnUse" x1="154.525" x2="125.545" xlink:href="#a" y1="151.799" y2="223.768"/><linearGradient id="aY" gradientUnits="userSpaceOnUse" x1="166.439" x2="133.191" xlink:href="#a" y1="143.034" y2="225.604"/><linearGradient id="aZ" gradientUnits="userSpaceOnUse" x1="178.688" x2="147.669" xlink:href="#a" y1="44.2101" y2="121.242"/><linearGradient id="a0" gradientUnits="userSpaceOnUse" x1="166.565" x2="161.638" xlink:href="#a" y1="66.7167" y2="78.9523"/><linearGradient id="a1" gradientUnits="userSpaceOnUse" x1="168.068" x2="165.135" xlink:href="#a" y1="42.338" y2="49.6218"/><linearGradient id="a2" gradientUnits="userSpaceOnUse" x1="182.844" x2="155.996" xlink:href="#a" y1="46.3655" y2="113.042"/><linearGradient id="a3" gradientUnits="userSpaceOnUse" x1="162.148" x2="136.516" xlink:href="#a" y1="36.8043" y2="100.459"/><linearGradient id="a4" gradientUnits="userSpaceOnUse" x1="114.974" x2="75.4224" xlink:href="#a" y1="18.5617" y2="116.785"/><linearGradient id="a5" gradientUnits="userSpaceOnUse" x1="93.6874" x2="82.2324" xlink:href="#a" y1="39.8249" y2="68.2726"/><linearGradient id="a6" gradientUnits="userSpaceOnUse" x1="125.456" x2="118.712" xlink:href="#a" y1="26.584" y2="43.333"/><linearGradient id="a7" gradientUnits="userSpaceOnUse" x1="121.34" x2="92.3508" xlink:href="#a" y1="23.1193" y2="95.1124"/><linearGradient id="a8" gradientUnits="userSpaceOnUse" x1="113.683" x2="80.4163" xlink:href="#a" y1="21.2924" y2="103.908"/><linearGradient id="a9" gradientUnits="userSpaceOnUse" x1="137.394" x2="93.47" xlink:href="#a" y1="30.8537" y2="139.937"/><linearGradient id="ba" gradientUnits="userSpaceOnUse" x1="119.653" x2="114.726" xlink:href="#a" y1="82.9432" y2="95.1771"/><linearGradient id="bb" gradientUnits="userSpaceOnUse" x1="140.64" x2="137.706" xlink:href="#a" y1="51.7985" y2="59.083"/><linearGradient id="bc" gradientUnits="userSpaceOnUse" x1="133.21" x2="91.0381" xlink:href="#a" y1="29.1911" y2="133.921"/><linearGradient id="bd" gradientUnits="userSpaceOnUse" x1="154.286" x2="110.522" xlink:href="#a" y1="37.8123" y2="146.495"/><linearGradient id="be" gradientUnits="userSpaceOnUse" x1="201.513" x2="158.291" xlink:href="#a" y1="55.9003" y2="163.24"/><linearGradient id="bf" gradientUnits="userSpaceOnUse" x1="199.049" x2="187.596" xlink:href="#a" y1="93.6472" y2="122.09"/><linearGradient id="bg" gradientUnits="userSpaceOnUse" x1="187.06" x2="180.314" xlink:href="#a" y1="58.0648" y2="74.8186"/><linearGradient id="bh" gradientUnits="userSpaceOnUse" x1="194.198" x2="154.69" xlink:href="#a" y1="53.7268" y2="151.842"/><linearGradient id="bi" gradientUnits="userSpaceOnUse" x1="201.411" x2="166.603" xlink:href="#a" y1="56.6484" y2="143.089"/><linearGradient id="bj" gradientUnits="userSpaceOnUse" x1="158.838" x2="87.9776" xlink:href="#a" y1="35.4257" y2="211.403"/><linearGradient id="bk" gradientUnits="userSpaceOnUse" x1="109.199" x2="106.264" xlink:href="#a" y1="187.813" y2="195.1"/><linearGradient id="bl" gradientUnits="userSpaceOnUse" x1="136.359" x2="92.5957" xlink:href="#a" y1="100.395" y2="209.078"/><linearGradient id="bm" gradientUnits="userSpaceOnUse" x1="88.5766" x2="45.3581" xlink:href="#a" y1="83.6612" y2="190.991"/><linearGradient id="bn" gradientUnits="userSpaceOnUse" x1="92.1945" x2="52.6884" xlink:href="#a" y1="95.0491" y2="193.16"/><linearGradient id="bo" gradientUnits="userSpaceOnUse" x1="81.7408" x2="78.8075" xlink:href="#a" y1="197.283" y2="204.567"/><linearGradient id="bp" gradientUnits="userSpaceOnUse" x1="171.441" x2="131.9" xlink:href="#a" y1="130.126" y2="228.323"/><linearGradient id="bq" gradientUnits="userSpaceOnUse" x1="154.525" x2="125.545" xlink:href="#a" y1="151.798" y2="223.768"/><linearGradient id="br" gradientUnits="userSpaceOnUse" x1="114.975" x2="75.4234" xlink:href="#a" y1="18.5617" y2="116.785"/><linearGradient id="bs" gradientUnits="userSpaceOnUse" x1="93.6874" x2="82.2324" xlink:href="#a" y1="39.8244" y2="68.2721"/><linearGradient id="bt" gradientUnits="userSpaceOnUse" x1="121.34" x2="92.3508" xlink:href="#a" y1="23.1189" y2="95.1119"/><linearGradient id="bu" gradientUnits="userSpaceOnUse" x1="113.683" x2="80.4163" xlink:href="#a" y1="21.2919" y2="103.908"/><linearGradient id="bv" gradientUnits="userSpaceOnUse" x1="119.653" x2="114.726" xlink:href="#a" y1="82.9427" y2="95.1766"/><linearGradient id="bw" gradientUnits="userSpaceOnUse" x1="154.286" x2="110.522" xlink:href="#a" y1="37.8118" y2="146.495"/><linearGradient id="bx" gradientUnits="userSpaceOnUse" x1="187.06" x2="180.314" xlink:href="#a" y1="58.0643" y2="74.8181"/><linearGradient id="by" gradientUnits="userSpaceOnUse" x1="201.411" x2="166.604" xlink:href="#a" y1="56.6479" y2="143.089"/><linearGradient id="bz" gradientUnits="userSpaceOnUse" x1="158.851" x2="88.007" xlink:href="#a" y1="35.4798" y2="211.415"/><path d="m206.126 144.848-.209-.257c-16.337-20.566-66.634-46.6883-112.1633-58.2683l-.2186-.0545.0833-.207c12.6486-31.2456 30.2986-52.0683 46.0566-54.3393 6.82-.9857 12.975 1.6942 17.811 7.7317 21.171 5.4196 37.996 18.6733 47.462 37.3899 5.02 9.9809 7.749 20.9562 7.989 32.1255.324 11.88-1.92 23.845-6.677 35.603zm-73.538-46.1049c32.324 13.0159 61.535 30.5909 73.426 45.3439 4.67-11.598 6.848-23.427 6.528-35.137-.244-11.1136-2.961-22.0332-7.953-31.9657-9.412-18.5999-26.194-31.8081-47.27-37.1562l-.058-.0233-.039-.055c-4.832-6.0635-10.701-8.6338-17.489-7.6577-15.586 2.2617-33.074 22.9036-45.6702 53.9074 13.1072 3.3995 25.9772 7.6565 38.5252 12.7436z" fill="url(#b)"/><path d="m194.252 61.8219c-8.221-10.3484-33.581-23.5089-56.517-29.3537l.096-.3757c23.01 5.8528 48.456 19.0809 56.725 29.4882z" fill="url(#c)"/><path d="m211.731 99.4474c-14.094-17.7153-57.517-40.2918-96.812-50.2904l.095-.3757c39.362 10.0143 82.889 32.6382 97.021 50.4249z" fill="url(#d)"/><path d="m180.01 122.84-.361-.145c11.756-29.0431 12.578-55.4557 2.197-70.6634-5.537-8.1044-13.989-12.347-24.472-12.1986l-.025-.3962c10.613-.124 19.186 4.1507 24.8 12.3699 10.486 15.3227 9.666 41.8703-2.139 71.0333z" fill="url(#e)"/><path d="m139.734 101.911-.361-.146c16.55-40.8921 23.149-63.4904 21.09-64.644-.2-.1141-.902-.0946-2.935 2.634l-.314-.233c1.678-2.2504 2.774-3.1239 3.443-2.7426 3.059 1.7244-8.301 33.9531-20.923 65.1316z" fill="url(#f)"/><path d="m40.87 102.804-.2095-.257c-5.1114-6.4393-6.4934-11.8858-3.998-15.7485 2.3473-3.6203 7.9746-5.7015 16.1359-6.2254 17.727-24.2101 45.4622-40.2892 74.0116-43.2449 4.335-3.0827 8.667-5.0031 12.885-5.5987 6.838-.9894 13.008 1.7078 17.847 7.7964l.375.4586-.564-.1429c-9.922-2.4855-20.205-3.2037-30.376-2.1217-11.845 8.4624-23.729 25.693-32.9585 48.5021l-.0639.1589-.1541-.0621c-16.5485-4.213-30.5949-5.9974-40.734-5.3971-4.8814 6.6682-8.9252 13.9109-12.0406 21.5653zm11.6451-21.847c-7.8548.5409-13.2613 2.5601-15.5255 6.0571-2.3676 3.6569-1.0621 8.8487 3.7723 15.0309 3.0641-7.4724 7.0098-14.5518 11.7532-21.088zm73.6679-43.1705c-28.106 3.1061-55.3703 18.9607-72.8863 42.7579 10.1352-.5627 24.0602 1.2176 40.367 5.3501 9.1273-22.4306 20.8143-39.4775 32.5193-48.108zm22.586-4.6801c-2.872-1.1354-5.996-1.4775-9.045-.9903-3.964.5749-8.053 2.3523-12.156 5.1763 9.802-.9826 19.699-.3019 29.274 2.0131-2.135-2.714-4.918-4.8483-8.092-6.2068z" fill="url(#g)"/><path d="m110.905 40.6195c-2.595-3.2827-3.308-6.0706-2.022-8.0539 2.689-4.1486 13.779-4.3322 28.948-.4732l-.095.3757c-15.007-3.8047-25.917-3.7219-28.524.3083-1.186 1.8333-.493 4.462 1.979 7.5893z" fill="url(#h)"/><path d="m69.0711 63.1571c-4.4263-5.57-5.6182-10.2797-3.4632-13.6306 4.5631-7.0528 23.4841-7.3283 49.3971-.749l-.096.3757c-25.7302-6.5452-44.4891-6.3387-48.9865.5784-2.063 3.192-.8813 7.7465 3.4354 13.1717z" fill="url(#i)"/><path d="m56.3269 80.6901-.3611-.1454c9.7362-24.0541 27.3749-41.7089 48.3842-48.4339 17.823-5.6914 36.693-3.0893 53.123 7.3647l-.206.3311c-16.332-10.3921-35.075-13.0045-52.797-7.3283-20.8959 6.6809-38.4496 24.2637-48.1431 48.2118z" fill="url(#j)"/><path d="m37.3106 86.5505-.3611-.1454c8.8241-21.8029 25.7944-38.7981 47.7983-47.8415 23.2062-9.5553 49.0302-9.2164 72.7112.9179l-.146.3611c-23.627-10.1573-49.334-10.4381-72.433-.9404-21.8853 9.0128-38.7783 25.9273-47.5694 47.6483z" fill="url(#k)"/><path d="m114.296 148.148c-32.516-13.093-61.8678-30.792-73.6349-45.601l-.0701-.09.0426-.106c18.7435-46.2977 71.1334-74.5154 116.7814-62.8985l.063.0252.041.0502c16.386 20.6244 14.475 75.0431-4.257 121.3121l-.064.159-.154-.062c-13.184-3.404-26.128-7.676-38.748-12.789zm-73.2587-45.757c16.3617 20.503 66.5157 46.55 111.9317 58.135 18.61-46.077 20.53-100.1732 4.289-120.7115-45.419-11.5191-97.5192 16.5355-116.2207 62.5765z" fill="url(#l)"/><path d="m148.091 63.65c-16.417-6.6105-31.226-15.5448-37.167-23.0227l.306-.246c8.22 10.3484 33.572 23.5166 56.516 29.3538l-.095.3756c-6.656-1.7182-13.19-3.8765-19.56-6.4607z" fill="url(#m)"/><path d="m132.642 102.558c-28.077-11.3061-53.4212-26.5917-63.5903-39.3809l.3061-.246c14.0859 17.7346 57.5142 40.2969 96.8122 50.2909l-.098.38c-11.374-2.942-22.542-6.631-33.43-11.044z" fill="url(#n)"/><path d="m67.2648 124.209-.3611-.146c18.7097-46.2834 59.3003-84.2429 90.4453-84.6261l.006.3884c-31 .3855-71.4376 38.2277-90.0902 84.3837z" fill="url(#o)"/><path d="m107.516 145.128-.361-.146c18.708-46.2226 41.165-93.5316 50.058-105.4598l.314.233c-8.878 11.906-31.313 59.1737-50.011 105.3728z" fill="url(#p)"/><path d="m152.821 160.892.083-.207c18.686-46.153 20.626-100.4092 4.315-120.9254l-.375-.4587.557.1459c21.182 5.3908 38.049 18.6782 47.524 37.3592 5.02 9.981 7.749 20.9562 7.989 32.126.325 11.835-1.904 23.778-6.634 35.497 5.054 6.399 6.43 11.821 3.928 15.658-5.277 8.159-27.189 8.483-57.183.854zm5.052-120.9083c15.979 20.9251 13.99 74.7583-4.528 120.6493 29.713 7.534 51.351 7.25 56.54-.732 2.401-3.71 1.027-8.997-3.975-15.291l-.07-.09.043-.106c4.716-11.713 6.974-23.627 6.652-35.445-.244-11.1132-2.961-22.0328-7.953-31.9653-9.319-18.456-25.898-31.5828-46.709-37.02z" fill="url(#q)"/><path d="m167.631 70.1031.095-.3757c15.007 3.8047 25.916 3.7219 28.524-.3083 1.184-1.8284.496-4.4553-1.98-7.5893l.305-.2412c2.594 3.2827 3.309 6.0657 2.021 8.0539-2.722 4.135-13.796 4.3196-28.965.4606z" fill="url(#r)"/><path d="m166.097 113.584.097-.38c25.74 6.549 44.505 6.328 48.977-.583 2.063-3.192.879-7.741-3.435-13.1714l.304-.2412c4.426 5.5696 5.618 10.2796 3.463 13.6306-4.578 7.047-23.522 7.324-49.406.745z" fill="url(#s)"/><path d="m190.919 166.347-.361-.146c18.676-46.129 3.741-102.8271-33.291-126.3941l.206-.331c37.184 23.6617 52.188 80.5781 33.446 126.8711z" fill="url(#t)"/><path d="m209.929 160.501-.361-.145c18.668-46.111-4.782-100.1837-52.272-120.5374l.145-.3611c47.691 20.44 71.236 74.7355 52.488 121.0435z" fill="url(#u)"/><path d="m89.4055 207.418-.0413-.05c-16.3807-20.622-14.4746-75.043 4.2553-121.307l.064-.1588.1588.0639c45.5957 11.5957 96.0067 37.7979 112.3737 58.3979l.071.09-.043.105c-18.742 46.294-71.131 74.511-116.7798 62.894zm4.5111-121.0527c-18.6032 46.0747-20.5288 100.1687-4.2877 120.7067 45.4211 11.514 97.5181-16.547 116.2191-62.571-16.376-20.509-66.526-46.527-111.9314-58.1357z" fill="url(#v)"/><path d="m177.509 183.975c-14.088-17.73-57.517-40.292-96.8118-50.29l.0953-.376c39.3665 10.016 82.8885 32.638 97.0255 50.427z" fill="url(#w)"/><path d="m135.675 206.513c-8.22-10.348-33.572-23.516-56.5158-29.353l.0953-.376c23.0105 5.853 48.4605 19.083 56.7255 29.488z" fill="url(#x)"/><path d="m89.5189 207.442-.0058-.388c31.0239-.376 71.4569-38.22 90.1359-84.359l.361.145c-18.734 46.274-59.327 84.227-90.4911 84.602z" fill="url(#y)"/><path d="m89.6734 207.364-.3098-.231c8.8736-11.908 31.3084-59.176 50.0094-105.368l.361.146c-18.712 46.221-41.1676 93.525-50.0606 105.453z" fill="url(#z)"/><path d="m79.3469 204.135c-16.4312-6.616-29.5004-18.442-37.3923-34.08-5.0196-9.981-7.7488-20.956-7.9889-32.125-.3274-11.831 1.907-23.772 6.6323-35.493-5.0547-6.3989-6.43-11.8202-3.9279-15.6579 5.2818-8.1566 27.1953-8.486 57.187-.8516l.2139.0526-.0834.207c-18.6833 46.1489-20.6151 100.3969-4.3123 120.9209l.3749.458-.5568-.145c-3.4519-.867-6.8417-1.965-10.1465-3.286zm14.1944-117.8815c-29.7135-7.5335-51.3513-7.2498-56.5402.7316-2.4006 3.7107-1.0268 8.9972 3.975 15.2909l.0702.09-.0427.106c-4.7165 11.713-6.974 23.628-6.6456 35.442.2395 11.112 2.9529 22.031 7.943 31.962 9.332 18.439 25.8967 31.56 46.7234 37.014-15.9849-20.91-14.005-74.736 4.5169-120.6365z" fill="url(#A)"/><path d="m34.8766 147.674c-4.4234-5.564-5.6182-10.28-3.4652-13.626 4.5632-7.053 23.489-7.326 49.3969-.749l-.0953.376c-25.7402-6.549-44.5069-6.324-48.9725.584-2.0678 3.19-.8813 7.746 3.4306 13.17z" fill="url(#B)"/><path d="m52.3347 185.308c-2.5945-3.283-3.309-6.066-2.0285-8.051 2.6908-4.153 13.7791-4.332 28.9484-.473l-.0953.375c-15.0065-3.804-25.9261-3.697-28.5239.309-1.1858 1.833-.4912 4.457 1.9794 7.589z" fill="url(#C)"/><path d="m89.4133 207.411c-37.1763-23.653-52.1879-80.578-33.4483-126.866l.3611.1454c-18.6737 46.1246-3.7387 102.8226 33.298 126.3916z" fill="url(#D)"/><path d="m89.4404 207.427c-47.6857-20.438-71.2306-74.734-52.4852-121.0363l.3611.1454c-18.6679 46.1099 4.7841 100.1789 52.2791 120.5339z" fill="url(#E)"/><path d="m98.0141 214.119c-3.4033-1.447-6.3705-3.756-8.6092-6.7-3.4221-.869-6.7822-1.966-10.0579-3.284-16.4312-6.616-29.5004-18.441-37.3923-34.079-5.0196-9.981-7.7488-20.956-7.9889-32.126-.3244-11.88 1.9197-23.844 6.6749-35.598l.1241-.308.2047.256c16.3365 20.565 66.6395 46.69 112.1685 58.27l.213.052-.083.207c-12.649 31.246-30.292 52.066-46.05 54.337-3.104.487-6.283.132-9.2039-1.027zm-8.3858-7.047.0394.055c4.8318 6.064 10.7013 8.634 17.4893 7.658 15.587-2.25 33.074-22.892 45.664-53.893-45.345-11.579-95.3938-37.556-111.951-58.087-4.6701 11.597-6.8464 23.422-6.5216 35.134.2395 11.112 2.9529 22.03 7.943 31.962 9.4126 18.599 26.1987 31.81 47.2753 37.158z" fill="url(#F)"/><path d="m98.4301 187.062c-28.077-11.306-53.4213-26.592-63.5883-39.386l.3041-.241c14.0859 17.735 57.5146 40.297 96.8161 50.292l-.097.381c-11.376-2.943-22.545-6.633-33.4349-11.046z" fill="url(#G)"/><path d="m89.5148 208.341c-16.4168-6.611-31.2264-15.545-37.1652-23.028l.3041-.241c8.2201 10.349 33.5722 23.517 56.5113 29.352l-.095.376c-6.654-1.718-13.187-3.876-19.5552-6.459z" fill="url(#H)"/><path d="m77.2253 205.278c-5.0991-2.069-9.4573-5.626-12.5072-10.206-10.4524-15.309-9.6483-41.858 2.1611-71.019l.3851.155c-11.7609 29.041-12.5781 55.456-2.1998 70.657 5.5374 8.104 13.9991 12.323 24.4725 12.198l.0058.389c-4.2094.099-8.3966-.639-12.3175-2.174z" fill="url(#I)"/><path d="m86.3106 210.145-.077-.031c-3.0646-1.727 8.3008-33.954 20.9204-65.127l.361.145c-16.5547 40.891-23.1467 63.486-21.0946 64.643.2118.085.9037.09 2.9416-2.637l.3098.231c-1.6135 2.159-2.6824 3.049-3.3612 2.776z" fill="url(#J)"/><path d="m98.0144 214.119c-3.1871-1.283-6.1021-3.548-8.6506-6.75l-.3748-.459.5587.141c9.9242 2.484 20.2083 3.202 30.3813 2.124 11.84-8.465 23.724-25.695 32.956-48.498l.06-.149.159.064c16.544 4.211 30.595 5.997 40.729 5.395 4.882-6.668 8.925-13.911 12.041-21.565l.124-.308.209.258c5.133 6.414 6.501 11.854 4.015 15.721-2.343 3.622-7.97 5.703-16.129 6.222-17.707 24.202-45.462 40.29-74.017 43.243-4.335 3.083-8.667 5.004-12.86 5.609-3.106.479-6.283.118-9.2016-1.048zm-7.9937-6.548c4.7448 5.738 10.5103 8.149 17.1213 7.208 3.964-.575 8.058-2.35 12.146-5.152-9.797.967-19.6866.274-29.2529-2.05zm63.1663-46.588c-9.108 22.439-20.788 39.483-32.494 48.113 28.107-3.106 55.364-18.958 72.88-42.755-10.121.569-24.046-1.211-40.372-5.352zm52.934-16.132c-3.066 7.471-7.012 14.548-11.757 21.082 7.855-.541 13.267-2.559 15.526-6.058 2.37-3.65 1.067-8.846-3.765-15.022z" fill="url(#K)"/><path d="m131.875 198.112.097-.381c25.736 6.548 44.5 6.327 48.973-.584 2.063-3.192.879-7.741-3.436-13.172l.309-.239c4.422 5.568 5.618 10.28 3.463 13.631-4.577 7.047-23.502 7.332-49.406.745z" fill="url(#L)"/><path d="m109.056 214.794.095-.376c15.011 3.807 25.916 3.722 28.524-.308 1.184-1.828.496-4.455-1.98-7.589l.304-.241c2.595 3.282 3.309 6.065 2.022 8.053-2.703 4.143-13.796 4.32-28.965.461z" fill="url(#M)"/><path d="m100.583 213.173c-3.8915-1.574-7.6303-3.503-11.1687-5.762l.2109-.329c16.3298 10.397 35.0748 13.005 52.7968 7.328 20.9-6.69 38.437-24.246 48.136-48.209l.361.146c-9.736 24.054-27.37 41.711-48.381 48.429-13.737 4.43-28.596 3.862-41.955-1.603z" fill="url(#N)"/><path d="m91.4885 208.274c-.6836-.275-1.3672-.55-2.0557-.828l.1454-.361c23.5908 10.109 49.3038 10.432 72.4148.917 21.881-9.015 38.774-25.93 47.557-47.631l.361.145c-8.824 21.803-25.792 38.793-47.772 47.846-22.519 9.267-47.532 9.221-70.6505-.088z" fill="url(#O)"/><path d="m88.3078 210.977c-1.9738-.795-3.6278-1.55-4.4933-1.944-1.2381-.565-4.0472-1.954-5.901-2.991s-1.8249-1.026-4.3887-2.579c-.4822-.289-1.0403-.653-1.584-1.012l-.7131-.466c-3.2426-2.16-6.3504-4.516-9.3061-7.054-1.7082-1.511-3.6854-3.353-5.0538-4.693-1.149-1.134-2.621-2.689-3.6524-3.865-1.5937-1.822-3.5561-4.23-4.8783-5.948-1.3222-1.719-2.7669-3.772-3.6917-5.241-2.6789-4.094-5.0407-8.388-7.0646-12.843-.9589-2.12-1.992-4.64-2.6375-6.427-.7709-2.129-1.7978-5.262-2.4639-7.706-1.3313-4.872-2.2729-9.842-2.8156-14.864-.4163-4.847-.5563-9.713-.4195-14.576.1026-2.708.3517-5.41.7463-8.091.2049-1.524.5531-3.347.8858-5.104.1522-.795.2975-1.559.4244-2.263.5361-2.708 1.2469-5.3785 2.1281-7.9945l.131-.3949c.8952-2.8829 1.9444-5.7157 3.143-8.4863.2605-.5497.5376-1.1543.8223-1.7781.7836-1.7099 1.6767-3.6498 2.4743-5.1581 1.2652-2.4698 2.6644-4.8687 4.1915-7.1858.3094-.4349.6498-.9468.9998-1.4548 1.057-1.555 2.2561-3.3102 3.2865-4.6464 1.5891-2.0569 3.7181-4.6069 5.3075-6.3447 1.5894-1.7379 3.6122-3.788 5.1391-5.2041 1.1349-1.0536 4.0302-3.6867 6.4091-5.4815 3.6599-2.7672 8.6585-5.9688 11.825-7.8717 1.6888-.9984 3.9523-2.09 5.9436-3.0337.6753-.2876 1.288-.6004 1.8815-.9209 2.0718-.9718 4.1953-1.8295 6.3609-2.5692 2.8472-.9851 6.6672-2.0933 9.289-2.839 2.438-.661 4.912-1.178 7.41-1.5481 3.191-.4775 7.533-.9503 10.796-1.1751 1.929-.1353 4.805-.1634 7.695-.0739 2.24.063 5.133.2711 7.19.5119 3.368.3638 6.714.9081 10.024 1.6306 1.762.3626 5.212 1.2427 7.709 2.0301 1.771.562 3.152 1.023 4.106 1.3789 2.655.991 2.917 1.0909 5.69 2.2914.371.1493 3.703 1.5862 7.754 3.8217 2.382 1.3114 4.315 2.5263 4.394 2.5805.727.4604 1.751 1.1133 2.514 1.622.559.3761 1.24.8519 1.861 1.3091l.761.5299c.817.5696 1.928 1.4087 3.301 2.4874.754.6002 1.787 1.4526 3.147 2.6045 1.767 1.4892 3.754 3.3355 5.061 4.7012.969 1.0113 2.029 2.1597 3.066 3.3214 1.434 1.5061 2.801 3.0767 4.101 4.7116l.08.1052c2.023 2.5543 3.913 5.2109 5.663 7.9592 1.185 1.9765 2.971 4.9615 4.169 7.2233.448.8462 1.987 3.793 2.935 6.2171l.181.4534c.881 2.2177 1.98 4.9765 2.721 7.138.636 1.8789 1.433 4.611 1.985 6.7974.552 2.186 1.194 5.371 1.631 7.857.445 2.675.783 5.351.888 7.172.13 2.207.333 5.539.341 8.004.005 1.865-.106 4.612-.296 7.35-.335 4.48-1.005 8.929-2.002 13.31-1.187 4.957-2.716 9.826-4.576 14.573-.931 2.31-2.343 5.373-3.485 7.626-.789 1.557-1.895 3.456-2.872 5.133-.296.513-.585 1.006-.846 1.461-1.424 2.345-2.968 4.616-4.625 6.804-1.242 1.693-3.076 3.942-4.656 5.74-1.58 1.797-3.753 4.083-5.659 5.912-1.08 1.042-2.449 2.219-3.772 3.365-.584.504-1.147.987-1.652 1.433-2.144 1.779-4.383 3.44-6.708 4.975-1.224.845-2.751 1.774-4.227 2.674-.63.384-1.231.751-1.778 1.096-2.512 1.472-5.103 2.805-7.762 3.991-2.107.982-4.601 2.02-6.347 2.648-2.551.914-6.149 2.056-9.169 2.915-2.074.592-4.809 1.147-6.254 1.427-1.697.323-3.933.654-5.731.909l-.546.077c-3.582.489-7.194.727-10.81.71-3.081-.032-5.4-.11-7.088-.224-2.117-.148-4.98-.456-7.137-.77-2.235-.341-4.84-.791-6.621-1.19l-.24-.057c-.889-.196-1.99-.449-2.83-.67-1.5175-.398-3.4534-.954-4.6467-1.311-.0963-.039-2.584-.767-6.0475-2.1zm70.0642-174.7086c-.818-.3295-1.545-.6223-2.991-1.1431-.949-.354-2.325-.813-4.086-1.3712-2.483-.7815-5.922-1.6626-7.674-2.0213-3.295-.7146-6.625-1.2562-9.977-1.6227-2.042-.263-4.928-.446-7.162-.5119-2.876-.0837-5.734-.071-7.651.075-3.258.2267-7.581.6957-10.766 1.1703-2.478.3587-4.933.8647-7.352 1.5154-2.6218.7457-6.4302 1.853-9.2707 2.8353-2.1505.7346-4.2589 1.5872-6.3156 2.5538l-1.8862.919c-1.9827.936-4.2249 2.0026-5.908 3.0145-3.1597 1.9-8.1506 5.1103-11.7922 7.8458-2.3653 1.789-5.252 4.4144-6.3781 5.4604-1.5124 1.3939-3.5159 3.4238-5.1121 5.1645-1.5961 1.7408-3.7058 4.2706-5.2862 6.3197-1.0217 1.3286-2.2208 3.0837-3.2739 4.6291-.3452.51-.6847 1.0056-.9999 1.4549-1.5178 2.3064-2.9102 4.6929-4.1711 7.1492-.7831 1.4862-1.6723 3.4165-2.454 5.1215-.2867.6286-.5637 1.2332-.8242 1.7829-1.1919 2.7564-2.2368 5.5741-3.1304 8.4411l-.131.3948c-.8722 2.6009-1.5766 5.2546-2.1087 7.9466-.1249.699-.2722 1.468-.4244 2.262-.3375 1.756-.6819 3.57-.8829 5.083-.3931 2.666-.6412 5.35-.7432 8.043-.0743 4.2-.0619 10.13.4176 14.525.5361 5.004 1.4755 9.957 2.809 14.81.6402 2.412 1.6854 5.541 2.4534 7.663.6398 1.774 1.67 4.287 2.6212 6.398 2.0209 4.436 4.3742 8.713 7.0397 12.794.9238 1.457 2.3637 3.509 3.6753 5.212s3.2914 4.123 4.8822 5.938c1.0266 1.174 2.486 2.719 3.6322 3.846 1.3559 1.329 3.335 3.167 5.0384 4.675 2.939 2.53 6.0291 4.878 9.2532 7.033l.7178.468c.5409.352 1.099.717 1.5715 1.002 2.5398 1.543 2.5398 1.543 4.3744 2.573 1.8345 1.029 4.6204 2.42 5.8643 2.971 1.0321.466 3.1597 1.434 5.6094 2.382 3.4491 1.327 5.9165 2.063 6.0167 2.092 1.1904.351 3.1195.91 4.6375 1.308.83.217 1.933.465 2.815.664l.24.057c1.772.395 4.359.86 6.595 1.185 2.144.303 4.999.619 7.106.763 1.677.115 3.991.191 7.065.226 3.596.014 7.189-.222 10.752-.706l.541-.078c1.784-.261 4.028-.583 5.718-.904 1.155-.228 4.08-.808 6.215-1.414 3.014-.856 6.602-2.002 9.144-2.909 1.74-.625 4.22-1.657 6.314-2.633 2.639-1.182 5.211-2.511 7.701-3.981.546-.34 1.154-.711 1.782-1.09 1.481-.898 2.978-1.839 4.208-2.67 2.297-1.533 4.512-3.187 6.634-4.954.504-.447 1.069-.935 1.653-1.438 1.323-1.146 2.681-2.311 3.753-3.346 1.913-1.848 4.124-4.157 5.642-5.885 1.518-1.727 3.406-4.067 4.632-5.722 1.649-2.174 3.185-4.431 4.603-6.762.261-.455.551-.953.846-1.461.975-1.672 2.076-3.573 2.861-5.12 1.139-2.244 2.531-5.298 3.474-7.598 1.854-4.738 3.375-9.599 4.554-14.548 1.002-4.355 1.676-8.78 2.018-13.236.184-2.723.301-5.474.291-7.324-.008-2.454-.207-5.779-.343-7.971-.109-1.801-.439-4.468-.888-7.133-.409-2.47-1.062-5.614-1.616-7.823-.554-2.2097-1.345-4.9003-1.98-6.7676-.729-2.1509-1.825-4.903-2.703-7.1139l-.181-.4534c-.95-2.3913-2.48-5.3179-2.923-6.1622-1.198-2.2502-2.979-5.2333-4.161-7.203-1.746-2.7359-3.629-5.382-5.641-7.9282l-.075-.0918c-1.138-1.3422-2.581-3.0253-4.076-4.6903-9.365-9.8527-21.499-16.8592-35.419-20.4166l-.039-.0155.096-.3756c10.922 2.7046 21.095 7.8318 29.766 15.0017-.815-.7536-1.678-1.515-2.473-2.1934-1.36-1.1519-2.389-2.0023-3.14-2.5958-1.368-1.0768-2.472-1.9072-3.284-2.4748l-.76-.5299c-.624-.436-1.308-.9185-1.857-1.3072-.756-.5116-1.77-1.1606-2.499-1.6162-.091-.0368-2.003-1.2652-4.374-2.5727-4.034-2.223-7.354-3.6492-7.723-3.8033-1.296-.5051-2.028-.7998-2.726-1.0809z" fill="url(#P)"/><path d="m206.126 144.848-.209-.258c-16.337-20.565-66.634-46.6878-112.1633-58.2678l-.2186-.0545.0833-.207c12.6486-31.2456 30.2986-52.0683 46.0566-54.3393 6.82-.9857 12.975 1.6942 17.811 7.7317 21.171 5.4196 37.996 18.6733 47.462 37.3899 5.02 9.9809 7.749 20.9562 7.989 32.126.324 11.88-1.92 23.844-6.677 35.603zm-73.538-46.1054c32.324 13.0154 61.535 30.5914 73.426 45.3434 4.67-11.597 6.848-23.426 6.528-35.137-.244-11.1131-2.961-22.0327-7.953-31.9652-9.412-18.5999-26.194-31.8081-47.27-37.1562l-.058-.0233-.039-.055c-4.832-6.0635-10.701-8.6338-17.489-7.6577-15.586 2.2617-33.074 22.9036-45.6702 53.9075 13.1072 3.3994 25.9772 7.6564 38.5252 12.7435z" fill="url(#Q)"/><path d="m194.251 61.8214c-8.221-10.3483-33.581-23.5089-56.517-29.3537l.096-.3757c23.01 5.8528 48.456 19.0809 56.725 29.4882z" fill="url(#R)"/><path d="m211.73 99.4469c-14.094-17.7153-57.517-40.2917-96.812-50.2904l.095-.3757c39.362 10.0143 82.889 32.6382 97.021 50.4249z" fill="url(#S)"/><path d="m180.009 122.839-.361-.145c11.756-29.0426 12.578-55.4552 2.197-70.6629-5.537-8.1044-13.989-12.347-24.472-12.1986l-.025-.3962c10.613-.124 19.186 4.1507 24.8 12.37 10.486 15.3226 9.666 41.8702-2.139 71.0327z" fill="url(#T)"/><path d="m139.733 101.911-.361-.146c16.55-40.8921 23.149-63.4904 21.09-64.644-.2-.1141-.902-.0946-2.935 2.634l-.314-.233c1.678-2.2504 2.774-3.1239 3.443-2.7426 3.059 1.7244-8.301 33.9531-20.923 65.1316z" fill="url(#U)"/><path d="m40.869 102.804-.2095-.258c-5.1113-6.4388-6.4934-11.8852-3.998-15.748 2.3473-3.6202 7.9746-5.7015 16.1359-6.2254 17.727-24.2101 45.4622-40.2891 74.0116-43.2449 4.335-3.0827 8.667-5.0031 12.885-5.5986 6.838-.9895 13.008 1.7078 17.847 7.7963l.375.4586-.564-.1429c-9.922-2.4855-20.205-3.2037-30.376-2.1217-11.845 8.4625-23.729 25.693-32.9584 48.5021l-.064.1589-.1541-.0621c-16.5485-4.213-30.5949-5.9974-40.734-5.3971-4.8813 6.6683-8.9251 13.9109-12.0406 21.5648zm11.6452-21.8475c-7.8549.5409-13.2614 2.5601-15.5255 6.0572-2.3677 3.6568-1.0622 8.8486 3.7722 15.0303 3.0641-7.4719 7.0098-14.5513 11.7533-21.0875zm73.6678-43.1705c-28.1059 3.1061-55.3703 18.9608-72.8862 42.7579 10.1351-.5627 24.0601 1.2176 40.3669 5.3501 9.1273-22.4306 20.8143-39.4775 32.5193-48.108zm22.586-4.6801c-2.872-1.1354-5.996-1.4775-9.045-.9903-3.964.5749-8.053 2.3523-12.156 5.1763 9.802-.9825 19.699-.3019 29.274 2.0131-2.135-2.714-4.918-4.8482-8.092-6.2068z" fill="url(#V)"/><path d="m110.904 40.619c-2.595-3.2827-3.308-6.0706-2.022-8.0539 2.689-4.1486 13.779-4.3322 28.948-.4732l-.095.3757c-15.007-3.8047-25.917-3.7219-28.524.3083-1.186 1.8333-.493 4.462 1.979 7.5893z" fill="url(#W)"/><path d="m69.0701 63.1566c-4.4262-5.57-5.6182-10.2797-3.4632-13.6306 4.5632-7.0528 23.4842-7.3283 49.3971-.7489l-.096.3756c-25.7302-6.5452-44.4891-6.3387-48.9864.5784-2.0631 3.192-.8814 7.7465 3.4353 13.1718z" fill="url(#X)"/><path d="m56.3259 80.6896-.3611-.1454c9.7362-24.054 27.3749-41.7089 48.3842-48.4339 17.823-5.6914 36.693-3.0892 53.123 7.3648l-.206.331c-16.332-10.3921-35.075-13.0045-52.797-7.3283-20.8959 6.6809-38.4496 24.2637-48.1431 48.2118z" fill="url(#Y)"/><path d="m37.3096 86.55-.3611-.1454c8.8241-21.8028 25.7944-38.7981 47.7984-47.8415 23.2061-9.5552 49.0301-9.2164 72.7111.9179l-.146.3611c-23.627-10.1573-49.334-10.4381-72.4329-.9404-21.8854 9.0128-38.7783 25.9273-47.5695 47.6483z" fill="url(#Z)"/><path d="m114.295 148.148c-32.516-13.093-61.8678-30.793-73.6349-45.602l-.0701-.089.0426-.106c18.7435-46.2982 71.1334-74.5159 116.7814-62.899l.063.0252.041.0503c16.386 20.6243 14.475 75.0425-4.257 121.3115l-.064.159-.154-.062c-13.184-3.403-26.128-7.676-38.748-12.788zm-73.2587-45.758c16.3617 20.503 66.5157 46.551 111.9317 58.136 18.61-46.078 20.53-100.1737 4.289-120.712-45.419-11.519-97.5192 16.5355-116.2207 62.576z" fill="url(#aa)"/><path d="m148.09 63.6496c-16.417-6.6106-31.226-15.5449-37.167-23.0228l.306-.246c8.22 10.3484 33.572 23.5166 56.516 29.3538l-.095.3756c-6.656-1.7182-13.19-3.8765-19.56-6.4606z" fill="url(#ab)"/><path d="m132.641 102.557c-28.077-11.3056-53.4212-26.5911-63.5902-39.3804l.306-.246c14.0859 17.7346 57.5142 40.2964 96.8122 50.2904l-.098.38c-11.374-2.941-22.542-6.631-33.43-11.044z" fill="url(#ac)"/><path d="m67.2638 124.208-.361-.145c18.7097-46.2839 59.3002-84.2433 90.4452-84.6266l.006.3884c-31 .3855-71.4376 38.2277-90.0902 84.3832z" fill="url(#ad)"/><path d="m107.515 145.127-.361-.145c18.708-46.2231 41.165-93.5321 50.058-105.4602l.314.2329c-8.878 11.906-31.313 59.1737-50.011 105.3723z" fill="url(#ae)"/><path d="m152.82 160.892.083-.207c18.686-46.154 20.626-100.4097 4.315-120.9259l-.375-.4586.557.1458c21.182 5.3908 38.049 18.6782 47.524 37.3592 5.02 9.981 7.749 20.9562 7.989 32.1255.325 11.836-1.904 23.778-6.634 35.497 5.054 6.4 6.43 11.821 3.928 15.659-5.277 8.158-27.189 8.483-57.183.853zm5.052-120.9088c15.979 20.9251 13.99 74.7588-4.528 120.6498 29.713 7.533 51.351 7.249 56.54-.732 2.401-3.711 1.027-8.997-3.975-15.291l-.07-.09.043-.106c4.716-11.713 6.974-23.628 6.652-35.445-.244-11.1136-2.961-22.0333-7.953-31.9658-9.319-18.456-25.898-31.5828-46.709-37.02z" fill="url(#af)"/><path d="m167.63 70.1026.095-.3757c15.007 3.8047 25.916 3.7219 28.524-.3083 1.184-1.8284.496-4.4553-1.979-7.5893l.304-.2412c2.594 3.2827 3.309 6.0657 2.021 8.0539-2.722 4.135-13.796 4.3196-28.965.4606z" fill="url(#ag)"/><path d="m166.096 113.584.097-.381c25.74 6.549 44.505 6.328 48.977-.582 2.063-3.192.879-7.742-3.435-13.1719l.304-.2412c4.426 5.5701 5.618 10.2801 3.463 13.6301-4.578 7.048-23.522 7.325-49.406.746z" fill="url(#ah)"/><path d="m190.918 166.346-.361-.145c18.676-46.13 3.741-102.8276-33.291-126.3945l.206-.3311c37.184 23.6617 52.188 80.5776 33.446 126.8706z" fill="url(#ai)"/><path d="m209.928 160.501-.361-.146c18.668-46.11-4.782-100.1832-52.272-120.5369l.145-.3611c47.691 20.44 71.236 74.736 52.488 121.044z" fill="url(#aj)"/><path d="m89.4045 207.418-.0413-.05c-16.3807-20.623-14.4746-75.043 4.2553-121.3074l.064-.1589.1589.064c45.5956 11.5956 96.0066 37.7973 112.3736 58.3973l.071.09-.043.106c-18.742 46.293-71.131 74.511-116.7798 62.894zm4.5111-121.0532c-18.6032 46.0742-20.5288 100.1682-4.2877 120.7072 45.4211 11.514 97.5181-16.547 116.2191-62.572-16.376-20.508-66.526-46.5265-111.9314-58.1352z" fill="url(#ak)"/><path d="m177.508 183.975c-14.088-17.73-57.517-40.292-96.8118-50.291l.0953-.375c39.3665 10.016 82.8885 32.638 97.0255 50.426z" fill="url(#al)"/><path d="m135.674 206.513c-8.22-10.349-33.572-23.517-56.5158-29.354l.0953-.376c23.0105 5.853 48.4605 19.083 56.7255 29.489z" fill="url(#am)"/><path d="m89.5179 207.442-.0058-.389c31.0239-.376 71.4569-38.22 90.1359-84.359l.361.146c-18.734 46.273-59.327 84.226-90.4911 84.602z" fill="url(#an)"/><path d="m89.6724 207.364-.3098-.231c8.8737-11.908 31.3084-59.176 50.0094-105.368l.361.146c-18.712 46.221-41.1676 93.525-50.0606 105.453z" fill="url(#ao)"/><path d="m79.3459 204.134c-16.4312-6.616-29.5004-18.441-37.3923-34.079-5.0195-9.981-7.7488-20.956-7.9888-32.126-.3275-11.831 1.9069-23.771 6.6322-35.492-5.0546-6.3994-6.43-11.8207-3.9279-15.6584 5.2818-8.1566 27.1953-8.486 57.1871-.8516l.2138.0526-.0834.207c-18.6833 46.1484-20.6151 100.3964-4.3122 120.9204l.3748.459-.5567-.146c-3.452-.867-6.8418-1.964-10.1466-3.286zm14.1944-117.881c-29.7135-7.5335-51.3513-7.2498-56.5402.7316-2.4005 3.7107-1.0268 8.9972 3.975 15.2914l.0702.09-.0427.106c-4.7165 11.713-6.974 23.627-6.6455 35.442.2394 11.112 2.9529 22.03 7.9429 31.962 9.3321 18.438 25.8967 31.559 46.7234 37.014-15.9849-20.911-14.005-74.737 4.5169-120.637z" fill="url(#ap)"/><path d="m34.8756 147.673c-4.4233-5.563-5.6182-10.28-3.4652-13.626 4.5632-7.052 23.4891-7.326 49.3969-.749l-.0953.376c-25.7402-6.549-44.5069-6.323-48.9724.584-2.0679 3.19-.8814 7.747 3.4305 13.17z" fill="url(#aq)"/><path d="m52.3338 185.307c-2.5946-3.282-3.3091-6.065-2.0285-8.051 2.6907-4.153 13.779-4.332 28.9483-.473l-.0953.376c-15.0065-3.805-25.9261-3.698-28.5239.308-1.1858 1.834-.4912 4.457 1.9794 7.59z" fill="url(#ar)"/><path d="m89.4123 207.411c-37.1763-23.653-52.1878-80.578-33.4483-126.8665l.3611.1454c-18.6737 46.1241-3.7387 102.8231 33.2981 126.3911z" fill="url(#as)"/><path d="m89.4394 207.427c-47.6857-20.438-71.2306-74.734-52.4852-121.0368l.3611.1454c-18.6678 46.1104 4.7841 100.1784 52.2791 120.5344z" fill="url(#at)"/><path d="m98.0131 214.119c-3.4032-1.448-6.3705-3.757-8.6092-6.701-3.422-.869-6.7822-1.966-10.0579-3.283-16.4312-6.616-29.5004-18.442-37.3923-34.08-5.0195-9.98-7.7488-20.956-7.9888-32.125-.3245-11.88 1.9196-23.845 6.6748-35.598l.1241-.309.2047.256c16.3365 20.566 66.6395 46.69 112.1685 58.27l.213.053-.083.207c-12.649 31.245-30.292 52.065-46.05 54.336-3.104.487-6.283.133-9.2039-1.026zm-8.3858-7.047.0394.055c4.8318 6.063 10.7013 8.634 17.4893 7.658 15.587-2.251 33.074-22.892 45.664-53.893-45.345-11.579-95.3938-37.556-111.951-58.088-4.67 11.598-6.8464 23.422-6.5215 35.134.2394 11.112 2.9529 22.031 7.9429 31.962 9.4126 18.6 26.1988 31.81 47.2753 37.158z" fill="url(#au)"/><path d="m98.4291 187.061c-28.077-11.306-53.4212-26.591-63.5883-39.385l.3041-.241c14.0859 17.734 57.5146 40.296 96.8161 50.292l-.097.38c-11.376-2.942-22.545-6.632-33.4349-11.046z" fill="url(#av)"/><path d="m89.5138 208.34c-16.4168-6.61-31.2264-15.544-37.1652-23.027l.3041-.241c8.2202 10.348 33.5722 23.516 56.5113 29.352l-.095.375c-6.654-1.717-13.187-3.875-19.5552-6.459z" fill="url(#aw)"/><path d="m77.2243 205.277c-5.0991-2.069-9.4572-5.625-12.5072-10.205-10.4523-15.31-9.6483-41.858 2.1611-71.019l.3852.155c-11.761 29.041-12.5782 55.455-2.1998 70.656 5.5373 8.105 13.999 12.323 24.4724 12.199l.0058.388c-4.2093.1-8.3965-.639-12.3175-2.174z" fill="url(#ax)"/><path d="m86.3096 210.144-.077-.031c-3.0646-1.726 8.3008-33.953 20.9204-65.126l.361.145c-16.5547 40.89-23.1467 63.486-21.0946 64.642.2118.086.9038.09 2.9416-2.637l.3098.232c-1.6134 2.158-2.6824 3.048-3.3612 2.775z" fill="url(#ay)"/><path d="m98.0134 214.119c-3.1871-1.284-6.102-3.548-8.6505-6.751l-.3748-.459.5586.141c9.9243 2.484 20.2083 3.203 30.3813 2.124 11.84-8.464 23.724-25.695 32.956-48.497l.06-.149.159.063c16.544 4.212 30.595 5.998 40.729 5.396 4.882-6.669 8.925-13.911 12.041-21.565l.124-.309.209.258c5.133 6.414 6.501 11.855 4.015 15.722-2.343 3.622-7.97 5.703-16.129 6.222-17.707 24.201-45.462 40.289-74.017 43.243-4.335 3.083-8.666 5.003-12.86 5.608-3.106.48-6.283.118-9.2016-1.047zm-7.9937-6.548c4.7448 5.738 10.5103 8.149 17.1213 7.208 3.964-.575 8.058-2.351 12.146-5.152-9.797.966-19.6866.274-29.2529-2.05zm63.1663-46.588c-9.108 22.438-20.788 39.482-32.494 48.113 28.107-3.106 55.364-18.958 72.88-42.755-10.121.568-24.046-1.212-40.372-5.352zm52.934-16.132c-3.066 7.47-7.012 14.547-11.757 21.081 7.855-.541 13.267-2.558 15.526-6.057 2.37-3.65 1.067-8.847-3.765-15.022z" fill="url(#az)"/><path d="m131.874 198.111.097-.38c25.736 6.547 44.5 6.326 48.973-.584 2.063-3.192.879-7.742-3.436-13.172l.309-.239c4.422 5.568 5.618 10.28 3.463 13.63-4.577 7.047-23.502 7.332-49.406.745z" fill="url(#aA)"/><path d="m109.055 214.793.095-.375c15.011 3.806 25.916 3.722 28.524-.309 1.184-1.828.496-4.455-1.98-7.589l.304-.241c2.595 3.283 3.31 6.066 2.022 8.054-2.703 4.143-13.796 4.32-28.965.46z" fill="url(#aB)"/><path d="m100.582 213.173c-3.8914-1.574-7.6303-3.503-11.1687-5.762l.2109-.329c16.3298 10.396 35.0748 13.004 52.7968 7.328 20.9-6.691 38.437-24.246 48.136-48.209l.361.145c-9.736 24.054-27.37 41.711-48.381 48.429-13.736 4.43-28.596 3.863-41.955-1.602z" fill="url(#aC)"/><path d="m91.4876 208.274c-.6837-.276-1.3673-.551-2.0557-.828l.1454-.361c23.5907 10.109 49.3037 10.431 72.4147.916 21.881-9.015 38.774-25.929 47.557-47.631l.361.146c-8.824 21.802-25.792 38.793-47.772 47.846-22.519 9.267-47.532 9.221-70.6504-.088z" fill="url(#aD)"/><path d="m88.1915 210.93-.6548-.263c-1.1842-.505-2.6881-1.161-3.7346-1.633-2.2576-1.021-4.6929-2.337-5.8595-2.969-1.7365-.94-4.1848-2.446-4.3445-2.55-1.9642-1.249-3.3663-2.144-5.0048-3.341-.9699-.704-2.0715-1.511-2.8844-2.146-1.0688-.833-2.278-1.79-3.1552-2.557l-.4694-.419c-1.0474-.914-2.342-2.062-3.2853-2.956-1.6618-1.57-2.8705-2.779-3.7039-3.696-1.2689-1.406-3.6606-4.082-5.376-6.199-1.4915-1.854-2.952-3.785-3.7989-5.127-.3121-.49-.6675-1.024-1.043-1.578-.8711-1.325-1.7758-2.69-2.4535-3.87-.6096-1.056-2.7155-4.747-4.1743-7.835-.7673-1.624-1.9476-4.264-2.7398-6.368-.7059-1.873-2.0017-5.422-2.749-8.179-1.4158-4.937-2.425-9.982-3.0176-15.085-.4724-4.836-.6563-9.697-.5505-14.556.0903-2.748.3276-5.489.7108-8.212.1847-1.515.5175-3.328.8367-5.079.1493-.801.283-1.564.411-2.285.5185-2.725 1.2106-5.4137 2.0722-8.0502.8601-2.6918 1.9572-5.7915 2.7996-7.8973.6281-1.5599 1.523-3.4766 2.3152-5.1662.306-.6489.5956-1.2708.8591-1.8417 1.3278-2.8109 2.8602-5.5206 4.5849-8.1071l.8693-1.2837c1.0841-1.6224 2.3162-3.4593 3.3766-4.8562 1.51-1.9993 3.5831-4.5214 5.157-6.2767 1.5141-1.6898 3.5554-3.7996 5.0814-5.2272 1.075-1.0162 3.8227-3.5745 6.1128-5.3435 3.497-2.7097 8.3617-5.9261 11.7444-8.0328 2.3295-1.373 4.7265-2.628 7.1819-3.7605 2.6114-1.247 5.2863-2.3568 8.0135-3.3248 1.6975-.5753 7.6098-2.5306 12.3841-3.5624 2.329-.5055 5.805-1.148 8.574-1.4375l.48-.0529c1.53-.1613 3.44-.3602 4.907-.4465 1.467-.0862 4.304-.2252 6.403-.1857l.785.0085c.945.0166 2.014.0278 2.864.0847 1.838.1189 4.915.3004 7.144.5995 4.002.489 7.969 1.2268 11.878 2.2092l-.048.1878.048-.1878c2.344.5971 4.876 1.3422 6.773 1.9942 1.676.5744 2.301.7869 3.957 1.4258 1.657.6389 3.322 1.3376 3.766 1.5555 1.14.5037 2.217.9823 3.772 1.7482s2.357 1.1899 3.955 2.0571c1.375.7548 1.561.8632 4.313 2.531.531.3203 1.156.7284 1.709 1.0911l.612.3975c1.448.9353 4.116 2.8545 5.593 4.0201 2.015 1.5833 4.542 3.7257 6.301 5.3344 1.471 1.3478 3.172 3.0287 4.333 4.2852 1.558 1.6901 3.727 4.1806 5.381 6.2006.634.8149 1.259 1.6259 1.864 2.4291.691.9104 1.358 1.8111 1.899 2.6219 1.822 2.7538 3.887 6.1027 5.257 8.5345 2.045 3.6207 4.221 8.8608 5.683 12.4821 1.113 2.8016 2.026 5.6783 2.733 8.6087l.349 1.523c.509 2.18 1.08 4.653 1.436 6.632.438 2.37.756 4.762.953 7.164l.069 1.024c.148 2.23.327 5.01.35 7.135.023 2.124-.07 5.063-.234 7.347-.164 2.283-.546 5.621-.935 8.116-.416 2.63-1.175 6.017-1.483 7.365-1.085 4.476-2.5 8.865-4.236 13.132-2.014 4.676-4.301 9.231-6.847 13.641-1.362 2.369-2.883 4.643-4.553 6.805-.431.543-.907 1.157-1.397 1.788-1.088 1.397-2.214 2.845-3.213 3.993-1.732 2.051-3.575 4.006-5.52 5.856-.477.435-.996.92-1.538 1.417-1.256 1.173-2.67 2.462-3.841 3.439-1.929 1.595-4.492 3.557-6.377 4.873-1.884 1.317-4.239 2.831-5.975 3.849-.972.566-4.374 2.525-7.141 3.839-2.642 1.241-4.787 2.162-6.307 2.77-2.547.989-5.616 2.052-7.807 2.714-1.712.514-4.252 1.209-6.251 1.629-2.627.564-6.121 1.155-8.511 1.519-3.838.493-7.702.762-11.571.807-1.338-.013-4.743-.059-7.381-.248-2.061-.147-4.92-.465-7.119-.785s-4.788-.809-6.592-1.206c-3.4612-.783-4.7093-1.157-7.4416-1.972-.6135-.186-2.8632-.879-6.0716-2.109zm70.1895-174.658-1.073-.4323c-1.652-.637-2.272-.8476-3.939-1.4181-1.897-.652-4.414-1.3912-6.746-1.9893-3.893-.9772-7.844-1.7102-11.828-2.1946-2.214-.2817-5.288-.4844-7.116-.6274-.84-.053-1.903-.067-2.843-.0817l-.785-.0086c-2.088-.0404-4.892.1006-6.375.1858-1.484.0853-3.36.2862-4.889.4427l-.48.0529c-2.866.3322-5.713.8085-8.531 1.427-4.7574 1.0328-10.6514 2.9843-12.3402 3.5519-2.7129.9612-5.3727 2.0659-7.9682 3.3095-2.4452 1.1251-4.8319 2.3731-7.151 3.7393-3.3741 2.099-8.2185 5.3068-11.7068 8.0089-2.2746 1.7584-5.0166 4.3022-6.0867 5.3203-1.5232 1.4345-3.5557 3.5365-5.0718 5.2312-1.516 1.6946-3.6296 4.262-5.1357 6.2516-1.0518 1.3892-2.2819 3.2214-3.3621 4.8342-.2998.4387-.5899.8814-.8665 1.2903-1.7174 2.5665-3.2406 5.2578-4.5568 8.0513-.2634.5709-.553 1.1929-.8591 1.8417-.7903 1.6848-1.6832 3.5967-2.3055 5.1421-.8452 2.0991-1.9337 5.1912-2.7899 7.8732-.8559 2.6198-1.5448 5.2911-2.0625 7.9981-.1172.708-.2617 1.484-.4081 2.292-.322 1.745-.651 3.548-.8385 5.056-.3779 2.709-.6077 5.437-.6886 8.171-.1064 4.841.0768 9.685.5488 14.505.5909 5.083 1.5963 10.11 3.006 15.03.7435 2.738 2.0316 6.278 2.7367 8.14.7864 2.09 1.9697 4.709 2.7282 6.341 1.4482 3.073 3.5513 6.756 4.1262 7.816.6748 1.172 1.5718 2.529 2.4448 3.849l1.0411 1.583c1.1705 1.758 2.4288 3.456 3.7701 5.087 1.7125 2.111 4.0946 4.782 5.3462 6.176.8316.894 2.0296 2.115 3.6769 3.679.9578.901 2.2553 2.027 3.2873 2.952l.4761.416c.8676.763 2.0739 1.713 3.1379 2.544.81.629 1.9069 1.434 2.8719 2.136 1.6308 1.188 3.0281 2.081 4.9634 3.319.1819.118 2.6129 1.611 4.3416 2.543 1.1666.632 3.5923 1.944 5.8355 2.959 1.0465.472 2.5456 1.126 3.7298 1.631.6114.246 1.4443.581 1.8776.756 3.1987 1.226 5.4369 1.921 6.0475 2.099 2.7255.818 3.966 1.183 7.4154 1.968 1.796.404 4.37.875 6.561 1.199 2.192.323 5.042.637 7.092.785 2.627.185 6.022.232 7.359.244 3.85-.042 7.693-.308 11.511-.797 2.385-.366 5.868-.955 8.489-1.517 1.977-.423 4.506-1.117 6.216-1.626 2.187-.652 5.245-1.715 7.799-2.695 1.531-.592 3.644-1.52 6.28-2.758 2.758-1.29 6.139-3.241 7.125-3.8 1.718-.987 4.118-2.555 5.947-3.833s4.426-3.253 6.352-4.855c1.168-.968 2.592-2.269 3.824-3.423l1.543-1.415c1.933-1.844 3.766-3.79 5.491-5.829.991-1.14 2.11-2.586 3.197-3.978.489-.631.965-1.245 1.398-1.792 1.656-2.143 3.165-4.396 4.517-6.742 2.536-4.397 4.815-8.938 6.824-13.6 1.729-4.246 3.139-8.616 4.218-13.072.304-1.338 1.067-4.735 1.476-7.334.387-2.49.76-5.736.933-8.084.173-2.347.26-5.216.234-7.319s-.205-4.883-.353-7.113l-.064-1.022c-.202-2.381-.523-4.752-.962-7.101-.353-1.972-.921-4.438-1.428-6.612l-.354-1.5243c-.699-2.9108-1.605-5.768-2.711-8.5498-1.46-3.6146-3.634-8.8315-5.661-12.4397l-.506-.881c9.483 19.1599 10.226 42.3258 1.761 64.7368-.268.665-.509 1.334-.779 2.003l-.066.164c-18.741 46.293-71.131 74.511-116.7793 62.894l.0953-.376c45.458 11.591 97.652-16.544 116.323-62.663l.066-.164c10.934-27.153 8.199-55.6244-7.226-76.8576l-.656-.8573c-.425-.5571-.831-1.09-1.186-1.5968-1.649-2.0064-3.789-4.4853-5.349-6.1706-1.172-1.2556-2.849-2.9268-4.308-4.2639-1.747-1.6097-4.27-3.7502-6.253-5.3151-1.476-1.1541-4.127-3.0607-5.565-3.9921l-.635-.3956c-.55-.3559-1.17-.7621-1.674-1.0659-2.767-1.6737-2.932-1.7791-4.323-2.535-1.591-.87-2.338-1.2659-3.941-2.0512-1.602-.7853-2.617-1.2387-3.77-1.7531-.353-.1646-1.47-.6144-2.688-1.1048z" fill="url(#aE)"/><path d="m89.2179 207.88-.0413-.05c-16.4643-20.734-14.569-75.461 4.278-121.9748l.0679-.1685.1589.064c45.8476 11.6636 96.5336 38.0043 112.9936 58.7203l.07.089-.042.106c-18.841 46.539-71.535 74.902-117.4187 63.23zm4.5531-121.7128c-18.706 46.3298-20.64 100.7228-4.3027 121.3548 45.6877 11.589 98.0597-16.625 116.8567-62.918-16.487-20.609-66.889-46.7909-112.554-58.4368z" fill="url(#aF)"/><path d="m135.761 206.978c-8.264-10.405-33.754-23.662-56.8248-29.517l.0953-.376c23.1365 5.887 48.7255 19.19 57.0365 29.647z" fill="url(#aG)"/><path d="m177.81 184.309c-14.166-17.828-57.835-40.515-97.3492-50.568l.0953-.376c39.5849 10.071 83.3479 32.818 97.5579 50.703z" fill="url(#aH)"/><path d="m89.3312 207.904-.0058-.389c31.1936-.38 71.8496-38.431 90.6316-84.825l.361.145c-18.837 46.529-59.653 84.689-90.9868 85.069z" fill="url(#aI)"/><path d="m89.4857 207.826-.3146-.233c8.9268-11.97 31.4829-59.497 50.2879-105.949l.361.146c-18.815 46.476-41.393 94.044-50.3343 106.036z" fill="url(#aJ)"/><path d="m79.1001 204.579c-16.5227-6.654-29.6602-18.546-37.6088-34.251-5.0476-10.043-7.788-21.086-8.0212-32.323-.3341-11.884 1.917-23.908 6.6722-35.689-5.0834-6.439-6.451-11.8796-3.9557-15.7424 5.3224-8.1739 27.3323-8.4924 57.4945-.8229l.2138.0525-.0833.2071c-18.7861 46.4037-20.7311 100.9487-4.335 121.5887l.3748.458-.5567-.145c-3.4687-.883-6.8745-1.997-10.1946-3.333zm14.2661-118.5187c-29.8878-7.559-51.6596-7.29-56.8601.7482-2.4132 3.728-1.0299 9.0463 4.0027 15.3755l.0702.09-.0485.12c-4.7658 11.766-7.0148 23.757-6.6903 35.637.2419 11.174 2.973 22.154 7.9946 32.139 9.3819 18.537 26.0495 31.75 46.9821 37.219-16.0617-21.053-14.0646-75.186 4.5541-121.3267z" fill="url(#aK)"/><path d="m51.9397 185.647c-2.6234-3.295-3.3234-6.1-2.0342-8.093 2.6985-4.172 13.8495-4.354 29.1045-.472l-.0953.376c-15.0884-3.838-26.0744-3.718-28.6627.32-1.1945 1.84-.4961 4.483 2.0092 7.64z" fill="url(#aL)"/><path d="m34.3649 147.814c-4.459-5.6-5.6528-10.332-3.4718-13.706 4.5942-7.102 23.6173-7.381 49.6668-.753l-.0954.376c-25.8827-6.584-44.7497-6.359-49.2471.586-2.0756 3.209-.8968 7.785 3.4555 13.247z" fill="url(#aM)"/><path d="m89.2266 207.873c-37.4121-23.804-52.4828-80.999-33.6327-127.5614l.3611.1454c-18.7764 46.38-3.7602 103.39 33.4777 127.085z" fill="url(#aN)"/><path d="m89.2533 207.889c-47.9677-20.557-71.6247-75.144-52.7746-121.7068l.361.1454c-18.7686 46.3604 4.8127 100.7324 52.5658 121.1974z" fill="url(#aO)"/><path d="m97.8719 214.622c-3.4214-1.458-6.4041-3.781-8.6544-6.741-21.2691-5.426-38.2179-18.747-47.7215-37.551-5.0476-10.043-7.7881-21.086-8.0212-32.323-.3311-11.933 1.9296-23.981 6.7148-35.795l.1241-.308.2095.258c16.4095 20.662 67.0068 46.944 112.7788 58.588l.218.055-.083.207c-12.717 31.414-30.462 52.349-46.309 54.646-3.122.49-6.319.132-9.2561-1.036zm-8.431-7.088.0394.055c4.824 6.083 10.7587 8.685 17.5997 7.702 15.675-2.259 33.26-23.018 45.917-54.188-45.597-11.647-95.918-37.767-112.5656-58.408-4.6953 11.661-6.8872 23.551-6.5664 35.329.2419 11.174 2.9731 22.154 7.9947 32.139 9.4653 18.705 26.3448 31.975 47.534 37.363z" fill="url(#aP)"/><path d="m89.327 208.803c-16.5035-6.645-31.4103-15.63-37.3876-23.156l.3042-.241c8.2643 10.405 33.7539 23.662 56.8274 29.512l-.098.381c-6.684-1.731-13.2472-3.901-19.646-6.496z" fill="url(#aQ)"/><path d="m98.2894 187.408c-28.2262-11.366-53.71-26.735-63.9242-39.593l.3041-.241c14.1638 17.833 57.8303 40.513 97.3487 50.568l-.1.374c-11.442-2.957-22.676-6.668-33.6286-11.108z" fill="url(#aR)"/><path d="m76.9597 205.725c-5.1263-2.081-9.5078-5.656-12.5745-10.261-10.5129-15.395-9.6998-42.091 2.1688-71.413l.361.146c-11.8201 29.201-12.6444 55.758-2.2055 71.045 5.5623 8.154 14.0808 12.384 24.6062 12.27l.0059.388c-4.224.101-8.426-.638-12.3619-2.175z" fill="url(#aS)"/><path d="m86.1052 210.622-.0819-.033c-3.079-1.732 8.3427-34.127 21.0377-65.488l.361.146c-16.6514 41.131-23.2697 63.833-21.2032 64.995.2137.137.9154.089 2.9523-2.649l.3146.233c-1.6193 2.173-2.7017 3.069-3.3805 2.796z" fill="url(#aT)"/><path d="m97.8717 214.622c-3.2063-1.291-6.1308-3.588-8.6957-6.792l-.3748-.458.5634.143c9.9773 2.5 20.3174 3.222 30.5454 2.133 11.908-8.509 23.857-25.831 33.14-48.759l.064-.159.154.062c16.641 4.234 30.779 6.039 40.962 5.428 4.903-6.708 8.964-13.993 12.091-21.69l.124-.308.209.257c5.143 6.474 6.529 11.95 4.021 15.831-2.357 3.644-8.012 5.725-16.223 6.262-17.805 24.347-45.713 40.508-74.419 43.478-4.359 3.101-8.735 5.021-12.935 5.64-3.116.474-6.301.105-9.2263-1.068zm-8.0225-6.588c4.7708 5.771 10.5638 8.21 17.2228 7.249 3.985-.572 8.091-2.337 12.213-5.181-9.859.98-19.8121.282-29.4378-2.063zm63.5158-46.844c-9.158 22.563-20.904 39.699-32.676 48.386 28.26-3.128 55.676-19.067 73.264-43.003-10.173.575-24.173-1.213-40.59-5.378zm53.212-16.227c-3.08 7.513-7.048 14.631-11.821 21.2 7.904-.538 13.344-2.571 15.616-6.087 2.379-3.67 1.064-8.893-3.797-15.108z" fill="url(#aU)"/><path d="m108.974 215.298.097-.38c15.088 3.838 26.077 3.725 28.685-.305 1.19-1.843.491-4.485-2.014-7.642l.306-.246c2.623 3.294 3.323 6.099 2.034 8.092-2.686 4.183-13.851 4.359-29.108.481z" fill="url(#aV)"/><path d="m131.905 198.494.1-.374c25.883 6.584 44.745 6.358 49.242-.588 2.076-3.209.897-7.785-3.451-13.245l.305-.241c4.457 5.605 5.646 10.336 3.471 13.707-4.573 7.105-23.604 7.392-49.667.741z" fill="url(#aW)"/><path d="m100.456 213.665c-3.9134-1.582-7.6725-3.521-11.23-5.792l.206-.331c16.42 10.45 35.267 13.082 53.081 7.386 21.016-6.727 38.658-24.392 48.411-48.473l.361.145c-9.796 24.187-27.519 41.942-48.642 48.672-13.812 4.456-28.754 3.887-42.187-1.607z" fill="url(#aX)"/><path d="m91.311 208.74c-.6884-.277-1.3768-.554-2.0653-.832l.1454-.361c23.7399 10.169 49.5809 10.493 72.8159.921 21.999-9.045 38.991-26.065 47.816-47.884l.361.145c-8.871 21.918-25.932 39-48.033 48.105-22.644 9.312-47.792 9.267-71.04-.094z" fill="url(#aY)"/><path d="m206.577 144.963-.209-.258c-16.41-20.662-67.002-46.9423-112.7787-58.5884l-.2187-.0545.0834-.207c12.719-31.419 30.464-52.3542 46.313-54.6443 6.855-.9884 13.044 1.705 17.908 7.7705 21.263 5.4285 38.218 18.7461 47.722 37.5505 5.045 10.0433 7.786 21.0863 8.021 32.3232.331 11.933-1.928 23.976-6.71 35.797zm-73.94-46.357c32.506 13.089 61.865 30.758 73.832 45.597 4.697-11.665 6.884-23.557 6.562-35.33-.242-11.1761-2.972-22.1573-7.993-32.1445-9.466-18.705-26.337-31.9665-47.529-37.3611l-.063-.0252-.041-.0502c-4.822-6.0876-10.759-8.685-17.598-7.7071-15.659 2.277-33.245 23.0362-45.8893 54.2163 13.1733 3.4156 26.1073 7.693 38.7193 12.8048z" fill="url(#aZ)"/><path d="m212.217 99.3189c-14.173-17.8369-57.84-40.517-97.349-50.5682l.097-.3805c39.585 10.0707 83.343 32.8156 97.558 50.7027z" fill="url(#a0)"/><path d="m194.632 61.4994c-8.264-10.4054-33.749-23.6606-56.827-29.5126l.095-.3756c23.137 5.8868 48.728 19.1847 57.036 29.647z" fill="url(#a1)"/><path d="m180.318 122.835-.361-.145c11.82-29.2015 12.646-55.7634 2.207-71.0504-5.562-8.1536-14.076-12.3818-24.608-12.2644l-.004-.3932c10.681-.1248 19.288 4.175 24.936 12.4357 10.511 15.3999 9.694 42.1055-2.17 71.4173z" fill="url(#a2)"/><path d="m139.82 101.789-.361-.145c16.663-41.1044 23.272-63.8385 21.209-65.0104-.203-.1209-.908-.0917-2.952 2.6494l-.314-.233c1.686-2.2581 2.792-3.1277 3.46-2.758 3.075 1.7418-8.352 34.1505-21.042 65.497z" fill="url(#a3)"/><path d="m40.4164 102.689-.2095-.257c-5.147-6.4762-6.5337-11.9525-4.0258-15.8326 2.3618-3.6423 8.0123-5.7255 16.2237-6.2627 17.8064-24.3516 45.7143-40.5122 74.4252-43.481 4.36-3.101 8.736-5.0204 12.935-5.6401 6.873-.9922 13.077 1.7186 17.942 7.84l.374.4586-.558-.141c-9.983-2.5051-20.33-3.23-30.564-2.1414-11.909 8.5095-23.834 25.8412-33.1403 48.759l-.064.1589-.1541-.062c-16.641-4.2335-30.775-6.0364-40.9575-5.4257-4.9031 6.7079-8.9638 13.9925-12.091 21.69zm11.71-21.9665c-7.8992.5399-13.3443 2.5715-15.6162 6.0878-2.3802 3.6741-1.0652 8.8978 3.7952 15.1127 3.08-7.5134 7.0486-14.6308 11.821-21.2005zm74.0766-43.4201c-28.2791 3.1597-55.6853 19.0747-73.295 43.0075 10.1929-.5674 24.1931 1.2208 40.6097 5.3863 9.1603-22.5683 20.9073-39.7086 32.6853-48.3938zm22.703-4.6943c-2.887-1.1507-6.031-1.5025-9.101-1.0184-3.987.5768-8.091 2.3368-12.204 5.1569 9.857-.9632 19.805-.2544 29.425 2.0963-2.449-2.9592-5.156-5.0374-8.12-6.2348z" fill="url(#a4)"/><path d="m68.7576 62.8468c-4.4569-5.6049-5.6459-10.3358-3.4669-13.7048 4.5894-7.1039 23.6173-7.3811 49.6663-.7523l-.097.3805c-25.8806-6.5889-44.7495-6.3596-49.2469.5855-2.0756 3.2093-.8949 7.7802 3.4526 13.2402z" fill="url(#a5)"/><path d="m110.835 40.1613c-2.623-3.2944-3.323-6.0996-2.034-8.0925 2.699-4.1726 13.854-4.3523 29.104-.4718l-.095.3756c-15.088-3.8377-26.074-3.7183-28.661.3148-1.194 1.8409-.498 4.488 2.008 7.6452z" fill="url(#a6)"/><path d="m55.9547 80.4568-.3611-.1454c9.7924-24.1937 27.521-41.9466 48.6534-48.7002 17.926-5.7394 36.896-3.1081 53.41 7.402l-.206.3311c-16.42-10.4502-35.267-13.0821-53.081-7.3868-21.023 6.747-38.6675 24.4164-48.4153 48.4993z" fill="url(#a7)"/><path d="m36.8276 86.3563-.361-.1453c8.8754-21.9165 25.9336-39.0051 48.0398-48.108 23.3406-9.6243 49.2966-9.2823 73.1176.9083l-.145.361c-23.724-10.1681-49.577-10.4906-72.8115-.9191-22.0184 9.0655-38.9915 26.0541-47.8399 47.9031z" fill="url(#a8)"/><path d="m114.239 148.299c-32.694-13.165-62.2017-30.977-74.0168-45.862l-.0701-.089.0368-.092c18.8569-46.5654 71.5131-74.9444 117.4161-63.2642l.057.0233.042.0502c16.474 20.7383 14.552 75.4607-4.28 121.9797l-.064.159-.159-.064c-13.257-3.416-26.272-7.706-38.962-12.841zm-73.655-46.024c16.4665 20.618 66.877 46.808 112.546 58.456 18.711-46.328 20.647-100.725 4.303-121.3551-45.659-11.6044-98.0496 16.6017-116.849 62.8991z" fill="url(#a9)"/><path d="m132.699 102.413c-28.227-11.3658-53.7125-26.7307-63.9314-39.5904l.306-.246c14.1435 17.8417 57.8334 40.5204 97.3484 50.5684l-.097.38c-11.441-2.958-22.675-6.671-33.626-11.112z" fill="url(#ba)"/><path d="m148.223 63.3173c-16.503-6.6454-31.408-15.6349-37.387-23.1562l.304-.2412c8.271 10.4024 33.754 23.6625 56.832 29.5144l-.095.3757c-6.688-1.7274-13.253-3.8964-19.654-6.4927z" fill="url(#bb)"/><path d="m66.9208 124.21-.361-.145c18.8365-46.5293 59.6552-84.6935 90.9882-85.0734l.004.3932c-31.187.3658-71.8431 38.4167-90.6312 84.8252z" fill="url(#bc)"/><path d="m107.422 145.247-.361-.146c18.815-46.4758 41.398-94.0419 50.335-106.0364l.314.233c-8.925 11.9656-31.482 59.4971-50.288 105.9494z" fill="url(#bd)"/><path d="m152.981 161.102.083-.207c18.789-46.409 20.733-100.9534 4.335-121.5884l-.374-.4587.563.143c21.314 5.4267 38.261 18.7635 47.783 37.5641 5.046 10.0434 7.786 21.0863 8.021 32.323.335 11.884-1.916 23.908-6.667 35.691 5.085 6.434 6.451 11.88 3.951 15.74-5.313 8.206-27.343 8.533-57.503.859zm5.084-121.6002c16.075 21.0198 14.068 75.1762-4.55 121.3172 29.888 7.559 51.659 7.29 56.86-.748 2.413-3.728 1.03-9.047-4.003-15.375l-.065-.088.042-.106c4.742-11.776 7.01-23.759 6.686-35.639-.241-11.1755-2.972-22.1567-7.993-32.1439-9.371-18.5217-26.052-31.7288-46.977-37.2173z" fill="url(#be)"/><path d="m166.326 113.525.097-.38c25.881 6.589 44.749 6.359 49.247-.586 2.074-3.204.895-7.78-3.453-13.2399l.306-.2461c4.457 5.605 5.646 10.336 3.467 13.705-4.581 7.084-23.615 7.376-49.664.747z" fill="url(#bf)"/><path d="m167.876 69.8103.095-.3757c15.084 3.8357 26.075 3.7184 28.663-.3196 1.19-1.8428.496-4.4832-2.014-7.6423l.304-.2412c2.624 3.2943 3.329 6.1014 2.034 8.0924-2.681 4.1852-13.832 4.3668-29.082.4864z" fill="url(#bg)"/><path d="m191.293 166.581-.361-.145c18.776-46.38 3.757-103.3973-33.481-127.0919l.206-.3311c37.396 23.775 52.48 81.02 33.636 127.568z" fill="url(#bh)"/><path d="m210.397 160.723-.361-.145c18.77-46.365-4.811-100.7376-52.564-121.2028l.145-.361c47.961 20.5321 71.636 75.1318 52.78 121.7088z" fill="url(#bi)"/><path d="m88.0312 211.425c-4.2772-1.724-8.4229-3.758-12.4039-6.086-3.5294-2.059-6.1898-3.941-7.3261-4.746-3.1493-2.224-6.0493-4.707-6.0724-4.733-2.6364-2.23-5.147-4.604-7.5201-7.112-1.6874-1.743-3.88-4.26-5.4164-6.238-1.3021-1.643-2.7617-3.562-3.773-5.094-1.8334-2.769-3.9083-6.134-5.2847-8.579-2.0589-3.627-4.2451-8.91-5.7161-12.552-1.1194-2.817-2.037-5.711-2.7461-8.659l-.3531-1.512c-.5086-2.197-1.083-4.689-1.4428-6.685-.4615-2.564-.8259-5.883-.9645-7.192-.2649-2.58-.4066-5.938-.4187-8.214-.0148-1.506.0703-3.329.1437-5.067.0366-.814.0827-1.595.0921-2.313.1258-2.743.4422-5.474.9468-8.174.9235-4.988 2.1269-9.9202 3.6047-14.7733 1.2162-3.7567 3.2573-9.1173 5.3448-12.8981.3551-.6458.7404-1.3803 1.1218-2.1051.9147-1.7298 1.9456-3.6925 2.931-5.1532.3994-.5889.8327-1.2481 1.2805-1.9294.9865-1.505 2.0039-3.0591 2.9233-4.3003 1.5922-2.2171 3.3031-4.3465 5.1254-6.3788.457-.4818.968-1.0146 1.4695-1.5791 1.2183-1.3166 2.482-2.6764 3.5919-3.7514 1.8332-1.7739 4.2804-3.9608 6.1014-5.4263s4.0763-3.1758 5.7443-4.3449c2.2568-1.6028 4.5939-3.0893 7.0023-4.4538 4.0547-2.2434 8.2297-4.2624 12.506-6.0477 2.1916-.8575 5.281-1.9298 7.8618-2.7257 1.9694-.6113 4.4894-1.2695 6.2604-1.6529 2.451-.5292 5.911-1.1333 8.555-1.5291 1.641-.24 3.853-.4682 5.514-.5771 1.792-.1009 3.837-.2061 5.39-.2411 1.2-.0203 2.795.0065 4.031.0344l.427.0096c2.82.0556 6.321.4193 7.327.5334 1.558.1742 2.713.3204 3.532.4544 1.726.2863 4.496.7697 6.623 1.2122 1.426.2943 4.798 1.1318 7.518 1.992 6.117 1.8982 12.025 4.4124 17.635 7.5038 3.931 2.1707 6.746 4.0874 6.744 4.0922 1.808 1.2483 3.897 2.7441 5.316 3.819 1.166.8836 2.624 2.0974 3.375 2.7352 1.16.9818 2.689 2.3529 3.799 3.404 1.256 1.1883 2.87 2.8343 3.711 3.7325 1.09 1.1272 2.33 2.5497 3.466 3.8967.661.7639 1.309 1.545 1.936 2.3348l.199.2703c2.335 3.178 5.252 7.0889 7.126 10.3555 1.47 2.5612 3.117 5.6528 4.201 7.8797.948 1.9537 2.055 4.5256 2.755 6.4133 1.001 2.697 2.092 5.9223 2.762 8.2175.547 1.8652 1.22 4.5978 1.712 6.9608.492 2.364.992 5.513 1.322 8.209.225 1.859.369 4.21.497 6.282l.059.992c.159 2.481.068 5.834-.043 8.207-.053 1.522-.229 3.348-.431 5.102-.081.812-.168 1.611-.224 2.305-.268 2.745-.742 5.466-1.415 8.141-.18.683-.365 1.436-.558 2.22-.447 1.79-.905 3.636-1.372 5.144-.751 2.422-1.88 5.615-2.812 7.942-1.993 4.72-4.294 9.303-6.89 13.72-1.55 2.666-3.281 5.224-5.18 7.654-.36.449-.753.939-1.144 1.453-1.141 1.443-2.441 3.074-3.538 4.31-1.764 2.042-3.638 3.986-5.612 5.825l-1.16 1.116c-1.382 1.251-2.949 2.668-4.247 3.723-1.958 1.584-4.558 3.525-6.464 4.827-4.209 2.878-8.642 5.413-13.257 7.58-.874.404-3.913 1.782-6.357 2.711-2.59.972-5.689 2.012-7.898 2.65-1.725.491-4.274 1.166-6.254 1.566-2.662.539-6.195 1.103-8.61 1.445-3.944.465-7.913.693-11.884.681-2.043-.039-5.039-.144-7.292-.329-2.035-.17-4.857-.512-7.02-.852-7.02-1.103-13.8915-2.999-20.4838-5.652zm-38.43-29.154c1.5433 1.975 3.706 4.469 5.3905 6.204 2.3643 2.5 4.8642 4.869 7.4884 7.094.0337.014 2.9125 2.494 6.0396 4.704 1.1363.804 3.7891 2.678 7.304 4.731 10.0982 5.914 21.2163 9.881 32.7773 11.694 2.151.34 4.957.681 6.982.848 2.248.183 5.231.293 7.274.332 3.942.006 7.88-.222 11.795-.683 2.417-.347 5.956-.897 8.592-1.441 1.968-.399 4.505-1.073 6.226-1.566 2.201-.63 5.293-1.668 7.876-2.636 1.634-.612 4.009-1.62 6.322-2.697 4.597-2.159 9.014-4.684 13.207-7.55 1.901-1.305 4.484-3.23 6.418-4.824 1.294-1.045 2.853-2.459 4.229-3.707l1.213-1.095c1.961-1.833 3.824-3.768 5.58-5.799 1.096-1.236 2.386-2.855 3.522-4.288.406-.508.795-1 1.147-1.457 1.886-2.415 3.605-4.954 5.147-7.601 2.586-4.4 4.879-8.967 6.864-13.669.936-2.325 2.059-5.504 2.807-7.916.461-1.493.919-3.339 1.362-5.119.195-.789.375-1.528.562-2.23.665-2.652 1.132-5.35 1.398-8.07.063-.713.144-1.498.225-2.31.181-1.756.365-3.574.434-5.079.101-2.365.197-5.7.042-8.163l-.063-.998c-.125-2.065-.273-4.407-.495-6.259-.327-2.689-.843-5.895-1.319-8.174-.476-2.278-1.152-5.0738-1.688-6.9235-.672-2.2904-1.755-5.507-2.753-8.1972-.696-1.8694-1.796-4.4326-2.738-6.3729-1.086-2.222-2.726-5.3049-4.193-7.843-1.864-3.2627-4.767-7.1841-7.118-10.3352l-.191-.2616c-.563-.6856-1.225-1.489-1.925-2.3194-9.665-11.1651-22.657-19.0428-37.773-22.9085l-.029-.0116-.062-.0252.095-.3756c10.908 2.6953 21.075 7.7948 29.758 14.9256-.956-.8773-2.032-1.831-2.885-2.5606-.763-.6484-2.214-1.8536-3.377-2.7304-1.416-1.0682-3.507-2.5311-5.296-3.8113-.029-.0116-2.783-1.8982-6.723-4.0776-5.598-3.0822-11.496-5.5864-17.602-7.4739-2.71-.8563-6.066-1.6928-7.477-1.9813-2.122-.4405-4.886-.9268-6.607-1.2112-.819-.1339-1.962-.2811-3.515-.4534-1.001-.1121-4.491-.4768-7.29-.5294l-.432-.0116c-1.254-.0241-2.819-.0557-4.015-.0334-1.545.0321-3.581.1412-5.373.2421-1.643.0936-3.842.316-5.473.5599-2.637.3929-6.067 1.0038-8.535 1.5204-1.784.4007-4.2825 1.0339-6.2528 1.6337-2.5616.8036-5.6451 1.8615-7.8107 2.7239-4.2716 1.7766-8.4426 3.7859-12.4944 6.0188-2.3965 1.36-4.7232 2.8394-6.9714 4.4327-1.6497 1.1373-3.958 2.8821-5.7153 4.3285-1.7574 1.4464-4.2316 3.6448-6.0552 5.3947-1.0992 1.0624-2.3522 2.4097-3.5744 3.7359-.516.5588-1.0029 1.1012-1.4715 1.5839-1.8133 2.0184-3.5138 4.1354-5.0935 6.3414-.9155 1.2315-1.931 2.7808-2.9156 4.281-.4478.6813-.8752 1.326-1.2775 1.9361-.9729 1.4434-2.0047 3.3946-2.9108 5.1166-.3939.7422-.7734 1.4622-1.1286 2.1081-2.0729 3.7586-4.1023 9.0903-5.3127 12.8326-1.4711 4.8313-2.6694 9.7419-3.5891 14.7069-.4971 2.681-.8096 5.393-.9352 8.117-.0219.707-.0459 1.503-.0969 2.311-.0772 1.748-.1546 3.552-.1379 5.052.0334 2.252.1491 5.605.4198 8.17.1338 1.307.4973 4.615.9578 7.167.3521 1.988.9284 4.475 1.439 6.666l.3512 1.518c.7042 2.926 1.6155 5.799 2.7269 8.595 1.4633 3.633 3.6515 8.884 5.694 12.51 1.3707 2.431 3.4408 5.794 5.2685 8.55 1.0084 1.525 2.468 3.416 3.7595 5.072z" fill="url(#bj)"/><path d="m89.2179 207.88-.0413-.05c-16.4643-20.734-14.569-75.461 4.278-121.9748l.0679-.1685.1589.064c45.8476 11.6636 96.5336 38.0043 112.9936 58.7203l.07.089-.042.106c-18.841 46.539-71.535 74.902-117.4187 63.23zm4.5531-121.7128c-18.706 46.3298-20.64 100.7228-4.3027 121.3548 45.6877 11.589 98.0597-16.625 116.8567-62.918-16.487-20.609-66.889-46.7909-112.554-58.4368z" fill="url(#aF)"/><path d="m135.761 206.978c-8.264-10.405-33.754-23.663-56.8248-29.517l.0953-.376c23.1365 5.887 48.7255 19.189 57.0365 29.647z" fill="url(#bk)"/><path d="m177.81 184.309c-14.166-17.828-57.835-40.515-97.3492-50.568l.0953-.376c39.5849 10.071 83.3479 32.818 97.5579 50.703z" fill="url(#aH)"/><path d="m89.3312 207.904-.0058-.389c31.1936-.38 71.8496-38.431 90.6316-84.825l.361.145c-18.837 46.529-59.653 84.689-90.9868 85.069z" fill="url(#aI)"/><path d="m89.4857 207.826-.3146-.233c8.9268-11.971 31.4829-59.497 50.2879-105.949l.361.145c-18.815 46.476-41.393 94.044-50.3343 106.037z" fill="url(#bl)"/><path d="m79.1001 204.578c-16.5227-6.653-29.6602-18.545-37.6088-34.25-5.0476-10.043-7.788-21.086-8.0212-32.324-.3341-11.884 1.917-23.907 6.6722-35.689-5.0834-6.4385-6.451-11.8791-3.9557-15.7419 5.3224-8.1738 27.3323-8.4924 57.4945-.8229l.2138.0526-.0833.207c-18.7861 46.4042-20.7311 100.9482-4.335 121.5882l.3748.459-.5567-.146c-3.4687-.883-6.8745-1.996-10.1946-3.333zm14.2661-118.5182c-29.8878-7.559-51.6596-7.29-56.8601.7482-2.4132 3.7281-1.0299 9.0463 4.0027 15.375l.0702.09-.0485.12c-4.7658 11.767-7.0148 23.757-6.6903 35.637.2419 11.174 2.973 22.154 7.9946 32.139 9.3819 18.538 26.0495 31.75 46.9821 37.22-16.0617-21.054-14.0646-75.186 4.5541-121.3272z" fill="url(#bm)"/><path d="m51.9397 185.647c-2.6234-3.295-3.3234-6.1-2.0342-8.093 2.6985-4.172 13.8495-4.354 29.1045-.472l-.0953.376c-15.0884-3.838-26.0744-3.718-28.6627.32-1.1945 1.84-.4961 4.483 2.0092 7.64z" fill="url(#aL)"/><path d="m34.3649 147.814c-4.459-5.6-5.6528-10.332-3.4718-13.706 4.5942-7.102 23.6173-7.381 49.6668-.753l-.0954.376c-25.8827-6.584-44.7497-6.359-49.2471.586-2.0756 3.209-.8968 7.785 3.4555 13.247z" fill="url(#aM)"/><path d="m89.2266 207.872c-37.4121-23.803-52.4828-80.998-33.6327-127.5609l.3611.1454c-18.7764 46.3795-3.7602 103.3905 33.4777 127.0845z" fill="url(#bn)"/><path d="m89.2533 207.889c-47.9677-20.557-71.6247-75.145-52.7746-121.7073l.361.1454c-18.7686 46.3609 4.8127 100.7329 52.5658 121.1979z" fill="url(#aO)"/><path d="m97.8719 214.621c-3.4214-1.457-6.4041-3.78-8.6544-6.741-21.2691-5.426-38.2179-18.746-47.7215-37.55-5.0476-10.043-7.7881-21.086-8.0212-32.324-.3311-11.933 1.9296-23.98 6.7148-35.794l.1241-.309.2095.258c16.4095 20.662 67.0068 46.944 112.7788 58.589l.218.054-.083.207c-12.717 31.414-30.462 52.349-46.309 54.646-3.122.49-6.319.132-9.2561-1.036zm-8.431-7.087.0394.055c4.824 6.082 10.7587 8.685 17.5997 7.702 15.675-2.26 33.26-23.019 45.917-54.188-45.597-11.647-95.918-37.768-112.5656-58.408-4.6953 11.66-6.8872 23.551-6.5664 35.328.2419 11.175 2.9731 22.154 7.9947 32.14 9.4653 18.705 26.3448 31.975 47.534 37.363z" fill="url(#aP)"/><path d="m89.327 208.803c-16.5035-6.646-31.4103-15.63-37.3876-23.157l.3042-.241c8.2643 10.406 33.7539 23.663 56.8274 29.513l-.098.38c-6.684-1.73-13.2472-3.9-19.646-6.495z" fill="url(#bo)"/><path d="m98.2894 187.408c-28.2262-11.366-53.71-26.736-63.9242-39.594l.3041-.241c14.1638 17.833 57.8303 40.513 97.3487 50.568l-.1.374c-11.442-2.957-22.676-6.668-33.6286-11.107z" fill="url(#aR)"/><path d="m76.9597 205.725c-5.1263-2.081-9.5078-5.656-12.5745-10.261-10.5129-15.395-9.6998-42.091 2.1688-71.413l.361.146c-11.8201 29.201-12.6444 55.758-2.2055 71.045 5.5623 8.154 14.0808 12.384 24.6062 12.27l.0059.388c-4.224.101-8.426-.638-12.3619-2.175z" fill="url(#aS)"/><path d="m86.1052 210.622-.0819-.033c-3.079-1.732 8.3427-34.127 21.0377-65.488l.361.146c-16.6514 41.131-23.2697 63.833-21.2032 64.995.2137.137.9154.089 2.9523-2.649l.3146.233c-1.6193 2.173-2.7017 3.069-3.3805 2.796z" fill="url(#aT)"/><path d="m97.8717 214.621c-3.2063-1.291-6.1308-3.588-8.6957-6.791l-.3748-.459.5634.143c9.9773 2.5 20.3174 3.222 30.5454 2.134 11.908-8.51 23.857-25.832 33.14-48.759l.064-.159.154.062c16.641 4.233 30.779 6.038 40.962 5.428 4.903-6.708 8.964-13.993 12.091-21.691l.124-.308.209.258c5.143 6.474 6.529 11.95 4.021 15.83-2.357 3.644-8.012 5.726-16.223 6.263-17.805 24.347-45.713 40.507-74.419 43.478-4.359 3.101-8.735 5.02-12.935 5.64-3.116.474-6.301.105-9.2263-1.069zm-8.0225-6.587c4.7708 5.77 10.5638 8.209 17.2228 7.248 3.985-.572 8.091-2.337 12.213-5.181-9.859.98-19.8121.283-29.4378-2.062zm63.5158-46.845c-9.158 22.564-20.904 39.699-32.676 48.386 28.26-3.128 55.676-19.067 73.264-43.002-10.173.575-24.173-1.213-40.59-5.379zm53.212-16.227c-3.08 7.514-7.048 14.631-11.821 21.201 7.904-.538 13.344-2.572 15.616-6.088 2.379-3.669 1.064-8.893-3.797-15.108z" fill="url(#bp)"/><path d="m108.974 215.298.097-.38c15.088 3.838 26.077 3.725 28.685-.305 1.19-1.843.491-4.485-2.014-7.642l.306-.246c2.623 3.294 3.323 6.099 2.034 8.092-2.686 4.183-13.851 4.359-29.108.481z" fill="url(#aV)"/><path d="m131.905 198.493.1-.374c25.883 6.585 44.745 6.358 49.242-.587 2.076-3.209.897-7.785-3.451-13.245l.305-.241c4.457 5.605 5.646 10.335 3.471 13.706-4.573 7.105-23.604 7.392-49.667.741z" fill="url(#aW)"/><path d="m100.456 213.664c-3.9134-1.582-7.6725-3.52-11.23-5.792l.206-.331c16.42 10.45 35.267 13.082 53.081 7.387 21.016-6.728 38.658-24.392 48.411-48.473l.361.145c-9.796 24.187-27.519 41.942-48.642 48.671-13.812 4.457-28.754 3.887-42.187-1.607z" fill="url(#bq)"/><path d="m91.311 208.74c-.6884-.277-1.3768-.554-2.0653-.832l.1454-.361c23.7399 10.169 49.5809 10.493 72.8159.921 21.999-9.045 38.991-26.065 47.816-47.884l.361.145c-8.871 21.918-25.932 39-48.033 48.105-22.644 9.312-47.792 9.267-71.04-.094z" fill="url(#aY)"/><path d="m206.577 144.963-.209-.258c-16.41-20.662-67.002-46.9423-112.7787-58.5884l-.2187-.0545.0834-.207c12.719-31.419 30.464-52.3542 46.313-54.6443 6.855-.9884 13.044 1.705 17.908 7.7705 21.263 5.4285 38.218 18.7461 47.722 37.5505 5.045 10.0433 7.786 21.0863 8.021 32.3232.331 11.933-1.928 23.976-6.71 35.797zm-73.94-46.357c32.506 13.089 61.865 30.758 73.832 45.597 4.697-11.665 6.884-23.557 6.562-35.33-.242-11.1761-2.972-22.1573-7.993-32.1445-9.466-18.705-26.337-31.9665-47.529-37.3611l-.063-.0252-.041-.0502c-4.822-6.0876-10.759-8.685-17.598-7.7071-15.659 2.277-33.245 23.0362-45.8893 54.2163 13.1733 3.4156 26.1073 7.693 38.7193 12.8048z" fill="url(#aZ)"/><path d="m212.217 99.3189c-14.173-17.8369-57.84-40.517-97.349-50.5682l.097-.3805c39.585 10.0707 83.343 32.8156 97.558 50.7027z" fill="url(#a0)"/><path d="m194.632 61.4994c-8.264-10.4054-33.749-23.6606-56.827-29.5126l.095-.3756c23.137 5.8868 48.728 19.1847 57.036 29.647z" fill="url(#a1)"/><path d="m180.318 122.835-.361-.145c11.82-29.2015 12.646-55.7634 2.207-71.0504-5.562-8.1536-14.076-12.3818-24.608-12.2644l-.004-.3932c10.681-.1248 19.288 4.175 24.936 12.4357 10.511 15.3999 9.694 42.1055-2.17 71.4173z" fill="url(#a2)"/><path d="m139.82 101.789-.361-.145c16.663-41.1044 23.272-63.8385 21.209-65.0104-.203-.1209-.908-.0917-2.952 2.6494l-.314-.233c1.686-2.2581 2.792-3.1277 3.46-2.758 3.075 1.7418-8.352 34.1505-21.042 65.497z" fill="url(#a3)"/><path d="m40.4174 102.689-.2095-.257c-5.147-6.4762-6.5338-11.9525-4.0258-15.8326 2.3618-3.6423 8.0123-5.7255 16.2237-6.2627 17.8064-24.3516 45.7142-40.5122 74.4252-43.481 4.36-3.101 8.736-5.0204 12.935-5.6401 6.873-.9922 13.077 1.7186 17.942 7.84l.374.4586-.558-.141c-9.983-2.5051-20.33-3.23-30.564-2.1414-11.909 8.5095-23.834 25.8412-33.1404 48.759l-.0639.1589-.1541-.062c-16.641-4.2335-30.7751-6.0364-40.9575-5.4257-4.9031 6.7079-8.9638 13.9925-12.091 21.69zm11.7099-21.9665c-7.8991.5399-13.3442 2.5715-15.6161 6.0878-2.3803 3.6741-1.0652 8.8978 3.7952 15.1127 3.08-7.5134 7.0486-14.6308 11.8209-21.2005zm74.0767-43.4201c-28.2791 3.1597-55.6853 19.0747-73.2951 43.0075 10.193-.5674 24.1932 1.2208 40.6098 5.3863 9.1603-22.5683 20.9073-39.7086 32.6853-48.3938zm22.703-4.6943c-2.887-1.1507-6.031-1.5025-9.101-1.0184-3.987.5768-8.091 2.3368-12.204 5.1569 9.857-.9632 19.805-.2544 29.425 2.0963-2.449-2.9592-5.156-5.0374-8.12-6.2348z" fill="url(#br)"/><path d="m68.7576 62.8463c-4.4569-5.6049-5.6459-10.3357-3.4669-13.7048 4.5894-7.1039 23.6173-7.3811 49.6663-.7523l-.097.3805c-25.8806-6.5889-44.7495-6.3596-49.2469.5855-2.0756 3.2093-.8949 7.7802 3.4526 13.2402z" fill="url(#bs)"/><path d="m110.835 40.1613c-2.623-3.2944-3.323-6.0996-2.034-8.0925 2.699-4.1726 13.854-4.3523 29.104-.4718l-.095.3756c-15.088-3.8377-26.074-3.7183-28.661.3148-1.194 1.8409-.498 4.488 2.008 7.6452z" fill="url(#a6)"/><path d="m55.9547 80.4563-.3611-.1454c9.7924-24.1936 27.521-41.9466 48.6534-48.7002 17.926-5.7394 36.896-3.1081 53.41 7.402l-.206.3311c-16.42-10.4501-35.267-13.0821-53.081-7.3868-21.023 6.7471-38.6675 24.4164-48.4153 48.4993z" fill="url(#bt)"/><path d="m36.8276 86.3559-.361-.1454c8.8754-21.9165 25.9336-39.0051 48.0398-48.108 23.3406-9.6243 49.2966-9.2822 73.1176.9083l-.145.3611c-23.724-10.1682-49.577-10.4907-72.8115-.9192-22.0184 9.0655-38.9915 26.0541-47.8399 47.9032z" fill="url(#bu)"/><path d="m114.239 148.299c-32.694-13.165-62.2017-30.977-74.0168-45.862l-.0701-.089.0368-.092c18.8569-46.5654 71.5131-74.9444 117.4161-63.2642l.057.0233.042.0502c16.474 20.7383 14.552 75.4607-4.28 121.9797l-.064.159-.159-.064c-13.257-3.416-26.272-7.706-38.962-12.841zm-73.655-46.024c16.4665 20.618 66.877 46.808 112.546 58.456 18.711-46.328 20.647-100.725 4.303-121.3551-45.659-11.6044-98.0496 16.6017-116.849 62.8991z" fill="url(#a9)"/><path d="m132.699 102.413c-28.227-11.3663-53.7125-26.7312-63.9314-39.5909l.306-.246c14.1435 17.8417 57.8334 40.5199 97.3484 50.5679l-.097.381c-11.441-2.959-22.675-6.671-33.626-11.112z" fill="url(#bv)"/><path d="m148.223 63.3173c-16.503-6.6454-31.408-15.6349-37.387-23.1562l.304-.2412c8.271 10.4024 33.754 23.6625 56.832 29.5144l-.095.3757c-6.688-1.7274-13.253-3.8964-19.654-6.4927z" fill="url(#bb)"/><path d="m66.9208 124.21-.361-.145c18.8365-46.5293 59.6552-84.6935 90.9882-85.0734l.004.3932c-31.187.3658-71.8431 38.4167-90.6312 84.8252z" fill="url(#bc)"/><path d="m107.422 145.246-.361-.145c18.815-46.4763 41.398-94.0423 50.335-106.0369l.314.233c-8.925 11.9657-31.482 59.4971-50.288 105.9489z" fill="url(#bw)"/><path d="m152.981 161.102.083-.207c18.789-46.409 20.733-100.9534 4.335-121.5884l-.374-.4587.563.143c21.314 5.4267 38.261 18.7635 47.783 37.5641 5.046 10.0434 7.786 21.0863 8.021 32.323.335 11.884-1.916 23.908-6.667 35.691 5.085 6.434 6.451 11.88 3.951 15.74-5.313 8.206-27.343 8.533-57.503.859zm5.084-121.6002c16.075 21.0198 14.068 75.1762-4.55 121.3172 29.888 7.559 51.659 7.29 56.86-.748 2.413-3.728 1.03-9.047-4.003-15.375l-.065-.088.042-.106c4.742-11.776 7.01-23.759 6.686-35.639-.241-11.1755-2.972-22.1567-7.993-32.1439-9.371-18.5217-26.052-31.7288-46.977-37.2173z" fill="url(#be)"/><path d="m166.326 113.525.097-.38c25.881 6.589 44.749 6.359 49.247-.586 2.074-3.204.895-7.78-3.453-13.2399l.306-.2461c4.457 5.605 5.646 10.336 3.467 13.705-4.581 7.084-23.615 7.376-49.664.747z" fill="url(#bf)"/><path d="m167.876 69.8098.095-.3757c15.084 3.8357 26.075 3.7184 28.663-.3196 1.19-1.8428.496-4.4832-2.014-7.6423l.304-.2412c2.624 3.2943 3.329 6.1014 2.034 8.0924-2.681 4.1852-13.832 4.3668-29.082.4864z" fill="url(#bx)"/><path d="m191.293 166.581-.361-.145c18.776-46.38 3.757-103.3973-33.481-127.0919l.206-.3311c37.396 23.775 52.48 81.02 33.636 127.568z" fill="url(#bh)"/><path d="m210.398 160.723-.361-.146c18.77-46.365-4.811-100.7371-52.564-121.2023l.145-.361c47.961 20.5321 71.636 75.1323 52.78 121.7093z" fill="url(#by)"/><path d="m87.7157 211.292-.3707-.149-1.3046-.553-.5874-.237c-.5343-.215-1.2699-.556-1.8947-.852-3.5541-1.648-7.0034-3.514-10.3282-5.586-6.0683-3.785-11.6849-8.25-16.7406-13.309-2.5387-2.57-4.9444-5.268-7.2076-8.083-2.0882-2.583-4.0175-5.29-5.7774-8.106-.2937-.493-.6134-1.019-.9485-1.563-1.1282-1.853-2.409-3.952-3.2454-5.71-.28-.582-.5879-1.221-.9189-1.886-.7281-1.485-1.484-3.026-2.0399-4.34-.9739-2.306-2.1445-5.373-2.9094-7.628-1.0827-3.189-2.2182-7.719-3.483-13.846-.4841-2.68-.8336-5.383-1.0473-8.098-.2641-2.678-.378-5.369-.3409-8.06.1458-4.949.5399-9.888 1.1809-14.798.6116-4.034 1.995-9.2341 3.1242-13.3168.5345-1.9109 1.4332-4.2402 2.2311-6.2911l.3994-.9918c1.004-2.634 2.1775-5.2002 3.5132-7.6826.3522-.6247.7335-1.3216 1.1313-2.0454.8739-1.6007 1.7808-3.2553 2.6069-4.5843 1.3475-2.1654 3.2138-4.9107 4.6465-6.8291 1.3844-1.854 3.2661-4.179 4.6827-5.7794 1.2049-1.3668 2.8162-3.0063 4.2362-4.4486l1.4491-1.4866c2.0024-1.9967 4.1338-3.8597 6.3803-5.5771 3.1377-2.4012 7.7787-5.5622 11.8216-8.0577 2.4978-1.5183 5.0962-2.8648 7.7771-4.0299l1.8407-.7918c1.4779-.6413 3.1604-1.3738 4.5339-1.867 2.557-.9173 6.1756-2.0675 9.2212-2.9336 2.1735-.6186 5.1185-1.2064 6.2835-1.4312 1.71-.3295 3.957-.6443 5.775-.9196l.534-.0759c3.603-.4895 7.236-.7278 10.872-.7132 3.107.037 5.444.1108 7.133.2255 2.208.1564 5.152.5024 7.169.7721 2.536.3441 5.747 1.0107 6.657 1.1978 2.061.4384 3.726.8904 5.479 1.3724.64.174 3.093.9044 4.394 1.3555 1.778.6151 3.311 1.1429 5.871 2.1906 4.041 1.6765 7.962 3.6291 11.735 5.8442 1.837 1.0644 3.925 2.4088 4.881 3.0509 1.367.9255 3.353 2.3574 5.33 3.8249 1.116.841 2.648 2.0955 3.808 3.1168 1.721 1.5209 3.713 3.3692 5.082 4.7206 2.404 2.3667 5.284 5.8033 7.203 8.0812.43.5427.852 1.093 1.273 1.6317 1.305 1.7059 2.801 3.7294 3.837 5.4222.303.497.643 1.0423.998 1.605.809 1.2991 1.727 2.7709 2.393 3.9791 1.363 2.3793 2.603 4.8265 3.717 7.3321.25.6154.533 1.2888.824 2.0103.651 1.5377 1.327 3.1247 1.813 4.4731.91 2.5204 1.88 5.5575 2.488 7.7157.608 2.158 1.261 4.984 1.633 6.991.208 1.096.909 4.926 1.197 7.962.552 5.1.686 10.236.401 15.358-.292 5.337-1.531 12.139-2.048 14.813-.481 2.486-1.428 5.741-2.12 8.042-.509 1.641-1.263 3.665-1.933 5.454-.256.636-.468 1.261-.674 1.827-1.132 2.959-2.467 5.837-3.994 8.614-1.293 2.349-2.648 4.769-3.808 6.579-1.365 2.141-3.264 4.868-4.72 6.777-1.393 1.834-3.296 4.128-4.732 5.72-1.257 1.385-2.908 3.054-4.396 4.513l-1.359 1.361c-1.749 1.688-3.588 3.28-5.508 4.77-1.56 1.235-3.607 2.693-5.411 3.976l-1.341.982c-2.473 1.688-5.044 3.23-7.699 4.615-4.074 2.169-8.293 4.054-12.628 5.64-2.6.9-6.253 2.025-9.343 2.862-1.714.463-3.99.906-5.817 1.261l-.431.084c-3.989.71-8.018 1.175-12.064 1.392-1.412.047-5.001.151-7.727.072-2.04-.061-4.93-.262-7.233-.518-3.385-.371-6.749-.917-10.078-1.636-2.489-.543-3.8635-.923-5.4594-1.364-.9314-.258-3.1898-.943-4.3925-1.361-1.7103-.588-2.8148-.971-3.9722-1.431l-1.5261-.615zm71.0663-175.4182c-2.195-.884-3.614-1.3768-5.24-1.9366-1.296-.4492-3.733-1.1786-4.369-1.3507-1.754-.4772-3.407-.9301-5.459-1.3647-2.45-.5164-4.926-.9654-6.626-1.191-2.018-.2533-4.944-.6146-7.148-.7691-1.682-.1176-4.007-.1923-7.109-.2274-3.612-.0242-7.221.2052-10.801.6864l-.534.0759c-1.787.2705-4.063.6017-5.761.9139-1.158.2219-4.086.8107-6.2389 1.4043-3.0388.8632-6.6459 2.0124-9.1961 2.9269-1.3601.4875-3.0358 1.217-4.5137 1.8584l-1.8407.7918c-2.6685 1.1532-5.2539 2.4901-7.7375 4.0011-4.039 2.4858-8.6645 5.6363-11.7955 8.0346-2.2291 1.7159-4.3428 3.5767-6.3273 5.5704-.4492.4625-.9467.9616-1.4539 1.4847-1.4152 1.4443-3.0245 3.079-4.2314 4.4505-1.4098 1.5976-3.2549 3.915-4.6614 5.7545-1.4065 1.8394-3.2817 4.6483-4.6253 6.804-.8222 1.3194-1.7271 2.9692-2.5933 4.5507-.393.7257-.7743 1.4226-1.1285 2.0521-1.3287 2.4645-2.4951 5.0132-3.4918 7.6297l-.3994.9917c-.7892 2.0433-1.6821 4.3581-2.2107 6.2545-1.137 4.0741-2.5194 9.2576-3.1146 13.2926-.6408 4.896-1.033 9.821-1.175 14.756-.0373 2.676.0753 5.351.3372 8.014.2105 2.699.5572 5.385 1.0387 8.049.8884 4.665 2.0478 9.273 3.4725 13.802.7716 2.253 1.9249 5.307 2.8959 7.606.555 1.304 1.3032 2.836 2.0313 4.321.3262.662.6408 1.298.9209 1.881.8306 1.744 2.1085 3.837 3.229 5.681.3399.545.6548 1.069.9486 1.563 1.751 2.799 3.6698 5.491 5.7456 8.059 2.2548 2.805 4.6512 5.494 7.1798 8.055 7.8119 7.81 16.94 14.181 26.9649 18.82.6055.288 1.3401.618 1.8706.843l.5825.234 1.2998.551c.3948.159.8762.353 1.324.534l.5729.23c1.1458.462 2.2522.84 3.9076 1.412 1.2288.422 3.4728 1.101 4.4041 1.359 1.5863.437 2.9611.817 5.4331 1.36 3.316.718 6.668 1.263 10.041 1.631 2.277.251 5.171.455 7.2.516 2.719.082 6.292-.023 7.706-.075 4.023-.216 8.03-.677 11.997-1.379l.433-.089c1.82-.352 4.092-.797 5.792-1.254 3.083-.834 6.739-1.952 9.317-2.85 4.316-1.583 8.518-3.461 12.575-5.623 2.641-1.376 5.197-2.908 7.655-4.588l1.352-.967c1.796-1.279 3.835-2.73 5.401-3.979 1.908-1.477 3.737-3.055 5.478-4.726l1.361-1.366c1.467-1.462 3.131-3.12 4.379-4.497 1.432-1.583 3.326-3.869 4.715-5.694 1.45-1.905 3.341-4.613 4.703-6.745 1.148-1.809 2.501-4.224 3.79-6.564 1.519-2.757 2.846-5.615 3.971-8.555.227-.564.439-1.189.678-1.837.666-1.779 1.422-3.797 1.928-5.428.707-2.283 1.663-5.518 2.102-7.999.517-2.673 1.732-9.457 2.031-14.77.288-5.106.159-10.227-.386-15.312-.289-3.02-.987-6.831-1.194-7.927-.375-1.987-1.016-4.717-1.63-6.9566-.615-2.2393-1.557-5.1925-2.488-7.7158-.494-1.3176-1.157-2.9218-1.805-4.4528-.287-.6753-.575-1.3506-.829-2.0123-1.106-2.4943-2.34-4.9297-3.697-7.2964l-.08-.1495c9.742 19.5884 10.46 43.3424 1.575 66.2564-.155.385-.312.775-.469 1.165l-.068.169c-18.83 46.582-71.525 74.945-117.4082 63.273l.0953-.376c45.7219 11.63 98.1819-16.638 116.9659-63.009l.068-.168c11.133-27.649 8.173-56.6588-7.871-78.0909l-1.263-1.6278c-1.912-2.2692-4.808-5.7068-7.175-8.0532-1.362-1.3428-3.349-3.1891-5.067-4.7032-1.149-1.0223-2.675-2.2633-3.788-3.0976-1.961-1.478-3.942-2.908-5.311-3.8171-.949-.645-3.024-1.9787-4.852-3.0392-3.763-2.1956-7.672-4.132-11.698-5.7959z" fill="url(#bz)"/></svg>