<svg fill="none" height="14" viewBox="0 0 17 14" width="17" xmlns="http://www.w3.org/2000/svg" xmlns:xlink="http://www.w3.org/1999/xlink"><linearGradient id="a"><stop offset="0" stop-color="#00ffa3"/><stop offset="1" stop-color="#dc1fff"/></linearGradient><linearGradient id="b" gradientUnits="userSpaceOnUse" x1="15.2449" x2="6.58494" xlink:href="#a" y1="-.627964" y2="15.9872"/><linearGradient id="c" gradientUnits="userSpaceOnUse" x1="11.4482" x2="2.78833" xlink:href="#a" y1="-2.60723" y2="14.0078"/><linearGradient id="d" gradientUnits="userSpaceOnUse" x1="13.3345" x2="4.67454" xlink:href="#a" y1="-1.6246" y2="14.9905"/><mask id="e" height="14" maskUnits="userSpaceOnUse" width="17" x="0" y="0"><path d="m16.7005.849609h-15.720031v12.299991h15.720031z" fill="#fff"/></mask><g mask="url(#e)"><path d="m3.53376 10.2378c.09486-.0946.2253-.1499.36366-.1499h12.54598c.2292 0 .3438.2762.1818.438l-2.4784 2.4742c-.0949.0947-.2253.15-.3636.15h-12.54599c-.22926 0-.343879-.2763-.18182-.438z" fill="url(#b)"/><path d="m3.53376.999561c.09882-.094704.22926-.149952.36366-.149952h12.54598c.2292 0 .3438.276241.1818.438001l-2.4784 2.47422c-.0949.09468-.2253.14994-.3636.14994h-12.54599c-.22926 0-.343879-.27624-.18182-.438z" fill="url(#c)"/><path d="m14.1468 5.58842c-.0949-.09474-.2253-.14994-.3636-.14994h-12.54599c-.22926 0-.343879.27618-.18182.438l2.47837 2.47422c.09486.09468.2253.14994.36366.14994h12.54598c.2292 0 .3438-.27624.1818-.43806z" fill="url(#d)"/></g></svg>