<svg fill="none" height="18" viewBox="0 0 19 18" width="19" xmlns="http://www.w3.org/2000/svg"><g fill="#a9aab7"><path d="m9.70019 17.0625c-4.44749 0-8.06249-3.615-8.06249-8.0625s3.615-8.0625 8.06249-8.0625c4.44751 0 8.06251 3.615 8.06251 8.0625s-3.615 8.0625-8.06251 8.0625zm0-15c-3.82499 0-6.93749 3.1125-6.93749 6.9375s3.1125 6.9375 6.93749 6.9375c3.82501 0 6.93751-3.1125 6.93751-6.9375s-3.1125-6.9375-6.93751-6.9375z"/><path d="m12.4822 11.9478c-.0975 0-.195-.0225-.285-.0825l-2.32501-1.3875c-.5775-.345-1.005-1.10249-1.005-1.76999v-3.075c0-.3075.255-.5625.5625-.5625s.5625.255.5625.5625v3.075c0 .27.22501.6675.45751.8025l2.325 1.38749c.27.1575.3525.5025.195.7725-.1125.18-.3.2775-.4875.2775z"/></g></svg>