<svg fill="none" height="24" viewBox="0 0 24 24" width="24" xmlns="http://www.w3.org/2000/svg" xmlns:xlink="http://www.w3.org/1999/xlink"><clipPath id="a"><path d="m0 0h24v24h-24z"/></clipPath><g clip-path="url(#a)"><path d="m23.6409 14.903c-1.6028 6.4286-8.1147 10.341-14.54485 8.7379-6.42742-1.6027-10.3402-8.1143-8.736627-14.54241 1.602167-6.42934 8.114057-10.34197 14.542177-8.739287 6.4297 1.602687 10.3422 8.114967 8.7392 14.543897z" fill="#f7931a"/><path d="m17.2923 10.2906c.2389-1.59696-.977-2.45537-2.6397-3.02802l.5394-2.16319-1.317-.32812-.5251 2.10624c-.3462-.08634-.7017-.1677-1.0551-.24835l.5289-2.12014-1.3162-.32811-.5396 2.16249c-.2865-.06523-.5679-.12969-.841-.19761l.0016-.00681-1.81613-.45346-.35033 1.40643s.97707.22395.95648.23773c.53329.13309.62973.48607.61371.76586l-.61442 2.46436c.03672.0093.08436.0228.13692.044-.04394-.011-.09069-.0229-.13921-.0345l-.8612 3.4523c-.06518.162-.2306.4051-.60346.3128.0132.0191-.95717-.2389-.95717-.2389l-.65385 1.5074 1.7138.4271c.31882.08.63126.1636.93894.2423l-.54497 2.188 1.31543.3281.53968-2.1648c.35938.0976.70808.1875 1.04948.2724l-.5378 2.1545 1.317.3281.5449-2.1839c2.2457.425 3.9342.2537 4.645-1.7773.5727-1.6352-.0285-2.5784-1.21-3.1934.8605-.1985 1.5087-.7644 1.6815-1.9333l-.0004-.0003zm-3.0089 4.2188c-.407 1.6352-3.1604.7512-4.0532.5296l.7232-2.8987c.8927.2228 3.7554.6638 3.3301 2.3691zm.4073-4.2425c-.3713 1.4874-2.663.7317-3.4064.5464l.6556-2.62896c.7435.18529 3.1375.53112 2.7509 2.08256z" fill="#fff"/></g></svg>