<svg fill="none" height="24" viewBox="0 0 24 24" width="24" xmlns="http://www.w3.org/2000/svg" xmlns:xlink="http://www.w3.org/1999/xlink"><linearGradient id="a" gradientUnits="userSpaceOnUse" x1="5.4254" x2="18.575" y1="18.5748" y2="5.42521"><stop offset="0" stop-color="#9945ff"/><stop offset=".2" stop-color="#7962e7"/><stop offset="1" stop-color="#00d18c"/></linearGradient><clipPath id="b"><path d="m0 0h24v24h-24z"/></clipPath><g clip-path="url(#b)"><path d="m12 24c6.6274 0 12-5.3726 12-12 0-6.62742-5.3726-12-12-12-6.62742 0-12 5.37258-12 12 0 6.6274 5.37258 12 12 12z" fill="#000"/><path clip-rule="evenodd" d="m7.40538 15.3078c.04518-.0497.1002-.0894.16158-.1165.06132-.0272.12774-.0413.19482-.0413l10.99682.009c.0468.0001.0927.0138.1318.0394.0392.0257.0702.0621.089.105.0189.0428.0249.0902.0173.1364s-.0283.0893-.0599.1239l-2.3418 2.5785c-.0452.0497-.1003.0894-.1616.1165-.0615.0273-.1279.0413-.1951.0413l-10.9965-.009c-.04683-.0001-.09263-.0138-.13182-.0395-.03921-.0255-.07012-.062-.08898-.1048-.01888-.0429-.0249-.0904-.01733-.1366.00756-.0462.02838-.0892.05993-.1238zm11.53142-2.1465c.0316.0346.0523.0776.0599.1238s.0016.0937-.0173.1366c-.0188.0428-.0498.0793-.089.1048-.0391.0257-.085.0394-.1318.0395l-10.99652.009c-.06714 0-.13356-.014-.195-.0413-.06144-.0271-.11652-.0668-.1617-.1165l-2.34178-2.58c-.03155-.0346-.05237-.0776-.05993-.1238-.00757-.0462-.00155-.0937.01733-.1365.01886-.0429.04977-.0793.08898-.105.03919-.0256.08499-.0393.13182-.0394l10.9968-.009c.0671.0001.1335.0141.1949.0413.0613.0272.1164.0668.1615.1165zm-11.53142-7.30349c.04518-.04967.1002-.08935.16158-.11653.06132-.02717.12774-.04123.19482-.04127l10.99682.009c.0468.0001.0927.01379.1318.03941.0392.02563.0702.06209.089.10495.0189.04287.0249.09028.0173.13649s-.0283.08923-.0599.12385l-2.3418 2.5785c-.0452.04968-.1003.0894-.1616.11658-.0615.02718-.1279.04122-.1951.04122l-10.9965-.009c-.04683-.00012-.09263-.0138-.13182-.03942-.03921-.02562-.07012-.0621-.08898-.10494-.01888-.04284-.0249-.0903-.01733-.1365.00756-.0462.02838-.08922.05993-.12384z" fill="url(#a)" fill-rule="evenodd"/></g></svg>