<svg fill="none" height="20" viewBox="0 0 20 20" width="20" xmlns="http://www.w3.org/2000/svg" xmlns:xlink="http://www.w3.org/1999/xlink"><clipPath id="a"><path d="m2.5 2.5h15v15h-15z"/></clipPath><g clip-path="url(#a)"><path d="m5.50006 10.0001c0-1.2428.50314-2.36711 1.31803-3.182l-.7071-.70711c-.99477.99476-1.61093 2.37045-1.61093 3.88911zm1.31803-3.182c.81489-.81488 1.9392-1.31801 3.18201-1.31801v-1c-1.51867 0-2.89436.61615-3.88911 1.6109zm.00001-.70711-1.76775-1.76775-.70711.7071 1.76775 1.76776zm3.182-.6109c1.2427 0 2.3671.50313 3.1819 1.31803l.7071-.70711c-.9947-.99476-2.3704-1.61092-3.889-1.61092zm3.1819 1.31803c.8149.81488 1.318 1.93919 1.318 3.18198h1c0-1.51865-.6161-2.89433-1.6109-3.88909zm.7071 0 1.7678-1.76778-.7071-.70711-1.7678 1.76778zm.6109 3.18198c0 1.2428-.5031 2.3671-1.318 3.1819l.7071.7072c.9948-.9948 1.6109-2.3705 1.6109-3.8891zm-1.318 3.1819c-.8148.8149-1.9392 1.3181-3.1819 1.3181v1c1.5186 0 2.8943-.6162 3.889-1.6109zm0 .7072 1.7678 1.7677.7071-.7071-1.7678-1.7678zm-3.1819.6109c-1.24281 0-2.36712-.5031-3.18201-1.318l-.7071.7071c.99475.9947 2.37044 1.6109 3.88911 1.6109zm-3.18201-1.318c-.81489-.8149-1.31803-1.9392-1.31803-3.182h-1c0 1.5186.61616 2.8943 1.61093 3.8891zm-1.76774 2.4748 1.76775-1.7677-.70711-.7071-1.76775 1.7677zm5.44975-10.65682-.0001-2.50008-.99998.00002.00004 2.50008zm4.5 5.50002 2.4999-.0001v-.99999l-2.5.00008zm-10.00002-1.00001-2.50005-.00008-.00003.99999 2.50005.0001zm4.49998 5.50001-.00004 2.4999h.99998l.0001-2.4999z" fill="#787b86"/></g></svg>