<svg width="361" height="213" viewBox="0 0 361 213" fill="none" xmlns="http://www.w3.org/2000/svg">
<g clip-path="url(#clip0_28_746)">
<rect width="361" height="213" rx="24" fill="url(#paint0_linear_28_746)" fill-opacity="0.1"/>
<path d="M418.17 276.185C396.947 269.324 377.458 259.174 358.635 249.372C339.012 239.161 318.634 228.603 296.788 221.987C258.432 210.428 206.163 200.851 153.406 195.705C129.539 193.377 107.027 201.219 85.2482 208.795C56.7584 218.72 27.2907 228.971 -5.19922 216.351C-31.2001 206.242 -45.6227 185.515 -59.5565 165.461C-73.1348 145.938 -87.1797 125.762 -111.98 115.081L-111.025 113.223C-85.6463 124.169 -71.4236 144.59 -57.6898 164.276C-43.2893 184.984 -29.7111 204.527 -4.35474 214.37C27.313 226.623 55.0694 217.025 84.537 206.814C106.538 199.136 129.316 191.212 153.717 193.601C206.608 198.748 259.054 208.366 297.544 219.965C319.767 226.643 340.079 237.242 359.768 247.514C378.524 257.275 397.903 267.363 418.948 274.184L418.17 276.185Z" fill="url(#paint1_linear_28_746)"/>
<path d="M404.214 231.625C387.836 225.499 375.546 217.494 363.635 209.734C347.456 199.176 332.167 189.19 307.944 184.473C261.399 175.841 214.045 171.43 166.562 171.301C150.717 171.301 134.983 172.199 119.76 173.139C75.7809 175.814 34.224 178.346 -9.13294 158.231C-22.4667 152.105 -34.2671 140.628 -45.7341 129.641C-61.4458 114.489 -77.6908 98.8461 -97.6914 96.5997L-97.4025 94.5576C-76.6241 96.8856 -60.1124 112.814 -44.0674 128.212C-32.7337 139.137 -21 150.43 -8.06625 156.434C34.824 176.324 76.0698 173.813 119.738 171.137C135.005 170.198 150.85 169.095 166.695 169.3C214.335 169.42 261.847 173.846 308.544 182.512C333.212 187.332 348.679 197.42 365.057 208.12C376.857 215.819 389.058 223.763 405.192 229.767L404.214 231.625Z" fill="url(#paint2_linear_28_746)"/>
<path d="M393.992 186.128C387.081 181.921 381.036 177.959 375.191 174.099C351.391 158.477 334.19 147.205 296.589 146.245C280.255 145.836 264.077 148.491 248.432 151.044C233.964 153.413 218.986 155.863 203.875 155.884H203.475C138.673 155.884 66.0479 130.786 9.97939 108.915C1.0662 105.192 -7.62759 101.041 -16.0659 96.4781C-38.2889 84.9196 -63.6452 71.8091 -87.1793 75.9547L-87.6016 73.9125C-63.1563 69.6241 -37.5555 82.9183 -14.9103 94.6606C-6.54881 99.1688 2.07141 103.259 10.9128 106.913C116.961 148.307 169.54 153.739 203.43 153.739H203.941C218.853 153.739 233.742 151.289 248.12 148.92C263.854 146.347 280.122 143.672 296.722 144.101C335.012 145.081 352.435 156.517 376.547 172.343C382.369 176.162 388.414 180.124 395.281 184.31L393.992 186.128Z" fill="url(#paint3_linear_28_746)"/>
<path d="M238.252 141.2C218.985 141.2 193.451 131.132 172.628 122.821C164.917 119.778 157.628 116.919 151.383 114.816C110.737 101.174 70.0026 85.838 30.6235 70.9918L14.2229 64.8654C10.445 63.4359 6.53381 61.8838 2.5559 60.291C-23.8672 49.7128 -53.8015 37.7255 -79.0245 54.0625L-80.3135 52.388C-54.046 35.3974 -23.5116 47.6298 3.4448 58.4122C7.40049 60.0051 11.2895 61.5571 15.0674 62.9866L31.4679 69.113C70.8248 83.9593 111.471 99.2957 152.139 112.917C158.45 114.959 165.761 117.92 173.495 120.963C195.718 129.744 223.474 140.649 242.542 138.893C256.831 137.545 266.987 130.479 277.832 122.984C286.721 116.858 296.01 110.364 307.944 107.24C343.5 97.8662 368.434 117.083 388.057 137.116L386.413 138.484C366.279 117.94 342.9 100.174 308.633 109.2C297.121 112.222 288.032 118.533 279.254 124.618C268.698 131.949 257.764 139.526 242.853 140.955C241.325 141.112 239.79 141.194 238.252 141.2V141.2Z" fill="url(#paint4_linear_28_746)"/>
<path d="M256.675 119.146C236.941 119.146 211.029 108.363 189.829 99.5412C181.695 96.1513 174.028 92.9655 167.606 90.6988C152.205 85.328 136.493 79.7734 121.471 74.3617C92.981 64.1511 63.5356 53.7567 34.2902 44.0974C30.0456 42.6883 25.7121 41.1771 21.312 39.6455C-8.97791 29.0469 -40.3345 18.1011 -69.2021 33.3354L-70.291 31.5587C-40.5123 15.8343 -7.24451 27.4745 22.112 37.6851C26.5566 39.2167 30.8012 40.7075 35.0457 42.1165C64.3134 51.7758 93.781 62.2519 122.271 72.4013C137.382 77.7721 153.005 83.3267 168.406 88.7383C175.073 91.0459 182.673 94.2317 190.829 97.642C213.829 107.199 242.452 119.125 261.942 116.756C277.054 114.939 290.832 101.583 304.166 88.6566C319.411 73.8716 333.833 59.9035 350.456 61.2921C361.812 62.2315 372.679 70.3592 383.99 86.1448L382.124 87.2476C371.301 72.0337 360.879 64.2123 350.256 63.3138C334.7 62.0068 320.633 75.5666 305.81 90.0657C292.21 103.237 278.165 116.879 262.275 118.778C260.42 119.018 258.549 119.141 256.675 119.146V119.146Z" fill="url(#paint5_linear_28_746)"/>
<path d="M229.875 72.7689C191.296 72.7689 149.872 56.779 109.671 41.2997C54.4691 20.0411 -2.59939 -1.95261 -54.7789 15.6097L-55.4678 13.7718C-2.53272 -4.05599 54.958 18.0807 110.538 39.5026C150.961 55.0841 192.763 71.1965 231.275 70.8085C251.964 70.5838 270.832 59.0458 289.055 47.8958C316.078 31.3545 344.034 14.2415 376.235 37.3993L374.857 38.9921C343.923 16.7533 317.878 32.7023 290.277 49.5907C271.765 60.9041 252.631 72.626 231.275 72.8506L229.875 72.7689Z" fill="url(#paint6_linear_28_746)"/>
<path d="M162.693 11.6069C136.404 11.6069 109.603 8.13527 83.6464 4.76576C44.5785 -0.319139 4.19935 -5.5674 -34.7797 1.00825L-35.1797 -1.03388C4.15492 -7.67079 44.8229 -2.4021 83.9575 2.70322C111.781 6.31779 140.559 10.0345 168.538 9.46266C191.25 9.01339 214.251 6.15441 236.496 3.33628C272.253 -1.09514 309.232 -5.66952 346.033 -0.502934L345.699 1.53919C309.209 -3.58655 272.364 0.967408 236.807 5.37841C214.584 8.13528 191.428 10.9943 168.582 11.5048C166.627 11.5865 164.649 11.6069 162.693 11.6069Z" fill="url(#paint7_linear_28_746)"/>
<path d="M381.835 302.508C373.968 271.366 373.835 239.427 373.679 208.57C373.679 193.111 373.546 177.101 372.502 161.315C371.768 150.022 371.991 137.729 372.235 124.7C372.724 98.0298 373.235 70.4611 365.413 48.4469C357.79 27.0046 339.745 14.8948 322.3 3.19335C307.166 -7.01729 291.499 -17.473 282.521 -34.0551C267.876 -61.052 277.81 -92.8072 287.388 -123.521C294.655 -146.76 302.166 -170.776 299.033 -192.586L301.255 -192.851C304.455 -170.633 296.81 -146.393 289.566 -122.949C280.076 -92.6234 270.276 -61.2563 284.521 -34.9536C293.277 -18.8412 308.7 -8.40597 323.633 1.5392C341.412 13.4244 359.701 25.7384 367.546 47.8139C375.391 69.8893 374.968 97.9073 374.48 124.741C374.235 137.729 374.013 149.982 374.746 161.193C375.791 177.04 375.857 193.071 375.924 208.57C376.08 239.325 376.213 271.141 384.035 302.079L381.835 302.508Z" fill="url(#paint8_linear_28_746)"/>
<path d="M335.523 284.7L333.301 284.455C335.39 268.792 338.234 254.231 340.968 240.161C346.968 209.223 352.657 180 349.368 145.202C348.501 135.87 348.323 125.761 348.123 115.081C347.679 89.6359 347.234 63.3333 337.323 42.8711C328.1 23.8181 308.789 12.2392 290.099 0.987074C272.854 -9.36652 255.009 -20.0877 244.587 -36.7515C227.697 -63.7689 239.475 -96.9535 250.853 -129.035C256.387 -144.596 261.587 -159.279 263.298 -172.635L265.521 -172.41C263.787 -158.85 258.543 -144.065 252.987 -128.402C241.764 -96.7492 230.142 -64.0139 246.542 -37.7521C256.676 -21.5376 274.299 -10.939 291.344 -0.707897C310.3 10.6668 329.9 22.4294 339.39 42.0543C349.457 62.884 349.923 89.3908 350.368 115.04C350.568 125.7 350.746 135.747 351.612 145.018C354.923 180.102 349.212 209.448 343.168 240.529C340.434 254.579 337.612 269.037 335.523 284.7Z" fill="url(#paint9_linear_28_746)"/>
<path d="M292.744 265.893L290.633 265.239C292.344 260.563 294.166 255.866 296.077 250.944C304.278 229.808 312.722 207.937 312.656 186.515C312.36 179.056 311.357 171.636 309.655 164.337C307.927 156.856 306.909 149.252 306.611 141.609C306.611 131.173 308.722 120.125 310.856 109.445C314.367 91.7602 318.011 73.4627 311.611 57.044C302.589 33.8045 279.766 18.9174 255.609 3.15218C233.186 -11.4899 210.008 -26.6221 199.23 -49.0038C184.829 -78.9006 198.319 -104.019 212.563 -130.689C216.63 -138.265 220.83 -146.087 224.386 -154.092L226.453 -153.316C222.853 -145.147 218.63 -137.387 214.563 -129.79C200.519 -103.631 187.251 -78.9006 201.23 -49.9023C211.763 -28.0311 234.697 -13.144 256.787 1.41635C280.166 16.6711 304.322 32.4567 313.589 56.2884C320.256 73.2381 316.5 91.801 312.922 109.751C310.811 120.35 308.633 131.296 308.722 141.547C309.019 149.068 310.03 156.55 311.744 163.909C313.453 171.303 314.465 178.818 314.767 186.372C314.767 208.162 306.322 230.196 298.077 251.496C296.255 256.54 294.455 261.216 292.744 265.893Z" fill="url(#paint10_linear_28_746)"/>
<path d="M243.765 248.166L241.542 247.778C243.652 235.616 244.841 223.334 245.098 211.02C246.209 187.536 247.32 163.255 260.521 143.977C265.233 137.347 270.493 131.059 276.254 125.169C288.677 111.916 298.477 101.439 291.477 79.5683C281.921 49.6919 250.654 27.739 220.364 6.52131C193.696 -12.1846 166.14 -31.5235 152.828 -56.4579C136.805 -86.5385 157.273 -108.675 177.14 -130.097C179.985 -133.16 182.807 -136.224 185.54 -139.307L187.274 -138.021C184.518 -134.937 181.674 -131.894 178.829 -128.77C159.473 -107.858 139.45 -86.2322 154.828 -57.2952C167.895 -32.7897 195.252 -13.5936 221.719 4.96931C252.32 26.33 283.899 48.4871 293.655 79.119C301.011 102.052 290.855 112.896 277.988 126.619C272.287 132.434 267.086 138.647 262.432 145.202C249.565 164.01 248.431 188.087 247.342 211.224C247.078 223.599 245.882 235.943 243.765 248.166V248.166Z" fill="url(#paint11_linear_28_746)"/>
<path d="M182.985 233.055H180.763C180.763 227.725 180.763 222.844 180.763 218.045C180.429 188.434 180.229 170.545 217.297 154.106C222.831 151.635 228.786 149.429 234.542 147.306C251.52 141.036 267.565 135.053 272.788 123.311C275.854 116.388 275.01 107.974 269.943 97.5594C254.387 64.8853 222.164 39.5833 191.074 15.1186C165.273 -5.18014 138.606 -26.1936 121.472 -51.3118C94.5597 -90.7862 114.183 -104.407 146.695 -126.871L150.028 -129.178L151.384 -127.545L147.984 -125.094C115.427 -102.631 97.4932 -90.2144 123.316 -52.3329C140.25 -27.4802 166.807 -6.58923 192.474 13.6278C223.764 38.2355 256.098 63.7009 271.943 96.8038C277.166 107.75 278.099 116.694 274.788 124.148C269.21 136.727 252.743 142.813 235.32 149.266C229.586 151.308 223.675 153.575 218.208 156.005C182.407 171.893 182.651 189.271 182.94 218.086C183.007 222.783 183.074 227.704 182.985 233.055Z" fill="url(#paint12_linear_28_746)"/>
<path d="M125.56 224.233L123.338 224.111C126.093 181.675 142.116 170.239 180.784 152.534C185.229 150.492 189.829 148.572 194.251 146.714C211.34 139.526 227.474 132.746 232.03 120.759C234.808 113.468 233.23 104.605 227.185 93.6594C218.296 77.4449 195.051 56.3702 170.517 34.0497C127.516 -5.0775 78.8028 -49.4121 84.7586 -85.7212C87.2253 -100.71 99.0701 -113.372 119.96 -123.398L121.004 -121.581C100.47 -111.738 89.3365 -99.914 86.9586 -85.4149C81.1584 -50.1473 129.471 -6.18023 172.073 32.5998C196.74 55.0632 220.03 76.2197 229.163 92.7405C235.497 104.197 237.119 113.591 234.141 121.432C229.274 134.237 212.718 141.2 195.184 148.572C190.74 150.41 186.295 152.33 181.851 154.372C143.138 172.057 128.271 182.676 125.56 224.233Z" fill="url(#paint13_linear_28_746)"/>
<path d="M57.8688 248.003L55.6465 247.635C63.1447 208.753 79.8338 171.856 104.537 139.545C109.391 133.457 114.584 127.602 120.093 122.004C134.894 106.238 150.205 89.9421 146.761 68.0913C142.983 43.9738 124.538 20.8773 106.537 -1.4432C75.9138 -39.5902 44.3128 -79.0441 91.9588 -121.5L93.4922 -120.03C47.2018 -78.7991 76.8916 -41.8161 108.315 -2.64805C126.404 19.8154 145.094 43.1773 148.961 67.785C152.561 90.5751 136.894 107.239 121.76 123.351C116.36 128.909 111.272 134.716 106.515 140.75C81.9474 172.796 65.3406 209.41 57.8688 248.003V248.003Z" fill="url(#paint14_linear_28_746)"/>
<path d="M-6.57751 261.931L-8.7998 261.726C-7.39976 249.331 -6.24418 236.629 -5.13303 224.355C-1.95515 189.496 1.33385 153.453 10.423 119.002C17.0899 93.3324 28.2014 78.6495 41.1574 61.659C46.602 54.4707 52.2689 47.0374 57.9135 38.2154C73.1584 14.5879 68.9138 -11.0204 64.4248 -38.1399C60.1136 -64.0341 55.6912 -90.8268 68.8694 -116.905L70.8917 -116.047C58.0246 -90.5205 62.4248 -64.0545 66.6693 -38.4462C71.2251 -10.9591 75.5585 14.9963 59.8691 39.1547C54.1356 48.038 48.491 55.4918 43.0241 62.7209C30.2904 79.5481 19.29 94.088 12.6231 119.37C3.6006 153.677 0.311604 189.639 -2.93295 224.417C-4.13299 236.812 -5.28858 249.514 -6.57751 261.931Z" fill="url(#paint15_linear_28_746)"/>
<path d="M-50.0006 214.288L-52.2229 214.145C-51.1118 200.504 -51.6229 183.799 -52.2229 166.114C-53.8896 111.814 -55.9786 44.2194 -11.066 18.3048C-6.33255 15.5479 -1.55461 13.1382 3.04554 10.8102C17.2238 3.6219 30.602 -3.15797 39.6689 -17.7796C50.9582 -35.8116 51.4916 -61.3178 51.9805 -83.8017C52.1583 -91.623 52.3138 -98.9951 52.8916 -105.795L55.1139 -105.632C54.5583 -98.893 54.3805 -91.5413 54.225 -83.7608C53.7361 -61.0319 53.1805 -35.2602 41.6246 -16.7586C32.2465 -1.7489 18.6016 5.15348 4.15669 12.4847C-0.443459 14.8128 -5.17694 17.2225 -9.86598 19.9181C-53.6896 45.2201 -51.6451 112.161 -49.9784 165.951C-49.4006 183.799 -48.8006 200.544 -50.0006 214.288Z" fill="url(#paint16_linear_28_746)"/>
<path d="M-82.3363 157.681L-84.5586 157.15C-80.2696 142.283 -78.6473 125.987 -76.9139 108.751C-73.536 74.8929 -70.0248 39.8704 -44.7795 16.4471C-35.7126 8.03358 -23.6899 3.31627 -12.0673 -1.21726C-1.68923 -5.30151 9.04446 -9.38578 17.3114 -16.2882C43.4011 -37.7305 43.5567 -55.4766 43.8456 -87.7627H46.0679C45.8012 -56.0484 45.6234 -36.8932 18.8003 -14.8383C10.2445 -7.81333 -0.644754 -3.5453 -11.2007 0.579796C-22.6232 5.05206 -34.4458 9.66729 -43.2017 17.795C-67.8914 40.7076 -71.3582 75.3626 -74.7138 108.853C-76.2695 125.497 -77.9806 142.63 -82.3363 157.681Z" fill="url(#paint17_linear_28_746)"/>
</g>
<rect x="1" y="1" width="359" height="211" rx="23" stroke="url(#paint18_linear_28_746)" stroke-width="2"/>
<defs>
<linearGradient id="paint0_linear_28_746" x1="180.5" y1="0" x2="180.5" y2="213" gradientUnits="userSpaceOnUse">
<stop stop-color="#34C796"/>
<stop offset="1" stop-color="#0B7A55"/>
</linearGradient>
<linearGradient id="paint1_linear_28_746" x1="153.484" y1="113.223" x2="153.484" y2="276.185" gradientUnits="userSpaceOnUse">
<stop stop-color="#34C796"/>
<stop offset="1" stop-color="#0B7A55"/>
</linearGradient>
<linearGradient id="paint2_linear_28_746" x1="153.75" y1="94.5576" x2="153.75" y2="231.625" gradientUnits="userSpaceOnUse">
<stop stop-color="#34C796"/>
<stop offset="1" stop-color="#0B7A55"/>
</linearGradient>
<linearGradient id="paint3_linear_28_746" x1="153.84" y1="73.0894" x2="153.84" y2="186.128" gradientUnits="userSpaceOnUse">
<stop stop-color="#34C796"/>
<stop offset="1" stop-color="#0B7A55"/>
</linearGradient>
<linearGradient id="paint4_linear_28_746" x1="153.872" y1="43.9687" x2="153.872" y2="141.2" gradientUnits="userSpaceOnUse">
<stop stop-color="#34C796"/>
<stop offset="1" stop-color="#0B7A55"/>
</linearGradient>
<linearGradient id="paint5_linear_28_746" x1="156.85" y1="23.8696" x2="156.85" y2="119.146" gradientUnits="userSpaceOnUse">
<stop stop-color="#34C796"/>
<stop offset="1" stop-color="#0B7A55"/>
</linearGradient>
<linearGradient id="paint6_linear_28_746" x1="160.384" y1="7.25488" x2="160.384" y2="72.8506" gradientUnits="userSpaceOnUse">
<stop stop-color="#34C796"/>
<stop offset="1" stop-color="#0B7A55"/>
</linearGradient>
<linearGradient id="paint7_linear_28_746" x1="155.427" y1="-4.14941" x2="155.427" y2="11.6069" gradientUnits="userSpaceOnUse">
<stop stop-color="#34C796"/>
<stop offset="1" stop-color="#0B7A55"/>
</linearGradient>
<linearGradient id="paint8_linear_28_746" x1="329.566" y1="-192.851" x2="329.566" y2="302.508" gradientUnits="userSpaceOnUse">
<stop stop-color="#34C796"/>
<stop offset="1" stop-color="#0B7A55"/>
</linearGradient>
<linearGradient id="paint9_linear_28_746" x1="294.361" y1="-172.635" x2="294.361" y2="284.7" gradientUnits="userSpaceOnUse">
<stop stop-color="#34C796"/>
<stop offset="1" stop-color="#0B7A55"/>
</linearGradient>
<linearGradient id="paint10_linear_28_746" x1="255.166" y1="-154.092" x2="255.166" y2="265.893" gradientUnits="userSpaceOnUse">
<stop stop-color="#34C796"/>
<stop offset="1" stop-color="#0B7A55"/>
</linearGradient>
<linearGradient id="paint11_linear_28_746" x1="221.603" y1="-139.307" x2="221.603" y2="248.166" gradientUnits="userSpaceOnUse">
<stop stop-color="#34C796"/>
<stop offset="1" stop-color="#0B7A55"/>
</linearGradient>
<linearGradient id="paint12_linear_28_746" x1="192.772" y1="-129.178" x2="192.772" y2="233.055" gradientUnits="userSpaceOnUse">
<stop stop-color="#34C796"/>
<stop offset="1" stop-color="#0B7A55"/>
</linearGradient>
<linearGradient id="paint13_linear_28_746" x1="159.922" y1="-123.398" x2="159.922" y2="224.233" gradientUnits="userSpaceOnUse">
<stop stop-color="#34C796"/>
<stop offset="1" stop-color="#0B7A55"/>
</linearGradient>
<linearGradient id="paint14_linear_28_746" x1="102.565" y1="-121.5" x2="102.565" y2="248.003" gradientUnits="userSpaceOnUse">
<stop stop-color="#34C796"/>
<stop offset="1" stop-color="#0B7A55"/>
</linearGradient>
<linearGradient id="paint15_linear_28_746" x1="31.0459" y1="-116.905" x2="31.0459" y2="261.931" gradientUnits="userSpaceOnUse">
<stop stop-color="#34C796"/>
<stop offset="1" stop-color="#0B7A55"/>
</linearGradient>
<linearGradient id="paint16_linear_28_746" x1="1.10968" y1="-105.795" x2="1.10968" y2="214.288" gradientUnits="userSpaceOnUse">
<stop stop-color="#34C796"/>
<stop offset="1" stop-color="#0B7A55"/>
</linearGradient>
<linearGradient id="paint17_linear_28_746" x1="-19.2454" y1="-87.7627" x2="-19.2454" y2="157.681" gradientUnits="userSpaceOnUse">
<stop stop-color="#34C796"/>
<stop offset="1" stop-color="#0B7A55"/>
</linearGradient>
<linearGradient id="paint18_linear_28_746" x1="180.5" y1="0" x2="180.5" y2="213" gradientUnits="userSpaceOnUse">
<stop stop-color="#34C796"/>
<stop offset="1" stop-color="#0B7A55"/>
</linearGradient>
<clipPath id="clip0_28_746">
<rect width="361" height="213" rx="24" fill="white"/>
</clipPath>
</defs>
</svg>
