<svg fill="none" height="39" viewBox="0 0 39 39" width="39" xmlns="http://www.w3.org/2000/svg" xmlns:xlink="http://www.w3.org/1999/xlink"><linearGradient id="a" gradientUnits="userSpaceOnUse" x1="36.8727" x2="4.60909" y1="4.25455" y2="32.6182"><stop offset="0" stop-color="#1ea"/><stop offset="1" stop-color="#d229fb"/></linearGradient><circle cx="19.5" cy="19.5" fill="url(#a)" r="19.5"/><g fill="#fff"><path d="m11.6219 24.7075c.142-.142.3372-.2248.5442-.2248h18.7735c.3431 0 .5146.4141.2721.6566l-3.7086 3.7085c-.1419.142-.3371.2248-.5441.2248h-18.77354c-.34306 0-.51459-.414-.27208-.6565z"/><path d="m11.6219 10.861c.1479-.142.3431-.2248.5442-.2248h18.7735c.3431 0 .5146.4141.2721.6566l-3.7086 3.7085c-.1419.142-.3371.2248-.5441.2248h-18.77354c-.34306 0-.51459-.414-.27208-.6565z"/><path d="m27.5031 17.7399c-.1419-.142-.3371-.2248-.5441-.2248h-18.77354c-.34306 0-.51459.414-.27208.6565l3.70852 3.7086c.142.142.3372.2248.5442.2248h18.7735c.3431 0 .5146-.4141.2721-.6566z"/></g></svg>