<svg fill="none" height="213" viewBox="0 0 361 213" width="361" xmlns="http://www.w3.org/2000/svg" xmlns:xlink="http://www.w3.org/1999/xlink"><linearGradient id="a"><stop offset="0" stop-color="#34c796"/><stop offset="1" stop-color="#0b7a55"/></linearGradient><linearGradient id="b" gradientUnits="userSpaceOnUse" x1="180.5" x2="180.5" xlink:href="#a" y1="0" y2="213"/><linearGradient id="c" gradientUnits="userSpaceOnUse" x1="153.484" x2="153.484" xlink:href="#a" y1="113.223" y2="276.185"/><linearGradient id="d" gradientUnits="userSpaceOnUse" x1="153.75" x2="153.75" xlink:href="#a" y1="94.5576" y2="231.625"/><linearGradient id="e" gradientUnits="userSpaceOnUse" x1="153.84" x2="153.84" xlink:href="#a" y1="73.0894" y2="186.128"/><linearGradient id="f" gradientUnits="userSpaceOnUse" x1="153.872" x2="153.872" xlink:href="#a" y1="43.9687" y2="141.2"/><linearGradient id="g" gradientUnits="userSpaceOnUse" x1="156.85" x2="156.85" xlink:href="#a" y1="23.8696" y2="119.146"/><linearGradient id="h" gradientUnits="userSpaceOnUse" x1="160.384" x2="160.384" xlink:href="#a" y1="7.25488" y2="72.8506"/><linearGradient id="i" gradientUnits="userSpaceOnUse" x1="155.427" x2="155.427" xlink:href="#a" y1="-4.14941" y2="11.6069"/><linearGradient id="j" gradientUnits="userSpaceOnUse" x1="329.566" x2="329.566" xlink:href="#a" y1="-192.851" y2="302.508"/><linearGradient id="k" gradientUnits="userSpaceOnUse" x1="294.361" x2="294.361" xlink:href="#a" y1="-172.635" y2="284.7"/><linearGradient id="l" gradientUnits="userSpaceOnUse" x1="255.166" x2="255.166" xlink:href="#a" y1="-154.092" y2="265.893"/><linearGradient id="m" gradientUnits="userSpaceOnUse" x1="221.603" x2="221.603" xlink:href="#a" y1="-139.307" y2="248.166"/><linearGradient id="n" gradientUnits="userSpaceOnUse" x1="192.772" x2="192.772" xlink:href="#a" y1="-129.178" y2="233.055"/><linearGradient id="o" gradientUnits="userSpaceOnUse" x1="159.922" x2="159.922" xlink:href="#a" y1="-123.398" y2="224.233"/><linearGradient id="p" gradientUnits="userSpaceOnUse" x1="102.565" x2="102.565" xlink:href="#a" y1="-121.5" y2="248.003"/><linearGradient id="q" gradientUnits="userSpaceOnUse" x1="31.0459" x2="31.0459" xlink:href="#a" y1="-116.905" y2="261.931"/><linearGradient id="r" gradientUnits="userSpaceOnUse" x1="1.10968" x2="1.10968" xlink:href="#a" y1="-105.795" y2="214.288"/><linearGradient id="s" gradientUnits="userSpaceOnUse" x1="-19.2454" x2="-19.2454" xlink:href="#a" y1="-87.7627" y2="157.681"/><clipPath id="t"><rect height="213" rx="24" width="361"/></clipPath><g clip-path="url(#t)"><rect fill="url(#b)" fill-opacity=".1" height="213" rx="24" width="361"/><path d="m418.17 276.185c-21.223-6.861-40.712-17.011-59.535-26.813-19.623-10.211-40.001-20.769-61.847-27.385-38.356-11.559-90.625-21.136-143.382-26.282-23.867-2.328-46.379 5.514-68.1578 13.09-28.4898 9.925-57.9575 20.176-90.44742 7.556-26.00088-10.109-40.42348-30.836-54.35728-50.89-13.5783-19.523-27.6232-39.699-52.4235-50.38l.955-1.858c25.3787 10.946 39.6014 31.367 53.3352 51.053 14.4005 20.708 27.9787 40.251 53.33506 50.094 31.66774 12.253 59.42414 2.655 88.89174-7.556 22.001-7.678 44.779-15.602 69.18-13.213 52.891 5.147 105.337 14.765 143.827 26.364 22.223 6.678 42.535 17.277 62.224 27.549 18.756 9.761 38.135 19.849 59.18 26.67z" fill="url(#c)"/><path d="m404.214 231.625c-16.378-6.126-28.668-14.131-40.579-21.891-16.179-10.558-31.468-20.544-55.691-25.261-46.545-8.632-93.899-13.043-141.382-13.172-15.845 0-31.579.898-46.802 1.838-43.9791 2.675-85.536 5.207-128.89294-14.908-13.33376-6.126-25.13416-17.603-36.60116-28.59-15.7117-15.152-31.9567-30.7949-51.9573-33.0413l.2889-2.0421c20.7784 2.328 37.2901 18.2564 53.3351 33.6544 11.3337 10.925 23.0674 22.218 36.00115 28.222 42.89025 19.89 84.13605 17.379 127.80425 14.703 15.267-.939 31.112-2.042 46.957-1.837 47.64.12 95.152 4.546 141.849 13.212 24.668 4.82 40.135 14.908 56.513 25.608 11.8 7.699 24.001 15.643 40.135 21.647z" fill="url(#d)"/><path d="m393.992 186.128c-6.911-4.207-12.956-8.169-18.801-12.029-23.8-15.622-41.001-26.894-78.602-27.854-16.334-.409-32.512 2.246-48.157 4.799-14.468 2.369-29.446 4.819-44.557 4.84h-.4c-64.802 0-137.4271-25.098-193.49561-46.969-8.91319-3.723-17.60698-7.874-26.04529-12.4369-22.223-11.5585-47.5793-24.669-71.1134-20.5234l-.4223-2.0422c24.4453-4.2884 50.0461 9.0058 72.6913 20.7481 8.36149 4.5082 16.98171 8.5984 25.8231 12.2524 106.0482 41.394 158.6272 46.826 192.5172 46.826h.511c14.912 0 29.801-2.45 44.179-4.819 15.734-2.573 32.002-5.248 48.602-4.819 38.29.98 55.713 12.416 79.825 28.242 5.822 3.819 11.867 7.781 18.734 11.967z" fill="url(#e)"/><path d="m238.252 141.2c-19.267 0-44.801-10.068-65.624-18.379-7.711-3.043-15-5.902-21.245-8.005-40.646-13.642-81.3804-28.978-120.7595-43.8242l-16.4006-6.1264c-3.7779-1.4295-7.68909-2.9816-11.667-4.5744-26.4231-10.5782-56.3574-22.5655-81.5804-6.2285l-1.289-1.6745c26.2675-16.9906 56.8019-4.7582 83.7583 6.0242 3.95569 1.5929 7.8447 3.1449 11.6226 4.5744l16.4005 6.1264c39.3569 14.8463 80.0031 30.1827 120.6711 43.804 6.311 2.042 13.622 5.003 21.356 8.046 22.223 8.781 49.979 19.686 69.047 17.93 14.289-1.348 24.445-8.414 35.29-15.909 8.889-6.126 18.178-12.62 30.112-15.744 35.556-9.3738 60.49 9.843 80.113 29.876l-1.644 1.368c-20.134-20.544-43.513-38.31-77.78-29.284-11.512 3.022-20.601 9.333-29.379 15.418-10.556 7.331-21.49 14.908-36.401 16.337-1.528.157-3.063.239-4.601.245z" fill="url(#f)"/><path d="m256.675 119.146c-19.734 0-45.646-10.783-66.846-19.6048-8.134-3.3899-15.801-6.5757-22.223-8.8424-15.401-5.3708-31.113-10.9254-46.135-16.3371-28.49-10.2106-57.9354-20.605-87.1808-30.2643-4.2446-1.4091-8.5781-2.9203-12.9782-4.4519-30.28991-10.5986-61.6465-21.5444-90.5141-6.3101l-1.0889-1.7767c29.7787-15.7244 63.04649-4.0842 92.403 6.1264 4.4446 1.5316 8.6892 3.0224 12.9337 4.4314 29.2677 9.6593 58.7353 20.1354 87.2253 30.2848 15.111 5.3708 30.734 10.9254 46.135 16.337 6.667 2.3076 14.267 5.4934 22.423 8.9037 23 9.557 51.623 21.483 71.113 19.114 15.112-1.817 28.89-15.173 42.224-28.0994 15.245-14.785 29.667-28.7531 46.29-27.3645 11.356.9394 22.223 9.0671 33.534 24.8527l-1.866 1.1028c-10.823-15.2139-21.245-23.0353-31.868-23.9338-15.556-1.307-29.623 12.2528-44.446 26.7519-13.6 13.1713-27.645 26.8133-43.535 28.7123-1.855.24-3.726.363-5.6.368z" fill="url(#g)"/><path d="m229.875 72.7689c-38.579 0-80.003-15.9899-120.204-31.4692-55.2019-21.2586-112.27039-43.25231-164.4499-25.69l-.6889-1.8379c52.93508-17.82779 110.4258 4.3089 166.0058 25.7308 40.423 15.5815 82.225 31.6939 120.737 31.3059 20.689-.2247 39.557-11.7627 57.78-22.9127 27.023-16.5413 54.979-33.6543 87.18-10.4965l-1.378 1.5928c-30.934-22.2388-56.979-6.2898-84.58 10.5986-18.512 11.3134-37.646 23.0353-59.002 23.2599z" fill="url(#h)"/><path d="m162.693 11.6069c-26.289 0-53.09-3.47163-79.0466-6.84114-39.0679-5.084899-79.44705-10.33316-118.4261-3.75751l-.4-2.04213c39.33462-6.63691 80.0026-1.36822 119.1372 3.7371 27.8235 3.61457 56.6015 7.33128 84.5805 6.75944 22.712-.44927 45.713-3.30825 67.958-6.12638 35.757-4.43142 72.736-9.0058 109.537-3.839214l-.334 2.042124c-36.49-5.12574-73.335-.571782-108.892 3.83922-22.223 2.75687-45.379 5.61589-68.225 6.12639-1.955.0817-3.933.1021-5.889.1021z" fill="url(#i)"/><path d="m381.835 302.508c-7.867-31.142-8-63.081-8.156-93.938 0-15.459-.133-31.469-1.177-47.255-.734-11.293-.511-23.586-.267-36.615.489-26.6702 1-54.2389-6.822-76.2531-7.623-21.4423-25.668-33.5521-43.113-45.25355-15.134-10.21064-30.801-20.66635-39.779-37.24845-14.645-26.9969-4.711-58.7521 4.867-89.4659 7.267-23.239 14.778-47.255 11.645-69.065l2.222-.265c3.2 22.218-4.445 46.458-11.689 69.902-9.49 30.3256-19.29 61.6927-5.045 87.9954 8.756 16.1124 24.179 26.54763 39.112 36.4928 17.779 11.8852 36.068 24.1992 43.913 46.2747 7.845 22.0754 7.422 50.0934 6.934 76.9271-.245 12.988-.467 25.241.266 36.452 1.045 15.847 1.111 31.878 1.178 47.377.156 30.755.289 62.571 8.111 93.509z" fill="url(#j)"/><path d="m335.523 284.7-2.222-.245c2.089-15.663 4.933-30.224 7.667-44.294 6-30.938 11.689-60.161 8.4-94.959-.867-9.332-1.045-19.441-1.245-30.121-.444-25.4451-.889-51.7477-10.8-72.2099-9.223-19.053-28.534-30.6319-47.224-41.884026-17.245-10.353594-35.09-21.074774-45.512-37.738574-16.89-27.0174-5.112-60.202 6.266-92.2835 5.534-15.561 10.734-30.244 12.445-43.6l2.223.225c-1.734 13.56-6.978 28.345-12.534 44.008-11.223 31.6528-22.845 64.3881-6.445 90.6499 10.134 16.2145 27.757 26.8131 44.802 37.044203 18.956 11.374697 38.556 23.137297 48.046 42.762197 10.067 20.8297 10.533 47.3365 10.978 72.9857.2 10.66.378 20.707 1.244 29.978 3.311 35.084-2.4 64.43-8.444 95.511-2.734 14.05-5.556 28.508-7.645 44.171z" fill="url(#k)"/><path d="m292.744 265.893-2.111-.654c1.711-4.676 3.533-9.373 5.444-14.295 8.201-21.136 16.645-43.007 16.579-64.429-.296-7.459-1.299-14.879-3.001-22.178-1.728-7.481-2.746-15.085-3.044-22.728 0-10.436 2.111-21.484 4.245-32.164 3.511-17.6848 7.155-35.9823.755-52.401-9.022-23.2395-31.845-38.1266-56.002-53.89182-22.423-14.64208-45.601-29.77428-56.379-52.15598-14.401-29.8968-.911-55.0152 13.333-81.6852 4.067-7.576 8.267-15.398 11.823-23.403l2.067.776c-3.6 8.169-7.823 15.929-11.89 23.526-14.044 26.159-27.312 50.8894-13.333 79.8877 10.533 21.8712 33.467 36.7583 55.557 51.31865 23.379 15.25475 47.535 31.04035 56.802 54.87205 6.667 16.9497 2.911 35.5126-.667 53.4626-2.111 10.599-4.289 21.545-4.2 31.796.297 7.521 1.308 15.003 3.022 22.362 1.709 7.394 2.721 14.909 3.023 22.463 0 21.79-8.445 43.824-16.69 65.124-1.822 5.044-3.622 9.72-5.333 14.397z" fill="url(#l)"/><path d="m243.765 248.166-2.223-.388c2.11-12.162 3.299-24.444 3.556-36.758 1.111-23.484 2.222-47.765 15.423-67.043 4.712-6.63 9.972-12.918 15.733-18.808 12.423-13.253 22.223-23.73 15.223-45.6007-9.556-29.8764-40.823-51.8293-71.113-73.04699-26.668-18.70591-54.224-38.04481-67.536-62.97921-16.023-30.0806 4.445-52.2171 24.312-73.6391 2.845-3.063 5.667-6.127 8.4-9.21l1.734 1.286c-2.756 3.084-5.6 6.127-8.445 9.251-19.356 20.912-39.379 42.5378-24.001 71.4748 13.067 24.5055 40.424 43.7016 66.891 62.26451 30.601 21.36069 62.18 43.51779 71.936 74.14969 7.356 22.933-2.8 33.777-15.667 47.5-5.701 5.815-10.902 12.028-15.556 18.583-12.867 18.808-14.001 42.885-15.09 66.022-.264 12.375-1.46 24.719-3.577 36.942z" fill="url(#m)"/><path d="m182.985 233.055h-2.222c0-5.33 0-10.211 0-15.01-.334-29.611-.534-47.5 36.534-63.939 5.534-2.471 11.489-4.677 17.245-6.8 16.978-6.27 33.023-12.253 38.246-23.995 3.066-6.923 2.222-15.337-2.845-25.7516-15.556-32.6741-47.779-57.9761-78.869-82.4408-25.801-20.29874-52.468-41.3122-69.602-66.4304-26.9123-39.4744-7.289-53.0952 25.223-75.5592l3.333-2.307 1.356 1.633-3.4 2.451c-32.557 22.463-50.4908 34.8796-24.668 72.7611 16.934 24.8527 43.491 45.74367 69.158 65.9607 31.29 24.6077 63.624 50.0731 79.469 83.176 5.223 10.9462 6.156 19.8902 2.845 27.3442-5.578 12.579-22.045 18.665-39.468 25.118-5.734 2.042-11.645 4.309-17.112 6.739-35.801 15.888-35.557 33.266-35.268 62.081.067 4.697.134 9.618.045 14.969z" fill="url(#n)"/><path d="m125.56 224.233-2.222-.122c2.755-42.436 18.778-53.872 57.446-71.577 4.445-2.042 9.045-3.962 13.467-5.82 17.089-7.188 33.223-13.968 37.779-25.955 2.778-7.291 1.2-16.154-4.845-27.0996-8.889-16.2145-32.134-37.2892-56.668-59.6097-43.001-39.1272-91.7142-83.4618-85.7584-119.7709 2.4667-14.9888 14.3115-27.6508 35.2014-37.6768l1.044 1.817c-20.534 9.843-31.6675 21.667-34.0454 36.1661-5.8002 35.2676 42.5124 79.23467 85.1144 118.0147 24.667 22.4634 47.957 43.6199 57.09 60.1407 6.334 11.4565 7.956 20.8505 4.978 28.6915-4.867 12.805-21.423 19.768-38.957 27.14-4.444 1.838-8.889 3.758-13.333 5.8-38.713 17.685-53.58 28.304-56.291 69.861z" fill="url(#o)"/><path d="m57.8688 248.003-2.2223-.368c7.4982-38.882 24.1873-75.779 48.8905-108.09 4.854-6.088 10.047-11.943 15.556-17.541 14.801-15.766 30.112-32.0619 26.668-53.9127-3.778-24.1175-22.223-47.214-40.224-69.5345-30.6232-38.147-62.2242-77.6009-14.5782-120.0568l1.5334 1.47c-46.2904 41.2309-16.6006 78.2139 14.8228 117.38195 18.089 22.46345 36.779 45.82535 40.646 70.43305 3.6 22.7901-12.067 39.454-27.201 55.566-5.4 5.558-10.488 11.365-15.245 17.399-24.5676 32.046-41.1744 68.66-48.6462 107.253z" fill="url(#p)"/><path d="m-6.57751 261.931-2.22229-.205c1.40004-12.395 2.55562-25.097 3.66677-37.371 3.17788-34.859 6.46688-70.902 15.55603-105.353 6.6669-25.6696 17.7784-40.3525 30.7344-57.343 5.4446-7.1883 11.1115-14.6216 16.7561-23.4436 15.2449-23.6275 11.0003-49.2358 6.5113-76.3553-4.3112-25.8942-8.7336-52.6869 4.4446-78.7651l2.0223.858c-12.8671 25.5265-8.4669 51.9925-4.2224 77.6008 4.5558 27.4871 8.8892 53.4425-6.8002 77.6009-5.7335 8.8833-11.3781 16.3371-16.845 23.5662-12.7337 16.8272-23.7341 31.3671-30.401 56.6491-9.0225 34.307-12.311496 70.269-15.55605 105.047-1.20004 12.395-2.35563 25.097-3.64456 37.514z" fill="url(#q)"/><path d="m-50.0006 214.288-2.2223-.143c1.1111-13.641.6-30.346 0-48.031-1.6667-54.3-3.7557-121.8946 41.1569-147.8092 4.73345-2.7569 9.51139-5.1666 14.11154-7.4946 14.17826-7.1883 27.55646-13.96817 36.62336-28.5898 11.2893-18.032 11.8227-43.5382 12.3116-66.0221.1778-7.8213.3333-15.1934.9111-21.9933l2.2223.163c-.5556 6.739-.7334 14.0907-.8889 21.8712-.4889 22.7289-1.0445 48.5006-12.6004 67.0022-9.3781 15.0097-23.023 21.91208-37.46791 29.2433-4.600149 2.3281-9.33363 4.7378-14.02267 7.4334-43.82362 25.302-41.77912 92.2429-40.11242 146.0329.5778 17.848 1.1778 34.593-.0222 48.337z" fill="url(#r)"/><path d="m-82.3363 157.681-2.2223-.531c4.289-14.867 5.9113-31.163 7.6447-48.399 3.3779-33.8581 6.8891-68.8806 32.1344-92.3039 9.0669-8.41352 21.0896-13.13083 32.7122-17.66436 10.37807-4.08425 21.11176-8.16852 29.3787-15.07094 26.0897-21.4423 26.2453-39.1884 26.5342-71.4745h2.2223c-.2667 31.7143-.4445 50.8695-27.2676 72.9244-8.5558 7.02497-19.445054 11.293-30.001 15.418096-11.4225 4.472264-23.2451 9.087494-32.001 17.215204-24.6897 22.9126-28.1565 57.5676-31.5121 91.058-1.5557 16.644-3.2668 33.777-7.6225 48.828z" fill="url(#s)"/></g><rect height="211" rx="23" stroke="url(#b)" stroke-width="2" width="359" x="1" y="1"/></svg>