<svg fill="none" height="32" viewBox="0 0 32 32" width="32" xmlns="http://www.w3.org/2000/svg"><rect fill="#1d202f" height="32" rx="8" width="32"/><path d="m20.6381 20.0446c-.7304 0-1.3839.2945-1.8837.7559l-6.8523-4.074c.048-.2258.0864-.4516.0864-.6872s-.0384-.4614-.0864-.6872l6.7755-4.0348c.5189.4908 1.2013.7952 1.9605.7952 1.5954 0 2.8832-1.3155 2.8832-2.94516 0-1.62963-1.2878-2.94511-2.8832-2.94511-1.5953 0-2.8832 1.31548-2.8832 2.94511 0 .23561.0385.4614.0865.6872l-6.7755 4.03476c-.5189-.4908-1.2013-.7951-1.96054-.7951-1.59537 0-2.88319 1.3154-2.88319 2.9451 0 1.6296 1.28782 2.9451 2.88319 2.9451.75924 0 1.44164-.3043 1.96054-.7952l6.8428 4.0839c-.0481.2062-.0769.4221-.0769.6381 0 1.5806 1.259 2.8666 2.8063 2.8666s2.8063-1.286 2.8063-2.8666c0-1.5805-1.259-2.8666-2.8063-2.8666z" fill="#434665"/></svg>