<svg fill="none" height="264" viewBox="0 0 270 264" width="270" xmlns="http://www.w3.org/2000/svg" xmlns:xlink="http://www.w3.org/1999/xlink"><linearGradient id="a"><stop offset="0" stop-color="#34c796"/><stop offset="1" stop-color="#0b7a55"/></linearGradient><linearGradient id="b" gradientUnits="userSpaceOnUse" x1="160.3" x2="109.205" xlink:href="#a" y1="26.5324" y2="236.837"/><linearGradient id="c" gradientUnits="userSpaceOnUse" x1="227.58" x2="188.431" xlink:href="#a" y1="56.8762" y2="218.007"/><linearGradient id="d" gradientUnits="userSpaceOnUse" x1="195.04" x2="167.965" xlink:href="#a" y1="80.9971" y2="192.433"/><linearGradient id="e" gradientUnits="userSpaceOnUse" x1="160.243" x2="147.35" xlink:href="#a" y1="87.3376" y2="140.407"/><linearGradient id="f" gradientUnits="userSpaceOnUse" x1="127.898" x2="125.357" xlink:href="#a" y1="97.4018" y2="107.862"/><linearGradient id="g" gradientUnits="userSpaceOnUse" x1="112.968" x2="96.2977" xlink:href="#a" y1="84.7739" y2="153.389"/><linearGradient id="h" gradientUnits="userSpaceOnUse" x1="181.154" x2="147.505" xlink:href="#a" y1="56.3617" y2="194.856"/><linearGradient id="i" gradientUnits="userSpaceOnUse" x1="165.001" x2="140.848" xlink:href="#a" y1="81.2799" y2="180.692"/><linearGradient id="j" gradientUnits="userSpaceOnUse" x1="160.248" x2="149.263" xlink:href="#a" y1="99.3275" y2="144.544"/><linearGradient id="k" gradientUnits="userSpaceOnUse" x1="158.047" x2="146.111" xlink:href="#a" y1="105.291" y2="154.418"/><linearGradient id="l" gradientUnits="userSpaceOnUse" x1="151.634" x2="129.087" xlink:href="#a" y1="95.9921" y2="188.794"/><path d="m197.206 258.218-.507-1.277c-2.554-6.713-1.973-13.172-1.421-19.417.55-6.098 1.06-11.863-1.053-17.937-2.297-4.002-5.794-6.16-9.496-8.45-1.42-.884-2.913-1.803-4.336-2.844-6.674-4.893-11.278-10.101-16.133-16.458-5.731-9.047-10.591-18.749-15.289-28.143-2.754-5.486-5.553-11.09-8.546-16.601-1.637 5.395-3.773 10.626-6.379 15.625-8.129 10.513-12.636 23.379-16.982 35.817-.787 2.262-1.581 4.523-2.373 6.702l-.236.671-.445-.558c-9.361-11.631-17.8718-18.957-28.4611-24.49-1.003-.481-2.0348-.945-3.0569-1.414-7.9917-3.643-15.5409-7.088-18.0546-16.523-3.1418-10.618-1.4211-22.108.2714-33.212.2843-1.91.5706-3.795.8321-5.645.1221-1.075.248-2.165.3834-3.26 1.191-10.016 2.424-20.373-.9181-30.0992-2.3498-4.6601-5.6514-9.0362-8.8478-13.2396-1.2378-1.6338-2.5357-3.3231-3.7391-4.9976-4.6992-6.6406-8.8539-13.6507-12.4234-20.9618l-.9469-1.923 1.5757 1.4542c9.9369 9.1942 20.8133 16.8092 35.2458 24.6911 12.1434 7.514 19.7838 14.6208 26.3635 24.5119 5.146 6.812 11.257 13.048 17.166 19.072 5.546 5.666 11.293 11.519 16.274 17.898 1.581 2.576 3.093 5.201 4.559 7.847 1.452-4.767 2.686-9.644 3.909-14.442 1.459-5.738 2.974-11.668 4.791-17.197.363-.819.716-1.6 1.065-2.399 4.384-9.902 9.349-21.1187 22.664-20.7134 11.49-.1935 19.645-3.111 25.672-9.1789 5.832-6.7124 11.463-13.8089 16.915-20.6709 1.651-2.0851 3.306-4.1664 4.966-6.2439 6.53-6.3547 13.25-12.8842 23.765-6.2729l.184.1183-.004.2197c-.018 1.9912.006 3.878.014 5.7283.077 6.7823.149 12.6393-1.979 19.2129-2.028 5.4858-1.912 13.2179-1.796 20.0095.036 2.3725.07 4.6216.042 6.5531l-1.174 36.2882c-.253 7.03-.727 14.161-1.185 21.058-.371 5.635-.769 11.508-1.032 17.268l-.022.428c-.685 15.838-1.03 23.786-9.787 37.59-2.562 3.344-5.443 6.692-8.479 10.207-8.742 10.144-18.658 21.687-21.256 34.198zm-56.422-112.168c3.143 5.736 6.071 11.583 8.934 17.292 4.687 9.374 9.533 19.066 15.253 28.053 4.794 6.276 9.347 11.455 15.95 16.274 1.388 1.016 2.865 1.931 4.287 2.808 3.795 2.345 7.377 4.556 9.796 8.8 2.204 6.301 1.658 12.417 1.128 18.332-.515 5.755-1.041 11.687.913 17.773 3.05-12.181 12.631-23.323 21.144-33.196 3.042-3.538 5.921-6.878 8.447-10.174 8.623-13.591 8.961-21.475 9.643-37.167l.024-.436c.257-5.768.649-11.619 1.028-17.284.464-6.889.951-14.008 1.185-21.026l1.106-36.3127c.061-1.9317.025-4.1731-.042-6.553-.109-6.888-.225-14.6857 1.844-20.3087 2.085-6.4287 2.015-12.2279 1.944-18.935-.021-1.7635-.046-3.577-.03-5.495-9.874-6.0875-16.327.1877-22.559 6.2551-1.635 2.0561-3.279 4.1103-4.93 6.1627-5.45 6.8543-11.094 13.9721-16.943 20.7212-6.202 6.2464-14.507 9.2421-26.265 9.4277-12.796-.3856-17.444 10.0987-21.936 20.2437-.347.791-.695 1.582-1.048 2.363-1.795 5.469-3.305 11.383-4.761 17.106-1.25 5.11-2.555 10.248-4.112 15.276zm-99.1096-92.9751c3.3178 6.5793 7.1269 12.8987 11.3948 18.9045 1.2266 1.6801 2.455 3.3526 3.6928 4.9864 3.2216 4.234 6.556 8.6099 8.951 13.42 3.4129 9.9402 2.1728 20.3932.9689 30.4952-.1277 1.098-.2594 2.178-.3852 3.268-.2557 1.86-.5439 3.753-.8359 5.661-1.6775 11.042-3.4106 22.414-.2871 32.873 2.448 9.1 9.8368 12.465 17.6507 16.032 1.0317.464 2.0616.935 3.08 1.419 10.5372 5.513 19.0186 12.759 28.2796 24.16.721-1.992 1.425-4.013 2.127-6.026 4.376-12.496 8.898-25.423 17.071-35.983 2.691-5.169 4.885-10.581 6.551-16.164-1.575-2.836-3.196-5.684-4.885-8.458-4.934-6.302-10.659-12.142-16.194-17.788-5.928-6.045-12.051-12.301-17.239-19.172-6.5351-9.8067-14.0961-16.837-26.133-24.2841-13.7287-7.482-24.2502-14.7409-33.8076-23.344z" fill="url(#b)"/><path d="m194.982 219.599-.749-.28c3.061-7.991 4.321-11.292 4.79-20.591.472-8.939 2.369-17.859 4.201-26.475.305-1.423.61-2.845.905-4.262.415-1.911.832-3.83 1.255-5.739 2.032-9.271 4.135-18.869 5.72-28.388 1.1-8.729 2.107-17.62 3.125-26.687l2.949-26.3707c1.011-9.3724 1.948-17.7728 2.868-25.6624l.794.0949c-.912 7.8914-1.855 16.2822-2.865 25.6546l-2.952 26.3776c-1.018 9.068-2.019 17.936-3.122 26.713-1.595 9.557-3.698 19.155-5.733 28.442-.426 1.908-.844 3.819-1.254 5.731-.295 1.417-.6 2.839-.905 4.262-1.826 8.593-3.714 17.474-4.188 26.355-.436 9.431-1.735 12.762-4.839 20.825z" fill="url(#c)"/><path d="m164.205 191.52c.673-3.239 1.353-5.568 2.249-8.516.754-2.532 1.606-5.4 2.692-9.634 1.627-6.425 3.225-12.972 4.76-19.289l1.867-7.684c1.874-7.478 3.812-15.218 5.988-22.762l.015-.061c2.389-8.253 3.203-11.032 5.311-16.645 1.32-3.527 2.817-6.9847 4.487-10.36.349-.7328.707-1.4639 1.113-2.3301l.554-1.166c1.82-3.6867 3.433-7.4723 4.831-11.3392l.751.2725c-1.406 3.8921-3.028 7.7028-4.858 11.4145l-.472 1.1038c-.403.8508-.77 1.6204-1.116 2.3378-1.663 3.3607-3.154 6.8037-4.468 10.3157-2.1 5.582-2.905 8.355-5.29 16.592l-.021.085c-2.172 7.528-4.106 15.253-5.98 22.731l-1.867 7.684c-1.538 6.332-3.129 12.881-4.76 19.289-1.09 4.25-1.944 7.126-2.707 9.663-.869 2.938-1.561 5.248-2.226 8.456z" fill="url(#d)"/><path d="m135.761 137.591-.761-.234c.678-2.149 1.221-3.915 1.731-5.574.883-2.86 1.645-5.325 2.812-8.885 1.398-4.497 3.039-8.914 4.915-13.233 1.482-3.731 3.401-7.273 5.719-10.5509 2.51-3.602 3.896-4.9992 6.704-6.8358 2.809-1.8366 4.525-2.172 7.689-2.311 2.315-.089 4.633-.0041 6.935.2537l.983.0916-.072.8004-.983-.0916c-2.267-.2603-4.551-.3421-6.831-.2448-3.072.1287-4.498.3465-7.289 2.1792-2.791 1.8326-4.025 3.1112-6.507 6.5974-2.287 3.2378-4.18 6.7368-5.638 10.4238-1.872 4.291-3.504 8.684-4.889 13.157-1.164 3.544-1.926 6.009-2.809 8.87-.488 1.672-1.035 3.453-1.709 5.587z" fill="url(#e)"/><path d="m148.816 113.562c-2.694-3.102-5.636-5.978-8.798-8.599-3.582-2.988-5.337-4.11-8.549-5.4873-2.498-1.1504-5.195-1.8057-7.942-1.9296-2.531-.2611-5.086-.1718-7.593.2654-2.322.334-4.621.8105-6.885 1.4267l-.235.0574-2.012.509c-1.584.4324-2.833.7264-4.751 1.1194l-.153-.782c1.893-.3575 3.137-.7013 4.707-1.1051l2.011-.509.245-.0633c2.298-.6245 4.634-1.1032 6.993-1.4332 2.567-.446 5.182-.537 7.774-.2704 2.831.1455 5.608.8341 8.179 2.0282 3.294 1.4138 5.099 2.5638 8.741 5.6078 3.189 2.652 6.157 5.561 8.872 8.698z" fill="url(#f)"/><path d="m133.125 162.336c-3.469-4.866-6.486-7.955-10.654-12.231l-3.266-3.377-.563-.579c-5.875-6.097-9.073-9.45-13.616-15.616-4.542-6.166-6.2556-9.273-8.4885-15.525-1.2028-3.341-2.1373-6.773-2.7947-10.264-.3018-1.381-.6001-2.812-1.0081-4.53-1.3627-5.7288-2.4062-9.4745-6.5342-14.1496-2.9939-3.4379-6.3814-6.5118-10.0927-9.1584l-.6467-.5006.4872-.6259.6486.4929c3.7518 2.6762 7.1746 5.7863 10.1974 9.2657 4.1668 4.7172 5.3117 8.6511 6.7117 14.4949.3966 1.732.7122 3.159 1.0121 4.548.661 3.453 1.5874 6.85 2.7709 10.16 2.2131 6.165 3.861 9.174 8.391 15.321 4.531 6.147 7.72 9.473 13.548 15.559l.553.584c1.181 1.228 2.269 2.334 3.268 3.37 4.189 4.289 7.194 7.399 10.72 12.329z" fill="url(#g)"/><path d="m86.8094 180.109-.5336-.596c1.905-1.718 3.7904-3.4 5.6561-5.046 9.8551-8.769 19.1731-17.047 27.2241-28.25 4.384-7.277 7.936-15.066 11.366-22.591 2.891-6.348 5.883-12.908 9.371-19.159 5.844-8.2064 12.42-17.4776 24.623-14.5129l.162.0393c1.543.3751 3.164.7689 4.754 1.1552 7.68 1.8658 15.609 3.8494 23.612 2.8335 9.216-1.5312 16.626-7.3695 23.796-13.0289l.504-.3927c1.293-.9455 2.628-2.1014 4.075-3.312 5.908-5.1073 13.24-11.398 20.696-4.4422l-.543.5877c-6.959-6.4831-13.731-.678-19.66 4.4487-1.427 1.2316-2.782 2.3992-4.084 3.3506l-.494.3869c-7.247 5.7061-14.739 11.6144-24.169 13.1836-8.152 1.0208-16.168-.9757-23.924-2.8603-1.583-.3844-3.165-.7688-4.747-1.1533l-.147-.0356c-11.677-2.8372-18.105 6.1922-23.785 14.1604-3.448 6.187-6.428 12.734-9.315 19.066-3.469 7.548-7.005 15.374-11.429 22.715-8.124 11.3-17.465 19.605-27.337 28.411-1.8772 1.648-3.7678 3.329-5.6716 5.042z" fill="url(#h)"/><path d="m66.1095 162.534-.4244-.676c14.2669-9.095 27.4693-19.763 39.3599-31.804 5.076-5.587 9.929-11.531 14.627-17.276 3.748-4.594 7.631-9.342 11.615-13.8948 6.147-7.5028 16.092-10.0507 25.93-6.6055 6.487 2.2632 12.689 5.5365 18.712 8.6353 3.816 1.991 7.765 4.038 11.73 5.819 8.566 3.613 18.215 3.678 26.831.181l25.42-7.4333.224.7583-25.379 7.369c-4.357 1.77-9.019 2.663-13.72 2.628-4.702-.035-9.35-.997-13.678-2.832-3.996-1.789-7.951-3.846-11.784-5.832-5.992-3.0916-12.176-6.336-18.604-8.6093-9.516-3.326-19.115-.8902-25.063 6.3664-3.985 4.5609-7.859 9.3029-11.607 13.8969-4.669 5.76-9.56 11.695-14.662 17.317-11.9431 12.104-25.2014 22.835-39.5275 31.992z" fill="url(#i)"/><path d="m66.6822 124.48.0255-.812c11.6539.378 20.839-4.121 30.0149-9.154 3.1249-2.062 6.2774-4.273 9.3244-6.42 5.568-3.906 11.323-7.946 17.319-11.3311 9.82-5.899 17.519-2.8017 27.332 2.2243 6.591 4.4878 12.95 9.3078 19.051 14.4428 4.092 3.341 8.353 6.797 12.676 9.998 9.884 6.417 17.147 9.761 29.125 10.119 9.995.711 18.937 1.42 27.364 2.159l-.072.8c-8.418-.745-17.361-1.446-27.339-2.161-12.076-.357-19.697-3.877-29.525-10.256-4.367-3.22-8.618-6.682-12.732-10.037-6.054-4.922-12.281-10.009-18.946-14.3683-9.545-4.887-17.062-7.9239-26.538-2.2277-5.981 3.388-11.717 7.417-17.273 11.342-3.055 2.145-6.209 4.364-9.3725 6.45-9.2912 5.07-18.584 9.609-30.4343 9.232z" fill="url(#j)"/><path d="m209.805 169.893c-1.798-.437-3.595-.914-5.373-1.436-13.136-3.83-20.87-11.393-28.928-20.114-3.792-4.577-7.418-9.367-10.943-14.002-6.26-8.211-12.723-16.7-20.031-24.2-8.199-7.194-16.007-13.9817-28.654-12.3927-1.807.3052-3.678.7419-5.635 1.1253-5.725 1.2264-11.6566 2.4924-17.2318 1.6204l-.0849-.021c-2.1824-.841-4.3671-1.7398-6.4706-2.6026-6.7878-2.7778-13.1873-5.404-20.3802-6.7835l.1877-.7723c7.2719 1.3906 13.7313 4.0395 20.5326 6.8288 2.0881.859 4.2515 1.7445 6.4185 2.5817 5.4208.8349 11.2577-.4135 16.9037-1.6178 1.976-.4278 3.838-.8259 5.688-1.1372 13.01-1.6397 20.915 5.2529 29.293 12.5559 7.369 7.515 13.842 16.064 20.114 24.294 3.519 4.625 7.162 9.412 10.914 13.954 8.236 8.961 15.582 16.136 28.535 19.912 8.269 2.435 16.909 3.847 25.267 5.207 2.265.37 4.531.733 6.789 1.126l-.134.785c-2.258-.393-4.514-.761-6.78-1.124-6.598-1.071-13.329-2.167-19.997-3.787z" fill="url(#k)"/><path d="m226.587 212.482c-6.02-7.686-15.241-10.139-24.163-12.511l-3.068-.827c-14.441-2.904-22.806-14.161-30.125-25.451-3.129-5.389-6.183-10.883-9.142-16.198-6.341-11.412-12.891-23.21-20.476-34.245-8.869-10.595-17.578-18.755-31.076-24.0219-7.623-2.269-13.9393-6.9524-20.0969-11.4827l-2.2107-1.633c-7.926-3.913-16.2782-7.0136-24.416-10.0213-2.7673-1.024-5.5482-2.0595-8.337-3.1296l.288-.7479c2.7811 1.0682 5.5638 2.096 8.3293 3.1278 8.13 3.0057 16.4958 6.1178 24.5317 10.0494.7994.5786 1.5408 1.1268 2.2745 1.6731 6.0784 4.4864 12.3641 9.1295 19.8551 11.3667 13.688 5.3294 22.468 13.5634 31.452 24.2924 7.628 11.095 14.191 22.905 20.536 34.334 2.951 5.313 5.998 10.805 9.148 16.175 7.516 11.591 15.435 22.258 29.631 25.093l3.115.839c9.045 2.402 18.426 4.902 24.576 12.792z" fill="url(#l)"/></svg>