<svg width="270" height="264" viewBox="0 0 270 264" fill="none" xmlns="http://www.w3.org/2000/svg">
<path d="M197.206 258.218L196.699 256.941C194.145 250.228 194.726 243.769 195.278 237.524C195.828 231.426 196.338 225.661 194.225 219.587C191.928 215.585 188.431 213.427 184.729 211.137C183.309 210.253 181.816 209.334 180.393 208.293C173.719 203.4 169.115 198.192 164.26 191.835C158.529 182.788 153.669 173.086 148.971 163.692C146.217 158.206 143.418 152.602 140.425 147.091C138.788 152.486 136.652 157.717 134.046 162.716C125.917 173.229 121.41 186.095 117.064 198.533C116.277 200.795 115.483 203.056 114.691 205.235L114.455 205.906L114.01 205.348C104.649 193.717 96.1382 186.391 85.5489 180.858C84.5459 180.377 83.5141 179.913 82.492 179.444C74.5003 175.801 66.9511 172.356 64.4374 162.921C61.2956 152.303 63.0163 140.813 64.7088 129.709C64.9931 127.799 65.2794 125.914 65.5409 124.064C65.663 122.989 65.7889 121.899 65.9243 120.804C67.1153 110.788 68.3483 100.431 65.0062 90.7048C62.6564 86.0447 59.3548 81.6686 56.1584 77.4652C54.9206 75.8314 53.6227 74.1421 52.4193 72.4676C47.7201 65.827 43.5654 58.8169 39.9959 51.5058L39.049 49.5828L40.6247 51.037C50.5616 60.2312 61.438 67.8462 75.8705 75.7281C88.0139 83.2421 95.6543 90.3489 102.234 100.24C107.38 107.052 113.491 113.288 119.4 119.312C124.946 124.978 130.693 130.831 135.674 137.21C137.255 139.786 138.767 142.411 140.233 145.057C141.685 140.29 142.919 135.413 144.142 130.615C145.601 124.877 147.116 118.947 148.933 113.418C149.296 112.599 149.649 111.818 149.998 111.019C154.382 101.117 159.347 89.9003 172.662 90.3056C184.152 90.1121 192.307 87.1946 198.334 81.1267C204.166 74.4143 209.797 67.3178 215.249 60.4558C216.9 58.3707 218.555 56.2894 220.215 54.2119C226.745 47.8572 233.465 41.3277 243.98 47.939L244.164 48.0573L244.16 48.277C244.142 50.2682 244.166 52.155 244.174 54.0053C244.251 60.7876 244.323 66.6446 242.195 73.2182C240.167 78.704 240.283 86.4361 240.399 93.2277C240.435 95.6002 240.469 97.8493 240.441 99.7808L239.267 136.069C239.014 143.099 238.54 150.23 238.082 157.127C237.711 162.762 237.313 168.635 237.05 174.395L237.028 174.823C236.343 190.661 235.998 198.609 227.241 212.413C224.679 215.757 221.798 219.105 218.762 222.62C210.02 232.764 200.104 244.307 197.506 256.818L197.206 258.218ZM140.784 146.05C143.927 151.786 146.855 157.633 149.718 163.342C154.405 172.716 159.251 182.408 164.971 191.395C169.765 197.671 174.318 202.85 180.921 207.669C182.309 208.685 183.786 209.6 185.208 210.477C189.003 212.822 192.585 215.033 195.004 219.277C197.208 225.578 196.662 231.694 196.132 237.609C195.617 243.364 195.091 249.296 197.045 255.382C200.095 243.201 209.676 232.059 218.189 222.186C221.231 218.648 224.11 215.308 226.636 212.012C235.259 198.421 235.597 190.537 236.279 174.845L236.303 174.409C236.56 168.641 236.952 162.79 237.331 157.125C237.795 150.236 238.282 143.117 238.516 136.099L239.622 99.7863C239.683 97.8546 239.647 95.6132 239.58 93.2333C239.471 86.3453 239.355 78.5476 241.424 72.9246C243.509 66.4959 243.439 60.6967 243.368 53.9896C243.347 52.2261 243.322 50.4126 243.338 48.4946C233.464 42.4071 227.011 48.6823 220.779 54.7497C219.144 56.8058 217.5 58.86 215.849 60.9124C210.399 67.7667 204.755 74.8845 198.906 81.6336C192.704 87.88 184.399 90.8757 172.641 91.0613C159.845 90.6757 155.197 101.16 150.705 111.305C150.358 112.096 150.01 112.887 149.657 113.668C147.862 119.137 146.352 125.051 144.896 130.774C143.646 135.884 142.341 141.022 140.784 146.05ZM41.6744 53.0749C44.9922 59.6542 48.8013 65.9736 53.0692 71.9794C54.2958 73.6595 55.5242 75.332 56.762 76.9658C59.9836 81.1998 63.318 85.5757 65.713 90.3858C69.1259 100.326 67.8858 110.779 66.6819 120.881C66.5542 121.979 66.4225 123.059 66.2967 124.149C66.041 126.009 65.7528 127.902 65.4608 129.81C63.7833 140.852 62.0502 152.224 65.1737 162.683C67.6217 171.783 75.0105 175.148 82.8244 178.715C83.8561 179.179 84.886 179.65 85.9044 180.134C96.4416 185.647 104.923 192.893 114.184 204.294C114.905 202.302 115.609 200.281 116.311 198.268C120.687 185.772 125.209 172.845 133.382 162.285C136.073 157.116 138.267 151.704 139.933 146.121C138.358 143.285 136.737 140.437 135.048 137.663C130.114 131.361 124.389 125.521 118.854 119.875C112.926 113.83 106.803 107.574 101.615 100.703C95.0799 90.8963 87.5189 83.866 75.482 76.4189C61.7533 68.9369 51.2318 61.678 41.6744 53.0749Z" fill="url(#paint0_linear_28_681)"/>
<path d="M194.982 219.599L194.233 219.319C197.294 211.328 198.554 208.027 199.023 198.728C199.495 189.789 201.392 180.869 203.224 172.253C203.529 170.83 203.834 169.408 204.129 167.991C204.544 166.08 204.961 164.161 205.384 162.252C207.416 152.981 209.519 143.383 211.104 133.864C212.204 125.135 213.211 116.244 214.229 107.177L217.178 80.8063C218.189 71.4339 219.126 63.0335 220.046 55.1439L220.84 55.2388C219.928 63.1302 218.985 71.521 217.975 80.8934L215.023 107.271C214.005 116.339 213.004 125.207 211.901 133.984C210.306 143.541 208.203 153.139 206.168 162.426C205.742 164.334 205.324 166.245 204.914 168.157C204.619 169.574 204.314 170.996 204.009 172.419C202.183 181.012 200.295 189.893 199.821 198.774C199.385 208.205 198.086 211.536 194.982 219.599Z" fill="url(#paint1_linear_28_681)"/>
<path d="M164.205 191.52C164.878 188.281 165.558 185.952 166.454 183.004C167.208 180.472 168.06 177.604 169.146 173.37C170.773 166.945 172.371 160.398 173.906 154.081L175.773 146.397C177.647 138.919 179.585 131.179 181.761 123.635L181.776 123.574C184.165 115.321 184.979 112.542 187.087 106.929C188.407 103.402 189.904 99.9443 191.574 96.569C191.923 95.8362 192.281 95.1051 192.687 94.2389L193.241 93.0729C195.061 89.3862 196.674 85.6006 198.072 81.7337L198.823 82.0062C197.417 85.8983 195.795 89.709 193.965 93.4207L193.493 94.5245C193.09 95.3753 192.723 96.1449 192.377 96.8623C190.714 100.223 189.223 103.666 187.909 107.178C185.809 112.76 185.004 115.533 182.619 123.77L182.598 123.855C180.426 131.383 178.492 139.108 176.618 146.586L174.751 154.27C173.213 160.602 171.622 167.151 169.991 173.559C168.901 177.809 168.047 180.685 167.284 183.222C166.415 186.16 165.723 188.47 165.058 191.678L164.205 191.52Z" fill="url(#paint2_linear_28_681)"/>
<path d="M135.761 137.591L135 137.357C135.678 135.208 136.221 133.442 136.731 131.783C137.614 128.923 138.376 126.458 139.543 122.898C140.941 118.401 142.582 113.984 144.458 109.665C145.94 105.934 147.859 102.392 150.177 99.1141C152.687 95.5121 154.073 94.1149 156.881 92.2783C159.69 90.4417 161.406 90.1063 164.57 89.9673C166.885 89.8783 169.203 89.9632 171.505 90.221L172.488 90.3126L172.416 91.113L171.433 91.0214C169.166 90.7611 166.882 90.6793 164.602 90.7766C161.53 90.9053 160.104 91.1231 157.313 92.9558C154.522 94.7884 153.288 96.067 150.806 99.5532C148.519 102.791 146.626 106.29 145.168 109.977C143.296 114.268 141.664 118.661 140.279 123.134C139.115 126.678 138.353 129.143 137.47 132.004C136.982 133.676 136.435 135.457 135.761 137.591Z" fill="url(#paint3_linear_28_681)"/>
<path d="M148.816 113.562C146.122 110.46 143.18 107.584 140.018 104.963C136.436 101.975 134.681 100.853 131.469 99.4757C128.971 98.3253 126.274 97.67 123.527 97.5461C120.996 97.285 118.441 97.3743 115.934 97.8115C113.612 98.1455 111.313 98.622 109.049 99.2382L108.814 99.2956L106.802 99.8046C105.218 100.237 103.969 100.531 102.051 100.924L101.898 100.142C103.791 99.7845 105.035 99.4407 106.605 99.0369L108.616 98.5279L108.861 98.4646C111.159 97.8401 113.495 97.3614 115.854 97.0314C118.421 96.5854 121.036 96.4944 123.628 96.761C126.459 96.9065 129.236 97.5951 131.807 98.7892C135.101 100.203 136.906 101.353 140.548 104.397C143.737 107.049 146.705 109.958 149.42 113.095L148.816 113.562Z" fill="url(#paint4_linear_28_681)"/>
<path d="M133.125 162.336C129.656 157.47 126.639 154.381 122.471 150.105L119.205 146.728L118.642 146.149C112.767 140.052 109.569 136.699 105.026 130.533C100.484 124.367 98.7704 121.26 96.5375 115.008C95.3347 111.667 94.4002 108.235 93.7428 104.744C93.441 103.363 93.1427 101.932 92.7347 100.214C91.372 94.4852 90.3285 90.7395 86.2005 86.0644C83.2066 82.6265 79.8191 79.5526 76.1078 76.906L75.4611 76.4054L75.9483 75.7795L76.5969 76.2724C80.3487 78.9486 83.7715 82.0587 86.7943 85.5381C90.9611 90.2553 92.106 94.1892 93.506 100.033C93.9026 101.765 94.2182 103.192 94.5181 104.581C95.1791 108.034 96.1055 111.431 97.289 114.741C99.5021 120.906 101.15 123.915 105.68 130.062C110.211 136.209 113.4 139.535 119.228 145.621L119.781 146.205C120.962 147.433 122.05 148.539 123.049 149.575C127.238 153.864 130.243 156.974 133.769 161.904L133.125 162.336Z" fill="url(#paint5_linear_28_681)"/>
<path d="M86.8094 180.109L86.2758 179.513C88.1808 177.795 90.0662 176.113 91.9319 174.467C101.787 165.698 111.105 157.42 119.156 146.217C123.54 138.94 127.092 131.151 130.522 123.626C133.413 117.278 136.405 110.718 139.893 104.467C145.737 96.2606 152.313 86.9894 164.516 89.9541L164.678 89.9934C166.221 90.3685 167.842 90.7623 169.432 91.1486C177.112 93.0144 185.041 94.998 193.044 93.9821C202.26 92.4509 209.67 86.6126 216.84 80.9532L217.344 80.5605C218.637 79.615 219.972 78.4591 221.419 77.2485C227.327 72.1412 234.659 65.8505 242.115 72.8063L241.572 73.394C234.613 66.9109 227.841 72.716 221.912 77.8427C220.485 79.0743 219.13 80.2419 217.828 81.1933L217.334 81.5802C210.087 87.2863 202.595 93.1946 193.165 94.7638C185.013 95.7846 176.997 93.7881 169.241 91.9035C167.658 91.5191 166.076 91.1347 164.494 90.7502L164.347 90.7146C152.67 87.8774 146.242 96.9068 140.562 104.875C137.114 111.062 134.134 117.609 131.247 123.941C127.778 131.489 124.242 139.315 119.818 146.656C111.694 157.956 102.353 166.261 92.481 175.067C90.6038 176.715 88.7132 178.396 86.8094 180.109Z" fill="url(#paint6_linear_28_681)"/>
<path d="M66.1095 162.534L65.6851 161.858C79.952 152.763 93.1544 142.095 105.045 130.054C110.121 124.467 114.974 118.523 119.672 112.778C123.42 108.184 127.303 103.436 131.287 98.8832C137.434 91.3804 147.379 88.8325 157.217 92.2777C163.704 94.5409 169.906 97.8142 175.929 100.913C179.745 102.904 183.694 104.951 187.659 106.732C196.225 110.345 205.874 110.41 214.49 106.913L239.91 99.4797L240.134 100.238L214.755 107.607C210.398 109.377 205.736 110.27 201.035 110.235C196.333 110.2 191.685 109.238 187.357 107.403C183.361 105.614 179.406 103.557 175.573 101.571C169.581 98.4794 163.397 95.235 156.969 92.9617C147.453 89.6357 137.854 92.0715 131.906 99.3281C127.921 103.889 124.047 108.631 120.299 113.225C115.63 118.985 110.739 124.92 105.637 130.542C93.6939 142.646 80.4356 153.377 66.1095 162.534V162.534Z" fill="url(#paint7_linear_28_681)"/>
<path d="M66.6822 124.48L66.7077 123.668C78.3616 124.046 87.5467 119.547 96.7226 114.514C99.8475 112.452 103 110.241 106.047 108.094C111.615 104.188 117.37 100.148 123.366 96.7629C133.186 90.8639 140.885 93.9612 150.698 98.9872C157.289 103.475 163.648 108.295 169.749 113.43C173.841 116.771 178.102 120.227 182.425 123.428C192.309 129.845 199.572 133.189 211.55 133.547C221.545 134.258 230.487 134.967 238.914 135.706L238.842 136.506C230.424 135.761 221.481 135.06 211.503 134.345C199.427 133.988 191.806 130.468 181.978 124.089C177.611 120.869 173.36 117.407 169.246 114.052C163.192 109.13 156.965 104.043 150.3 99.6837C140.755 94.7967 133.238 91.7598 123.762 97.456C117.781 100.844 112.045 104.873 106.489 108.798C103.434 110.943 100.28 113.162 97.1165 115.248C87.8253 120.318 78.5325 124.857 66.6822 124.48Z" fill="url(#paint8_linear_28_681)"/>
<path d="M209.805 169.893C208.007 169.456 206.21 168.979 204.432 168.457C191.296 164.627 183.562 157.064 175.504 148.343C171.712 143.766 168.086 138.976 164.561 134.341C158.301 126.13 151.838 117.641 144.53 110.141C136.331 102.947 128.523 96.1593 115.876 97.7483C114.069 98.0535 112.198 98.4902 110.241 98.8736C104.516 100.1 98.5844 101.366 93.0092 100.494L92.9243 100.473C90.7419 99.632 88.5572 98.7332 86.4537 97.8704C79.6659 95.0926 73.2664 92.4664 66.0735 91.0869L66.2612 90.3146C73.5331 91.7052 79.9925 94.3541 86.7938 97.1434C88.8819 98.0024 91.0453 98.8879 93.2123 99.7251C98.6331 100.56 104.47 99.3116 110.116 98.1073C112.092 97.6795 113.954 97.2814 115.804 96.9701C128.814 95.3304 136.719 102.223 145.097 109.526C152.466 117.041 158.939 125.59 165.211 133.82C168.73 138.445 172.373 143.232 176.125 147.774C184.361 156.735 191.707 163.91 204.66 167.686C212.929 170.121 221.569 171.533 229.927 172.893C232.192 173.263 234.458 173.626 236.716 174.019L236.582 174.804C234.324 174.411 232.068 174.043 229.802 173.68C223.204 172.609 216.473 171.513 209.805 169.893Z" fill="url(#paint9_linear_28_681)"/>
<path d="M226.587 212.482C220.567 204.796 211.346 202.343 202.424 199.971L199.356 199.144C184.915 196.24 176.55 184.983 169.231 173.693C166.102 168.304 163.048 162.81 160.089 157.495C153.748 146.083 147.198 134.285 139.613 123.25C130.744 112.655 122.035 104.495 108.537 99.2281C100.914 96.9591 94.5977 92.2757 88.4401 87.7454L86.2294 86.1124C78.3034 82.1994 69.9512 79.0988 61.8134 76.0911C59.0461 75.0671 56.2652 74.0316 53.4764 72.9615L53.7644 72.2136C56.5455 73.2818 59.3282 74.3096 62.0937 75.3414C70.2237 78.3471 78.5895 81.4592 86.6254 85.3908C87.4248 85.9694 88.1662 86.5176 88.8999 87.0639C94.9783 91.5503 101.264 96.1934 108.755 98.4306C122.443 103.76 131.223 111.994 140.207 122.723C147.835 133.818 154.398 145.628 160.743 157.057C163.694 162.37 166.741 167.862 169.891 173.232C177.407 184.823 185.326 195.49 199.522 198.325L202.637 199.164C211.682 201.566 221.063 204.066 227.213 211.956L226.587 212.482Z" fill="url(#paint10_linear_28_681)"/>
<defs>
<linearGradient id="paint0_linear_28_681" x1="160.3" y1="26.5324" x2="109.205" y2="236.837" gradientUnits="userSpaceOnUse">
<stop stop-color="#34C796"/>
<stop offset="1" stop-color="#0B7A55"/>
</linearGradient>
<linearGradient id="paint1_linear_28_681" x1="227.58" y1="56.8762" x2="188.431" y2="218.007" gradientUnits="userSpaceOnUse">
<stop stop-color="#34C796"/>
<stop offset="1" stop-color="#0B7A55"/>
</linearGradient>
<linearGradient id="paint2_linear_28_681" x1="195.04" y1="80.9971" x2="167.965" y2="192.433" gradientUnits="userSpaceOnUse">
<stop stop-color="#34C796"/>
<stop offset="1" stop-color="#0B7A55"/>
</linearGradient>
<linearGradient id="paint3_linear_28_681" x1="160.243" y1="87.3376" x2="147.35" y2="140.407" gradientUnits="userSpaceOnUse">
<stop stop-color="#34C796"/>
<stop offset="1" stop-color="#0B7A55"/>
</linearGradient>
<linearGradient id="paint4_linear_28_681" x1="127.898" y1="97.4018" x2="125.357" y2="107.862" gradientUnits="userSpaceOnUse">
<stop stop-color="#34C796"/>
<stop offset="1" stop-color="#0B7A55"/>
</linearGradient>
<linearGradient id="paint5_linear_28_681" x1="112.968" y1="84.7739" x2="96.2977" y2="153.389" gradientUnits="userSpaceOnUse">
<stop stop-color="#34C796"/>
<stop offset="1" stop-color="#0B7A55"/>
</linearGradient>
<linearGradient id="paint6_linear_28_681" x1="181.154" y1="56.3617" x2="147.505" y2="194.856" gradientUnits="userSpaceOnUse">
<stop stop-color="#34C796"/>
<stop offset="1" stop-color="#0B7A55"/>
</linearGradient>
<linearGradient id="paint7_linear_28_681" x1="165.001" y1="81.2799" x2="140.848" y2="180.692" gradientUnits="userSpaceOnUse">
<stop stop-color="#34C796"/>
<stop offset="1" stop-color="#0B7A55"/>
</linearGradient>
<linearGradient id="paint8_linear_28_681" x1="160.248" y1="99.3275" x2="149.263" y2="144.544" gradientUnits="userSpaceOnUse">
<stop stop-color="#34C796"/>
<stop offset="1" stop-color="#0B7A55"/>
</linearGradient>
<linearGradient id="paint9_linear_28_681" x1="158.047" y1="105.291" x2="146.111" y2="154.418" gradientUnits="userSpaceOnUse">
<stop stop-color="#34C796"/>
<stop offset="1" stop-color="#0B7A55"/>
</linearGradient>
<linearGradient id="paint10_linear_28_681" x1="151.634" y1="95.9921" x2="129.087" y2="188.794" gradientUnits="userSpaceOnUse">
<stop stop-color="#34C796"/>
<stop offset="1" stop-color="#0B7A55"/>
</linearGradient>
</defs>
</svg>
