<svg fill="none" height="80" viewBox="0 0 80 80" width="80" xmlns="http://www.w3.org/2000/svg" xmlns:xlink="http://www.w3.org/1999/xlink"><linearGradient id="a"><stop offset="0" stop-color="#34c796"/><stop offset="1" stop-color="#0b7a55"/></linearGradient><linearGradient id="b" gradientUnits="userSpaceOnUse" x1="40" x2="40" xlink:href="#a" y1="0" y2="80"/><linearGradient id="c" gradientUnits="userSpaceOnUse" x1="54.4848" x2="54.4848" xlink:href="#a" y1="46.2251" y2="62.6584"/><linearGradient id="d" gradientUnits="userSpaceOnUse" x1="25.5011" x2="25.5011" xlink:href="#a" y1="17.2251" y2="33.6584"/><linearGradient id="e" gradientUnits="userSpaceOnUse" x1="46.5154" x2="46.5154" xlink:href="#a" y1="21.6333" y2="45.336"/><linearGradient id="f" gradientUnits="userSpaceOnUse" x1="33.4075" x2="33.4075" xlink:href="#a" y1="43.5186" y2="44.9694"/><linearGradient id="g" gradientUnits="userSpaceOnUse" x1="33.9585" x2="33.9585" xlink:href="#a" y1="47.8877" y2="49.3377"/><linearGradient id="h" gradientUnits="userSpaceOnUse" x1="33.5711" x2="33.5711" xlink:href="#a" y1="34.4897" y2="58.3664"/><circle cx="40" cy="40" r="39" stroke="url(#b)" stroke-width="2"/><path d="m61.267 46.2251c-.7927 0-1.45.6573-1.45 1.45 0 5.7227-3.9827 10.5173-9.338 11.774l.522-.87c.406-.696.1933-1.5853-.5027-1.9913-.6767-.406-1.5853-.1934-1.9913.5026l-2.03 3.3834c-.2707.4446-.2707 1.0053-.0194 1.45.2514.464.7347.7346 1.2567.7346 8.2553 0 14.9833-6.728 14.9833-14.9833.0194-.7927-.638-1.45-1.4306-1.45z" fill="url(#c)"/><path d="m32.2665 17.2251c-8.2553 0-14.9833 6.728-14.9833 14.9833 0 .7927.6573 1.45 1.45 1.45s1.45-.6573 1.45-1.45c0-5.7226 3.9827-10.5173 9.338-11.774l-.522.87c-.406.696-.1933 1.5854.5027 1.9914.6766.406 1.5853.1933 1.9913-.5027l2.03-3.3833c.2513-.4447.2707-.986 0-1.45-.2513-.4447-.7347-.7347-1.2567-.7347z" fill="url(#d)"/><path d="m58.3667 33.562c0 5.9546-4.3306 10.8653-9.9953 11.774 0-.0194 0-.0194 0-.0387-.5607-7.2113-6.3993-13.0887-13.7073-13.6687.9086-5.6646 5.8193-9.9953 11.774-9.9953 6.5926 0 11.9286 5.336 11.9286 11.9287z" fill="url(#e)"/><path d="m35.7662 44.2532c0-.29-.3287-.7346-.7347-.7346h-3.9827v1.45h3.9827c.406.0193.7347-.3094.7347-.7154z" fill="url(#f)"/><path d="m35.8048 47.8877h-.7733-3.9827v1.45h4.7754c.6186 0 1.044-.3867 1.044-.7347s-.4447-.7153-1.0634-.7153z" fill="url(#g)"/><path d="m45.4708 45.5097c-.4447-5.858-5.1233-10.5366-10.9813-10.9813-.3094-.0193-.5994-.0387-.928-.0387-6.5927 0-11.9287 5.336-11.9287 11.948 0 6.5927 5.336 11.9287 11.9287 11.9287 6.5926 0 11.948-5.336 11.948-11.9287 0-.3286-.0194-.6186-.0387-.928zm-9.6667 6.728h-1.276v.7347c0 .7927-.6573 1.45-1.45 1.45-.7926 0-1.45-.6573-1.45-1.45v-.7347h-2.03c-.7926 0-1.45-.6573-1.45-1.45v-4.35-4.35c0-.7926.6574-1.45 1.45-1.45h2.03v-.7346c0-.7927.6574-1.45 1.45-1.45.7927 0 1.45.6573 1.45 1.45v.7346h.5027c1.9333 0 3.6347 1.7014 3.6347 3.6347 0 .5607-.1354 1.0827-.3674 1.566.8894.6573 1.45 1.6627 1.45 2.784 0 1.9913-1.7593 3.6153-3.944 3.6153z" fill="url(#h)"/></svg>