<svg fill="none" height="80" viewBox="0 0 80 80" width="80" xmlns="http://www.w3.org/2000/svg" xmlns:xlink="http://www.w3.org/1999/xlink"><linearGradient id="a"><stop offset="0" stop-color="#34c796"/><stop offset="1" stop-color="#0b7a55"/></linearGradient><linearGradient id="b" gradientUnits="userSpaceOnUse" x1="40" x2="40" xlink:href="#a" y1="0" y2="80"/><linearGradient id="c" gradientUnits="userSpaceOnUse" x1="39.9902" x2="39.9902" xlink:href="#a" y1="20.478" y2="59.3477"/><circle cx="40" cy="40" r="39" stroke="url(#b)" stroke-width="2"/><path d="m52.6438 24.7652-10.6334-3.9827c-1.102-.406-2.9-.406-4.002 0l-10.6333 3.9827c-2.0493.7733-3.712 3.1707-3.712 5.3553v15.66c0 1.566 1.0247 3.6347 2.2813 4.5627l10.6334 7.946c1.8753 1.4113 4.9493 1.4113 6.8246 0l10.6334-7.946c1.2566-.9473 2.2813-2.9967 2.2813-4.5627v-15.66c.0193-2.1846-1.6433-4.582-3.6733-5.3553zm-5.916 10.8267-8.3134 8.3133c-.29.29-.6573.4253-1.0246.4253-.3674 0-.7347-.1353-1.0247-.4253l-3.0933-3.132c-.5607-.5607-.5607-1.4887 0-2.0493.5606-.5607 1.4886-.5607 2.0493 0l2.088 2.088 7.2887-7.2887c.5606-.5607 1.4886-.5607 2.0493 0s.5607 1.508-.0193 2.0687z" fill="url(#c)"/></svg>