<svg fill="none" height="80" viewBox="0 0 80 80" width="80" xmlns="http://www.w3.org/2000/svg" xmlns:xlink="http://www.w3.org/1999/xlink"><linearGradient id="a"><stop offset="0" stop-color="#34c796"/><stop offset="1" stop-color="#0b7a55"/></linearGradient><linearGradient id="b" gradientUnits="userSpaceOnUse" x1="40" x2="40" xlink:href="#a" y1="0" y2="80"/><linearGradient id="c" gradientUnits="userSpaceOnUse" x1="40.0004" x2="40.0004" xlink:href="#a" y1="23.2002" y2="57.0551"/><circle cx="40" cy="40" fill="#151722" r="39" stroke="url(#b)" stroke-width="2"/><g fill="url(#c)"><path d="m25.419 49.0394c.2607-.2607.6191-.4128.9993-.4128h34.4739c.63 0 .945.7603.4996 1.2057l-6.81 6.81c-.2607.2607-.6191.4128-.9993.4128h-34.4739c-.63 0-.945-.7603-.4997-1.2057z"/><path d="m25.419 23.6129c.2716-.2606.63-.4127.9993-.4127h34.4739c.63 0 .945.7603.4996 1.2056l-6.81 6.8101c-.2607.2607-.6191.4127-.9993.4127h-34.4739c-.63 0-.945-.7603-.4997-1.2056z"/><path d="m54.5818 36.2447c-.2607-.2607-.6191-.4128-.9993-.4128h-34.4739c-.63 0-.945.7603-.4997 1.2056l6.8101 6.8101c.2607.2607.6191.4127.9993.4127h34.4739c.63 0 .945-.7602.4996-1.2056z"/></g></svg>