<svg fill="none" height="80" viewBox="0 0 80 80" width="80" xmlns="http://www.w3.org/2000/svg" xmlns:xlink="http://www.w3.org/1999/xlink"><linearGradient id="a"><stop offset="0" stop-color="#34c796"/><stop offset="1" stop-color="#0b7a55"/></linearGradient><linearGradient id="b" gradientUnits="userSpaceOnUse" x1="40" x2="40" xlink:href="#a" y1="0" y2="80"/><linearGradient id="c" gradientUnits="userSpaceOnUse" x1="42.4808" x2="42.4808" xlink:href="#a" y1="20.6665" y2="57.6235"/><linearGradient id="d" gradientUnits="userSpaceOnUse" x1="31.2993" x2="31.2993" xlink:href="#a" y1="36.3066" y2="59.3342"/><circle cx="40" cy="40" r="39" stroke="url(#b)" stroke-width="2"/><path d="m52.509 49.3378.754 6.1094c.1933 1.6046-1.5274 2.726-2.9 1.8946l-6.6894-3.9826c-.464-.2707-.58-.8507-.3286-1.3147.9666-1.7787 1.4886-3.7893 1.4886-5.8 0-7.076-6.0706-12.8373-13.5333-12.8373-1.5273 0-3.016.232-4.408.696-.7154.232-1.4114-.4254-1.2374-1.16 1.7594-7.0374 8.5261-12.2767 16.6074-12.2767 9.4347 0 17.0713 7.134 17.0713 15.9307 0 5.22-2.6873 9.8406-6.8246 12.7406z" fill="url(#c)"/><path d="m41.9327 46.244c0 2.3006-.8507 4.4273-2.2813 6.1093-1.9141 2.32-4.9494 3.8087-8.3521 3.8087l-5.046 2.9966c-.8506.522-1.9333-.1933-1.8173-1.1793l.4833-3.8087c-2.5906-1.798-4.2533-4.6786-4.2533-7.9266 0-3.4027 1.8173-6.3994 4.6013-8.178 1.7207-1.1214 3.7894-1.7594 6.032-1.7594 5.8774 0 10.6334 4.4467 10.6334 9.9374z" fill="url(#d)"/></svg>