<svg fill="none" height="80" viewBox="0 0 80 80" width="80" xmlns="http://www.w3.org/2000/svg" xmlns:xlink="http://www.w3.org/1999/xlink"><linearGradient id="a"><stop offset="0" stop-color="#34c796"/><stop offset="1" stop-color="#0b7a55"/></linearGradient><linearGradient id="b" gradientUnits="userSpaceOnUse" x1="40" x2="40" xlink:href="#a" y1="0" y2="80"/><linearGradient id="c" gradientUnits="userSpaceOnUse" x1="33.5711" x2="33.5711" xlink:href="#a" y1="20.7627" y2="39.052"/><linearGradient id="d" gradientUnits="userSpaceOnUse" x1="55.462" x2="55.462" xlink:href="#a" y1="43.8662" y2="47.7329"/><linearGradient id="e" gradientUnits="userSpaceOnUse" x1="39.9995" x2="39.9995" xlink:href="#a" y1="31.7832" y2="59.3332"/><circle cx="40" cy="40" r="39" stroke="url(#b)" stroke-width="2"/><path d="m45.5095 24.436v7.3467h-2.9v-7.3467c0-.522-.464-.7733-.7734-.7733-.0966 0-.1933.0193-.29.058l-15.3313 5.7807c-1.0247.3866-1.682 1.3533-1.682 2.4553v1.2953c-1.7593 1.3147-2.9 3.422-2.9 5.8v-7.0953c0-2.3007 1.4113-4.35 3.5573-5.162l15.3507-5.8c.4253-.1547.87-.232 1.2953-.232 1.9334 0 3.6734 1.566 3.6734 3.6733z" fill="url(#c)"/><path d="m58.3665 44.8329v1.9333c0 .522-.406.9473-.9474.9667h-2.8226c-1.0247 0-1.9527-.754-2.03-1.7594-.058-.5993.174-1.16.5606-1.5466.348-.3674.8314-.5607 1.3534-.5607h2.9193c.5607.0193.9667.4447.9667.9667z" fill="url(#d)"/><path d="m54.4608 41.8365h1.972c1.0633 0 1.9333-.87 1.9333-1.9333v-.8507c0-4.002-3.2673-7.2693-7.2693-7.2693h-22.1947c-1.6433 0-3.1513.5413-4.3693 1.4693-1.7593 1.3147-2.9 3.422-2.9 5.8v13.0114c0 4.002 3.2673 7.2693 7.2693 7.2693h22.1947c4.002 0 7.2693-3.2673 7.2693-7.2693v-.3674c0-1.0633-.87-1.9333-1.9333-1.9333h-1.682c-1.856 0-3.6347-1.1407-4.118-2.9387-.406-1.4693.0773-2.8806 1.044-3.828.7153-.7346 1.7013-1.16 2.784-1.16zm-10.5947-.3866h-13.5333c-.7927 0-1.45-.6574-1.45-1.45 0-.7927.6573-1.45 1.45-1.45h13.5333c.7927 0 1.45.6573 1.45 1.45 0 .7926-.6573 1.45-1.45 1.45z" fill="url(#e)"/></svg>