<svg fill="none" height="221" viewBox="0 0 286 221" width="286" xmlns="http://www.w3.org/2000/svg" xmlns:xlink="http://www.w3.org/1999/xlink"><linearGradient id="a"><stop offset="0" stop-color="#34c796"/><stop offset="1" stop-color="#0b7a55"/></linearGradient><linearGradient id="b" gradientUnits="userSpaceOnUse" x1="286.422" x2="286.422" xlink:href="#a" y1="-45.3076" y2="210"/><linearGradient id="c" gradientUnits="userSpaceOnUse" x1="280.623" x2="280.623" xlink:href="#a" y1="-45.4092" y2="211.111"/><linearGradient id="d" gradientUnits="userSpaceOnUse" x1="276.208" x2="276.208" xlink:href="#a" y1="-45.4727" y2="213.79"/><linearGradient id="e" gradientUnits="userSpaceOnUse" x1="272.737" x2="272.737" xlink:href="#a" y1="-45.7871" y2="217.595"/><linearGradient id="f" gradientUnits="userSpaceOnUse" x1="267.547" x2="267.547" xlink:href="#a" y1="-46.0029" y2="222.471"/><linearGradient id="g" gradientUnits="userSpaceOnUse" x1="260.361" x2="260.361" xlink:href="#a" y1="-46.4336" y2="228.03"/><linearGradient id="h" gradientUnits="userSpaceOnUse" x1="254.665" x2="254.665" xlink:href="#a" y1="-46.8242" y2="234.008"/><linearGradient id="i" gradientUnits="userSpaceOnUse" x1="247.709" x2="247.709" xlink:href="#a" y1="-47.1396" y2="240.073"/><linearGradient id="j" gradientUnits="userSpaceOnUse" x1="240.856" x2="240.856" xlink:href="#a" y1="-47.5703" y2="246.062"/><linearGradient id="k" gradientUnits="userSpaceOnUse" x1="232.28" x2="232.28" xlink:href="#a" y1="-47.7725" y2="251.356"/><linearGradient id="l" gradientUnits="userSpaceOnUse" x1="223.799" x2="223.799" xlink:href="#a" y1="-48.1006" y2="255.779"/><linearGradient id="m" gradientUnits="userSpaceOnUse" x1="217.026" x2="217.026" xlink:href="#a" y1="-48.291" y2="258.975"/><linearGradient id="n" gradientUnits="userSpaceOnUse" x1="210.463" x2="210.463" xlink:href="#a" y1="-48.4922" y2="260.669"/><linearGradient id="o" gradientUnits="userSpaceOnUse" x1="204.075" x2="204.075" xlink:href="#a" y1="-48.3535" y2="260.871"/><linearGradient id="p" gradientUnits="userSpaceOnUse" x1="197.919" x2="197.919" xlink:href="#a" y1="-47.9375" y2="260.87"/><linearGradient id="q" gradientUnits="userSpaceOnUse" x1="191.799" x2="191.799" xlink:href="#a" y1="-47.4316" y2="260.845"/><linearGradient id="r" gradientUnits="userSpaceOnUse" x1="185.856" x2="185.856" xlink:href="#a" y1="-46.6855" y2="260.795"/><linearGradient id="s" gradientUnits="userSpaceOnUse" x1="179.993" x2="179.993" xlink:href="#a" y1="-45.6484" y2="260.733"/><linearGradient id="t" gradientUnits="userSpaceOnUse" x1="175.725" x2="175.725" xlink:href="#a" y1="-44.6641" y2="260.656"/><linearGradient id="u" gradientUnits="userSpaceOnUse" x1="169.95" x2="169.95" xlink:href="#a" y1="-43.6016" y2="260.569"/><linearGradient id="v" gradientUnits="userSpaceOnUse" x1="164.126" x2="164.126" xlink:href="#a" y1="-42.5283" y2="260.656"/><linearGradient id="w" gradientUnits="userSpaceOnUse" x1="158.166" x2="158.166" xlink:href="#a" y1="-41.5557" y2="260.719"/><linearGradient id="x" gradientUnits="userSpaceOnUse" x1="152.22" x2="152.22" xlink:href="#a" y1="-40.7217" y2="260.77"/><linearGradient id="y" gradientUnits="userSpaceOnUse" x1="146.244" x2="146.244" xlink:href="#a" y1="-40.001" y2="260.808"/><linearGradient id="z" gradientUnits="userSpaceOnUse" x1="140.065" x2="140.065" xlink:href="#a" y1="-39.585" y2="260.82"/><linearGradient id="A" gradientUnits="userSpaceOnUse" x1="133.769" x2="133.769" xlink:href="#a" y1="-39.4082" y2="260.807"/><linearGradient id="B" gradientUnits="userSpaceOnUse" x1="127.684" x2="127.684" xlink:href="#a" y1="-39.1797" y2="259.456"/><linearGradient id="C" gradientUnits="userSpaceOnUse" x1="122.47" x2="122.47" xlink:href="#a" y1="-38.3457" y2="255.729"/><linearGradient id="D" gradientUnits="userSpaceOnUse" x1="117.799" x2="117.799" xlink:href="#a" y1="-37.1709" y2="250.067"/><linearGradient id="E" gradientUnits="userSpaceOnUse" x1="113.045" x2="113.045" xlink:href="#a" y1="-35.5283" y2="242.928"/><linearGradient id="F" gradientUnits="userSpaceOnUse" x1="108.624" x2="108.624" xlink:href="#a" y1="-33.7715" y2="234.766"/><linearGradient id="G" gradientUnits="userSpaceOnUse" x1="106.708" x2="106.708" xlink:href="#a" y1="-31.8135" y2="226.034"/><linearGradient id="H" gradientUnits="userSpaceOnUse" x1="105.358" x2="105.358" xlink:href="#a" y1="-29.9424" y2="217.164"/><linearGradient id="I" gradientUnits="userSpaceOnUse" x1="104.146" x2="104.146" xlink:href="#a" y1="-28.085" y2="208.635"/><linearGradient id="J" gradientUnits="userSpaceOnUse" x1="100.749" x2="100.749" xlink:href="#a" y1="-26.4053" y2="200.787"/><linearGradient id="K" gradientUnits="userSpaceOnUse" x1="97.1255" x2="97.1255" xlink:href="#a" y1="-24.9648" y2="194.267"/><linearGradient id="L" gradientUnits="userSpaceOnUse" x1="92.5541" x2="92.5541" xlink:href="#a" y1="-23.8652" y2="189.428"/><linearGradient id="M" gradientUnits="userSpaceOnUse" x1="87.4837" x2="87.4837" xlink:href="#a" y1="-23.3594" y2="186.712"/><linearGradient id="N" gradientUnits="userSpaceOnUse" x1="81.3466" x2="81.3466" xlink:href="#a" y1="-23.2842" y2="186.421"/><linearGradient id="O" gradientUnits="userSpaceOnUse" x1="74.968" x2="74.968" xlink:href="#a" y1="-23.8652" y2="187.507"/><linearGradient id="P" gradientUnits="userSpaceOnUse" x1="68.7795" x2="68.7795" xlink:href="#a" y1="-24.7744" y2="189.542"/><linearGradient id="Q" gradientUnits="userSpaceOnUse" x1="62.5991" x2="62.5991" xlink:href="#a" y1="-26.1016" y2="192.322"/><linearGradient id="R" gradientUnits="userSpaceOnUse" x1="56.6715" x2="56.6715" xlink:href="#a" y1="-27.6943" y2="195.632"/><linearGradient id="S" gradientUnits="userSpaceOnUse" x1="50.5824" x2="50.5824" xlink:href="#a" y1="-29.5889" y2="199.31"/><linearGradient id="T" gradientUnits="userSpaceOnUse" x1="41.6413" x2="41.6413" xlink:href="#a" y1="-31.5479" y2="203.302"/><linearGradient id="U" gradientUnits="userSpaceOnUse" x1="31.631" x2="31.631" xlink:href="#a" y1="-33.4932" y2="207.081"/><linearGradient id="V" gradientUnits="userSpaceOnUse" x1="25.1042" x2="25.1042" xlink:href="#a" y1="-35.3135" y2="210.656"/><linearGradient id="W" gradientUnits="userSpaceOnUse" x1="19.8797" x2="19.8797" xlink:href="#a" y1="-36.8926" y2="213.879"/><linearGradient id="X" gradientUnits="userSpaceOnUse" x1="14.7997" x2="14.7997" xlink:href="#a" y1="-38.2314" y2="216.432"/><linearGradient id="Y" gradientUnits="userSpaceOnUse" x1="9.13851" x2="9.13851" xlink:href="#a" y1="-39.041" y2="218.149"/><linearGradient id="Z" gradientUnits="userSpaceOnUse" x1="3.23172" x2="3.23172" xlink:href="#a" y1="-39.4326" y2="218.832"/><mask id="aa" height="219" maskUnits="userSpaceOnUse" width="286" x="0" y="1"><g fill="none" mask="url(#ab)"><path d="m241.511 19.6801c-18.184-8.3434-37.683-14.49038-58.07-18.01103-.371-.06795-.742.10185-.934.44147-2.507 4.46023-5.285 10.27896-7.23 14.85246-21.928-3.2829-43.744-3.2829-65.222 0-1.946-4.6752-4.824-10.39223-7.343-14.85246-.192-.32829-.563-.49809-.934-.44147-20.3761 3.5094-39.8751 9.65643-58.0698 18.01103-.1575.0679-.2925.1812-.3822.3283-36.98551 55.2556-47.1174 109.1526-42.14703 162.3826.02249.26.16867.509.37109.668 24.40204 17.92 48.03954 28.799 71.23814 36.01.3712.113.7646-.022 1.0009-.328 5.4876-7.494 10.3793-15.396 14.5735-23.705.2476-.487.0113-1.064-.4946-1.257-7.7591-2.943-15.1473-6.532-22.2543-10.607-.5621-.328-.6071-1.132-.09-1.517 1.4956-1.121 2.9915-2.287 4.4196-3.464.2584-.215.6184-.261.9222-.125 46.6895 21.317 97.2365 21.317 143.3755 0 .304-.147.664-.102.933.113 1.429 1.178 2.924 2.355 4.431 3.476.517.385.484 1.189-.078 1.517-7.107 4.154-14.496 7.664-22.266 10.596-.506.192-.731.781-.483 1.268 4.284 8.297 9.176 16.199 14.562 23.694.225.317.63.452 1.001.339 23.311-7.211 46.948-18.09 71.35-36.01.214-.159.349-.397.372-.657 5.948-61.539-9.964-114.9944-42.181-162.3824-.079-.1583-.214-.2716-.371-.3395zm-146.176 130.2999c-14.0568 0-25.6392-12.906-25.6392-28.754 0-15.849 11.3578-28.7545 25.6392-28.7545 14.394 0 25.864 13.0185 25.639 28.7545 0 15.848-11.358 28.754-25.639 28.754zm94.797 0c-14.057 0-25.639-12.906-25.639-28.754 0-15.849 11.357-28.7545 25.639-28.7545 14.393 0 25.863 13.0185 25.639 28.7545 0 15.848-11.246 28.754-25.639 28.754z" fill="#5865f2"/></g></mask><mask id="ab" fill="none" height="221" maskUnits="userSpaceOnUse" width="286" x="0" y="0"><path d="m285.291 0h-285.291v221h285.291z" fill="#fff"/></mask><g mask="url(#aa)"><path d="m253.94 210-.896-.885c10.807-11.056 15.693-11.296 30.2-12.016l2.336-.114c1.654-.088 3.219-.152 4.696-.215 16.186-.707 22.246-.973 25.58-16.881 3.85-18.284 3.181-51.074.164-69.055-2.26-13.5712-11.489-21.0516-21.262-28.9743-7.07-5.7241-14.38-11.6503-18.786-20.0911-9.684-18.5494 2.032-48.5343 12.373-75.0064 4.696-12.0041 9.128-23.3511 10.858-32.0698l1.262.2401c-1.755 8.8451-6.199 20.2173-10.921 32.2972-10.239 26.2068-21.855 55.9137-12.423 73.9577 4.28 8.2007 11.489 14.0511 18.458 19.6993 9.52 7.7079 19.368 15.6937 21.716 29.7323 3.03 18.094 3.699 51.099-.177 69.497-3.548 16.869-10.34 17.172-26.766 17.892l-4.684.215-2.336.114c-14.165.72-18.925.96-29.392 11.663z" fill="url(#b)"/><path d="m248.978 211.111-.884-.897c10.984-10.942 15.63-11.372 31.008-12.636l3.548-.278c16.413-1.263 21.892-1.705 25.25-17.248 4.243-19.244 5.265-51.807 2.197-69.598-2.373-13.8993-11.88-21.3924-21.943-29.3656-7.386-5.8378-15.011-11.8903-19.544-20.6344-9.57-18.4483 2.323-47.435 12.802-73.0099 5.05-12.2821 9.785-23.8692 11.54-32.8533l1.263.2401c-1.768 9.1357-6.553 20.786-11.603 33.1186-10.391 25.2717-22.158 54.0183-12.866 71.9486 4.419 8.5039 11.944 14.468 19.216 20.2173 9.81 7.7711 19.949 15.8075 22.41 30.1366 3.081 17.968 2.046 50.72-2.209 70.078-3.623 16.427-9.848 16.945-26.513 18.234l-3.409.278c-15.454 1.314-19.608 1.655-30.263 12.269z" fill="url(#c)"/><path d="m246.037 213.79-.934-.859c9.772-10.753 13.824-11.714 27.776-13.698h.416c17.827-2.527 21.552-3.07 25.175-18.574 4.962-21.115 9.633-52.351 6.528-70.875-2.412-14.4174-12.626-22.239-23.496-30.5281-7.929-6.0526-16.123-12.3073-20.908-21.3672-9.671-18.3473 2.853-46.1462 13.888-70.6724 5.479-12.1557 10.643-23.629 12.537-32.689l1.263.2528c-1.92 9.1989-7.121 20.7354-12.626 32.9543-10.934 24.2608-23.332 51.807-13.888 69.5604 4.646 8.8451 12.727 14.9861 20.542 20.9629 10.567 8.0617 21.463 16.4266 23.988 31.3243 3.144 18.701-1.565 50.139-6.54 71.367-3.788 16.351-8.131 16.958-26.236 19.535h-.416c-13.926 1.972-17.562 2.831-27.069 13.306z" fill="url(#d)"/><path d="m244.786 217.595-1.174-.48c4.381-10.829 13.308-13.66 21.918-16.427 8.838-2.793 17.133-5.433 21.337-15.934 2.588-6.457 3.687-14.518 4.735-22.327.65-5.586 1.62-11.129 2.903-16.604.493-1.895 1.036-3.791 1.579-5.787 2.891-10.336 5.871-21.026 3.85-31.261-2.929-14.8348-14.026-23.1492-25.768-31.9564-9.835-7.3667-19.999-14.9861-24.658-26.7375-7.247-18.3219 4.899-40.75059 16.641-62.4464 6.552-12.1051 12.751-23.5532 14.999-33.4218l1.262.278c-2.298 10.1087-8.522 21.5568-15.15 33.7504-11.603 21.48092-23.597 43.6063-16.577 61.3723 4.519 11.3723 14.544 18.9538 24.24 26.1942 11.363 8.5544 23.231 17.4122 26.249 32.7142 2.083 10.538-.947 21.38-3.864 31.855-.543 1.946-1.085 3.867-1.578 5.762-1.272 5.415-2.229 10.9-2.866 16.427-1.073 7.872-2.171 16.022-4.823 22.618-4.431 11.056-13.421 13.899-22.12 16.679-8.698 2.78-16.981 5.446-21.135 15.732z" fill="url(#e)"/><path d="m244.66 222.471-1.263-.278c2.147-9.312 7.285-12.042 13.232-15.163 2.328-1.191 4.587-2.511 6.767-3.955 7.399-5.054 8.017-6.912 10.315-13.735.354-1.036.745-2.199 1.2-3.5 2.133-6.015 3.787-12.484 5.277-18.739 1.678-7.308 3.786-14.51 6.313-21.57.719-1.882 1.49-3.79 2.272-5.761 4.242-10.577 8.636-21.481 6.654-32.399-2.891-15.8705-15.252-24.6903-28.344-34.0408-10.845-7.7711-22.044-15.7191-27.094-28.0896-7.399-18.1072 5.921-39.17115 18.786-59.5654 7.222-11.4608 14.04-22.2265 16.641-31.6781l1.262.3285c-2.651 9.6917-9.507 20.5712-16.779 32.0825-12.701 20.11625-25.844 40.9149-18.686 58.4155 4.899 11.9915 15.946 19.8762 26.64 27.5083 12.714 9.0726 25.869 18.461 28.862 34.8371 2.045 11.246-2.412 22.353-6.73 33.093-.782 1.946-1.553 3.867-2.26 5.75-2.504 7.028-4.582 14.202-6.224 21.481-1.553 6.318-3.169 12.787-5.303 18.852-.454 1.264-.846 2.452-1.199 3.488-2.285 6.785-3.055 9.06-10.807 14.367-2.213 1.477-4.511 2.823-6.881 4.031-5.96 3.007-10.631 5.496-12.651 14.24z" fill="url(#f)"/><path d="m245.355 228.03-1.263-.101c.631-8.226 5.177-15.782 9.558-23.086 3.434-5.711 6.994-11.625 8.698-17.867 2.197-7.961 7.033-17.817 12.159-28.241 8.838-18.107 18.938-38.628 16.577-53.071-2.803-16.995-17.259-26.8636-31.235-36.4163-11.944-8.1628-24.304-16.5909-29.759-29.5047-7.575-18.0441 7.02-37.57908 21.186-56.4571 7.954-10.6014 15.466-20.609 18.471-29.7195l1.199.4044c-3.08 9.2999-10.643 19.3834-18.66 30.0733-13.951 18.59998-28.382 37.8318-21.034 55.2061 5.315 12.6358 17.512 20.8997 29.304 28.9613 14.203 9.6917 28.887 19.7246 31.778 37.2375 2.449 14.848-7.727 35.558-16.704 53.829-5.05 10.374-9.898 20.218-12.057 28.027-1.767 6.406-5.353 12.395-8.838 18.183-4.507 7.543-8.774 14.619-9.38 22.542z" fill="url(#g)"/><path d="m245.228 234.008c-.328-14.102.77-35.558 3.99-49.343 2.626-11.297 10.441-22.416 18.723-34.193 10.681-15.163 21.716-30.907 20.277-46.753-1.604-17.614-18.434-28.9231-34.708-39.8405-11.691-7.8595-23.786-15.9717-29.758-26.3078-11.716-20.2174 4.305-38.324574 19.809-55.8 8.308-9.3505 16.881-18.9538 20.567-28.5949l1.174.4422c-3.787 9.8055-12.423 19.5603-20.794 28.9867-15.15 17.13422-30.932 34.8623-19.67 54.3342 5.833 10.1087 17.271 17.6902 29.367 25.8909 16.526 11.0816 33.609 22.555 35.275 40.7762 1.477 16.262-9.696 32.158-20.516 47.548-8.194 11.663-15.946 22.745-18.522 33.738-3.194 13.697-4.28 35.014-3.952 49.04z" fill="url(#h)"/><path d="m247.689 240.073h-1.263c.076-8.301-2.815-16.161-5.605-23.755-3.523-9.616-7.171-19.548-4.912-30.503 2.702-13.028 13.434-25.398 23.812-37.339 12.727-14.658 25.882-29.821 24.695-46.437-1.325-18.4101-20.049-30.629-38.166-42.4435-13.383-8.7441-26.047-16.9953-32.296-27.6094-12.436-21.0892 4.785-36.95989 21.463-52.3125 9.204-8.4913 18.724-17.2605 23.143-26.8132l1.148.5307c-4.57 9.7675-14.178 18.6252-23.508 27.205-17.032 15.6937-33.117 30.5282-21.198 50.7329 6.11 10.3614 18.635 18.5368 31.904 27.1924 18.37 11.9914 37.359 24.3746 38.722 43.4166 1.263 17.147-12.095 32.5-24.998 47.347-10.264 11.827-20.895 24.008-23.521 36.77-2.184 10.602 1.262 19.927 4.861 29.808 2.866 7.708 5.795 15.669 5.719 24.21z" fill="url(#i)"/><path d="m247.337 246.062c-2.058-6.988-6.578-14.051-11.363-21.481-7.79-12.169-15.845-24.766-13.093-37.668 2.993-14.013 15.883-26.775 28.357-39.171 14.848-14.721 30.213-29.934 29.241-47.41-.581-10.6011-13.598-21.2658-22.209-28.3166l-3.03-2.5271c-4.671-3.9424-10.403-7.8974-16.413-12.1052-12.777-8.8451-27.271-18.84-34.492-30.8946-13.156-21.91063 5.189-35.74689 22.915-49.1156 10.1-7.5815 20.541-15.5042 25.68-24.9432l1.111.6065c-5.265 9.6791-15.82 17.6902-26.034 25.3475-18.079 13.63413-35.149 26.53534-22.599 47.4603 7.095 11.8145 21.463 21.7463 34.088 30.503 6.099 4.2204 11.856 8.2007 16.565 12.1683l3.018 2.5272c8.837 7.1898 22.056 18.0566 22.725 29.2265.998 18.044-14.569 33.46-29.619 48.37-12.335 12.207-25.087 24.842-28.003 38.489-2.652 12.396 5.265 24.766 12.916 36.72 4.823 7.581 9.393 14.683 11.501 21.835z" fill="url(#j)"/><path d="m247.565 251.356c-3.169-7.834-10.101-15.289-17.55-23.174-10.63-11.372-21.627-23.098-20.693-36.379 1.263-17.563 17.423-31.438 33.054-44.857 16.728-14.342 34.013-29.176 31.942-48.0161-2.298-20.9629-22.486-32.9291-42.005-44.5035-17.145-10.1087-34.871-20.6597-40.831-37.3137-5.858-16.426643-2.146-21.94851 12.803-31.4886 4.406-2.8051 8.598-5.1301 12.625-7.3793 11.78-6.5328 21.956-12.1684 30.301-26.0173l1.073.6445c-8.459 14.1395-18.774 19.8635-30.717 26.5353-4.041 2.2365-8.22 4.5489-12.626 7.3414-14.532 9.26209-17.915 14.32907-12.297 29.9849 5.808 16.2244 23.344 26.6111 40.288 36.644 19.784 11.7261 40.25 23.8565 42.611 45.4891 2.146 19.5733-15.403 34.6223-32.359 49.1783-15.441 13.18-31.412 26.814-32.612 43.847-.896 12.737 9.911 24.273 20.352 35.38 7.475 7.973 14.532 15.517 17.79 23.566z" fill="url(#k)"/><path d="m246.667 255.779c-7.083-14.582-14.014-20.419-23.597-28.506-3.043-2.528-6.502-5.472-10.277-8.947-6.729-6.178-15.605-15.567-15.05-25.638 1.023-18.385 19.052-32.512 36.488-46.158 18.383-14.367 37.472-29.354 35.414-48.9265-2.298-21.7084-23.622-34.1168-44.252-46.1209-18.067-10.5004-36.74-21.3672-42.926-38.5267-3.599-2.9315-5.581-6.14104-5.884-9.52745-.328-3.664402 1.263-7.58153 4.836-11.67554l.139-.11372 14.418-9.27469c4.797-2.5272 9.292-4.6248 13.648-6.5833 12.247-5.5472 22.839-10.3235 31.803-23.8818l1.061.695c-9.179 13.8994-19.91 18.7137-32.346 24.3367-4.331 1.9585-8.838 3.9802-13.522 6.52l-14.305 9.19895c-3.27 3.79076-4.772 7.3793458-4.482 10.66467.278 3.07051 2.159 6.02731 5.568 8.76928l.139.1011v.1769c6.022 16.8183 24.556 27.6093 42.484 38.0339 20.908 12.1557 42.51 24.7284 44.871 47.0686 2.134 20.2805-17.196 35.3805-35.881 50.0505-17.209 13.483-35.011 27.433-36.008 45.249-.53 9.528 8.105 18.625 14.645 24.627 3.788 3.463 7.197 6.318 10.227 8.921 9.709 8.176 16.729 14.089 23.925 28.911z" fill="url(#l)"/><path d="m244.307 258.975c-8.067-15.277-16.11-21.329-27.22-29.681-3.661-2.755-7.803-5.864-12.285-9.604-5.782-4.814-17.827-14.86-17.246-26.346.96-18.953 20.34-33.257 39.139-47.068 19.696-14.506 40.073-29.517 37.977-49.5958-2.335-22.2391-24.518-34.9761-45.982-47.296-18.812-10.7911-38.267-21.9611-44.656-39.58817-3.699-2.93152-5.732-6.14103-6.047-9.527438-.329-3.651762 1.351-7.581512 4.974-11.637592l.152-.139 15.024-8.5545c5.05-2.3882 9.848-4.1825 14.443-5.9136 12.626-4.7384 23.471-8.8451 32.89-22.3149l1.035.7202c-9.646 13.811-20.693 17.9682-33.47 22.7446-4.583 1.7185-9.318 3.5001-14.317 5.8504l-14.886 8.4786c-3.333 3.79079-4.873 7.34147-4.583 10.614158.278 3.070512 2.197 6.027312 5.707 8.769292l.139.10108.063.17691c6.174 17.28586 25.491 28.36746 44.189 39.08266 21.728 12.4843 44.189 25.3855 46.6 48.269 2.185 20.7991-18.496 36.0251-38.482 50.7461-18.521 13.634-37.662 27.798-38.583 46.108-.543 10.854 11.161 20.621 16.792 25.271 4.456 3.703 8.585 6.811 12.234 9.553 10.82 8.138 19.367 14.569 27.586 30.111z" fill="url(#m)"/><path d="m240.091 260.669c-8.321-15.807-17.461-22.188-29.039-30.326-4.103-2.868-8.762-6.128-13.749-10.108-7.045-5.573-18.825-14.885-18.206-26.611 1.035-19.333 21.198-33.675 40.692-47.549 20.44-14.531 41.575-29.568 39.391-49.9498-2.411-22.5424-25.099-35.4562-47.055-47.9404-19.279-10.968-39.202-22.3023-45.704-40.23261-3.699-2.94415-5.744-6.15366-6.047-9.5527-.341-3.6644 1.325-7.58152 4.949-11.68819l.176-.139 15.391-8.1248c5.34-2.2871 10.29-3.8919 15.087-5.4587 12.752-4.1572 23.774-7.7458 33.344-21.481l1.035.7203c-9.81 14.0763-21.021 17.6902-33.987 21.9484-4.773 1.5543-9.697 3.159-14.949 5.3956l-15.239 8.049c-3.32 3.79076-4.861 7.36671-4.558 10.65203.291 3.08315 2.21 6.03994 5.72 8.78192l.151.11373.063.1769c6.313 17.57652 26.059 28.83502 45.199 39.72712 22.221 12.6359 45.2 25.7266 47.674 48.9008 2.273 21.1274-19.178 36.3784-39.909 51.1244-19.254 13.698-39.139 27.799-40.161 46.589-.581 11.056 10.87 20.129 17.675 25.537 4.962 3.93 9.394 7.025 13.686 10.033 11.717 8.188 20.971 14.645 29.443 30.73z" fill="url(#n)"/><path d="m233.676 260.871c-8.32-15.643-17.499-22.201-29.114-30.503-4.255-3.045-8.649-6.179-13.548-10.108-7.461-5.99-18.723-15.05-18.168-26.536.947-19.358 21.135-33.737 40.654-47.65 20.441-14.556 41.576-29.605 39.442-49.9996-2.373-22.6056-25.15-35.3804-47.194-47.8394-19.291-10.8416-39.29-22.2138-45.805-40.09358-3.674-2.94416-5.694-6.1663-6.01-9.57798-.34-3.67704 1.263-7.58152 4.861-11.71344l.177-.139 15.466-8.1375c5.404-2.2871 10.416-3.8918 15.264-5.4461 12.815-4.094 23.875-7.5815 33.382-21.4809l1.048.7202c-9.76 14.1901-21.009 17.804-34.089 21.9738-4.823 1.5416-9.797 3.1337-15.15 5.3829l-15.315 8.049c-3.283 3.79078-4.785 7.37936-4.482 10.67732.29 3.09578 2.197 6.06521 5.681 8.8451l.152.11372v.16427c6.313 17.58909 26.16 28.77189 45.351 39.57549 22.321 12.5601 45.388 25.5497 47.825 48.8124 2.209 21.1143-19.229 36.3913-39.96 51.1623-19.279 13.723-39.214 27.926-40.123 46.677-.531 10.842 10.441 19.649 17.675 25.487 4.861 3.917 9.242 7.05 13.484 10.108 11.754 8.391 21.034 15.024 29.493 30.933z" fill="url(#o)"/><path d="m225.506 260.87c-7.992-15.163-16.615-22.125-27.536-30.97-3.788-3.045-7.575-6.179-11.893-9.97-6.603-5.85-17.676-15.668-17.183-26.535.846-19.106 20.415-33.586 39.341-47.574 19.859-14.683 40.401-29.871 38.293-50.0509-2.349-22.4539-25.011-34.8244-46.929-46.7527-19.229-10.5004-39.139-21.3546-45.641-39.07004-3.674-2.94415-5.707-6.15366-6.023-9.565341-.34-3.664399 1.263-7.581519 4.861-11.700819l.164-.139 15.492-8.4786c5.328-2.3882 10.315-4.1193 15.15-5.7999 12.929-4.4857 24.09-8.3649 33.584-22.2012l1.035.7202c-9.721 14.1648-21.072 18.1072-34.202 22.7446-4.798 1.6679-9.76 3.3864-14.999 5.724l-15.34 8.4155c-3.27 3.79077-4.785 7.37935-4.469 10.664674.315 3.285326 2.196 6.052576 5.681 8.845096l.139.11373.063.1769c6.313 17.3617 26.034 28.1274 45.123 38.552 22.196 12.1178 45.162 24.6652 47.573 47.7762 2.184 20.8866-18.648 36.2906-38.798 51.1876-18.686 13.824-38.015 28.115-38.823 46.614-.455 10.323 10.315 19.889 16.754 25.6 4.255 3.791 8.118 6.887 11.855 9.919 11.022 8.947 19.746 15.997 27.864 31.363z" fill="url(#p)"/><path d="m215.786 260.845c-4.04-8.491-12.752-16.957-21.968-25.928-13.762-13.382-27.991-27.231-27.208-42.255.972-18.65 19.443-33.207 37.308-47.296 18.938-14.897 38.432-30.326 36.172-50.1388-2.525-22.1001-24.923-33.7377-46.588-44.9963-19.052-9.8939-38.748-20.1289-45.325-37.5158-3.662-2.89366-5.682-6.09053-6.01-9.47694-.341-3.664401 1.262-7.58152 4.886-11.73872l.151-.13899 15.53-9.03465c5.264-2.5272 10.239-4.4731 15.037-6.3179 13.067-5.0544 24.354-9.4011 33.811-23.4395l1.035.7076c-9.671 14.3669-21.123 18.7895-34.392 23.9197-4.785 1.8448-9.721 3.7907-14.898 6.3179l-15.39 8.97144c-3.308 3.79076-4.823 7.4172527-4.508 10.71521.291 3.07052 2.197 6.00203 5.669 8.70615l.139.1137v.1642c6.313 17.0332 25.882 27.1798 44.783 36.9978 21.968 11.3723 44.681 23.2121 47.269 45.9819 2.323 20.533-17.486 36.164-36.614 51.276-17.675 13.9-35.881 28.292-36.828 46.361-.758 14.456 13.269 28.09 26.829 41.282 9.305 9.047 18.092 17.601 22.221 26.295z" fill="url(#q)"/><path d="m204.865 260.795c-3.194-8.301-10.101-16.982-17.524-26.168-11.25-14.014-22.878-28.494-21.666-42.886 1.503-17.83 18.358-32.462 34.657-46.614 18.459-16.022 35.894-31.148 33.357-50.5436-2.828-21.6074-24.872-32.2847-46.197-42.6208-18.824-9.1231-38.28-18.5621-44.934-35.5194-3.636-2.8431-5.656-5.9894-5.984-9.35053-.366-3.67703 1.262-7.657321 4.936-11.82715l.139-.11373 15.567-9.78019c5.227-2.7419 10.164-4.89 14.949-6.9623 13.231-5.7493 24.645-10.7026 34.089-25.0948l1.06.6949c-9.62 14.7082-21.211 19.7372-34.619 25.5497-4.76 2.0723-9.684 4.2078-14.822 6.9118l-15.466 9.72967c-3.359 3.8792056-4.899 7.51833-4.571 10.81629.291 3.03264 2.197 5.91354 5.631 8.57974l.152.1011.063.1643c6.401 16.6035 25.705 25.954 44.353 35.0013 21.653 10.5383 43.987 21.3167 46.904 43.5811 2.626 20.0406-15.883 36.1006-33.773 51.6426-16.11 13.975-32.827 28.443-34.228 45.755-1.174 13.899 10.29 28.178 21.388 42.001 7.436 9.262 14.456 18.019 17.675 26.536z" fill="url(#r)"/><path d="m193.072 260.733c-2.235-8.377-7.184-17.248-12.424-26.636-8.08-14.481-16.413-29.454-14.91-43.455 1.818-16.768 16.867-31.476 31.412-45.704 17.006-16.565 33.066-32.31 30.212-51.0234-3.257-20.9629-24.859-30.5535-45.767-39.8156-18.622-8.2259-37.775-16.7046-44.517-33.1312-3.624-2.7672-5.631-5.8504-5.972-9.1736-.379-3.68969 1.262-7.7079 5.05-11.953544l.126-.101089 15.618-10.614067c5.164-2.9947 10.1-5.3956 14.848-7.7079 13.408-6.5454 24.985-12.181 34.353-27.066l1.061.6823c-9.558 15.163-21.287 20.8997-34.859 27.5209-4.734 2.3124-9.646 4.7005-14.734 7.58152l-15.517 10.550936c-3.434 3.942384-5.05 7.581514-4.658 10.930044.303 2.9947 2.197 5.8251 5.618 8.4028l.139.1011.063.1643c6.49 16.0981 25.491 24.5262 43.873 32.6637 21.211 9.4137 43.142 19.1307 46.5 40.7759 3.005 19.3709-14.04 36.0249-30.516 52.1359-14.393 14.063-29.266 28.607-31.046 44.933-1.477 13.609 6.78 28.393 14.759 42.696 5.278 9.465 10.278 18.411 12.55 26.927z" fill="url(#s)"/><path d="m180.749 260.656c-1.136-8.403-3.901-17.311-6.817-26.75-4.646-15.011-9.457-30.528-7.512-44.466 2.146-15.339 15.15-30.022 27.675-44.225 14.834-16.78 30.162-34.117 26.841-52.0598-3.787-20.2173-24.897-28.6328-45.325-36.7577-18.307-7.2656-37.22-14.7839-44.012-30.7936-7.361-17.33637.505-23.3763 15.049-32.57521 5.05-3.20949 9.974-5.87569 14.709-8.45339 13.597-7.4046 25.326-13.7983 34.644-29.2394l1.086.6571c-9.495 15.6937-21.375 22.1886-35.124 29.669-4.722 2.5272-9.596 5.24387-14.646 8.42811-15.529 9.81806-21.198 15.37783-14.557 31.00839 6.641 15.6305 25.251 22.9467 43.305 30.1113 20.757 8.2512 42.22 16.7804 46.109 37.7053 3.434 18.5369-12.108 36.1129-27.133 53.0709-12.423 14.076-25.25 28.62-27.372 43.581-1.906 13.659 2.854 29.062 7.462 43.922 2.942 9.477 5.719 18.436 6.868 26.952z" fill="url(#t)"/><path d="m169.463 260.569h-1.262c0-8.024-.568-16.288-1.174-25.057-1.099-15.947-2.235-32.449.353-47.321 2.348-13.571 13.131-28.039 23.559-42.027 13.459-18.07 27.372-36.745 23.622-53.8037-4.28-19.4845-24.922-26.6617-44.87-33.6114-17.966-6.2421-36.538-12.7117-43.47-28.1401-7.512-16.7046.884-23.59111 15.214-33.45972 5.05-3.44959 9.898-6.39375 14.607-9.23678 13.775-8.3144 25.681-15.479 34.96-31.5139l1.086.6318c-9.444 16.3129-21.463 23.5659-35.351 31.9561-4.697 2.84309-9.558 5.77461-14.545 9.21156-14.203 9.76752-21.892 16.07284-14.784 31.89294 6.704 14.9356 25.024 21.304 42.724 27.4703 20.29 7.0635 41.273 14.3544 45.705 34.5338 3.876 17.6141-10.227 36.5301-23.85 54.8271-10.34 13.899-21.034 28.216-23.332 41.483-2.525 14.721-1.426 31.148-.328 47.031.568 8.769 1.136 17.071 1.136 25.133z" fill="url(#u)"/><path d="m157.001 260.656-1.263-.164c2.412-18.625 5.896-37.528 9.255-55.812 1.085-5.914 2.171-11.815 3.219-17.691 2.172-12.206 10.643-25.688 19.607-39.967 12.07-19.219 24.557-39.083 20.365-55.4207-4.798-18.7263-24.96-24.7284-44.441-30.5282-17.676-5.2439-35.857-10.6647-42.927-25.4866-8.08-16.9067 2.273-24.602 15.378-34.34421 4.974-3.70231 9.822-6.89918 14.519-9.99496 13.951-9.21153 25.996-17.17213 35.25-33.77563l1.099.6065c-9.381 16.8689-21.564 24.9053-35.642 34.20527-4.684 3.09578-9.519 6.31792-14.456 9.95705-14.456 10.74048-22.271 17.56388-14.999 32.77738 6.83 14.3165 24.784 19.6614 42.144 24.8295 19.834 5.9009 40.401 12.0041 45.312 31.4254 4.318 16.8562-8.307 36.9722-20.516 56.4062-8.901 14.178-17.309 27.559-19.443 39.525-1.048 5.876-2.134 11.789-3.22 17.69-3.358 18.247-6.83 37.2-9.241 55.762z" fill="url(#v)"/><path d="m144.945 260.719-1.263-.303c2.942-12.017 7.487-23.503 11.881-34.622 5.05-12.788 10.277-26.005 13.004-39.967 3.459-17.691 10.353-32.159 17.675-47.524 1.086-2.287 2.185-4.599 3.296-6.962.972-2.072 2.108-4.296 3.307-6.659 5.354-10.45 12.007-23.465 8.977-33.8265-5.265-18.0187-24.973-22.9215-44.037-27.6599-17.297-4.2962-35.175-8.7314-42.409-22.9846-8.257-16.2497 2.247-24.602 15.529-35.16561 4.924-3.91712 9.76-7.35407 14.431-10.68994 14.115-10.10865 26.299-18.76425 35.541-35.91115l1.111.5939c-9.381 17.4122-22.272 26.6111-35.92 36.35339-4.659 3.32323-9.482 6.74755-14.38 10.65203-12.84 10.19718-22.978 18.25878-15.151 33.59878 6.97 13.7351 24.569 18.1071 41.589 22.3275 19.405 4.8269 39.479 9.8055 44.946 28.5318 3.169 10.8413-3.611 24.0963-9.065 34.7613-1.199 2.338-2.336 4.561-3.295 6.621-1.111 2.363-2.21 4.675-3.295 6.962-7.576 15.947-14.103 29.733-17.525 47.233-2.765 14.064-8.017 27.344-13.092 40.182-4.406 11.069-8.977 22.517-11.855 34.458z" fill="url(#w)"/><path d="m133.594 260.77-1.187-.404c4.053-12.03 10.529-22.947 16.792-33.511 7.764-13.065 15.781-26.535 18.938-42.014 4.141-20.078 10.037-35.823 17.309-54.334.846-2.161 1.856-4.486 2.929-6.95 4.558-10.462 10.24-23.477 7.033-33.3838-5.644-17.4375-24.973-21.3546-43.672-25.1454-16.981-3.4496-34.555-7.0129-41.929-20.7354-8.421-15.6685 2.437-24.8042 15.012-35.38043l.631-.51806c4.886-4.10666 9.697-7.771061 14.343-11.3091 14.254-10.84161 26.513-20.21741 35.793-37.80651l1.123.5813c-9.355 17.8544-22.372 27.7989-36.159 38.23608-4.633 3.52541-9.431 7.17716-14.279 11.25855l-.631.53071c-12.626 10.63936-22.663 19.04226-14.722 33.80096 7.096 13.2044 24.367 16.7172 41.071 20.1036 19.052 3.8539 38.747 7.8469 44.618 25.992 3.359 10.3615-2.424 23.6295-7.07 34.2815-1.073 2.451-2.071 4.763-2.917 6.899-7.247 18.435-13.117 34.117-17.246 54.106-3.219 15.644-11.3 29.253-19.115 42.406-6.224 10.539-12.651 21.393-16.665 33.296z" fill="url(#x)"/><path d="m123.292 260.808-1.161-.467c4.924-12.358 13.054-23.073 20.907-33.435 9.861-13.002 20.062-26.434 23.496-42.861 3.733-18.316 8.531-36.399 14.368-54.157.758-2.287 1.679-4.764 2.664-7.379 3.889-10.412 8.737-23.3765 5.454-32.8534-5.896-17.0458-24.922-20.2174-43.33-23.1616-16.742-2.7293-34.089-5.5597-41.563-18.8779-8.5602-15.1631 2.639-25.0064 14.494-35.3804l1.262-1.0994c4.836-4.25824 9.634-8.09954 14.267-11.80185 13.762-11.01845 26.766-21.48095 35.995-39.33545l1.124.5813c-9.355 18.1577-22.461 28.6455-36.336 39.739755-4.621 3.702305-9.406 7.581515-14.216 11.763945l-1.263 1.0994c-11.944 10.4751-22.2585 19.5224-14.204 33.8262 7.197 12.7874 24.203 15.5673 40.654 18.2461 18.774 3.0705 38.18 6.2421 44.316 24.0082 3.434 9.9191-1.503 23.1111-5.454 33.7121-.985 2.603-1.907 5.055-2.652 7.342-5.826 17.71-10.611 35.747-14.33 54.018-3.547 16.667-13.787 30.225-23.748 43.328-7.803 10.299-15.883 20.951-20.744 33.144z" fill="url(#y)"/><path d="m114.366 260.82-1.161-.493c5.429-12.901 14.809-23.566 23.875-33.877 11.691-13.305 22.725-25.878 26.273-42.962l1.389-6.722c3.282-16.009 6.388-31.122 10.946-47.321.695-2.464 1.566-5.13 2.525-7.935 3.523-10.791 7.575-23.0229 4.394-32.3229-5.745-16.9447-24.683-19.4466-43.053-21.8727-16.59-2.186-33.76-4.4478-41.3104-17.4375-8.6484-14.8724 2.3864-24.8295 14.0644-35.3804l1.705-1.5416c4.81-4.35933 9.595-8.327 14.216-12.168298 13.888-11.460702 26.905-22.302302 36.147-40.371602l1.123.5813c-9.368 18.2714-22.523 29.22672-36.462 40.7759-4.621 3.79075-9.393 7.78369-14.178 12.1304l-1.705 1.5416c-11.287 10.1845-21.9554 19.813-13.8246 33.8009 7.2466 12.4463 24.1016 14.6703 40.4016 16.8183 18.711 2.5272 38.066 5.0544 44.05 22.7446 3.27 9.6917-.808 22.138-4.394 33.119-.921 2.805-1.792 5.446-2.525 7.884-4.532 16.149-7.575 31.249-10.921 47.233l-1.389 6.735c-3.598 17.374-15.276 30.655-26.513 43.493-9.015 10.247-18.319 20.836-23.673 33.548z" fill="url(#z)"/><path d="m107.105 260.807-1.162-.467c5.467-13.748 15.58-24.451 25.378-34.812 12.082-12.8 23.508-24.88 26.93-42.179.622-3.116 1.229-6.212 1.818-9.287 2.979-15.163 5.795-29.606 9.582-44.718.67-2.666 1.566-5.585 2.526-8.694 3.269-10.677 6.981-22.7443 3.926-31.5894-5.883-17.0205-24.67-19.1812-42.826-21.2788-16.476-1.908-33.5074-3.8666-41.1458-16.8436-8.699-14.8092 2.6639-25.2338 13.6988-35.3299l2.02-1.8448c4.785-4.42255 9.57-8.46603 14.191-12.37051 13.888-11.72609 26.943-22.74459 36.222-40.80119l1.124.5812c-9.393 18.2336-22.574 29.37842-36.538 41.18031-4.608 3.90448-9.381 7.93529-14.141 12.33259l-2.02 1.8575c-11.1353 10.1971-21.6397 19.8257-13.4837 33.6872 7.3227 12.4337 23.9887 14.367 40.1997 16.2244 18.559 2.1481 37.737 4.3594 43.873 22.1381 3.194 9.2494-.568 21.5689-3.901 32.4359-.947 3.083-1.831 5.99-2.525 8.618-3.788 15.087-6.591 29.454-9.57 44.655-.598 3.075-1.204 6.171-1.818 9.287-3.498 17.691-15.58 30.44-27.259 42.811-9.633 10.273-19.733 20.887-25.099 34.407z" fill="url(#A)"/><path d="m101.248 259.456-1.175-.467c5.48-13.9 15.719-24.59 25.617-34.913 12.108-12.636 23.547-24.564 27.019-41.913 1.174-5.901 2.31-11.865 3.396-17.627 2.184-11.499 4.432-23.389 7.184-35.191.631-2.742 1.515-5.737 2.437-8.908 3.03-10.387 6.451-22.1385 3.472-30.8067-5.757-16.7678-24.153-19.3455-41.942-21.8474-16.11-2.2618-32.8261-4.5995-40.3257-17.3996-8.661-14.6955 2.1842-24.6905 13.6737-35.2793l1.767-1.7185c4.634-4.2962 9.255-8.23859 13.724-12.05462 13.648-11.66288 26.514-22.66878 35.844-40.51058l1.111.5939c-9.368 18.0945-22.36 29.22674-36.096 40.92755-4.457 3.79076-9.065 7.74575-13.686 12.02935l-1.806 1.6679c-11.1102 10.2224-21.5893 19.8762-13.4333 33.6999 7.2344 12.2694 23.5973 14.5691 39.4043 16.793 18.168 2.5272 36.942 5.1934 42.926 22.6814 3.106 9.0473-.378 21.0137-3.459 31.5897-.922 3.172-1.793 6.154-2.424 8.845-2.74 11.777-5.05 23.642-7.171 35.128-1.086 5.774-2.21 11.738-3.397 17.69-3.547 17.69-15.643 30.326-27.346 42.532-9.772 10.185-19.923 20.774-25.314 34.458z" fill="url(#B)"/><path d="m96.1854 255.729-1.1616-.468c5.5172-13.899 15.9212-24.387 25.9702-34.546 12.298-12.421 23.913-24.16 27.322-41.509 1.098-5.648 3.03-12.964 5.05-20.71 6.111-23.174 13.711-52.022 8.484-67.6906-5.479-16.4266-23.092-19.7245-40.136-22.9088-15.416-2.881-31.3616-5.863-38.596-18.5115-8.4338-14.7587 2.26-24.7158 13.5724-35.2667l1.3383-1.2636c4.4313-4.14456 8.8373-7.94796 13.0673-11.61235 13.168-11.37225 25.604-22.11275 34.606-39.58815l1.124.5812c-9.116 17.6902-21.64 28.50655-34.897 39.96727-4.242 3.65177-8.623 7.44252-13.0292 11.57443l-1.3509 1.2636c-11.3629 10.6268-21.2739 19.813-13.3325 33.7125 6.944 12.1304 22.5996 15.0619 37.7376 17.8924 17.385 3.2474 35.351 6.6085 41.096 23.7427 5.34 16.0346-2.311 45.0846-8.459 68.4236-2.046 7.72-3.965 15.011-5.051 20.621-3.472 17.691-15.769 30.15-27.662 42.166-9.949 10.084-20.264 20.496-25.6926 34.13z" fill="url(#C)"/><path d="m91.7791 250.067-1.1615-.492c5.7951-13.597 16.1854-24.008 26.2234-34.117 13.168-13.179 25.604-25.638 28.331-44.567.833-5.737 2.525-13.23 4.293-21.152 4.406-19.649 9.898-44.099 6.073-58.1252-4.268-15.6306-21.804-20.508-38.76-25.2717-12.727-3.5507-25.8826-7.2151-33.1801-15.4537-12.2467-13.8236-4.2296-23.8565 8.4211-36.5429 5.1765-5.1807 10.353-9.75489 15.365-14.190074 12.146-10.715226 23.622-20.849126 32.119-37.326326l1.124.5812c-8.611 16.692-20.201 26.88916-32.41 37.69282-4.987 4.42255-10.0999 8.98408-15.3142 14.13948-12.5371 12.6359-19.8977 21.7843-8.358 34.8118 7.045 7.9606 20.0242 11.5745 32.5732 15.0746 17.297 4.8143 35.188 9.7928 39.632 26.1183 3.914 14.3287-1.616 38.9437-6.061 58.7317-1.767 7.897-3.446 15.365-4.267 21.064-2.79 19.333-15.946 32.524-28.685 45.274-9.961 10.058-20.2638 20.382-25.9579 33.75z" fill="url(#D)"/><path d="m87.8641 242.928-1.1615-.505c5.7951-13.091 16.4134-23.137 26.7154-32.854 13.737-12.977 26.703-25.271 28.912-43.985.493-4.284 1.263-9.489 2.147-14.999 2.903-18.954 6.54-42.646 2.916-56.7727-3.939-15.4031-19.885-21.304-35.351-27.0154-11.679-4.3341-23.7486-8.8451-30.5663-17.387-11.3629-14.2911-3.5225-24.3493 7.8782-36.0122 4.8356-4.95322 9.6459-9.26205 14.3051-13.4445219 11.249-10.1086781 21.867-19.6487781 29.606-35.4814781l1.137.556c-7.816 16.0349-18.522 25.61284-29.86 35.847891-4.6458 4.169829-9.4309 8.478659-14.2411 13.394009-10.9589 11.208-18.4963 20.8618-7.7899 34.3443 6.5904 8.3144 18.496 12.7117 30.011 16.9826 15.731 5.8251 31.993 11.8398 36.096 27.8873 3.674 14.3792 0 38.1602-2.904 57.2782-.833 5.497-1.629 10.703-2.134 14.961-2.26 19.207-15.958 32.146-29.291 44.782-10.189 9.615-20.756 19.572-26.4249 32.423z" fill="url(#E)"/><path d="m84.2801 234.766-1.1236-.544c6.1738-12.749 16.8545-22.289 27.1955-31.513 13.017-11.613 25.251-22.593 29.038-39.298 3.295-14.721 3.119-51.807-1.414-66.793-4.532-14.9862-18.206-21.6579-31.45-28.1148-11.8173-5.7746-23.9882-11.7387-29.9853-23.528s1.4267-22.416 8.4591-30.503c5.3088-5.98763 10.9978-11.6265 17.0312-16.88148 9.621-8.68082 17.929-16.18652 25.1-31.36222l1.136.5307c-7.272 15.4158-15.668 22.9973-25.39 31.77921-5.9955 5.21253-11.6468 10.80937-16.9177 16.75519-6.7672 7.7963-13.888 18.1577-8.2823 29.0624 5.7698 11.3723 17.7893 17.2859 29.417 22.972 13.484 6.5833 27.435 13.3941 32.107 28.8856 4.57 15.1634 4.747 52.5774 1.439 67.4374-3.788 17.109-16.261 28.203-29.442 39.967-10.252 9.187-20.845 18.638-26.9179 31.148z" fill="url(#F)"/><path d="m80.9078 226.034-1.1236-.594c8.3328-15.593 15.9207-23.149 29.7708-34.193l4.015-3.171c13.332-10.488 22.132-17.412 23.925-34.597 1.452-13.9-3.245-40.271-7.032-54.5745-4.003-15.0493-15.567-22.6056-27.776-30.6167-9.0906-5.9515-18.4839-12.0925-24.3295-21.5694-9.7595-15.7948-.1894-26.4469 9.9488-37.71805l.7576-.8466c3.7876-4.22038 7.1965-7.581513 10.4917-10.90474 8.4464-8.42811 15.1504-15.08721 21.4634-29.06251l1.149.5181c-6.414 14.2532-13.156 20.9882-21.703 29.50472-3.283 3.27269-6.6792 6.65911-10.429 10.84158l-.7701.85923c-10.2393 11.37227-19.0771 21.21567-9.81 36.21437 5.6941 9.2242 14.9738 15.302 23.9881 21.1651 11.906 7.7837 24.216 15.8453 28.332 31.3622 3.787 14.3922 8.547 40.9782 7.083 55.0162-1.856 17.691-10.833 24.779-24.418 35.457l-4.002 3.171c-13.8125 10.867-21.312 18.347-29.5312 33.738z" fill="url(#G)"/><path d="m77.5635 217.165-1.0984-.62c8.6358-15.365 16.0722-22.365 30.5409-33.207 1.629-1.263 3.27-2.413 4.873-3.576 12.323-8.984 22.966-16.73 23.37-32.6.227-8.668-4.204-20.218-8.105-30.49-2.096-5.484-4.066-10.653-5.253-15.075-3.888-14.4681-13.496-23.1363-23.6849-32.2973-7.8278-7.0508-15.9207-14.3417-21.0213-24.4757-9.2797-18.4104 5.2521-34.458 19.2916-49.97482 7.7146-8.51658 14.9986-16.56558 18.3066-24.79158l1.174.4675c-3.396 8.4408-10.744 16.5657-18.5463 25.17068-13.7617 15.16302-27.9906 30.93262-19.1023 48.55962 4.9871 9.9191 13.0042 17.1342 20.7436 24.0966 9.873 8.8451 20.074 18.0819 23.988 32.916 1.175 4.36 3.131 9.503 5.215 14.949 3.951 10.336 8.421 22.062 8.194 30.983-.417 16.426-11.3 24.412-23.888 33.586-1.603 1.162-3.232 2.337-4.861 3.563-14.2537 10.728-21.6017 17.652-30.1365 32.816z" fill="url(#H)"/><path d="m74.1161 208.635-1.0731-.669c10.1761-16.427 19.0391-23.25 33.836-33.865 1.263-.922 2.689-1.895 4.192-2.918 9.62-6.571 22.789-15.555 22.915-27.496.076-7.468-5.694-15.921-11.275-24.097-3.939-5.774-7.663-11.22-9.317-16.211-3.788-11.4486-11.363-21.3803-18.6353-30.971-7.853-10.3235-15.9712-21.0008-19.2285-33.4597-4.5957-17.6902 5.6688-29.6943 16.5519-42.45652 6.439-7.58148 13.1049-15.40308 16.5269-24.57678l1.187.4423c-3.498 9.3758-10.2396 17.2985-16.7543 24.95582-10.6559 12.5095-20.7184 24.32408-16.2868 41.31928 3.1942 12.2062 10.8705 22.3149 19.0139 33.0049 7.3602 9.679 14.9612 19.6992 18.8242 31.3367 1.604 4.827 5.265 10.21 9.154 15.896 5.694 8.34 11.577 16.97 11.502 24.83-.139 12.635-13.623 21.809-23.459 28.519-1.502 1.023-2.916 1.996-4.179 2.906-14.6577 10.513-23.445 17.261-33.4949 33.51z" fill="url(#I)"/><path d="m70.4419 200.787-1.1489-.518c3.5869-8.061 8.774-15.308 15.2461-21.302 6.4721-5.993 14.0941-10.606 22.4029-13.56 15.289-5.408 23.357-15.845 23.988-31.046-1.565-6.179-6.716-9.768-12.171-13.584-5.454-3.816-10.87-7.581-13.648-14.19v-.202c-.802-13.1052-5.7403-25.6172-14.1023-35.7342-8.9-11.1841-15.3909-24.0907-19.0644-37.9076-1.5277-14.8471 7.2849-25.70136 15.8071-36.20176 5.7824-7.08874 11.729-14.40484 14.6206-22.94674l1.262.417c-3.03 8.7567-9.027 16.14864-14.8347 23.30053-8.7495 10.77839-17.0191 20.95027-15.5546 35.17827 3.633 13.6183 10.0375 26.3388 18.8119 37.3642 8.4724 10.303 13.4744 23.0222 14.2924 36.3403 2.651 6.217 7.992 9.945 13.155 13.546 5.682 3.968 11.048 7.708 12.702 14.405v.088.089c-.644 15.82-9.002 26.674-24.847 32.272-8.1457 2.902-15.6177 7.429-21.9634 13.306s-11.433 12.983-14.9537 20.886z" fill="url(#J)"/><path d="m66.3257 194.267-1.1362-.543c7.8277-16.515 20.7183-27.951 38.3055-34.003 15.479-4.953 23.66-15.163 24.329-30.326-2.197-6.192-7.777-7.759-13.686-9.427-6.186-1.743-13.193-3.727-16.9683-11.372l-.0757-.253c-.4031-13.2633-4.3248-26.1809-11.3629-37.4269-7.5033-12.3048-12.7895-25.8326-15.6177-39.9673-1.0353-14.1774 5.9466-23.60375 13.3451-33.58608 4.987-6.73491 10.1003-13.70992 12.7517-22.32752l1.2625.3664c-2.664 8.8451-7.8909 15.88327-12.9537 22.74455-7.247 9.78015-14.1026 19.02955-13.1052 32.65105 2.7958 13.9463 8.0042 27.2967 15.3904 39.4492 7.1409 11.3872 11.1279 24.4701 11.5523 37.9076 3.5475 7.089 9.9365 8.845 16.1225 10.627 6.187 1.781 12.196 3.449 14.583 10.348v.114.127c-.657 15.782-9.129 26.396-25.188 31.589-17.2213 5.888-29.8594 17.109-37.5483 33.308z" fill="url(#K)"/><path d="m61.6286 189.428-1.111-.581c9.0524-17.286 23.2308-29.138 42.1184-35.204 16.653-5.218 23.18-15.163 19.961-30.326-6.598-3.493-14.261-4.394-21.489-2.527h-.101-.101c-4.2797-.303-7.3476-1.592-9.1278-3.854s-2.1969-5.117-1.5782-8.845c-.9928-9.8478-3.3204-19.5145-6.9187-28.7339-6.3728-14.3101-11.5379-29.129-15.441-44.3013-2.2221-16.4266 4.1538-26.26997 10.9084-36.71983 4.2422-6.55801 8.6358-13.35607 11.224-22.20117l1.2626.3538c-2.6514 9.022-7.0829 15.89588-11.3629 22.542346-6.6284 10.247684-12.878 19.926754-10.7317 35.784754 3.8845 15.0863 9.0242 29.8206 15.3652 44.0486 3.6585 9.3646 6.0244 19.1846 7.0324 29.1887v.101c-.5808 3.45-.1389 6.129 1.2625 7.973 1.4015 1.845 4.2674 3.084 8.1312 3.374 7.607-1.907 15.652-.879 22.536 2.881l.253.139v.278c3.484 15.846-3.51 26.624-20.757 32.045-18.5086 5.964-32.4345 17.601-41.3354 34.584z" fill="url(#L)"/><path d="m56.2253 186.712-1.111-.581c9.1029-17.337 23.3823-29.063 42.4593-34.774 16.7664-5.055 23.3824-14.961 20.2004-30.213-7.41-2.967-15.662-3.048-23.1295-.227h-.1894c-4.5704.152-7.8277-.859-9.7089-3.02s-2.3105-5.054-1.654-8.946c-1.1133-9.9313-3.1981-19.729-6.2243-29.2523-5.3968-14.898-9.8374-30.1257-13.2946-45.5902-1.8686-15.997 3.876-25.61287 9.9488-35.78474 3.7877-6.40638 7.7647-13.01496 10.2014-21.68316l1.2626.3412c-2.5251 8.8451-6.4895 15.51683-10.3403 21.98639-5.9718 9.98232-11.6028 19.42131-9.7847 34.93811 3.4496 15.3935 7.869 30.5531 13.2315 45.3881 3.0651 9.6386 5.1794 19.5545 6.3127 29.6056v.177c-.6187 3.576-.1641 6.318 1.3383 7.986s4.5073 2.717 8.6232 2.527c7.8412-2.935 16.5022-2.791 24.2412.404l.315.127.076.328c3.459 15.972-3.598 26.738-21.0087 32.007-18.7993 5.749-32.8262 17.235-41.765 34.256z" fill="url(#M)"/><path d="m50.2028 186.421-1.111-.582c9.0524-17.26 23.2561-28.898 42.2069-34.584 16.5893-5.054 23.2563-15.011 20.3393-30.25-7.566-2.913-15.9424-2.913-23.5083 0h-.1894c-4.583.189-7.8657-.796-9.7847-2.944-1.9191-2.149-2.3989-5.055-1.7929-8.959-1.3345-9.9066-3.3809-19.7037-6.1233-29.3155-4.7219-14.9608-8.8378-30.326-12.1204-45.6786-1.7802-15.9086 3.7876-25.86562 9.6458-36.41656 3.5099-6.31793 7.1334-12.76224 9.5449-20.97554l1.2625.3665c-2.5251 8.3396-6.1107 14.885-9.6458 21.2282-5.7825 10.3614-11.2367 20.1416-9.5196 35.5952 3.3079 15.2389 7.3732 30.5788 12.0952 45.4891 2.7653 9.7075 4.8286 19.6017 6.1738 29.6062v.177c-.5681 3.588-.0757 6.317 1.4646 8.011 1.5403 1.693 4.5577 2.691 8.6989 2.527 7.9479-3.023 16.7417-2.942 24.6327.227l.315.127.076.328c3.182 15.972-3.927 26.75-21.1477 32.045-18.673 5.61-32.6242 17.045-41.5125 33.978z" fill="url(#N)"/><path d="m45.2037 187.507-1.1236-.581c4.0537-8.128 9.7308-15.337 16.68-21.182 6.9493-5.844 15.0229-10.199 23.7214-12.796 15.8705-5.244 22.2715-15.011 19.5695-29.871-7.162-3.473-15.3246-4.284-23.0289-2.287h-.0883-.0253c-4.4315-.152-7.5753-1.377-9.5322-3.626-1.957-2.25-2.4241-5.055-1.9191-8.959-1.5277-9.654-3.4215-19.3963-5.6057-28.9363-3.8886-14.6324-7.3227-29.6059-10.2013-44.4783-1.553-15.5547 3.4341-26.53528 8.6989-38.29926 3.1418-6.56964 5.7633-13.37604 7.8404-20.35634l1.2625.3411c-2.0839 7.0442-4.7268 13.91046-7.9035 20.53331-5.2017 11.53654-10.1003 22.44129-8.5979 37.59169 2.866 14.7966 6.3127 29.7448 10.1761 44.3645 2.2094 9.6159 4.1033 19.4213 5.6436 29.1386v.177c-.4672 3.512.0757 6.229 1.616 8.061s4.5199 3.033 8.5222 3.185c8.0411-2.052 16.5503-1.156 23.9885 2.527l.29.139v.316c2.955 15.542-3.888 26.181-20.352 31.589-8.5396 2.556-16.4637 6.84-23.2809 12.587-6.8173 5.747-12.3824 12.834-16.3504 20.822z" fill="url(#O)"/><path d="m41.3531 189.542-1.1363-.543c3.5519-7.789 8.696-14.746 15.1004-20.422 6.4043-5.676 13.9267-9.945 22.0815-12.532 14.8854-5.51 20.7689-15.163 17.9913-29.518-6.5594-4.354-14.4073-6.338-22.246-5.623h-.1642c-8.1939-1.415-11.8932-6.065-10.9967-13.785-7.6511-15.6814-9.8858-45.9317-11.3629-65.9721-.1263-1.8322-.2652-3.576-.3914-5.206-1.1616-15.163 2.6513-27.7989 6.6788-41.19292 1.8812-6.25478 3.7877-12.71168 5.2648-19.52238l1.2626.2527c-1.4519 6.8613-3.3963 13.3561-5.2901 19.63613-4.0022 13.29292-7.7772 25.84037-6.6283 40.72537.1262 1.63.2525 3.3738.3914 5.2186 1.4898 20.0152 3.7245 50.2528 11.3629 65.7066l.0757.164v.19c-.8838 7.126 2.3483 11.233 9.8605 12.636 8.183-.728 16.367 1.383 23.1803 5.976l.2273.139v.253c3.0048 14.999-3.3079 25.499-18.7488 31.236-7.9955 2.513-15.3758 6.675-21.6648 12.218-6.2891 5.544-11.3472 12.345-14.848 19.965z" fill="url(#P)"/><path d="m38.4232 192.322-1.1742-.48c2.8539-7.351 7.2802-13.987 12.9683-19.444s12.5004-9.603 19.9589-12.146c13.6228-5.913 18.7993-15.479 15.7692-29.214-5.8929-5.446-13.3405-8.91-21.2992-9.907h-.1262c-7.6637-2.754-11.123-8.011-10.2898-15.617-5.5552-14.0642-5.8582-36.0253-6.1107-53.6902-.0757-5.1807-.1388-10.1087-.3282-14.4049-.707-15.9717 1.5024-31.84236 3.6361-47.1823.7449-5.345 1.5151-10.8668 2.159-16.3382l1.2625.1517c-.6439 5.4713-1.4141 11.0058-2.159 16.42659-2.0832 15.20094-4.3431 31.02101-3.6361 46.91691.1894 4.3341.2525 9.2368.3283 14.4428.2525 17.6144.5555 39.5376 6.0728 53.3866v.152.151c-.8206 7.114 2.2473 11.827 9.3933 14.418 8.2565 1.043 15.9743 4.664 22.0567 10.348l.1515.139v.19c3.2321 14.316-2.3231 24.703-16.4888 30.857-7.279 2.488-13.9271 6.538-19.4793 11.865-5.5523 5.328-9.8747 11.805-12.6651 18.979z" fill="url(#Q)"/><path d="m36.1766 195.632-1.2625-.354c1.7096-6.475 4.9433-12.446 9.4307-17.414 4.4875-4.969 10.0982-8.789 16.363-11.143 11.5144-5.446 17.0318-14.607 16.4131-27.18-1.717-8.099-8.0045-12.042-14.6581-16.224-6.9314-4.347-14.1026-8.845-16.6656-18.486-3.7119-13.8999-2.361-31.3626-1.0479-48.2441.6312-8.0238 1.2625-15.6053 1.2625-22.4287 0-9.6538-.3535-19.434-.6944-28.88557-.3914-10.79103-.7954-21.94853-.6691-32.96693h1.2625c-.1262 10.9932.2778 22.13799.6692 32.8532.3408 9.4769.6944 19.257.6944 28.9361 0 6.8739-.6061 14.4807-1.2626 22.5298-1.2625 16.7677-2.6513 34.1168.9974 47.8142 2.4367 9.148 9.406 13.52 16.1227 17.69 6.7168 4.17 13.4083 8.416 15.2389 17.134.7071 13.243-5.0501 22.745-17.1074 28.507-6.1054 2.294-11.5709 6.022-15.9365 10.871-4.3657 4.848-7.5038 10.675-9.1503 16.991z" fill="url(#R)"/><path d="m34.3573 199.31-1.2626-.228c2.2726-12.497 9.1913-21.556 20.5795-26.901 9.8731-5.863 14.2289-14.721 12.8653-26.283-1.4898-9.098-7.5752-14.645-13.9763-20.508-6.6536-6.091-13.5345-12.383-15.1506-23.023-1.9695-12.6354.8207-26.1053 3.5352-39.1707 1.8559-8.9715 3.7876-18.2462 4.0527-26.9523.404-13.255-2.3609-26.2194-5.0502-38.75422-2.075-8.89068-3.6348-17.89398-4.6714-26.96488l1.2626-.1138c1.0263 9.0206 2.5776 17.9736 4.6461 26.81333 2.6892 12.63586 5.4668 25.65077 5.0502 39.05747-.2778 8.8451-2.2094 18.1451-4.078 27.1797-2.6892 12.9391-5.4668 26.3079-3.5225 38.6914 1.5908 10.209 8.3075 16.35 14.8096 22.289 6.3128 5.762 12.8022 11.714 14.3678 21.266 1.4267 12.144-3.1311 21.406-13.5219 27.572-5.247 2.303-9.8265 5.898-13.3121 10.449-3.4857 4.551-5.7641 9.911-6.6234 15.581z" fill="url(#S)"/><path d="m32.6913 203.302-1.1994-.391c2.3736-7.418 7.2975-13.748 12.0699-19.864 7.3102-9.401 14.2163-18.284 12.2846-30.541-1.5403-9.818-7.4364-17.21-13.1431-24.362-6.439-8.074-13.0926-16.426-13.7743-28.3421-.6818-11.9156 3.5856-23.0478 7.7015-33.8262 3.3962-8.8451 6.9061-18.0566 7.5752-27.5462 1.0732-14.6576-4.4441-29.06244-9.7847-42.8987-3.3584-8.7567-6.843-17.8166-8.6231-26.8386l1.2625-.2401c1.7549 8.8451 5.2143 17.9177 8.56 26.6238 5.3911 14.01317 10.9589 28.5065 9.8605 43.4547-.707 9.6665-4.2421 18.9538-7.6763 27.9-4.0654 10.652-8.2822 21.6831-7.5752 33.2955.707 11.6119 7.1965 19.7119 13.5092 27.6219 5.8077 7.278 11.8174 14.809 13.4082 24.956 2.0201 12.813-5.3784 22.315-12.537 31.514-4.7598 6.04-9.608 12.282-11.9185 19.484z" fill="url(#T)"/><path d="m31.0373 207.081-1.2626-.215c1.3257-7.379 4.6588-13.583 7.8657-19.573 4.078-7.581 7.9288-14.758 7.8656-24.008-.0757-11.916-6.1486-22.075-12.0194-31.905-6.1738-10.324-12.5623-21.001-12.1583-33.8393.3535-11.5239 5.6436-20.9882 10.7443-30.1492 4.0654-7.3161 8.2822-14.8597 9.9741-23.4269 3.3457-16.6793-5.328-33.4976-13.6734-49.7347-4.6462-9.0346-9.4565-18.3725-11.9563-27.3819l1.2625-.3412c2.4494 8.8451 7.0198 17.7534 11.8553 27.15449 8.4591 16.42661 17.2211 33.40921 13.8123 50.54341-1.7423 8.7567-6.0097 16.4267-10.1004 23.7807-5.2648 9.4517-10.2266 18.3726-10.5801 29.5806-.3914 12.459 5.8961 22.985 11.9815 33.156 5.9593 9.97 12.1205 20.281 12.1962 32.538.0632 9.565-4.0401 17.21-8.0171 24.614-3.2322 5.927-6.5021 12.03-7.7899 19.207z" fill="url(#U)"/><path d="m27.8811 210.656c-.5555-7.682 1.5529-14.481 3.5856-21.051 1.9317-6.242 3.9265-12.636 3.6488-19.902-.4672-12.054-5.8582-23.363-11.0725-34.306-6.0224-12.636-12.2467-25.689-10.7948-39.8788 1.1994-11.7008 7.8278-19.9268 14.2415-27.8874 5.2522-6.5201 10.6938-13.255 13.1179-21.8979 4.7093-16.7678-7.1082-35.3804-18.5216-53.47494-6.0981-9.64116-11.8679-18.73896-14.80963-27.15446l1.18679-.417c2.90384 8.2765 8.62314 17.3238 14.68344 26.90176 11.5775 18.28409 23.5338 37.18734 18.673 54.48584-2.5251 8.8451-8.0172 15.7316-13.3451 22.3528-6.5905 8.1754-12.8148 15.8959-13.9764 27.2177-1.414 13.8994 4.4694 26.1684 10.6938 39.1714 5.2648 11.056 10.719 22.479 11.1861 34.799.2778 7.43-1.7423 13.988-3.7119 20.318-2.0832 6.773-4.0653 13.154-3.5224 20.597z" fill="url(#V)"/><path d="m25.3563 213.879c-.5682-6.809-.6778-13.647-.3282-20.47.4343-7.658.2147-15.339-.6565-22.96-1.3762-9.603-5.429-19.851-9.7216-30.705-6.31276-15.858-12.76437-32.247-10.47916-46.9421 1.85594-11.9914 10.20136-18.8654 18.26906-25.5118 5.8329-4.8016 11.8679-9.7675 15.3904-16.6414 8.5348-16.6288-8.0298-39.7904-22.5743-60.15937-7.1839-9.95703-13.888-19.32023-16.91811-26.92703l1.174158-.4549c2.954352 7.4552 9.633212 16.7804 16.703452 26.6491 14.8223 20.6975 31.6267 44.2255 22.7258 61.4734-3.6487 7.1014-9.7721 12.1431-15.706 17.0331-8.2571 6.7981-16.04698 13.2172-17.83979 24.7284-2.22208 14.3666 4.20427 30.5916 10.41599 46.2856 4.3179 10.93 8.4085 21.24 9.7973 30.995.8808 7.692 1.1047 15.445.6692 23.175-.35 6.764-.2403 13.544.3283 20.293z" fill="url(#W)"/><path d="m22.1106 216.432c-.745-8.062-2.3231-16.237-3.8508-24.135-1.111-5.749-2.2726-11.688-3.0932-17.564-1.2626-9.312-5.0502-19.926-8.83786-31.172-6.3127201-18.234-12.90319-37.087-9.83521-52.4392 2.525088-12.4842 11.89316-18.3978 20.98347-24.1218 6.5652-4.1319 13.3451-8.3902 17.5115-15.1631 8.2318-13.2423-.3914-24.5767-8.7242-35.5446-1.1741-1.5542-2.3483-3.0832-3.4467-4.6121-3.2952-4.53627-6.4642-8.64293-9.5322-12.635861-8.91359-11.523939-16.61512-21.480939-23.2561-36.782939l1.16155-.4928c6.57785 15.163 14.22886 25.0442 23.09195 36.50495 3.068 3.9803 6.2496 8.09959 9.5575 12.63585 1.0984 1.5037 2.2599 3.0326 3.4341 4.5742 8.1939 10.7784 17.4736 22.9972 8.8378 36.9851-4.3179 6.9624-11.224 11.3091-17.9029 15.5042-9.27971 5.8378-18.041761 11.3723-20.42797 23.3132-2.99223 15.0119 3.49725 33.6999 9.78472 51.8069 3.92655 11.309 7.57525 21.974 8.95145 31.413.8206 5.838 1.9696 11.776 3.0806 17.501 1.6957 8.016 2.9851 16.113 3.8634 24.26z" fill="url(#X)"/><path d="m17.8695 218.149c-.3914-7.493-2.8913-14.278-5.5426-21.481-2.2095-6.014-4.50729-12.244-5.46682-18.953-1.26255-9.022-4.65879-19.7-8.24442-31.009-6.31272-20.091-12.92846-40.852-9.43126-56.7223 2.87864-13.0149 13.01688-18.1324 22.8142-23.0857 7.1334-3.6012 14.5067-7.3161 19.115-14.0637 8.9388-13.1413-.7702-25.1327-9.3429-35.6963-1.3888-1.7058-2.6892-3.3232-3.9139-4.928-3.6866-4.82687-7.2344-9.14833-10.65585-13.3308-9.55746-11.6376-17.80185-21.6831-24.92265-37.4021l1.1489-.5181c7.04504 15.5547 15.25158 25.5497 24.74592 37.12414 3.43408 4.18247 6.99448 8.51657 10.68118 13.35606 1.2625 1.5922 2.525 3.1969 3.8886 4.9028 8.8378 10.9173 18.9382 23.2878 9.4059 37.1999-4.785 7.0256-12.2971 10.8163-19.5694 14.4807-9.98672 5.0544-19.41794 9.7928-22.15766 22.2391-3.43414 15.5293 3.09324 36.1263 9.393336 56.0523 3.598254 11.373 6.994484 22.101 8.294904 31.224.93429 6.583 3.20682 12.749 5.40372 18.713 2.5251 6.95 5.2143 14.14 5.6183 21.822z" fill="url(#Y)"/><path d="m13.6645 218.832h-1.2625c0-5.143-1.6792-8.15-3.4973-11.373-.95776-1.624-1.80149-3.313-2.52509-5.054-3.29524-8.314-5.11331-12.889-6.691491-23.237-1.338299-8.744-4.456789-19.194-7.764649-30.263-6.03497-20.218-12.86537-42.962-9.39337-59.3887 2.9039-13.6214 13.43351-18.2083 23.62224-22.6434 7.46166-3.2475 15.15056-6.596 19.99876-13.4825 9.2039-13.116-.9217-25.2717-9.8605-36.0501-1.4014-1.6932-2.7397-3.2853-3.9644-4.8648-3.95178-5.05436-7.76466-9.54009-11.438668-13.89946-9.809972-11.52394-18.269032-21.48094-25.440232-37.49054l1.1489-.5181c7.0955 15.8453 15.50403 25.7392 25.25088 37.18731 3.68663 4.34673 7.49951 8.8451 11.47652 13.89949 1.2625 1.5542 2.5251 3.1463 3.9391 4.8268 8.7621 10.551 19.6705 23.6797 9.9236 37.5791-5.0501 7.1772-12.9032 10.6141-20.52893 13.8994-10.35287 4.511-20.12497 8.7567-22.88997 21.7463-3.4088 16.0352 3.3837 38.7162 9.36812 58.7312 3.32049 11.107 6.451602 21.595 7.802525 30.427 1.565555 10.21 3.244725 14.469 6.615725 22.96.72137 1.706 1.56528 3.357 2.52513 4.94 1.8306 3.425 3.6235 6.584 3.5856 12.068z" fill="url(#Z)"/></g></svg>