<svg width="286" height="221" viewBox="0 0 286 221" fill="none" xmlns="http://www.w3.org/2000/svg">
<mask id="mask0_28_768" style="mask-type:alpha" maskUnits="userSpaceOnUse" x="0" y="1" width="286" height="219">
<mask id="mask1_28_768" style="mask-type:luminance" maskUnits="userSpaceOnUse" x="0" y="0" width="286" height="221">
<path d="M285.291 0H0V221H285.291V0Z" fill="white"/>
</mask>
<g mask="url(#mask1_28_768)">
<path d="M241.511 19.6801C223.327 11.3367 203.828 5.18972 183.441 1.66907C183.07 1.60112 182.699 1.77092 182.507 2.11054C180 6.57077 177.222 12.3895 175.277 16.963C153.349 13.6801 131.533 13.6801 110.055 16.963C108.109 12.2878 105.231 6.57077 102.712 2.11054C102.52 1.78225 102.149 1.61245 101.778 1.66907C81.4019 5.17847 61.9029 11.3255 43.7082 19.6801C43.5507 19.748 43.4157 19.8613 43.326 20.0084C6.34049 75.264 -3.7914 129.161 1.17897 182.391C1.20146 182.651 1.34764 182.9 1.55006 183.059C25.9521 200.979 49.5896 211.858 72.7882 219.069C73.1594 219.182 73.5528 219.047 73.7891 218.741C79.2767 211.247 84.1684 203.345 88.3626 195.036C88.6102 194.549 88.3739 193.972 87.868 193.779C80.1089 190.836 72.7207 187.247 65.6137 183.172C65.0516 182.844 65.0066 182.04 65.5237 181.655C67.0193 180.534 68.5152 179.368 69.9433 178.191C70.2017 177.976 70.5617 177.93 70.8655 178.066C117.555 199.383 168.102 199.383 214.241 178.066C214.545 177.919 214.905 177.964 215.174 178.179C216.603 179.357 218.098 180.534 219.605 181.655C220.122 182.04 220.089 182.844 219.527 183.172C212.42 187.326 205.031 190.836 197.261 193.768C196.755 193.96 196.53 194.549 196.778 195.036C201.062 203.333 205.954 211.235 211.34 218.73C211.565 219.047 211.97 219.182 212.341 219.069C235.652 211.858 259.289 200.979 283.691 183.059C283.905 182.9 284.04 182.662 284.063 182.402C290.011 120.863 274.099 67.4076 241.882 20.0196C241.803 19.8613 241.668 19.748 241.511 19.6801ZM95.335 149.98C81.2782 149.98 69.6958 137.074 69.6958 121.226C69.6958 105.377 81.0536 92.4715 95.335 92.4715C109.729 92.4715 121.199 105.49 120.974 121.226C120.974 137.074 109.616 149.98 95.335 149.98ZM190.132 149.98C176.075 149.98 164.493 137.074 164.493 121.226C164.493 105.377 175.85 92.4715 190.132 92.4715C204.525 92.4715 215.995 105.49 215.771 121.226C215.771 137.074 204.525 149.98 190.132 149.98Z" fill="#5865F2"/>
</g>
</mask>
<g mask="url(#mask0_28_768)">
<path d="M253.94 210L253.044 209.115C263.851 198.059 268.737 197.819 283.244 197.099L285.58 196.985C287.234 196.897 288.799 196.833 290.276 196.77C306.462 196.063 312.522 195.797 315.856 179.889C319.706 161.605 319.037 128.815 316.02 110.834C313.76 97.2628 304.531 89.7824 294.758 81.8597C287.688 76.1356 280.378 70.2094 275.972 61.7686C266.288 43.2192 278.004 13.2343 288.345 -13.2378C293.041 -25.2419 297.473 -36.5889 299.203 -45.3076L300.465 -45.0675C298.71 -36.2224 294.266 -24.8502 289.544 -12.7703C279.305 13.4365 267.689 43.1434 277.121 61.1874C281.401 69.3881 288.61 75.2385 295.579 80.8867C305.099 88.5946 314.947 96.5804 317.295 110.619C320.325 128.713 320.994 161.718 317.118 180.116C313.57 196.985 306.778 197.288 290.352 198.008L285.668 198.223L283.332 198.337C269.167 199.057 264.407 199.297 253.94 210Z" fill="url(#paint0_linear_28_768)"/>
<path d="M248.978 211.111L248.094 210.214C259.078 199.272 263.724 198.842 279.102 197.578L282.65 197.3C299.063 196.037 304.542 195.595 307.9 180.052C312.143 160.808 313.165 128.245 310.097 110.454C307.724 96.5547 298.217 89.0616 288.154 81.0884C280.768 75.2506 273.143 69.1981 268.61 60.454C259.04 42.0057 270.933 13.019 281.412 -12.5559C286.462 -24.838 291.197 -36.4251 292.952 -45.4092L294.215 -45.1691C292.447 -36.0334 287.662 -24.3831 282.612 -12.0505C272.221 13.2212 260.454 41.9678 269.746 59.8981C274.165 68.402 281.69 74.3661 288.962 80.1154C298.772 87.8865 308.911 95.9229 311.372 110.252C314.453 128.22 313.418 160.972 309.163 180.33C305.54 196.757 299.315 197.275 282.65 198.564L279.241 198.842C263.787 200.156 259.633 200.497 248.978 211.111Z" fill="url(#paint1_linear_28_768)"/>
<path d="M246.037 213.79L245.103 212.931C254.875 202.178 258.927 201.217 272.879 199.233H273.295C291.122 196.706 294.847 196.163 298.47 180.659C303.432 159.544 308.103 128.308 304.998 109.784C302.586 95.3666 292.372 87.545 281.502 79.2559C273.573 73.2033 265.379 66.9486 260.594 57.8887C250.923 39.5414 263.447 11.7425 274.482 -12.7837C279.961 -24.9394 285.125 -36.4127 287.019 -45.4727L288.282 -45.2199C286.362 -36.021 281.161 -24.4845 275.656 -12.2656C264.722 11.9952 252.324 39.5414 261.768 57.2948C266.414 66.1399 274.495 72.2809 282.31 78.2577C292.877 86.3194 303.773 94.6843 306.298 109.582C309.442 128.283 304.733 159.721 299.758 180.949C295.97 197.3 291.627 197.907 273.522 200.484H273.106C259.18 202.456 255.544 203.315 246.037 213.79Z" fill="url(#paint2_linear_28_768)"/>
<path d="M244.786 217.595L243.612 217.115C247.993 206.286 256.92 203.455 265.53 200.688C274.368 197.895 282.663 195.255 286.867 184.754C289.455 178.297 290.554 170.236 291.602 162.427C292.252 156.841 293.222 151.298 294.505 145.823C294.998 143.928 295.541 142.032 296.084 140.036C298.975 129.7 301.955 119.01 299.934 108.775C297.005 93.9402 285.908 85.6258 274.166 76.8186C264.331 69.4519 254.167 61.8325 249.508 50.0811C242.261 31.7592 254.407 9.33051 266.149 -12.3653C272.701 -24.4704 278.9 -35.9185 281.148 -45.7871L282.41 -45.5091C280.112 -35.4004 273.888 -23.9523 267.26 -11.7587C255.657 9.72222 243.663 31.8476 250.683 49.6136C255.202 60.9859 265.227 68.5674 274.923 75.8078C286.286 84.3622 298.154 93.22 301.172 108.522C303.255 119.06 300.225 129.902 297.308 140.377C296.765 142.323 296.223 144.244 295.73 146.139C294.458 151.554 293.501 157.039 292.864 162.566C291.791 170.438 290.693 178.588 288.041 185.184C283.61 196.24 274.62 199.083 265.921 201.863C257.223 204.643 248.94 207.309 244.786 217.595Z" fill="url(#paint3_linear_28_768)"/>
<path d="M244.66 222.471L243.397 222.193C245.544 212.881 250.682 210.151 256.629 207.03C258.957 205.839 261.216 204.519 263.396 203.075C270.795 198.021 271.413 196.163 273.711 189.34C274.065 188.304 274.456 187.141 274.911 185.84C277.044 179.825 278.698 173.356 280.188 167.101C281.866 159.793 283.974 152.591 286.501 145.531C287.22 143.649 287.991 141.741 288.773 139.77C293.015 129.193 297.409 118.289 295.427 107.371C292.536 91.5005 280.175 82.6807 267.083 73.3302C256.238 65.5591 245.039 57.6111 239.989 45.2406C232.59 27.1334 245.91 6.06945 258.775 -14.3248C265.997 -25.7856 272.815 -36.5513 275.416 -46.0029L276.678 -45.6744C274.027 -35.9827 267.171 -25.1032 259.899 -13.5919C247.198 6.52435 234.055 27.323 241.213 44.8236C246.112 56.8151 257.159 64.6998 267.853 72.3319C280.567 81.4045 293.722 90.7929 296.715 107.169C298.76 118.415 294.303 129.522 289.985 140.262C289.203 142.208 288.432 144.129 287.725 146.012C285.221 153.04 283.143 160.214 281.501 167.493C279.948 173.811 278.332 180.28 276.198 186.345C275.744 187.609 275.352 188.797 274.999 189.833C272.714 196.618 271.944 198.893 264.192 204.2C261.979 205.677 259.681 207.023 257.311 208.231C251.351 211.238 246.68 213.727 244.66 222.471Z" fill="url(#paint4_linear_28_768)"/>
<path d="M245.355 228.03L244.092 227.929C244.723 219.703 249.269 212.147 253.65 204.843C257.084 199.132 260.644 193.218 262.348 186.976C264.545 179.015 269.381 169.159 274.507 158.735C283.345 140.628 293.445 120.107 291.084 105.664C288.281 88.669 273.825 78.8004 259.849 69.2477C247.905 61.0849 235.545 52.6568 230.09 39.743C222.515 21.6989 237.11 2.16392 251.276 -16.7141C259.23 -27.3155 266.742 -37.3231 269.747 -46.4336L270.946 -46.0292C267.866 -36.7293 260.303 -26.6458 252.286 -15.9559C238.335 2.64408 223.904 21.8759 231.252 39.2502C236.567 51.886 248.764 60.1499 260.556 68.2115C274.759 77.9032 289.443 87.9361 292.334 105.449C294.783 120.297 284.607 141.007 275.63 159.278C270.58 169.652 265.732 179.496 263.573 187.305C261.806 193.711 258.22 199.7 254.735 205.488C250.228 213.031 245.961 220.107 245.355 228.03Z" fill="url(#paint5_linear_28_768)"/>
<path d="M245.228 234.008C244.9 219.906 245.998 198.45 249.218 184.665C251.844 173.368 259.659 162.249 267.941 150.472C278.622 135.309 289.657 119.565 288.218 103.719C286.614 86.105 269.784 74.7959 253.51 63.8785C241.819 56.019 229.724 47.9068 223.752 37.5707C212.036 17.3533 228.057 -0.753874 243.561 -18.2293C251.869 -27.5798 260.442 -37.1831 264.128 -46.8242L265.302 -46.382C261.515 -36.5765 252.879 -26.8217 244.508 -17.3953C229.358 -0.26108 213.576 17.467 224.838 36.9389C230.671 47.0476 242.109 54.6291 254.205 62.8298C270.731 73.9114 287.814 85.3848 289.48 103.606C290.957 119.868 279.784 135.764 268.964 151.154C260.77 162.817 253.018 173.899 250.442 184.892C247.248 198.589 246.162 219.906 246.49 233.932L245.228 234.008Z" fill="url(#paint6_linear_28_768)"/>
<path d="M247.689 240.073H246.426C246.502 231.772 243.611 223.912 240.821 216.318C237.298 206.702 233.65 196.77 235.909 185.815C238.611 172.787 249.343 160.417 259.721 148.476C272.448 133.818 285.603 118.655 284.416 102.039C283.091 83.6289 264.367 71.41 246.25 59.5955C232.867 50.8514 220.203 42.6002 213.954 31.9861C201.518 10.8969 218.739 -4.97379 235.417 -20.3264C244.621 -28.8177 254.141 -37.5869 258.56 -47.1396L259.708 -46.6089C255.138 -36.8414 245.53 -27.9837 236.2 -19.4039C219.168 -3.7102 203.083 11.1243 215.002 31.329C221.112 41.6904 233.637 49.8658 246.906 58.5214C265.276 70.5128 284.265 82.896 285.628 101.938C286.891 119.085 273.533 134.438 260.63 149.285C250.366 161.112 239.735 173.293 237.109 186.055C234.925 196.657 238.371 205.982 241.97 215.863C244.836 223.571 247.765 231.532 247.689 240.073Z" fill="url(#paint7_linear_28_768)"/>
<path d="M247.337 246.062C245.279 239.074 240.759 232.011 235.974 224.581C228.184 212.412 220.129 199.815 222.881 186.913C225.874 172.9 238.764 160.138 251.238 147.742C266.086 133.021 281.451 117.808 280.479 100.332C279.898 89.7309 266.881 79.0662 258.27 72.0154L255.24 69.4883C250.569 65.5459 244.837 61.5909 238.827 57.3831C226.05 48.538 211.556 38.5431 204.335 26.4885C191.179 4.57787 209.524 -9.25839 227.25 -22.6271C237.35 -30.2086 247.791 -38.1313 252.93 -47.5703L254.041 -46.9638C248.776 -37.2847 238.221 -29.2736 228.007 -21.6163C209.928 -7.98217 192.858 4.91904 205.408 25.844C212.503 37.6585 226.871 47.5903 239.496 56.347C245.595 60.5674 251.352 64.5477 256.061 68.5153L259.079 71.0425C267.916 78.2323 281.135 89.0991 281.804 100.269C282.802 118.313 267.235 133.729 252.185 148.639C239.85 160.846 227.098 173.481 224.182 187.128C221.53 199.524 229.447 211.894 237.098 223.848C241.921 231.429 246.491 238.531 248.599 245.683L247.337 246.062Z" fill="url(#paint8_linear_28_768)"/>
<path d="M247.565 251.356C244.396 243.522 237.464 236.067 230.015 228.182C219.385 216.81 208.388 205.084 209.322 191.803C210.585 174.24 226.745 160.365 242.376 146.946C259.104 132.604 276.389 117.77 274.318 98.9299C272.02 77.967 251.832 66.0008 232.313 54.4264C215.168 44.3177 197.442 33.7667 191.482 17.1127C185.624 0.686057 189.336 -4.83581 204.285 -14.3759C208.691 -17.181 212.883 -19.506 216.91 -21.7552C228.69 -28.288 238.866 -33.9236 247.211 -47.7725L248.284 -47.128C239.825 -32.9885 229.51 -27.2645 217.567 -20.5927C213.526 -18.3562 209.347 -16.0438 204.941 -13.2513C190.409 -3.98921 187.026 1.07777 192.644 16.7336C198.452 32.958 215.988 43.3447 232.932 53.3776C252.716 65.1037 273.182 77.2341 275.543 98.8667C277.689 118.44 260.14 133.489 243.184 148.045C227.743 161.225 211.772 174.859 210.572 191.892C209.676 204.629 220.483 216.165 230.924 227.272C238.399 235.245 245.456 242.789 248.714 250.838L247.565 251.356Z" fill="url(#paint9_linear_28_768)"/>
<path d="M246.667 255.779C239.584 241.197 232.653 235.36 223.07 227.273C220.027 224.745 216.568 221.801 212.793 218.326C206.064 212.148 197.188 202.759 197.743 192.688C198.766 174.303 216.795 160.176 234.231 146.53C252.614 132.163 271.703 117.176 269.645 97.6035C267.347 75.8951 246.023 63.4867 225.393 51.4826C207.326 40.9822 188.653 30.1154 182.467 12.9559C178.868 10.0244 176.886 6.81486 176.583 3.42845C176.255 -0.235952 177.846 -4.15308 181.419 -8.24709L181.558 -8.36081L195.976 -17.6355C200.773 -20.1627 205.268 -22.2603 209.624 -24.2188C221.871 -29.766 232.463 -34.5423 241.427 -48.1006L242.488 -47.4056C233.309 -33.5062 222.578 -28.6919 210.142 -23.0689C205.811 -21.1104 201.304 -19.0887 196.62 -16.5489L182.315 -7.34995C179.045 -3.55919 177.543 0.0293958 177.833 3.31472C178.111 6.38523 179.992 9.34203 183.401 12.084L183.54 12.1851V12.362C189.562 29.1803 208.096 39.9713 226.024 50.3959C246.932 62.5516 268.534 75.1243 270.895 97.4645C273.029 117.745 253.699 132.845 235.014 147.515C217.805 160.998 200.003 174.948 199.006 192.764C198.476 202.292 207.111 211.389 213.651 217.391C217.439 220.854 220.848 223.709 223.878 226.312C233.587 234.488 240.607 240.401 247.803 255.223L246.667 255.779Z" fill="url(#paint10_linear_28_768)"/>
<path d="M244.307 258.975C236.24 243.698 228.197 237.646 217.087 229.294C213.426 226.539 209.284 223.43 204.802 219.69C199.02 214.876 186.975 204.83 187.556 193.344C188.516 174.391 207.896 160.087 226.695 146.276C246.391 131.77 266.768 116.759 264.672 96.6802C262.337 74.4411 240.154 61.7041 218.69 49.3842C199.878 38.5931 180.423 27.4231 174.034 9.79603C170.335 6.86451 168.302 3.655 167.987 0.268592C167.658 -3.38317 169.338 -7.31292 172.961 -11.369L173.113 -11.508L188.137 -20.0625C193.187 -22.4507 197.985 -24.245 202.58 -25.9761C215.206 -30.7145 226.051 -34.8212 235.47 -48.291L236.505 -47.5708C226.859 -33.7598 215.812 -29.6026 203.035 -24.8262C198.452 -23.1077 193.717 -21.3261 188.718 -18.9758L173.832 -10.4972C170.499 -6.70641 168.959 -3.15573 169.249 0.116958C169.527 3.18747 171.446 6.14427 174.956 8.88625L175.095 8.98733L175.158 9.16424C181.332 26.4501 200.649 37.5317 219.347 48.2469C241.075 60.7312 263.536 73.6324 265.947 96.5159C268.132 117.315 247.451 132.541 227.465 147.262C208.944 160.896 189.803 175.06 188.882 193.37C188.339 204.224 200.043 213.991 205.674 218.641C210.13 222.344 214.259 225.452 217.908 228.194C228.728 236.332 237.275 242.763 245.494 258.305L244.307 258.975Z" fill="url(#paint11_linear_28_768)"/>
<path d="M240.091 260.669C231.77 244.862 222.63 238.481 211.052 230.343C206.949 227.475 202.29 224.215 197.303 220.235C190.258 214.662 178.478 205.35 179.097 193.624C180.132 174.291 200.295 159.949 219.789 146.075C240.229 131.544 261.364 116.507 259.18 96.1252C256.769 73.5828 234.081 60.669 212.125 48.1848C192.846 37.2168 172.923 25.8825 166.421 7.95219C162.722 5.00804 160.677 1.79853 160.374 -1.60051C160.033 -5.26491 161.699 -9.18203 165.323 -13.2887L165.499 -13.4277L180.89 -21.5525C186.23 -23.8396 191.18 -25.4444 195.977 -27.0112C208.729 -31.1684 219.751 -34.757 229.321 -48.4922L230.356 -47.7719C220.546 -33.6956 209.335 -30.0817 196.369 -25.8235C191.596 -24.2692 186.672 -22.6645 181.42 -20.4279L166.181 -12.3789C162.861 -8.58814 161.32 -5.01219 161.623 -1.72687C161.914 1.35628 163.833 4.31307 167.343 7.05505L167.494 7.16878L167.557 7.34568C173.87 24.9222 193.616 36.1807 212.756 47.0728C234.977 59.7087 257.956 72.7994 260.43 95.9736C262.703 117.101 241.252 132.352 220.521 147.098C201.267 160.796 181.382 174.897 180.36 193.687C179.779 204.743 191.23 213.816 198.035 219.224C202.997 223.154 207.429 226.249 211.721 229.257C223.438 237.445 232.692 243.902 241.164 259.987L240.091 260.669Z" fill="url(#paint12_linear_28_768)"/>
<path d="M233.676 260.871C225.356 245.228 216.177 238.67 204.562 230.368C200.307 227.323 195.913 224.189 191.014 220.26C183.553 214.27 172.291 205.21 172.846 193.724C173.793 174.366 193.981 159.987 213.5 146.074C233.941 131.518 255.076 116.469 252.942 96.0744C250.569 73.4688 227.792 60.694 205.748 48.235C186.457 37.3934 166.458 26.0212 159.943 8.14142C156.269 5.19726 154.249 1.97512 153.933 -1.43656C153.593 -5.1136 155.196 -9.01808 158.794 -13.15L158.971 -13.289L174.437 -21.4265C179.841 -23.7136 184.853 -25.3183 189.701 -26.8726C202.516 -30.9666 213.576 -34.4541 223.083 -48.3535L224.131 -47.6333C214.371 -33.4432 203.122 -29.8293 190.042 -25.6595C185.219 -24.1179 180.245 -22.5258 174.892 -20.2766L159.577 -12.2276C156.294 -8.43682 154.792 -4.84824 155.095 -1.55028C155.385 1.5455 157.292 4.51493 160.776 7.29482L160.928 7.40854V7.57281C167.241 25.1619 187.088 36.3447 206.279 47.1483C228.6 59.7084 251.667 72.698 254.104 95.9607C256.313 117.075 234.875 132.352 214.144 147.123C194.865 160.846 174.93 175.049 174.021 193.8C173.49 204.642 184.462 213.449 191.696 219.287C196.557 223.204 200.938 226.337 205.18 229.395C216.934 237.786 226.214 244.419 234.673 260.328L233.676 260.871Z" fill="url(#paint13_linear_28_768)"/>
<path d="M225.506 260.87C217.514 245.707 208.891 238.745 197.97 229.9C194.182 226.855 190.395 223.721 186.077 219.93C179.474 214.08 168.401 204.262 168.894 193.395C169.74 174.289 189.309 159.809 208.235 145.821C228.094 131.138 248.636 115.95 246.528 95.7701C244.179 73.3162 221.517 60.9457 199.599 49.0174C180.37 38.517 160.46 27.6628 153.958 9.94736C150.284 7.00321 148.251 3.7937 147.935 0.382019C147.595 -3.28238 149.198 -7.1995 152.796 -11.3188L152.96 -11.4578L168.452 -19.9364C173.78 -22.3246 178.767 -24.0557 183.602 -25.7363C196.531 -30.222 207.692 -34.1012 217.186 -47.9375L218.221 -47.2173C208.5 -33.0525 197.149 -29.1101 184.019 -24.4727C179.221 -22.8048 174.259 -21.0863 169.02 -18.7487L153.68 -10.3332C150.41 -6.54243 148.895 -2.95385 149.211 0.331474C149.526 3.6168 151.407 6.38405 154.892 9.17657L155.031 9.2903L155.094 9.4672C161.407 26.8289 181.128 37.5946 200.217 48.0192C222.413 60.137 245.379 72.6844 247.79 95.7954C249.974 116.682 229.142 132.086 208.992 146.983C190.306 160.807 170.977 175.098 170.169 193.597C169.714 203.92 180.484 213.486 186.923 219.197C191.178 222.988 195.041 226.084 198.778 229.116C209.8 238.063 218.524 245.113 226.642 260.479L225.506 260.87Z" fill="url(#paint14_linear_28_768)"/>
<path d="M215.786 260.845C211.746 252.354 203.034 243.888 193.818 234.917C180.056 221.535 165.827 207.686 166.61 192.662C167.582 174.012 186.053 159.455 203.918 145.366C222.856 130.469 242.35 115.04 240.09 95.2272C237.565 73.1271 215.167 61.4895 193.502 50.2309C174.45 40.337 154.754 30.102 148.177 12.7151C144.515 9.82144 142.495 6.62457 142.167 3.23816C141.826 -0.426241 143.429 -4.34336 147.053 -8.50056L147.204 -8.63955L162.734 -17.6742C167.998 -20.2014 172.973 -22.1473 177.771 -23.9921C190.838 -29.0465 202.125 -33.3932 211.582 -47.4316L212.617 -46.724C202.946 -32.3571 191.494 -27.9345 178.225 -22.8043C173.44 -20.9595 168.504 -19.0136 163.327 -16.4864L147.937 -7.51496C144.629 -3.7242 143.114 -0.0977073 143.429 3.20025C143.72 6.27077 145.626 9.20228 149.098 11.9064L149.237 12.0201V12.1843C155.55 29.2175 175.119 39.3641 194.02 49.1821C215.988 60.5544 238.701 72.3942 241.289 95.164C243.612 115.697 223.803 131.328 204.675 146.44C187 160.34 168.794 174.732 167.847 192.801C167.089 207.257 181.116 220.891 194.676 234.083C203.981 243.13 212.768 251.684 216.897 260.378L215.786 260.845Z" fill="url(#paint15_linear_28_768)"/>
<path d="M204.865 260.795C201.671 252.494 194.764 243.813 187.341 234.627C176.091 220.613 164.463 206.133 165.675 191.741C167.178 173.911 184.033 159.279 200.332 145.127C218.791 129.105 236.226 113.979 233.689 94.5834C230.861 72.976 208.817 62.2987 187.492 51.9626C168.668 42.8395 149.212 33.4005 142.558 16.4432C138.922 13.6001 136.902 10.4538 136.574 7.09267C136.208 3.41564 137.836 -0.564651 141.51 -4.73448L141.649 -4.84821L157.216 -14.6284C162.443 -17.3703 167.38 -19.5184 172.165 -21.5907C185.396 -27.34 196.81 -32.2933 206.254 -46.6855L207.314 -45.9906C197.694 -31.2824 186.103 -26.2534 172.695 -20.4409C167.935 -18.3686 163.011 -16.2331 157.873 -13.5291L142.407 -3.79943C139.048 0.0797756 137.508 3.7189 137.836 7.01686C138.127 10.0495 140.033 12.9304 143.467 15.5966L143.619 15.6977L143.682 15.862C150.083 32.4655 169.387 41.816 188.035 50.8633C209.688 61.4016 232.022 72.18 234.939 94.4444C237.565 114.485 219.056 130.545 201.166 146.087C185.056 160.062 168.339 174.53 166.938 191.842C165.764 205.741 177.228 220.02 188.326 233.843C195.762 243.105 202.782 251.862 206.001 260.379L204.865 260.795Z" fill="url(#paint16_linear_28_768)"/>
<path d="M193.072 260.733C190.837 252.356 185.888 243.485 180.648 234.097C172.568 219.616 164.235 204.643 165.738 190.642C167.556 173.874 182.605 159.166 197.15 144.938C214.156 128.373 230.216 112.628 227.362 93.9146C224.105 72.9517 202.503 63.3611 181.595 54.099C162.973 45.8731 143.82 37.3944 137.078 20.9678C133.454 18.2006 131.447 15.1174 131.106 11.7942C130.727 8.10451 132.368 4.0863 136.156 -0.159344L136.282 -0.260433L151.9 -10.8745C157.064 -13.8692 162 -16.2701 166.748 -18.5824C180.156 -25.1278 191.733 -30.7634 201.101 -45.6484L202.162 -44.9661C192.604 -29.8031 180.875 -24.0664 167.303 -17.4452C162.569 -15.1328 157.657 -12.7447 152.569 -9.86368L137.052 0.687256C133.618 4.62964 132.002 8.26877 132.394 11.6173C132.697 14.612 134.591 17.4424 138.012 20.0201L138.151 20.1212L138.214 20.2855C144.704 36.3836 163.705 44.8117 182.087 52.9492C203.298 62.3629 225.229 72.0799 228.587 93.7251C231.592 113.096 214.547 129.75 198.071 145.861C183.678 159.924 168.805 174.468 167.025 190.794C165.548 204.403 173.805 219.187 181.784 233.49C187.062 242.955 192.062 251.901 194.334 260.417L193.072 260.733Z" fill="url(#paint17_linear_28_768)"/>
<path d="M180.749 260.656C179.613 252.253 176.848 243.345 173.932 233.906C169.286 218.895 164.475 203.378 166.42 189.44C168.566 174.101 181.57 159.418 194.095 145.215C208.929 128.435 224.257 111.098 220.936 93.1552C217.149 72.9379 196.039 64.5224 175.611 56.3975C157.304 49.1319 138.391 41.6136 131.599 25.6039C124.238 8.26753 132.104 2.2276 146.648 -6.97131C151.698 -10.1808 156.622 -12.847 161.357 -15.4247C174.954 -22.8293 186.683 -29.223 196.001 -44.6641L197.087 -44.007C187.592 -28.3133 175.712 -21.8184 161.963 -14.338C157.241 -11.8108 152.367 -9.09413 147.317 -5.90989C131.788 3.90817 126.119 9.46794 132.76 25.0985C139.401 40.729 158.011 48.0452 176.065 55.2098C196.822 63.461 218.285 71.9902 222.174 92.9151C225.608 111.452 210.066 129.028 195.041 145.986C182.618 160.062 169.791 174.606 167.669 189.567C165.763 203.226 170.523 218.629 175.131 233.489C178.073 242.966 180.85 251.925 181.999 260.441L180.749 260.656Z" fill="url(#paint18_linear_28_768)"/>
<path d="M169.463 260.569H168.201C168.201 252.545 167.633 244.281 167.027 235.512C165.928 219.565 164.792 203.063 167.38 188.191C169.728 174.62 180.511 160.152 190.939 146.164C204.398 128.094 218.311 109.419 214.561 92.3603C210.281 72.8758 189.639 65.6986 169.691 58.7489C151.725 52.5068 133.153 46.0372 126.221 30.6088C118.709 13.9042 127.105 7.01769 141.435 -2.85092C146.485 -6.30051 151.333 -9.24467 156.042 -12.0877C169.817 -20.4021 181.723 -27.5667 191.002 -43.6016L192.088 -42.9698C182.644 -26.6569 170.625 -19.4039 156.737 -11.0137C152.04 -8.17061 147.179 -5.23909 142.192 -1.80214C127.989 7.96538 120.3 14.2707 127.408 30.0908C134.112 45.0264 152.432 51.3948 170.132 57.5611C190.422 64.6246 211.405 71.9155 215.837 92.0949C219.713 109.709 205.61 128.625 191.987 146.922C181.647 160.821 170.953 175.138 168.655 188.405C166.13 203.126 167.229 219.553 168.327 235.436C168.895 244.205 169.463 252.507 169.463 260.569Z" fill="url(#paint19_linear_28_768)"/>
<path d="M157.001 260.656L155.738 260.492C158.15 241.867 161.634 222.964 164.993 204.68C166.078 198.766 167.164 192.865 168.212 186.989C170.384 174.783 178.855 161.301 187.819 147.022C199.889 127.803 212.376 107.939 208.184 91.6013C203.386 72.875 183.224 66.8729 163.743 61.0731C146.067 55.8292 127.886 50.4084 120.816 35.5865C112.736 18.6798 123.089 10.9845 136.194 1.24229C141.168 -2.46002 146.016 -5.65689 150.713 -8.75267C164.664 -17.9642 176.709 -25.9248 185.963 -42.5283L187.062 -41.9218C177.681 -25.0529 165.498 -17.0165 151.42 -7.71653C146.736 -4.62075 141.901 -1.39861 136.964 2.24052C122.508 12.981 114.693 19.8044 121.965 35.0179C128.795 49.3344 146.749 54.6793 164.109 59.8474C183.943 65.7483 204.51 71.8515 209.421 91.2728C213.739 108.129 201.114 128.245 188.905 147.679C180.004 161.857 171.596 175.238 169.462 187.204C168.414 193.08 167.328 198.993 166.242 204.894C162.884 223.141 159.412 242.094 157.001 260.656Z" fill="url(#paint20_linear_28_768)"/>
<path d="M144.945 260.719L143.682 260.416C146.624 248.399 151.169 236.913 155.563 225.794C160.613 213.006 165.84 199.789 168.567 185.827C172.026 168.136 178.92 153.668 186.242 138.303C187.328 136.016 188.427 133.704 189.538 131.341C190.51 129.269 191.646 127.045 192.845 124.682C198.199 114.232 204.852 101.217 201.822 90.8555C196.557 72.8368 176.849 67.934 157.785 63.1956C140.488 58.8994 122.61 54.4642 115.376 40.211C107.119 23.9613 117.623 15.609 130.905 5.04539C135.829 1.12827 140.665 -2.30868 145.336 -5.64455C159.451 -15.7532 171.635 -24.4088 180.877 -41.5557L181.988 -40.9618C172.607 -23.5496 159.716 -14.3507 146.068 -4.60841C141.409 -1.28518 136.586 2.13914 131.688 6.04362C118.848 16.2408 108.71 24.3024 116.537 39.6424C123.507 53.3775 141.106 57.7495 158.126 61.9699C177.531 66.7968 197.605 71.7754 203.072 90.5017C206.241 101.343 199.461 114.598 194.007 125.263C192.808 127.601 191.671 129.824 190.712 131.884C189.601 134.247 188.502 136.559 187.417 138.846C179.841 154.793 173.314 168.579 169.892 186.079C167.127 200.143 161.875 213.423 156.8 226.261C152.394 237.33 147.823 248.778 144.945 260.719Z" fill="url(#paint21_linear_28_768)"/>
<path d="M133.594 260.77L132.407 260.366C136.46 248.336 142.936 237.419 149.199 226.855C156.963 213.79 164.98 200.32 168.137 184.841C172.278 164.763 178.174 149.018 185.446 130.507C186.292 128.346 187.302 126.021 188.375 123.557C192.933 113.095 198.615 100.08 195.408 90.1732C189.764 72.7357 170.435 68.8186 151.736 65.0278C134.755 61.5782 117.181 58.0149 109.807 44.2924C101.386 28.6239 112.244 19.4882 124.819 8.91197L125.45 8.39391C130.336 4.28725 135.147 0.622849 139.793 -2.91519C154.047 -13.7568 166.306 -23.1326 175.586 -40.7217L176.709 -40.1404C167.354 -22.286 154.337 -12.3415 140.55 -1.90432C135.917 1.62109 131.119 5.27284 126.271 9.35423L125.64 9.88494C113.014 20.5243 102.977 28.9272 110.918 43.6859C118.014 56.8903 135.285 60.4031 151.989 63.7895C171.041 67.6434 190.736 71.6364 196.607 89.7815C199.966 100.143 194.183 113.411 189.537 124.063C188.464 126.514 187.466 128.826 186.62 130.962C179.373 149.397 173.503 165.079 169.374 185.068C166.155 200.712 158.074 214.321 150.259 227.474C144.035 238.013 137.608 248.867 133.594 260.77Z" fill="url(#paint22_linear_28_768)"/>
<path d="M123.292 260.808L122.131 260.341C127.055 247.983 135.185 237.268 143.038 226.906C152.899 213.904 163.1 200.472 166.534 184.045C170.267 165.729 175.065 147.646 180.902 129.888C181.66 127.601 182.581 125.124 183.566 122.509C187.455 112.097 192.303 99.1325 189.02 89.6556C183.124 72.6098 164.098 69.4382 145.69 66.494C128.948 63.7647 111.601 60.9343 104.127 47.6161C95.5668 32.453 106.766 22.6097 118.621 12.2357L119.883 11.1363C124.719 6.87806 129.517 3.03676 134.15 -0.66555C147.912 -11.684 160.916 -22.1465 170.145 -40.001L171.269 -39.4197C161.914 -21.262 148.808 -10.7742 134.933 0.320055C130.312 4.02236 125.527 7.90157 120.717 12.084L119.454 13.1834C107.51 23.6585 97.1955 32.7058 105.25 47.0096C112.447 59.797 129.453 62.5769 145.904 65.2557C164.678 68.3262 184.084 71.4978 190.22 89.2639C193.654 99.183 188.717 112.375 184.766 122.976C183.781 125.579 182.859 128.031 182.114 130.318C176.288 148.028 171.503 166.065 167.784 184.336C164.237 201.003 153.997 214.561 144.036 227.664C136.233 237.963 128.153 248.615 123.292 260.808Z" fill="url(#paint23_linear_28_768)"/>
<path d="M114.366 260.82L113.205 260.327C118.634 247.426 128.014 236.761 137.08 226.45C148.771 213.145 159.805 200.572 163.353 183.488L164.742 176.766C168.024 160.757 171.13 145.644 175.688 129.445C176.383 126.981 177.254 124.315 178.213 121.51C181.736 110.719 185.788 98.4871 182.607 89.1871C176.862 72.2424 157.924 69.7405 139.554 67.3144C122.964 65.1284 105.794 62.8666 98.2436 49.8769C89.5952 35.0045 100.63 25.0474 112.308 14.4965L114.013 12.9549C118.823 8.59557 123.608 4.6279 128.229 0.786602C142.117 -10.6741 155.134 -21.5157 164.376 -39.585L165.499 -39.0037C156.131 -20.7323 142.976 -9.77698 129.037 1.7722C124.416 5.56295 119.644 9.55589 114.859 13.9026L113.154 15.4442C101.867 25.6287 91.1986 35.2572 99.3294 49.2451C106.576 61.6914 123.431 63.9154 139.731 66.0634C158.442 68.5906 177.797 71.1178 183.781 88.808C187.051 98.4997 182.973 110.946 179.387 121.927C178.466 124.732 177.595 127.373 176.862 129.811C172.33 145.96 169.287 161.06 165.941 177.044L164.552 183.779C160.954 201.153 149.276 214.434 138.039 227.272C129.024 237.519 119.72 248.108 114.366 260.82Z" fill="url(#paint24_linear_28_768)"/>
<path d="M107.105 260.807L105.943 260.34C111.41 246.592 121.523 235.889 131.321 225.528C143.403 212.728 154.829 200.648 158.251 183.349C158.873 180.233 159.48 177.137 160.069 174.062C163.048 158.899 165.864 144.456 169.651 129.344C170.321 126.678 171.217 123.759 172.177 120.65C175.446 109.973 179.158 97.9057 176.103 89.0606C170.22 72.0401 151.433 69.8794 133.277 67.7818C116.801 65.8738 99.7696 63.9152 92.1312 50.9382C83.4322 36.129 94.7951 25.7044 105.83 15.6083L107.85 13.7635C112.635 9.34095 117.42 5.29747 122.041 1.39299C135.929 -10.3331 148.984 -21.3516 158.263 -39.4082L159.387 -38.827C149.994 -20.5934 136.813 -9.44858 122.849 2.35331C118.241 6.25779 113.468 10.2886 108.708 14.6859L106.688 16.5434C95.5527 26.7405 85.0483 36.3691 93.2043 50.2306C100.527 62.6643 117.193 64.5976 133.404 66.455C151.963 68.6031 171.141 70.8144 177.277 88.5931C180.471 97.8425 176.709 110.162 173.376 121.029C172.429 124.112 171.545 127.019 170.851 129.647C167.063 144.734 164.26 159.101 161.281 174.302C160.683 177.377 160.077 180.473 159.463 183.589C155.965 201.28 143.883 214.029 132.204 226.4C122.571 236.673 112.471 247.287 107.105 260.807Z" fill="url(#paint25_linear_28_768)"/>
<path d="M101.248 259.456L100.073 258.989C105.553 245.089 115.792 234.399 125.69 224.076C137.798 211.44 149.237 199.512 152.709 182.163C153.883 176.262 155.019 170.298 156.105 164.536C158.289 153.037 160.537 141.147 163.289 129.345C163.92 126.603 164.804 123.608 165.726 120.437C168.756 110.05 172.177 98.2985 169.198 89.6303C163.441 72.8625 145.045 70.2848 127.256 67.7829C111.146 65.5211 94.4299 63.1834 86.9303 50.3833C78.2693 35.6878 89.1145 25.6928 100.604 15.104L102.371 13.3855C107.005 9.0893 111.626 5.14691 116.095 1.33088C129.743 -10.332 142.609 -21.3379 151.939 -39.1797L153.05 -38.5858C143.682 -20.4913 130.69 -9.35906 116.954 2.34175C112.497 6.13251 107.889 10.0875 103.268 14.3711L101.462 16.039C90.3518 26.2614 79.8727 35.9152 88.0287 49.7389C95.2631 62.0083 111.626 64.308 127.433 66.5319C145.601 69.0591 164.375 71.7253 170.359 89.2133C173.465 98.2606 169.981 110.227 166.9 120.803C165.978 123.975 165.107 126.957 164.476 129.648C161.736 141.425 159.426 153.29 157.305 164.776C156.219 170.55 155.095 176.514 153.908 182.466C150.361 200.156 138.265 212.792 126.562 224.998C116.79 235.183 106.639 245.772 101.248 259.456Z" fill="url(#paint26_linear_28_768)"/>
<path d="M96.1854 255.729L95.0238 255.261C100.541 241.362 110.945 230.874 120.994 220.715C133.292 208.294 144.907 196.555 148.316 179.206C149.414 173.558 151.346 166.242 153.366 158.496C159.477 135.322 167.077 106.474 161.85 90.8054C156.371 74.3788 138.758 71.0809 121.714 67.8966C106.298 65.0156 90.3524 62.0336 83.118 49.3851C74.6842 34.6264 85.378 24.6693 96.6904 14.1184L98.0287 12.8548C102.46 8.71024 106.866 4.90684 111.096 1.24245C124.264 -10.1298 136.7 -20.8703 145.702 -38.3457L146.826 -37.7645C137.71 -20.0743 125.186 -9.25795 111.929 2.20277C107.687 5.85454 103.306 9.64529 98.8998 13.7772L97.5489 15.0408C86.186 25.6676 76.275 34.8538 84.2164 48.7533C91.1604 60.8837 106.816 63.8152 121.954 66.6457C139.339 69.8931 157.305 73.2542 163.05 90.3884C168.39 106.423 160.739 135.473 154.591 158.812C152.545 166.532 150.626 173.823 149.54 179.433C146.068 197.124 133.771 209.583 121.878 221.599C111.929 231.683 101.614 242.095 96.1854 255.729Z" fill="url(#paint27_linear_28_768)"/>
<path d="M91.7791 250.067L90.6176 249.575C96.4127 235.978 106.803 225.567 116.841 215.458C130.009 202.279 142.445 189.82 145.172 170.891C146.005 165.154 147.697 157.661 149.465 149.739C153.871 130.09 159.363 105.64 155.538 91.6138C151.27 75.9832 133.734 71.1058 116.778 66.3421C104.051 62.7914 90.8954 59.127 83.5979 50.8884C71.3512 37.0648 79.3683 27.0319 92.019 14.3455C97.1955 9.1648 102.372 4.59061 107.384 0.155426C119.53 -10.5598 131.006 -20.6937 139.503 -37.1709L140.627 -36.5897C132.016 -19.8977 120.426 -9.70054 108.217 1.10312C103.23 5.52567 98.1171 10.0872 92.9028 15.2426C80.3657 27.8785 73.0051 37.0269 84.5448 50.0544C91.5898 58.015 104.569 61.6289 117.118 65.129C134.415 69.9433 152.306 74.9218 156.75 91.2473C160.664 105.576 155.134 130.191 150.689 149.979C148.922 157.876 147.243 165.344 146.422 171.043C143.632 190.376 130.476 203.567 117.737 216.317C107.776 226.375 97.4732 236.699 91.7791 250.067Z" fill="url(#paint28_linear_28_768)"/>
<path d="M87.8641 242.928L86.7026 242.423C92.4977 229.332 103.116 219.286 113.418 209.569C127.155 196.592 140.121 184.298 142.33 165.584C142.823 161.3 143.593 156.095 144.477 150.585C147.38 131.631 151.017 107.939 147.393 93.8123C143.454 78.4092 127.508 72.5083 112.042 66.7969C100.363 62.4628 88.2934 57.9518 81.4757 49.4099C70.1128 35.1188 77.9532 25.0606 89.3539 13.3977C94.1895 8.44448 98.9998 4.13565 103.659 -0.0468219C114.908 -10.1555 125.526 -19.6956 133.265 -35.5283L134.402 -34.9723C126.586 -18.9374 115.88 -9.35946 104.542 0.875591C99.8962 5.04542 95.1111 9.35425 90.3009 14.2696C79.342 25.4776 71.8046 35.1314 82.511 48.6139C89.1014 56.9283 101.007 61.3256 112.522 65.5965C128.253 71.4216 144.515 77.4363 148.618 93.4838C152.292 107.863 148.618 131.644 145.714 150.762C144.881 156.259 144.085 161.465 143.58 165.723C141.32 184.93 127.622 197.869 114.289 210.505C104.1 220.12 93.533 230.077 87.8641 242.928Z" fill="url(#paint29_linear_28_768)"/>
<path d="M84.2801 234.766L83.1565 234.222C89.3303 221.473 100.011 211.933 110.352 202.709C123.369 191.096 135.603 180.116 139.39 163.411C142.685 148.69 142.509 111.604 137.976 96.618C133.444 81.6318 119.77 74.9601 106.526 68.5032C94.7087 62.7286 82.5378 56.7645 76.5407 44.9752C70.5436 33.1859 77.9674 22.5592 84.9998 14.4722C90.3086 8.48457 95.9976 2.8457 102.031 -2.40928C111.652 -11.0901 119.96 -18.5958 127.131 -33.7715L128.267 -33.2408C120.995 -17.825 112.599 -10.2435 102.877 -1.46159C96.8815 3.75094 91.2302 9.34778 85.9593 15.2936C79.1921 23.0899 72.0713 33.4513 77.677 44.356C83.4468 55.7283 95.4663 61.6419 107.094 67.328C120.578 73.9113 134.529 80.7221 139.201 96.2136C143.771 111.377 143.948 148.791 140.64 163.651C136.852 180.76 124.379 191.854 111.198 203.618C100.946 212.805 90.353 222.256 84.2801 234.766Z" fill="url(#paint30_linear_28_768)"/>
<path d="M80.9078 226.034L79.7842 225.44C88.117 209.847 95.7049 202.291 109.555 191.247L113.57 188.076C126.902 177.588 135.702 170.664 137.495 153.479C138.947 139.579 134.25 113.208 130.463 98.9045C126.46 83.8552 114.896 76.2989 102.687 68.2878C93.5964 62.3363 84.2031 56.1953 78.3575 46.7184C68.598 30.9236 78.1681 20.2715 88.3063 9.00035L89.0639 8.15375C92.8515 3.93337 96.2604 0.572237 99.5556 -2.75099C108.002 -11.1791 114.706 -17.8382 121.019 -31.8135L122.168 -31.2954C115.754 -17.0422 109.012 -10.3072 100.465 -1.79068C97.182 1.48201 93.7858 4.86843 90.036 9.0509L89.2659 9.91013C79.0266 21.2824 70.1888 31.1258 79.4559 46.1245C85.15 55.3487 94.4297 61.4265 103.444 67.2896C115.35 75.0733 127.66 83.1349 131.776 98.6518C135.563 113.044 140.323 139.63 138.859 153.668C137.003 171.359 128.026 178.447 114.441 189.125L110.439 192.296C96.6265 203.163 89.127 210.643 80.9078 226.034Z" fill="url(#paint31_linear_28_768)"/>
<path d="M77.5635 217.165L76.4651 216.545C85.1009 201.18 92.5373 194.18 107.006 183.338C108.635 182.075 110.276 180.925 111.879 179.762C124.202 170.778 134.845 163.032 135.249 147.162C135.476 138.494 131.045 126.944 127.144 116.672C125.048 111.188 123.078 106.019 121.891 101.597C118.003 87.1289 108.395 78.4607 98.2061 69.2997C90.3783 62.2489 82.2854 54.958 77.1848 44.824C67.9051 26.4136 82.4369 10.366 96.4764 -5.15082C104.191 -13.6674 111.475 -21.7164 114.783 -29.9424L115.957 -29.4749C112.561 -21.0341 105.213 -12.9092 97.4107 -4.30422C83.649 10.8588 69.4201 26.6284 78.3084 44.2554C83.2955 54.1745 91.3126 61.3896 99.052 68.352C108.925 77.1971 119.126 86.4339 123.04 101.268C124.215 105.628 126.171 110.771 128.255 116.217C132.206 126.553 136.676 138.279 136.449 147.2C136.032 163.626 125.149 171.612 112.561 180.786C110.958 181.948 109.329 183.123 107.7 184.349C93.4463 195.077 86.0983 202.001 77.5635 217.165Z" fill="url(#paint32_linear_28_768)"/>
<path d="M74.1161 208.635L73.043 207.966C83.2191 191.539 92.0821 184.716 106.879 174.101C108.142 173.179 109.568 172.206 111.071 171.183C120.691 164.612 133.86 155.628 133.986 143.687C134.062 136.219 128.292 127.766 122.711 119.59C118.772 113.816 115.048 108.37 113.394 103.379C109.606 91.9304 102.031 81.9987 94.7587 72.408C86.9057 62.0845 78.7875 51.4072 75.5302 38.9483C70.9345 21.2581 81.199 9.254 92.0821 -3.50822C98.5211 -11.0897 105.187 -18.9113 108.609 -28.085L109.796 -27.6427C106.298 -18.2669 99.5564 -10.3442 93.0417 -2.68688C82.3858 9.82262 72.3233 21.6372 76.7549 38.6324C79.9491 50.8386 87.6254 60.9473 95.7688 71.6373C103.129 81.3163 110.73 91.3365 114.593 102.974C116.197 107.801 119.858 113.184 123.747 118.87C129.441 127.21 135.324 135.84 135.249 143.7C135.11 156.335 121.626 165.509 111.79 172.219C110.288 173.242 108.874 174.215 107.611 175.125C92.9533 185.638 84.166 192.386 74.1161 208.635Z" fill="url(#paint33_linear_28_768)"/>
<path d="M70.4419 200.787L69.293 200.269C72.8799 192.208 78.067 184.961 84.5391 178.967C91.0112 172.974 98.6332 168.361 106.942 165.407C122.231 159.999 130.299 149.562 130.93 134.361C129.365 128.182 124.214 124.593 118.759 120.777C113.305 116.961 107.889 113.196 105.111 106.587V106.385C104.309 93.2798 99.3707 80.7678 91.0087 70.6508C82.1087 59.4667 75.6178 46.5601 71.9443 32.7432C70.4166 17.8961 79.2292 7.04184 87.7514 -3.45856C93.5338 -10.5473 99.4804 -17.8634 102.372 -26.4053L103.634 -25.9883C100.604 -17.2316 94.607 -9.83966 88.7993 -2.68777C80.0498 8.09062 71.7802 18.2625 73.2447 32.4905C76.8777 46.1088 83.2822 58.8293 92.0566 69.8547C100.529 80.1577 105.531 92.8769 106.349 106.195C109 112.412 114.341 116.14 119.504 119.741C125.186 123.709 130.552 127.449 132.206 134.146V134.234V134.323C131.562 150.143 123.204 160.997 107.359 166.595C99.2133 169.497 91.7413 174.024 85.3956 179.901C79.0499 185.778 73.9626 192.884 70.4419 200.787V200.787Z" fill="url(#paint34_linear_28_768)"/>
<path d="M66.3257 194.267L65.1895 193.724C73.0172 177.209 85.9078 165.773 103.495 159.721C118.974 154.768 127.155 144.558 127.824 129.395C125.627 123.203 120.047 121.636 114.138 119.968C107.952 118.225 100.945 116.241 97.1697 108.596L97.094 108.343C96.6909 95.0797 92.7692 82.1621 85.7311 70.9161C78.2278 58.6113 72.9416 45.0835 70.1134 30.9488C69.0781 16.7714 76.06 7.34505 83.4585 -2.63728C88.4455 -9.37219 93.5588 -16.3472 96.2102 -24.9648L97.4727 -24.5984C94.8087 -15.7533 89.5818 -8.71513 84.519 -1.85385C77.272 7.9263 70.4164 17.1757 71.4138 30.7972C74.2096 44.7435 79.418 58.0939 86.8042 70.2464C93.9451 81.6336 97.9321 94.7165 98.3565 108.154C101.904 115.243 108.293 116.999 114.479 118.781C120.666 120.562 126.675 122.23 129.062 129.129V129.243V129.37C128.405 145.152 119.933 155.766 103.874 160.959C86.6527 166.847 74.0146 178.068 66.3257 194.267Z" fill="url(#paint35_linear_28_768)"/>
<path d="M61.6286 189.428L60.5176 188.847C69.57 171.561 83.7484 159.709 102.636 153.643C119.289 148.425 125.816 138.48 122.597 123.317C115.999 119.824 108.336 118.923 101.108 120.79H101.007H100.906C96.6263 120.487 93.5584 119.198 91.7782 116.936C89.998 114.674 89.5813 111.819 90.2 108.091C89.2072 98.2432 86.8796 88.5765 83.2813 79.3571C76.9085 65.047 71.7434 50.2281 67.8403 35.0558C65.6182 18.6292 71.9941 8.78583 78.7487 -1.66403C82.9909 -8.22204 87.3845 -15.0201 89.9727 -23.8652L91.2353 -23.5114C88.5839 -14.4894 84.1524 -7.61552 79.8724 -0.969054C73.244 9.27863 66.9944 18.9577 69.1407 34.8157C73.0252 49.902 78.1649 64.6363 84.5059 78.8643C88.1644 88.2289 90.5303 98.0489 91.5383 108.053V108.154C90.9575 111.604 91.3994 114.283 92.8008 116.127C94.2023 117.972 97.0682 119.211 100.932 119.501C108.539 117.594 116.584 118.622 123.468 122.382L123.721 122.521V122.799C127.205 138.645 120.211 149.423 102.964 154.844C84.4554 160.808 70.5295 172.445 61.6286 189.428Z" fill="url(#paint36_linear_28_768)"/>
<path d="M56.2253 186.712L55.1143 186.131C64.2172 168.794 78.4966 157.068 97.5736 151.357C114.34 146.302 120.956 136.396 117.774 121.144C110.364 118.177 102.112 118.096 94.6445 120.917H94.4551C89.8847 121.069 86.6274 120.058 84.7462 117.897C82.865 115.736 82.4357 112.843 83.0922 108.951C81.9789 99.0197 79.8941 89.222 76.8679 79.6987C71.4711 64.8007 67.0305 49.573 63.5733 34.1085C61.7047 18.1115 67.4493 8.49563 73.5221 -1.67624C77.3098 -8.08262 81.2868 -14.6912 83.7235 -23.3594L84.9861 -23.0182C82.461 -14.1731 78.4966 -7.50137 74.6458 -1.03181C68.674 8.95051 63.043 18.3895 64.8611 33.9063C68.3107 49.2998 72.7301 64.4594 78.0926 79.2944C81.1577 88.933 83.272 98.8489 84.4053 108.9V109.077C83.7866 112.653 84.2412 115.395 85.7436 117.063C87.246 118.731 90.2509 119.78 94.3668 119.59C102.208 116.655 110.869 116.799 118.608 119.994L118.923 120.121L118.999 120.449C122.458 136.421 115.401 147.187 97.9903 152.456C79.191 158.205 65.1641 169.691 56.2253 186.712Z" fill="url(#paint37_linear_28_768)"/>
<path d="M50.2028 186.421L49.0918 185.839C58.1442 168.579 72.3479 156.941 91.2987 151.255C107.888 146.201 114.555 136.244 111.638 121.005C104.072 118.092 95.6956 118.092 88.1297 121.005H87.9403C83.3573 121.194 80.0746 120.209 78.1556 118.061C76.2365 115.912 75.7567 113.006 76.3627 109.102C75.0282 99.1954 72.9818 89.3983 70.2394 79.7865C65.5175 64.8257 61.4016 49.4605 58.119 34.1079C56.3388 18.1993 61.9066 8.24228 67.7648 -2.30866C71.2747 -8.62659 74.8982 -15.0709 77.3097 -23.2842L78.5722 -22.9177C76.0471 -14.5781 72.4615 -8.0327 68.9264 -1.6895C63.1439 8.6719 57.6897 18.4521 59.4068 33.9057C62.7147 49.1446 66.78 64.4845 71.502 79.3948C74.2673 89.1023 76.3306 98.9965 77.6758 109.001V109.178C77.1077 112.766 77.6001 115.495 79.1404 117.189C80.6807 118.882 83.6981 119.88 87.8393 119.716C95.7872 116.693 104.581 116.774 112.472 119.943L112.787 120.07L112.863 120.398C116.045 136.37 108.936 147.148 91.7153 152.443C73.0423 158.053 59.0911 169.488 50.2028 186.421Z" fill="url(#paint38_linear_28_768)"/>
<path d="M45.2037 187.507L44.0801 186.926C48.1338 178.798 53.8109 171.589 60.7601 165.744C67.7094 159.9 75.783 155.545 84.4815 152.948C100.352 147.704 106.753 137.937 104.051 123.077C96.889 119.604 88.7264 118.793 81.0221 120.79H80.9338H80.9085C76.477 120.638 73.3332 119.413 71.3763 117.164C69.4193 114.914 68.9522 112.109 69.4572 108.205C67.9295 98.551 66.0357 88.8087 63.8515 79.2687C59.9629 64.6363 56.5288 49.6628 53.6502 34.7904C52.0972 19.2357 57.0843 8.25512 62.3491 -3.50886C65.4909 -10.0785 68.1124 -16.8849 70.1895 -23.8652L71.452 -23.5241C69.3681 -16.4799 66.7252 -9.61364 63.5485 -2.99079C58.3468 8.54575 53.4482 19.4505 54.9506 34.6009C57.8166 49.3975 61.2633 64.3457 65.1267 78.9654C67.3361 88.5813 69.23 98.3867 70.7703 108.104V108.281C70.3031 111.793 70.846 114.51 72.3863 116.342C73.9266 118.174 76.9062 119.375 80.9085 119.527C88.9496 117.475 97.4588 118.371 104.897 122.054L105.187 122.193V122.509C108.142 138.051 101.299 148.69 84.835 154.098C76.2954 156.654 68.3713 160.938 61.5541 166.685C54.7368 172.432 49.1717 179.519 45.2037 187.507V187.507Z" fill="url(#paint39_linear_28_768)"/>
<path d="M41.3531 189.542L40.2168 188.999C43.7687 181.21 48.9128 174.253 55.3172 168.577C61.7215 162.901 69.2439 158.632 77.3987 156.045C92.2841 150.535 98.1676 140.882 95.39 126.527C88.8306 122.173 80.9827 120.189 73.144 120.904H72.9798C64.7859 119.489 61.0866 114.839 61.9831 107.119C54.332 91.4376 52.0973 61.1873 50.6202 41.1469C50.4939 39.3147 50.355 37.5709 50.2288 35.9409C49.0672 20.7779 52.8801 8.142 56.9076 -5.25202C58.7888 -11.5068 60.6953 -17.9637 62.1724 -24.7744L63.435 -24.5217C61.9831 -17.6604 60.0387 -11.1656 58.1449 -4.88557C54.1427 8.40735 50.3677 20.9548 51.5166 35.8398C51.6428 37.4698 51.7691 39.2136 51.908 41.0584C53.3978 61.0736 55.6325 91.3112 63.2709 106.765L63.3466 106.929V107.119C62.4628 114.245 65.6949 118.352 73.2071 119.755C81.3901 119.027 89.5741 121.138 96.3874 125.731L96.6147 125.87V126.123C99.6195 141.122 93.3068 151.622 77.8659 157.359C69.8704 159.872 62.4901 164.034 56.2011 169.577C49.912 175.121 44.8539 181.922 41.3531 189.542V189.542Z" fill="url(#paint40_linear_28_768)"/>
<path d="M38.4232 192.322L37.249 191.842C40.1029 184.491 44.5292 177.855 50.2173 172.398C55.9054 166.941 62.7177 162.795 70.1762 160.252C83.799 154.339 88.9755 144.773 85.9454 131.038C80.0525 125.592 72.6049 122.128 64.6462 121.131H64.52C56.8563 118.377 53.397 113.12 54.2302 105.514C48.675 91.4498 48.372 69.4887 48.1195 51.8238C48.0438 46.6431 47.9807 41.7151 47.7913 37.4189C47.0843 21.4472 49.2937 5.57654 51.4274 -9.7634C52.1723 -15.1084 52.9425 -20.6302 53.5864 -26.1016L54.8489 -25.9499C54.205 -20.4786 53.4348 -14.9441 52.6899 -9.52331C50.6067 5.67763 48.3468 21.4977 49.0538 37.3936C49.2432 41.7277 49.3063 46.6304 49.3821 51.8364C49.6346 69.4508 49.9376 91.374 55.4549 105.223V105.375V105.526C54.6343 112.64 57.7022 117.353 64.8482 119.944C73.1047 120.987 80.8225 124.608 86.9049 130.292L87.0564 130.431V130.621C90.2885 144.937 84.7333 155.324 70.5676 161.478C63.2886 163.966 56.6405 168.016 51.0883 173.343C45.536 178.671 41.2136 185.148 38.4232 192.322V192.322Z" fill="url(#paint41_linear_28_768)"/>
<path d="M36.1766 195.632L34.9141 195.278C36.6237 188.803 39.8574 182.832 44.3448 177.864C48.8323 172.895 54.443 169.075 60.7078 166.721C72.2222 161.275 77.7396 152.114 77.1209 139.541C75.4039 131.442 69.1164 127.499 62.4628 123.317C55.5314 118.97 48.3602 114.472 45.7972 104.831C42.0853 90.9311 43.4362 73.4684 44.7493 56.5869C45.3805 48.5631 46.0118 40.9816 46.0118 34.1582C46.0118 24.5044 45.6583 14.7242 45.3174 5.27263C44.926 -5.5184 44.522 -16.6759 44.6483 -27.6943H45.9108C45.7846 -16.7011 46.1886 -5.55631 46.58 5.1589C46.9208 14.6358 47.2744 24.4159 47.2744 34.095C47.2744 40.9689 46.6683 48.5757 46.0118 56.6248C44.7493 73.3925 43.3605 90.7416 47.0092 104.439C49.4459 113.587 56.4152 117.959 63.1319 122.129C69.8487 126.299 76.5402 130.545 78.3708 139.263C79.0779 152.506 73.3207 162.008 61.2634 167.77C55.158 170.064 49.6925 173.792 45.3269 178.641C40.9612 183.489 37.8231 189.316 36.1766 195.632Z" fill="url(#paint42_linear_28_768)"/>
<path d="M34.3573 199.31L33.0947 199.082C35.3673 186.585 42.286 177.526 53.6742 172.181C63.5473 166.318 67.9031 157.46 66.5395 145.898C65.0497 136.8 58.9643 131.253 52.5632 125.39C45.9096 119.299 39.0287 113.007 37.4126 102.367C35.4431 89.7316 38.2333 76.2617 40.9478 63.1963C42.8037 54.2248 44.7354 44.9501 45.0005 36.244C45.4045 22.989 42.6396 10.0246 39.9503 -2.51022C37.8753 -11.4009 36.3155 -20.4042 35.2789 -29.4751L36.5415 -29.5889C37.5678 -20.5683 39.1191 -11.6153 41.1876 -2.77557C43.8768 9.86029 46.6544 22.8752 46.2378 36.2819C45.96 45.127 44.0284 54.427 42.1598 63.4616C39.4706 76.4007 36.693 89.7695 38.6373 102.153C40.2281 112.362 46.9448 118.503 53.4469 124.442C59.7597 130.204 66.2491 136.156 67.8147 145.708C69.2414 157.852 64.6836 167.114 54.2928 173.28C49.0458 175.583 44.4663 179.178 40.9807 183.729C37.495 188.28 35.2166 193.64 34.3573 199.31V199.31Z" fill="url(#paint43_linear_28_768)"/>
<path d="M32.6913 203.302L31.4919 202.911C33.8655 195.493 38.7894 189.163 43.5618 183.047C50.872 173.646 57.7781 164.763 55.8464 152.506C54.3061 142.688 48.41 135.296 42.7033 128.144C36.2643 120.07 29.6107 111.718 28.929 99.8019C28.2472 87.8863 32.5146 76.7541 36.6305 65.9757C40.0267 57.1306 43.5366 47.9191 44.2057 38.4295C45.2789 23.7719 39.7616 9.36706 34.421 -4.4692C31.0626 -13.2259 27.578 -22.2858 25.7979 -31.3078L27.0604 -31.5479C28.8153 -22.7028 32.2747 -13.6302 35.6204 -4.9241C41.0115 9.08907 46.5793 23.5824 45.4809 38.5306C44.7739 48.1971 41.2388 57.4844 37.8046 66.4306C33.7392 77.0826 29.5224 88.1137 30.2294 99.7261C30.9364 111.338 37.4259 119.438 43.7386 127.348C49.5463 134.626 55.556 142.157 57.1468 152.304C59.1669 165.117 51.7684 174.619 44.6098 183.818C39.85 189.858 35.0018 196.1 32.6913 203.302Z" fill="url(#paint44_linear_28_768)"/>
<path d="M31.0373 207.081L29.7747 206.866C31.1004 199.487 34.4335 193.283 37.6404 187.293C41.7184 179.712 45.5692 172.535 45.506 163.285C45.4303 151.369 39.3574 141.21 33.4866 131.38C27.3128 121.056 20.9243 110.379 21.3283 97.5407C21.6818 86.0168 26.9719 76.5525 32.0726 67.3915C36.138 60.0754 40.3548 52.5318 42.0467 43.9646C45.3924 27.2853 36.7187 10.467 28.3733 -5.7701C23.7271 -14.8047 18.9168 -24.1426 16.417 -33.152L17.6795 -33.4932C20.1289 -24.6481 24.6993 -15.7398 29.5348 -6.33871C37.9939 10.0879 46.7559 27.0705 43.3471 44.2047C41.6048 52.9614 37.3374 60.6314 33.2467 67.9854C27.9819 77.4371 23.0201 86.358 22.6666 97.566C22.2752 110.025 28.5627 120.551 34.6481 130.722C40.6074 140.692 46.7686 151.003 46.8443 163.26C46.9075 172.825 42.8042 180.47 38.8272 187.874C35.595 193.801 32.3251 199.904 31.0373 207.081Z" fill="url(#paint45_linear_28_768)"/>
<path d="M27.8811 210.656C27.3256 202.974 29.434 196.175 31.4667 189.605C33.3984 183.363 35.3932 176.969 35.1155 169.703C34.6483 157.649 29.2573 146.34 24.043 135.397C18.0206 122.761 11.7963 109.708 13.2482 95.5182C14.4476 83.8174 21.076 75.5914 27.4897 67.6308C32.7419 61.1107 38.1835 54.3758 40.6076 45.7329C45.3169 28.9651 33.4994 10.3525 22.086 -7.74204C15.9879 -17.3832 10.2181 -26.481 7.27637 -34.8965L8.46316 -35.3135C11.367 -27.037 17.0863 -17.9897 23.1466 -8.41174C34.7241 9.87235 46.6804 28.7756 41.8196 46.0741C39.2945 54.9192 33.8024 61.8057 28.4745 68.4269C21.884 76.6023 15.6597 84.3228 14.4981 95.6446C13.0841 109.544 18.9675 121.813 25.1919 134.816C30.4567 145.872 35.9109 157.295 36.378 169.615C36.6558 177.045 34.6357 183.603 32.6661 189.933C30.5829 196.706 28.6008 203.087 29.1437 210.53L27.8811 210.656Z" fill="url(#paint46_linear_28_768)"/>
<path d="M25.3563 213.879C24.7881 207.07 24.6785 200.232 25.0281 193.409C25.4624 185.751 25.2428 178.07 24.3716 170.449C22.9954 160.846 18.9426 150.598 14.65 139.744C8.33724 123.886 1.88563 107.497 4.17084 92.8019C6.02678 80.8105 14.3722 73.9365 22.4399 67.2901C28.2728 62.4885 34.3078 57.5226 37.8303 50.6487C46.3651 34.0199 29.8005 10.8583 15.256 -9.51067C8.0721 -19.4677 1.368 -28.8309 -1.66211 -36.4377L-0.487952 -36.8926C2.4664 -29.4374 9.14526 -20.1122 16.2155 -10.2435C31.0378 10.454 47.8422 33.982 38.9413 51.2299C35.2926 58.3313 29.1692 63.373 23.2353 68.263C14.9782 75.0611 7.18832 81.4802 5.39551 92.9914C3.17343 107.358 9.59978 123.583 15.8115 139.277C20.1294 150.207 24.22 160.517 25.6088 170.272C26.4896 177.964 26.7135 185.717 26.278 193.447C25.928 200.211 26.0377 206.991 26.6063 213.74L25.3563 213.879Z" fill="url(#paint47_linear_28_768)"/>
<path d="M22.1106 216.432C21.3656 208.37 19.7875 200.195 18.2598 192.297C17.1488 186.548 15.9872 180.609 15.1666 174.733C13.904 165.421 10.1164 154.807 6.32874 143.561C0.0160199 125.327 -6.57445 106.474 -3.50647 91.1218C-0.981382 78.6376 8.38669 72.724 17.477 67C24.0422 62.8681 30.8221 58.6098 34.9885 51.8369C43.2203 38.5946 34.5971 27.2602 26.2643 16.2923C25.0902 14.7381 23.916 13.2091 22.8176 11.6802C19.5224 7.14393 16.3534 3.03727 13.2854 -0.955661C4.37181 -12.4796 -3.32972 -22.4366 -9.9707 -37.7386L-8.80915 -38.2314C-2.2313 -23.0684 5.41971 -13.1872 14.2828 -1.72645C17.3508 2.25385 20.5324 6.37314 23.8403 10.9094C24.9387 12.4131 26.1002 13.942 27.2744 15.4836C35.4683 26.262 44.748 38.4808 36.1122 52.4687C31.7943 59.4311 24.8882 63.7778 18.2093 67.9729C8.92959 73.8107 0.167539 79.3452 -2.21867 91.2861C-5.2109 106.298 1.27858 124.986 7.56605 143.093C11.4926 154.402 15.1413 165.067 16.5175 174.506C17.3381 180.344 18.4871 186.282 19.5981 192.007C21.2938 200.023 22.5832 208.12 23.4615 216.267L22.1106 216.432Z" fill="url(#paint48_linear_28_768)"/>
<path d="M17.8695 218.149C17.4781 210.656 14.9782 203.871 12.3269 196.668C10.1174 190.654 7.81961 184.424 6.86008 177.715C5.59753 168.693 2.20129 158.015 -1.38434 146.706C-7.69706 126.615 -14.3128 105.854 -10.8156 89.9837C-7.93696 76.9688 2.20128 71.8513 11.9986 66.898C19.132 63.2968 26.5053 59.5819 31.1136 52.8343C40.0524 39.693 30.3434 27.7016 21.7707 17.138C20.3819 15.4322 19.0815 13.8148 17.8568 12.21C14.1702 7.38313 10.6224 3.06167 7.20095 -1.1208C-2.35651 -12.7584 -10.6009 -22.8039 -17.7217 -38.5229L-16.5728 -39.041C-9.52776 -23.4863 -1.32122 -13.4913 8.17312 -1.91686C11.6072 2.26561 15.1676 6.59971 18.8543 11.4392C20.1168 13.0314 21.3793 14.6361 22.7429 16.342C31.5807 27.2593 41.6811 39.6298 32.1488 53.5419C27.3638 60.5675 19.8517 64.3582 12.5794 68.0226C2.59268 73.077 -6.83854 77.8154 -9.57826 90.2617C-13.0124 105.791 -6.48502 126.388 -0.184924 146.314C3.41333 157.687 6.80956 168.415 8.10998 177.538C9.04427 184.121 11.3168 190.287 13.5137 196.251C16.0388 203.201 18.728 210.391 19.132 218.073L17.8695 218.149Z" fill="url(#paint49_linear_28_768)"/>
<path d="M13.6645 218.832H12.402C12.402 213.689 10.7228 210.682 8.9047 207.459C7.94694 205.835 7.10321 204.146 6.37961 202.405C3.08437 194.091 1.2663 189.516 -0.311881 179.168C-1.65018 170.424 -4.76867 159.974 -8.07653 148.905C-14.1115 128.687 -20.9419 105.943 -17.4699 89.5163C-14.566 75.8949 -4.03639 71.308 6.15234 66.8729C13.614 63.6254 21.3029 60.2769 26.1511 53.3904C35.355 40.2744 25.2294 28.1187 16.2906 17.3403C14.8892 15.6471 13.5509 14.055 12.3262 12.4755C8.37442 7.42114 4.56154 2.93541 0.887532 -1.42396C-8.92244 -12.9479 -17.3815 -22.9049 -24.5527 -38.9145L-23.4038 -39.4326C-16.3083 -23.5873 -7.89977 -13.6934 1.84708 -2.24529C5.53371 2.10144 9.34659 6.59981 13.3236 11.6542C14.5861 13.2084 15.8487 14.8005 17.2627 16.481C26.0248 27.032 36.9332 40.1607 27.1863 54.0601C22.1362 61.2373 14.2831 64.6742 6.65737 67.9595C-3.6955 72.4705 -13.4676 76.7162 -16.2326 89.7058C-19.6414 105.741 -12.8489 128.422 -6.86448 148.437C-3.54399 159.544 -0.412878 170.032 0.938045 178.864C2.5036 189.074 4.18277 193.333 7.55377 201.824C8.27514 203.53 9.11905 205.181 10.0789 206.764C11.9095 210.189 13.7024 213.348 13.6645 218.832Z" fill="url(#paint50_linear_28_768)"/>
</g>
<defs>
<linearGradient id="paint0_linear_28_768" x1="286.422" y1="-45.3076" x2="286.422" y2="210" gradientUnits="userSpaceOnUse">
<stop stop-color="#34C796"/>
<stop offset="1" stop-color="#0B7A55"/>
</linearGradient>
<linearGradient id="paint1_linear_28_768" x1="280.623" y1="-45.4092" x2="280.623" y2="211.111" gradientUnits="userSpaceOnUse">
<stop stop-color="#34C796"/>
<stop offset="1" stop-color="#0B7A55"/>
</linearGradient>
<linearGradient id="paint2_linear_28_768" x1="276.208" y1="-45.4727" x2="276.208" y2="213.79" gradientUnits="userSpaceOnUse">
<stop stop-color="#34C796"/>
<stop offset="1" stop-color="#0B7A55"/>
</linearGradient>
<linearGradient id="paint3_linear_28_768" x1="272.737" y1="-45.7871" x2="272.737" y2="217.595" gradientUnits="userSpaceOnUse">
<stop stop-color="#34C796"/>
<stop offset="1" stop-color="#0B7A55"/>
</linearGradient>
<linearGradient id="paint4_linear_28_768" x1="267.547" y1="-46.0029" x2="267.547" y2="222.471" gradientUnits="userSpaceOnUse">
<stop stop-color="#34C796"/>
<stop offset="1" stop-color="#0B7A55"/>
</linearGradient>
<linearGradient id="paint5_linear_28_768" x1="260.361" y1="-46.4336" x2="260.361" y2="228.03" gradientUnits="userSpaceOnUse">
<stop stop-color="#34C796"/>
<stop offset="1" stop-color="#0B7A55"/>
</linearGradient>
<linearGradient id="paint6_linear_28_768" x1="254.665" y1="-46.8242" x2="254.665" y2="234.008" gradientUnits="userSpaceOnUse">
<stop stop-color="#34C796"/>
<stop offset="1" stop-color="#0B7A55"/>
</linearGradient>
<linearGradient id="paint7_linear_28_768" x1="247.709" y1="-47.1396" x2="247.709" y2="240.073" gradientUnits="userSpaceOnUse">
<stop stop-color="#34C796"/>
<stop offset="1" stop-color="#0B7A55"/>
</linearGradient>
<linearGradient id="paint8_linear_28_768" x1="240.856" y1="-47.5703" x2="240.856" y2="246.062" gradientUnits="userSpaceOnUse">
<stop stop-color="#34C796"/>
<stop offset="1" stop-color="#0B7A55"/>
</linearGradient>
<linearGradient id="paint9_linear_28_768" x1="232.28" y1="-47.7725" x2="232.28" y2="251.356" gradientUnits="userSpaceOnUse">
<stop stop-color="#34C796"/>
<stop offset="1" stop-color="#0B7A55"/>
</linearGradient>
<linearGradient id="paint10_linear_28_768" x1="223.799" y1="-48.1006" x2="223.799" y2="255.779" gradientUnits="userSpaceOnUse">
<stop stop-color="#34C796"/>
<stop offset="1" stop-color="#0B7A55"/>
</linearGradient>
<linearGradient id="paint11_linear_28_768" x1="217.026" y1="-48.291" x2="217.026" y2="258.975" gradientUnits="userSpaceOnUse">
<stop stop-color="#34C796"/>
<stop offset="1" stop-color="#0B7A55"/>
</linearGradient>
<linearGradient id="paint12_linear_28_768" x1="210.463" y1="-48.4922" x2="210.463" y2="260.669" gradientUnits="userSpaceOnUse">
<stop stop-color="#34C796"/>
<stop offset="1" stop-color="#0B7A55"/>
</linearGradient>
<linearGradient id="paint13_linear_28_768" x1="204.075" y1="-48.3535" x2="204.075" y2="260.871" gradientUnits="userSpaceOnUse">
<stop stop-color="#34C796"/>
<stop offset="1" stop-color="#0B7A55"/>
</linearGradient>
<linearGradient id="paint14_linear_28_768" x1="197.919" y1="-47.9375" x2="197.919" y2="260.87" gradientUnits="userSpaceOnUse">
<stop stop-color="#34C796"/>
<stop offset="1" stop-color="#0B7A55"/>
</linearGradient>
<linearGradient id="paint15_linear_28_768" x1="191.799" y1="-47.4316" x2="191.799" y2="260.845" gradientUnits="userSpaceOnUse">
<stop stop-color="#34C796"/>
<stop offset="1" stop-color="#0B7A55"/>
</linearGradient>
<linearGradient id="paint16_linear_28_768" x1="185.856" y1="-46.6855" x2="185.856" y2="260.795" gradientUnits="userSpaceOnUse">
<stop stop-color="#34C796"/>
<stop offset="1" stop-color="#0B7A55"/>
</linearGradient>
<linearGradient id="paint17_linear_28_768" x1="179.993" y1="-45.6484" x2="179.993" y2="260.733" gradientUnits="userSpaceOnUse">
<stop stop-color="#34C796"/>
<stop offset="1" stop-color="#0B7A55"/>
</linearGradient>
<linearGradient id="paint18_linear_28_768" x1="175.725" y1="-44.6641" x2="175.725" y2="260.656" gradientUnits="userSpaceOnUse">
<stop stop-color="#34C796"/>
<stop offset="1" stop-color="#0B7A55"/>
</linearGradient>
<linearGradient id="paint19_linear_28_768" x1="169.95" y1="-43.6016" x2="169.95" y2="260.569" gradientUnits="userSpaceOnUse">
<stop stop-color="#34C796"/>
<stop offset="1" stop-color="#0B7A55"/>
</linearGradient>
<linearGradient id="paint20_linear_28_768" x1="164.126" y1="-42.5283" x2="164.126" y2="260.656" gradientUnits="userSpaceOnUse">
<stop stop-color="#34C796"/>
<stop offset="1" stop-color="#0B7A55"/>
</linearGradient>
<linearGradient id="paint21_linear_28_768" x1="158.166" y1="-41.5557" x2="158.166" y2="260.719" gradientUnits="userSpaceOnUse">
<stop stop-color="#34C796"/>
<stop offset="1" stop-color="#0B7A55"/>
</linearGradient>
<linearGradient id="paint22_linear_28_768" x1="152.22" y1="-40.7217" x2="152.22" y2="260.77" gradientUnits="userSpaceOnUse">
<stop stop-color="#34C796"/>
<stop offset="1" stop-color="#0B7A55"/>
</linearGradient>
<linearGradient id="paint23_linear_28_768" x1="146.244" y1="-40.001" x2="146.244" y2="260.808" gradientUnits="userSpaceOnUse">
<stop stop-color="#34C796"/>
<stop offset="1" stop-color="#0B7A55"/>
</linearGradient>
<linearGradient id="paint24_linear_28_768" x1="140.065" y1="-39.585" x2="140.065" y2="260.82" gradientUnits="userSpaceOnUse">
<stop stop-color="#34C796"/>
<stop offset="1" stop-color="#0B7A55"/>
</linearGradient>
<linearGradient id="paint25_linear_28_768" x1="133.769" y1="-39.4082" x2="133.769" y2="260.807" gradientUnits="userSpaceOnUse">
<stop stop-color="#34C796"/>
<stop offset="1" stop-color="#0B7A55"/>
</linearGradient>
<linearGradient id="paint26_linear_28_768" x1="127.684" y1="-39.1797" x2="127.684" y2="259.456" gradientUnits="userSpaceOnUse">
<stop stop-color="#34C796"/>
<stop offset="1" stop-color="#0B7A55"/>
</linearGradient>
<linearGradient id="paint27_linear_28_768" x1="122.47" y1="-38.3457" x2="122.47" y2="255.729" gradientUnits="userSpaceOnUse">
<stop stop-color="#34C796"/>
<stop offset="1" stop-color="#0B7A55"/>
</linearGradient>
<linearGradient id="paint28_linear_28_768" x1="117.799" y1="-37.1709" x2="117.799" y2="250.067" gradientUnits="userSpaceOnUse">
<stop stop-color="#34C796"/>
<stop offset="1" stop-color="#0B7A55"/>
</linearGradient>
<linearGradient id="paint29_linear_28_768" x1="113.045" y1="-35.5283" x2="113.045" y2="242.928" gradientUnits="userSpaceOnUse">
<stop stop-color="#34C796"/>
<stop offset="1" stop-color="#0B7A55"/>
</linearGradient>
<linearGradient id="paint30_linear_28_768" x1="108.624" y1="-33.7715" x2="108.624" y2="234.766" gradientUnits="userSpaceOnUse">
<stop stop-color="#34C796"/>
<stop offset="1" stop-color="#0B7A55"/>
</linearGradient>
<linearGradient id="paint31_linear_28_768" x1="106.708" y1="-31.8135" x2="106.708" y2="226.034" gradientUnits="userSpaceOnUse">
<stop stop-color="#34C796"/>
<stop offset="1" stop-color="#0B7A55"/>
</linearGradient>
<linearGradient id="paint32_linear_28_768" x1="105.358" y1="-29.9424" x2="105.358" y2="217.164" gradientUnits="userSpaceOnUse">
<stop stop-color="#34C796"/>
<stop offset="1" stop-color="#0B7A55"/>
</linearGradient>
<linearGradient id="paint33_linear_28_768" x1="104.146" y1="-28.085" x2="104.146" y2="208.635" gradientUnits="userSpaceOnUse">
<stop stop-color="#34C796"/>
<stop offset="1" stop-color="#0B7A55"/>
</linearGradient>
<linearGradient id="paint34_linear_28_768" x1="100.749" y1="-26.4053" x2="100.749" y2="200.787" gradientUnits="userSpaceOnUse">
<stop stop-color="#34C796"/>
<stop offset="1" stop-color="#0B7A55"/>
</linearGradient>
<linearGradient id="paint35_linear_28_768" x1="97.1255" y1="-24.9648" x2="97.1255" y2="194.267" gradientUnits="userSpaceOnUse">
<stop stop-color="#34C796"/>
<stop offset="1" stop-color="#0B7A55"/>
</linearGradient>
<linearGradient id="paint36_linear_28_768" x1="92.5541" y1="-23.8652" x2="92.5541" y2="189.428" gradientUnits="userSpaceOnUse">
<stop stop-color="#34C796"/>
<stop offset="1" stop-color="#0B7A55"/>
</linearGradient>
<linearGradient id="paint37_linear_28_768" x1="87.4837" y1="-23.3594" x2="87.4837" y2="186.712" gradientUnits="userSpaceOnUse">
<stop stop-color="#34C796"/>
<stop offset="1" stop-color="#0B7A55"/>
</linearGradient>
<linearGradient id="paint38_linear_28_768" x1="81.3466" y1="-23.2842" x2="81.3466" y2="186.421" gradientUnits="userSpaceOnUse">
<stop stop-color="#34C796"/>
<stop offset="1" stop-color="#0B7A55"/>
</linearGradient>
<linearGradient id="paint39_linear_28_768" x1="74.968" y1="-23.8652" x2="74.968" y2="187.507" gradientUnits="userSpaceOnUse">
<stop stop-color="#34C796"/>
<stop offset="1" stop-color="#0B7A55"/>
</linearGradient>
<linearGradient id="paint40_linear_28_768" x1="68.7795" y1="-24.7744" x2="68.7795" y2="189.542" gradientUnits="userSpaceOnUse">
<stop stop-color="#34C796"/>
<stop offset="1" stop-color="#0B7A55"/>
</linearGradient>
<linearGradient id="paint41_linear_28_768" x1="62.5991" y1="-26.1016" x2="62.5991" y2="192.322" gradientUnits="userSpaceOnUse">
<stop stop-color="#34C796"/>
<stop offset="1" stop-color="#0B7A55"/>
</linearGradient>
<linearGradient id="paint42_linear_28_768" x1="56.6715" y1="-27.6943" x2="56.6715" y2="195.632" gradientUnits="userSpaceOnUse">
<stop stop-color="#34C796"/>
<stop offset="1" stop-color="#0B7A55"/>
</linearGradient>
<linearGradient id="paint43_linear_28_768" x1="50.5824" y1="-29.5889" x2="50.5824" y2="199.31" gradientUnits="userSpaceOnUse">
<stop stop-color="#34C796"/>
<stop offset="1" stop-color="#0B7A55"/>
</linearGradient>
<linearGradient id="paint44_linear_28_768" x1="41.6413" y1="-31.5479" x2="41.6413" y2="203.302" gradientUnits="userSpaceOnUse">
<stop stop-color="#34C796"/>
<stop offset="1" stop-color="#0B7A55"/>
</linearGradient>
<linearGradient id="paint45_linear_28_768" x1="31.631" y1="-33.4932" x2="31.631" y2="207.081" gradientUnits="userSpaceOnUse">
<stop stop-color="#34C796"/>
<stop offset="1" stop-color="#0B7A55"/>
</linearGradient>
<linearGradient id="paint46_linear_28_768" x1="25.1042" y1="-35.3135" x2="25.1042" y2="210.656" gradientUnits="userSpaceOnUse">
<stop stop-color="#34C796"/>
<stop offset="1" stop-color="#0B7A55"/>
</linearGradient>
<linearGradient id="paint47_linear_28_768" x1="19.8797" y1="-36.8926" x2="19.8797" y2="213.879" gradientUnits="userSpaceOnUse">
<stop stop-color="#34C796"/>
<stop offset="1" stop-color="#0B7A55"/>
</linearGradient>
<linearGradient id="paint48_linear_28_768" x1="14.7997" y1="-38.2314" x2="14.7997" y2="216.432" gradientUnits="userSpaceOnUse">
<stop stop-color="#34C796"/>
<stop offset="1" stop-color="#0B7A55"/>
</linearGradient>
<linearGradient id="paint49_linear_28_768" x1="9.13851" y1="-39.041" x2="9.13851" y2="218.149" gradientUnits="userSpaceOnUse">
<stop stop-color="#34C796"/>
<stop offset="1" stop-color="#0B7A55"/>
</linearGradient>
<linearGradient id="paint50_linear_28_768" x1="3.23172" y1="-39.4326" x2="3.23172" y2="218.832" gradientUnits="userSpaceOnUse">
<stop stop-color="#34C796"/>
<stop offset="1" stop-color="#0B7A55"/>
</linearGradient>
</defs>
</svg>
