<svg fill="none" height="18" viewBox="0 0 19 18" width="19" xmlns="http://www.w3.org/2000/svg" xmlns:xlink="http://www.w3.org/1999/xlink"><clipPath id="a"><path d="m.780273 0h18v18h-18z"/></clipPath><g clip-path="url(#a)"><path d="m2.28027 8v-1.5m0 0v-2c0-1.1.9-2 2-2h11.00003c.5304 0 1.0391.21071 1.4142.58579.3751.37507.5858.88378.5858 1.41421v2m-15.00003 0h15.00003m-7.50003 9h5.50003c.5304 0 1.0391-.2107 1.4142-.5858s.5858-.8838.5858-1.4142v-7" stroke="#77787e"/><path d="m5.78027 1h1v3h-1zm7.00003 0h1v3h-1z" fill="#77787e"/><path d="m.780273 12.5h7.499997m0 0-3.5 3.5m3.5-3.5-3.5-3.5" stroke="#77787e"/></g></svg>