<svg fill="none" height="28" viewBox="0 0 28 28" width="28" xmlns="http://www.w3.org/2000/svg"><g clip-rule="evenodd" fill="#77787e" fill-rule="evenodd"><path d="m11.118 6c-.0928 0-.1837.02582-.2627.07456-.0789.04875-.1427.11849-.1843.20144l-.862 1.724h-4.309c-.39782 0-.77936.15804-1.06066.43934s-.43934.66284-.43934 1.06066v10c0 .3978.15804.7794.43934 1.0607s.66284.4393 1.06066.4393h16c.3978 0 .7794-.158 1.0607-.4393s.4393-.6629.4393-1.0607v-10c0-.39782-.158-.77936-.4393-1.06066s-.6629-.43934-1.0607-.43934h-4.309l-.862-1.724c-.0416-.08295-.1054-.15269-.1843-.20144-.079-.04874-.1699-.07456-.2627-.07456zm-1.342-.17c.12449-.24937.316-.45912.553-.60572.2371-.14661.5103-.22427.789-.22428h4.764c.2787.00001.5519.07767.789.22428.237.1466.4285.35635.553.60572l.585 1.17h3.691c.3283 0 .6534.06466.9567.1903s.5789.30979.8111.54193c.2321.23215.4163.50775.5419.81106.1256.30332.1903.62841.1903.95671v10c0 .3283-.0647.6534-.1903.9567s-.3098.5789-.5419.8111c-.2322.2321-.5078.4163-.8111.5419s-.6284.1903-.9567.1903h-16c-.66304 0-1.29893-.2634-1.76777-.7322-.46884-.4689-.73223-1.1048-.73223-1.7678v-10c0-.66304.26339-1.29893.73223-1.76777s1.10473-.73223 1.76777-.73223h3.691z"/><path d="m13.5 18c.4596 0 .9148-.0905 1.3394-.2664s.8105-.4337 1.1355-.7587.5828-.7109.7587-1.1355.2664-.8798.2664-1.3394-.0905-.9148-.2664-1.3394-.4337-.8105-.7587-1.1355-.7109-.5828-1.1355-.7587-.8798-.2664-1.3394-.2664c-.9283 0-1.8185.3687-2.4749 1.0251s-1.0251 1.5466-1.0251 2.4749.3687 1.8185 1.0251 2.4749 1.5466 1.0251 2.4749 1.0251zm0 1c1.1935 0 2.3381-.4741 3.182-1.318s1.318-1.9885 1.318-3.182-.4741-2.3381-1.318-3.182-1.9885-1.318-3.182-1.318-2.3381.4741-3.182 1.318c-.84389.8439-1.318 1.9885-1.318 3.182s.47411 2.3381 1.318 3.182c.8439.8439 1.9885 1.318 3.182 1.318z"/></g></svg>