<svg fill="none" height="28" viewBox="0 0 29 28" width="29" xmlns="http://www.w3.org/2000/svg"><g fill="#77787e"><path d="m17.6299 11v6h3v-6zm-.5-1h4c.1326 0 .2598.0527.3535.1464.0938.0938.1465.221.1465.3536v7c0 .1326-.0527.2598-.1465.3536-.0937.0937-.2209.1464-.3535.1464h-4c-.1326 0-.2598-.0527-.3536-.1464-.0937-.0938-.1464-.221-.1464-.3536v-7c0-.1326.0527-.2598.1464-.3536.0938-.0937.221-.1464.3536-.1464z"/><path d="m18.6299 7h1v3.5h-1zm0 10.5h1v3.5h-1z"/><path d="m9.62988 8v12h3.00002v-12zm-.5-1h4.00002c.1326 0 .2598.05268.3535.14645.0938.09376.1465.22094.1465.35355v13c0 .1326-.0527.2598-.1465.3536-.0937.0937-.2209.1464-.3535.1464h-4.00002c-.13261 0-.25978-.0527-.35355-.1464-.09377-.0938-.14645-.221-.14645-.3536v-13c0-.13261.05268-.25979.14645-.35355.09377-.09377.22094-.14645.35355-.14645z"/><path d="m10.6299 4h1v3.5h-1zm0 16.5h1v3.5h-1z"/></g></svg>