<svg fill="none" height="12" viewBox="0 0 16 12" width="16" xmlns="http://www.w3.org/2000/svg" xmlns:xlink="http://www.w3.org/1999/xlink"><clipPath id="a"><path d="m.469727 0h15.25v12h-15.25z"/></clipPath><g clip-path="url(#a)"><path d="m12.9037 1.0509c-.9372-.444861-1.9406-.772089-2.98951-.9581599-.01861-.0042775-.03724.0064162-.04758.0235269-.12827.2374-.27309.547518-.37239.791336-1.12959-.175378-2.25298-.175378-3.35775 0-.09931-.248095-.24827-.553936-.3786-.791336-.01035-.0171107-.02896-.0256656-.04758-.0235269-1.04892.1860709-2.0523.5132989-2.9895.9581599-.00827.00428-.01448.01069-.02069.01711-1.903337 2.94077-2.424689 5.80883-2.170219 8.64267.002068.01284.008275.02781.018619.03635 1.2558.95387 2.47435 1.53357 3.66808 1.91637.01861.0063.03931-.0022.05171-.0171.28344-.4.53377-.8192.751-1.2619.01241-.0257 0-.0556-.02482-.0663-.39929-.1561-.77996-.34863-1.14615-.56464-.02896-.01711-.03103-.05989-.00414-.08128.07655-.05989.1531-.12191.22757-.18393.01242-.0107.03104-.01283.04758-.00641 2.40401 1.13566 5.00663 1.13566 7.38167 0 .0166-.00856.0352-.00642.0476.00641.0744.06202.151.12618.2276.18393.0269.02139.0248.06417-.0042.08128-.3662.22029-.7468.40854-1.1461.56464-.0269.0107-.0373.0406-.0248.0684.2213.4427.4717.8619.7489 1.2619.0124.0171.0331.0235.0517.0171 1.1999-.3829 2.4165-.9624 3.6743-1.91632.0103-.00856.0186-.02139.0186-.03422.3062-3.27656-.5131-6.1211-2.1723-8.64267-.002-.01284-.0103-.01925-.0186-.02139zm-7.52443 6.93596c-.72409 0-1.31992-.68654-1.31992-1.53135s.58548-1.53135 1.31992-1.53135c.74065 0 1.33235.69296 1.31993 1.53135 0 .84266-.58549 1.53135-1.31993 1.53135zm4.88043 0c-.72411 0-1.31994-.68654-1.31994-1.53135s.58549-1.53135 1.31994-1.53135c.7406 0 1.3323.69296 1.3199 1.53135 0 .84266-.5793 1.53135-1.3199 1.53135z" fill="#a9aab7"/></g></svg>