<svg fill="none" height="28" viewBox="0 0 28 28" width="28" xmlns="http://www.w3.org/2000/svg"><g clip-rule="evenodd" fill="#77787e" fill-rule="evenodd"><path d="m4.5 5.00056c-.39782 0-.77935.15804-1.06066.43934-.2813.28131-.43934.66284-.43934 1.06066 0 .39783.15804.77936.43934 1.06067.28131.2813.66284.43934 1.06066.43934.39783 0 .77936-.15804 1.06066-.43934.28131-.28131.43934-.66284.43934-1.06067 0-.39782-.15803-.77935-.43934-1.06066-.2813-.2813-.66283-.43934-1.06066-.43934zm-2.5 1.5c-.00062-.61997.22914-1.21806.64469-1.67816.41554-.4601.98723-.74938 1.60406-.81169.61684-.06231 1.23482.10681 1.73399.47451.49916.36771.84389.90777.96726 1.51534h17.05v1h-17.05c-.12337.60758-.4681 1.14764-.96726 1.51535-.49917.3677-1.11715.53682-1.73399.47451-.61683-.06231-1.18852-.35159-1.60406-.81169-.41555-.4601-.64531-1.05819-.64469-1.67817zm2.5 8.50004c-.39782 0-.77935.158-1.06066.4393-.2813.2813-.43934.6628-.43934 1.0607 0 .3978.15804.7793.43934 1.0606.28131.2813.66284.4394 1.06066.4394.39783 0 .77936-.1581 1.06066-.4394.28131-.2813.43934-.6628.43934-1.0606 0-.3979-.15803-.7794-.43934-1.0607-.2813-.2813-.66283-.4393-1.06066-.4393zm-2.5 1.5c-.00062-.62.22914-1.2181.64469-1.6782.41554-.4601.98723-.7494 1.60406-.8117.61684-.0623 1.23482.1068 1.73399.4745.49916.3677.84389.9078.96726 1.5154h13.1c.1239-.6071.4688-1.1464.9678-1.5136s1.1166-.536 1.733-.4738c.6164.0623 1.1877.3512 1.6032.8108s.6455 1.057.6455 1.6766c0 .6195-.23 1.217-.6455 1.6765-.4155.4596-.9868.7485-1.6032.8108s-1.234-.1065-1.733-.4737-.8439-.9066-.9678-1.5136h-13.1c-.12337.6075-.4681 1.1476-.96726 1.5153-.49917.3677-1.11715.5368-1.73399.4745-.61683-.0623-1.18852-.3516-1.60406-.8117-.41555-.4601-.64531-1.0582-.64469-1.6781zm20.5-1.5c-.3978 0-.7794.158-1.0607.4393s-.4393.6628-.4393 1.0607c0 .3978.158.7793.4393 1.0606s.6629.4394 1.0607.4394.7794-.1581 1.0607-.4394.4393-.6628.4393-1.0606c0-.3979-.158-.7794-.4393-1.0607s-.6629-.4393-1.0607-.4393zm-18 6c-.39782 0-.77935.158-1.06066.4393-.2813.2813-.43934.6628-.43934 1.0607 0 .3978.15804.7793.43934 1.0606.28131.2813.66284.4394 1.06066.4394.39783 0 .77936-.1581 1.06066-.4394.28131-.2813.43934-.6628.43934-1.0606 0-.3979-.15803-.7794-.43934-1.0607-.2813-.2813-.66283-.4393-1.06066-.4393zm-2.5 1.5c-.00062-.62.22914-1.2181.64469-1.6782.41554-.4601.98723-.7494 1.60406-.8117.61684-.0623 1.23482.1068 1.73399.4745.49916.3677.84389.9078.96726 1.5154h17.05v1h-17.05c-.12337.6075-.4681 1.1476-.96726 1.5153-.49917.3677-1.11715.5368-1.73399.4745-.61683-.0623-1.18852-.3516-1.60406-.8117-.41555-.4601-.64531-1.0582-.64469-1.6781z"/><path d="m22.3996 8.9393-1.39.63-.41-.91 1.39-.63zm-4 1.8-1.39.63-.41-.91 1.39-.63zm-4 1.8-1.4.63-.4-.91 1.39-.63zm-4 1.8-1.39999.63-.4-.91 1.39-.63z"/></g></svg>