<svg fill="none" height="28" viewBox="0 0 28 28" width="28" xmlns="http://www.w3.org/2000/svg"><path d="m2.50988 19.4804c-.28131.2813-.43934.6628-.43934 1.0606s.15803.7794.43934 1.0607l3.88909 3.8891c.2813.2813.66283.4393 1.06066.4393.39782 0 .77935-.158 1.06066-.4393l16.97061-16.9706c.2813-.28131.4393-.66284.4393-1.06066 0-.39783-.158-.77936-.4393-1.06066l-3.8891-3.88909c-.2813-.28131-.6629-.43934-1.0607-.43934s-.7793.15803-1.0607.43934zm.70711.7071 2.12132-2.1214 1.76776 1.7678.70711-.7071-1.76777-1.7678 2.2981-2.2981 2.75769 2.7578.7071-.7072-2.75768-2.7577 2.29808-2.2981 1.7678 1.7678.7071-.7071-1.7678-1.7678 2.2981-2.29807 2.7577 2.75767.7071-.7071-2.7577-2.75768 2.2981-2.2981 1.7678 1.76777.7071-.70711-1.7678-1.76777 2.1214-2.12132c.0937-.09376.2209-.14644.3535-.14644s.2598.05268.3536.14644l3.889 3.88909c.0938.09377.1465.22095.1465.35356 0 .1326-.0527.25978-.1465.35355l-16.97052 16.97061c-.09377.0937-.22094.1464-.35355.1464s-.25979-.0527-.35356-.1464l-3.88908-3.8891c-.09377-.0938-.14645-.221-.14645-.3536s.05268-.2598.14645-.3535z" fill="#77787e"/></svg>