<svg fill="none" height="28" viewBox="0 0 28 28" width="28" xmlns="http://www.w3.org/2000/svg"><g fill="#77787e"><path d="m1.78906 22.9996.859-.854.221-.228c.18-.19.38-.409.597-.655.619-.704 1.238-1.478 1.815-2.298.982-1.396 1.738-2.776 2.177-4.081 1.234-3.667 5.95704-4.716 8.92304-1.263 3.251 3.785-.037 9.38-5.379 9.38h-9.21104zm9.21104-1c4.544 0 7.272-4.642 4.621-7.728-2.45-2.853-6.22504-2.015-7.21604.931-.474 1.408-1.273 2.869-2.307 4.337-.599.852-1.241 1.653-1.882 2.383l-.068.078h6.85304z"/><path d="m18.1816 6.00195-1.419 1.286c-1.031.935-1.075 2.501-.096 3.48005l1.877 1.877c.976.976 2.553.954 3.513-.045l5.65-5.87405-.721-.693-5.65 5.87405c-.574.596-1.507.609-2.086.031l-1.877-1.877c-.574-.57405-.548-1.48005.061-2.03205l1.419-1.286z"/></g></svg>