<svg fill="none" height="27" viewBox="0 0 9 27" width="9" xmlns="http://www.w3.org/2000/svg" xmlns:xlink="http://www.w3.org/1999/xlink"><clipPath id="a"><path d="m0 0h9v27h-9z"/></clipPath><g clip-path="url(#a)"><path clip-rule="evenodd" d="m4.5.5c1.06087 0 2.07828.421427 2.82843 1.17157.75014.75015 1.17157 1.76756 1.17157 2.82843v18c0 1.0609-.42143 2.0783-1.17157 2.8284-.75015.7502-1.76756 1.1716-2.82843 1.1716s-2.07828-.4214-2.82843-1.1716c-.750143-.7501-1.17157-1.7675-1.17157-2.8284v-18c0-1.06087.421427-2.07828 1.17157-2.82843.75015-.750143 1.76756-1.17157 2.82843-1.17157z" fill="#151722" fill-rule="evenodd" stroke="#151722"/><path d="m5.5 10-2 3.5 2 3.5" stroke="#9db2bd"/></g></svg>