<svg fill="none" height="28" viewBox="0 0 28 28" width="28" xmlns="http://www.w3.org/2000/svg"><g fill="#77787e"><path d="m14 10c-.5304 0-1.0391.2107-1.4142.5858s-.5858.8838-.5858 1.4142v11h-6v-11c0-4.416 3.584-8 8-8s8 3.584 8 8v11h-6v-11c0-.5304-.2107-1.0391-.5858-1.4142s-.8838-.5858-1.4142-.5858zm-3 2c0-.7956.3161-1.5587.8787-2.12132.5626-.56261 1.3257-.87868 2.1213-.87868s1.5587.31607 2.1213.87868c.5626.56262.8787 1.32572.8787 2.12132v10h4v-10c0-3.864-3.136-7-7-7s-7 3.136-7 7v10h4z"/><path clip-rule="evenodd" d="m6.5 18h5v1h-5zm10 0h5v1h-5z" fill-rule="evenodd"/></g></svg>