<svg width="28" height="28" viewBox="0 0 28 28" fill="none" xmlns="http://www.w3.org/2000/svg">
<path d="M14 10C13.4696 10 12.9609 10.2107 12.5858 10.5858C12.2107 10.9609 12 11.4696 12 12V23H6V12C6 7.584 9.584 4 14 4C18.416 4 22 7.584 22 12V23H16V12C16 11.4696 15.7893 10.9609 15.4142 10.5858C15.0391 10.2107 14.5304 10 14 10ZM11 12C11 11.2044 11.3161 10.4413 11.8787 9.87868C12.4413 9.31607 13.2044 9 14 9C14.7956 9 15.5587 9.31607 16.1213 9.87868C16.6839 10.4413 17 11.2044 17 12V22H21V12C21 8.136 17.864 5 14 5C10.136 5 7 8.136 7 12V22H11V12Z" fill="#77787E"/>
<path fill-rule="evenodd" clip-rule="evenodd" d="M6.5 18H11.5V19H6.5V18ZM16.5 18H21.5V19H16.5V18Z" fill="#77787E"/>
</svg>
