<svg fill="none" height="28" viewBox="0 0 28 28" width="28" xmlns="http://www.w3.org/2000/svg"><g fill="#77787e"><path d="m17.6465 18.3545 4 4 .708-.708-4-4z"/><path d="m12.5 21c-2.2543 0-4.41635-.8955-6.01041-2.4896s-2.48959-3.7561-2.48959-6.0104.89553-4.41635 2.48959-6.01041 3.75611-2.48959 6.01041-2.48959 4.4163.89553 6.0104 2.48959 2.4896 3.75611 2.4896 6.01041-.8955 4.4163-2.4896 6.0104-3.7561 2.4896-6.0104 2.4896zm0-1c1.9891 0 3.8968-.7902 5.3033-2.1967s2.1967-3.3142 2.1967-5.3033-.7902-3.89678-2.1967-5.3033-3.3142-2.1967-5.3033-2.1967-3.89678.79018-5.3033 2.1967-2.1967 3.3142-2.1967 5.3033.79018 3.8968 2.1967 5.3033 3.3142 2.1967 5.3033 2.1967z"/><path d="m9 13h7v-1h-7z"/><path d="m13 16v-7h-1v7z"/></g></svg>