<svg fill="none" height="28" viewBox="0 0 29 28" width="29" xmlns="http://www.w3.org/2000/svg" xmlns:xlink="http://www.w3.org/1999/xlink"><clipPath id="a"><path d="m.379883 0h28v28h-28z"/></clipPath><g clip-path="url(#a)" stroke="#77787e"><path d="m21.8798 21.5h-13.99998c-.67362-.0011-1.34007-.1383-1.95935-.4034s-1.17861-.6525-1.64441-1.1391c-.46581-.4866-.82849-1.0623-1.06627-1.6926-.23777-.6303-.34575-1.3021-.31743-1.9751.02831-.673.19233-1.3334.48221-1.9414.28987-.6081.69962-1.1513 1.20466-1.5971.50503-.4457 1.09493-.7849 1.73429-.997.63935-.2121 1.31497-.2928 1.9863-.2373.57447-1.64187 1.70178-3.03299 3.18888-3.93524 1.4872-.90226 3.2417-1.25955 4.9632-1.01071 1.7216.24884 3.3031 1.08833 4.4739 2.37478 1.1708 1.28647 1.858 2.93987 1.944 4.67717.9424.2432 1.7638.8215 2.3106 1.6266.5467.8051.7814 1.7818.66 2.7474-.1213.9657-.5904 1.854-1.3194 2.4987-.729.6448-1.668 1.0018-2.6412 1.0043z" stroke-dasharray="3.5 2.5"/><path d="m21.8798 21.5h-13.99998c-.67362-.0011-1.34007-.1383-1.95935-.4034s-1.17861-.6525-1.64441-1.1391c-.46581-.4866-.82849-1.0623-1.06627-1.6926-.23777-.6303-.34575-1.3021-.31743-1.9751.02831-.673.19233-1.3334.48221-1.9414.28987-.6081.69962-1.1513 1.20466-1.5971.50503-.4457 1.09493-.7849 1.73429-.997.63935-.2121 1.31497-.2928 1.9863-.2373.57447-1.64187 1.70178-3.03299 3.18888-3.93524 1.4872-.90226 3.2417-1.25955 4.9632-1.01071 1.7216.24884 3.3031 1.08833 4.4739 2.37478 1.1708 1.28647 1.858 2.93987 1.944 4.67717.9424.2432 1.7638.8215 2.3106 1.6266.5467.8051.7814 1.7818.66 2.7474-.1213.9657-.5904 1.854-1.3194 2.4987-.729.6448-1.668 1.0018-2.6412 1.0043z" stroke-dasharray="49.87 13.09"/><path d="m10.3799 15 2.5 2.5 5.5-5.5"/></g></svg>