<svg fill="none" height="28" viewBox="0 0 28 28" width="28" xmlns="http://www.w3.org/2000/svg"><g fill="#77787e"><path d="m14 17c-.394 0-.7841-.0776-1.1481-.2284-.3639-.1507-.6946-.3717-.9732-.6503s-.4996-.6093-.6503-.9732c-.1508-.364-.2284-.7541-.2284-1.1481s.0776-.7841.2284-1.1481c.1507-.3639.3717-.6946.6503-.9732s.6093-.4996.9732-.6503c.364-.1508.7541-.2284 1.1481-.2284.7956 0 1.5587.3161 2.1213.8787s.8787 1.3257.8787 2.1213-.3161 1.5587-.8787 2.1213-1.3257.8787-2.1213.8787zm0-1c.5304 0 1.0391-.2107 1.4142-.5858s.5858-.8838.5858-1.4142-.2107-1.0391-.5858-1.4142-.8838-.5858-1.4142-.5858-1.0391.2107-1.4142.5858-.5858.8838-.5858 1.4142.2107 1.0391.5858 1.4142.8838.5858 1.4142.5858z"/><path clip-rule="evenodd" d="m5.00505 16c-.13231.0003-.26336-.0256-.3856-.0762-.12225-.0506-.23328-.1249-.3267-.2186-.09341-.0937-.16737-.205-.2176-.3274-.05024-.1224-.07576-.2535-.0751-.3858v-1.984c-.00132-.1321.02358-.2631.07327-.3855.04968-.1223.12316-.2336.21618-.3274.09302-.0937.20372-.1681.32569-.2188.12197-.0506.25279-.0766.38486-.0763h1.252c.18513-.7237.47235-1.4173.853-2.06l-.919-.925c-.356-.397-.348-1 .03-1.379l1.42-1.42c.09335-.09267.20407-.16601.32581-.21582.12174-.04982.25211-.07512.38364-.07447.13154.00065.26165.02724.38289.07826.12124.05101.23123.12544.32366.21903l.889.882c.64295-.37914 1.33615-.66595 2.05905-.852v-1.253c0-.514.46-1 1-1h2c.557 0 1 .44 1 1v1.253c.7232.18597 1.4166.47278 2.06.852l.888-.882c.0924-.09352.2025-.16788.3238-.2188.1212-.05093.2514-.07743.3829-.07799s.2619.02484.3836.07474.2324.12332.3256.21605l1.42 1.42c.1806.18196.2844.42639.2898.6827.0054.25632-.088.5049-.2608.6943 0 0-.4.406-.9179.926.3806.6427.6678 1.3363.8529 2.06h1.252c.557 0 1 .447 1 1.008v1.984c.0014.1321-.0235.2631-.0732.3855-.0497.1223-.1232.2336-.2162.3274-.093.0937-.2037.1681-.3257.2188-.122.0506-.2528.0766-.3849.0763h-1.252c-.1851.7237-.4723 1.4173-.8529 2.06l.882.888c.0935.0925.1678.2025.2188.3238.0509.1213.0774.2514.0779.383.0006.1315-.0248.2618-.0747.3835-.0499.1218-.1233.2324-.216.3257l-1.42 1.42c-.0934.0925-.204.1657-.3257.2155-.1216.0497-.2519.0749-.3833.0743-.1314-.0007-.2614-.0272-.3826-.0781-.1211-.051-.231-.1253-.3234-.2187l-.889-.882c-.643.3791-1.3362.6659-2.059.852v1.248c0 .56-.4501 1.005-1.008 1.005h-1.984c-.1323.0005-.2634-.0251-.3857-.0754-.1224-.0503-.2336-.1242-.3272-.2176-.0937-.0934-.168-.2044-.2186-.3266-.0507-.1221-.0767-.2531-.0765-.3854v-1.248c-.7233-.186-1.4167-.4728-2.06005-.852l-.888.882c-.0925.0935-.20253.1679-.32381.2188s-.25141.0774-.38295.078c-.13153.0005-.26188-.0248-.38359-.0747-.1217-.0499-.23236-.1234-.32565-.2161l-1.42-1.42c-.09252-.0933-.16573-.204-.21546-.3256-.04972-.1217-.07498-.2519-.07433-.3834.00065-.1314.0272-.2614.07812-.3825.05093-.1212.12523-.2311.21867-.3235l.882-.888c-.38065-.6427-.66787-1.3363-.853-2.06zm3.378-6.193-.227.34c-.49463.744-.83972 1.5772-1.016 2.453l-.082.4h-2.053c-.003 0-.005.664-.005 1.992 0 .005.686.008 2.058.008l.082.4c.18.883.52 1.71 1.016 2.453l.227.34-1.45 1.46c-.004.003.466.477 1.41 1.422l1.464-1.458.34005.227c.7451.4931 1.5783.838 2.454 1.016l.399.083v2.052c0 .003.664.005 1.992.005.005 0 .008-.686.008-2.057l.399-.083c.8756-.178 1.7088-.5229 2.454-1.016l.34-.227 1.46 1.45c.003.004.477-.466 1.422-1.41l-1.458-1.464.227-.34c.4946-.744.8397-1.5772 1.016-2.453l.0819-.4h2.0531c.003 0 .0049-.664.0049-1.992 0-.005-.686-.008-2.058-.008l-.0819-.4c-.1763-.8758-.5214-1.709-1.016-2.453l-.227-.34 1.3759-1.384.081-.082-1.4159-1.416-1.465 1.458-.34-.227c-.7452-.49307-1.5784-.83802-2.454-1.016l-.399-.083v-2.057c0-.003-.664-.003-1.992 0-.005 0-.008.686-.008 2.057l-.399.083c-.8757.17798-1.7089.52293-2.454 1.016l-.34005.227-1.46-1.45c-.003-.004-.477.466-1.421 1.408z" fill-rule="evenodd"/></g></svg>