<svg width="28" height="28" viewBox="0 0 28 28" fill="none" xmlns="http://www.w3.org/2000/svg">
<path d="M21 7V11H22V6H17V7H21Z" fill="#77787E"/>
<path d="M16.854 11.854L21.854 6.854L21.146 6.146L16.146 11.146L16.854 11.854ZM7 7V11H6V6H11V7H7Z" fill="#77787E"/>
<path d="M11.146 11.854L6.146 6.854L6.854 6.146L11.854 11.146L11.146 11.854ZM21 21V17H22V22H17V21H21Z" fill="#77787E"/>
<path d="M16.854 16.146L21.854 21.146L21.146 21.854L16.146 16.854L16.854 16.146Z" fill="#77787E"/>
<path d="M7 21V17H6V22H11V21H7Z" fill="#77787E"/>
<path d="M11.146 16.146L6.146 21.146L6.854 21.854L11.854 16.854L11.146 16.146Z" fill="#77787E"/>
</svg>
