<svg fill="none" height="22" viewBox="0 0 28 22" width="28" xmlns="http://www.w3.org/2000/svg"><path d="m23.3219 2.31686c-1.7559-.80569-3.6389-1.399284-5.6076-1.739262-.0359-.006561-.0717.009836-.0902.042632-.2421.43071-.5104.9926-.6982 1.43425-2.1175-.31701-4.2242-.31701-6.2983 0-.1879-.45146-.4658-1.00354-.70909-1.43425-.01847-.031702-.05428-.048099-.09013-.042632-1.96767.338891-3.85062.932492-5.60763 1.739262-.01521.00656-.02825.0175-.0369.0317-3.57157 5.33586-4.549973 10.54054-4.070001 15.68074.002172.0251.016288.0492.035835.0645 2.356416 1.7305 4.639016 2.7811 6.879226 3.4774.03585.0109.07384-.0022.09666-.0317.52992-.7237 1.0023-1.4867 1.40732-2.2891.0239-.047.00108-.1028-.04777-.1214-.74927-.2842-1.46273-.6307-2.14902-1.0243-.05429-.0317-.05863-.1093-.0087-.1465.14443-.1082.28889-.2208.42679-.3345.02495-.0208.05972-.0252.08905-.012 4.50866 2.0585 9.38986 2.0585 13.84526 0 .0294-.0142.0641-.0099.0902.0109.1379.1137.2823.2274.4279.3356.0499.0372.0466.1148-.0077.1465-.6862.4012-1.3997.7401-2.1501 1.0232-.0488.0186-.0705.0755-.0466.1225.4137.8013.886 1.5643 1.4062 2.288.0217.0306.0608.0437.0966.0328 2.2511-.6963 4.5337-1.7469 6.8901-3.4774.0207-.0153.0337-.0383.0359-.0634.5744-5.9426-.9622-11.10465-4.0733-15.68075-.0076-.01529-.0206-.02623-.0358-.03279zm-14.11572 12.58264c-1.35742 0-2.47589-1.2463-2.47589-2.7767 0-1.5305 1.09678-2.77672 2.47589-2.77672 1.38992 0 2.49762 1.25712 2.47582 2.77672 0 1.5304-1.0967 2.7767-2.47582 2.7767zm9.15422 0c-1.3574 0-2.4759-1.2463-2.4759-2.7767 0-1.5305 1.0968-2.77672 2.4759-2.77672 1.3899 0 2.4976 1.25712 2.4759 2.77672 0 1.5304-1.086 2.7767-2.4759 2.7767z" fill="#fff"/></svg>