<svg fill="none" height="24" viewBox="0 0 24 24" width="24" xmlns="http://www.w3.org/2000/svg"><g fill="#fff"><path d="m23.0004 15.2207c-.41 0-.75.34-.75.75 0 2.96-2.06 5.44-4.83 6.09l.27-.45c.21-.36.1-.82-.26-1.03-.35-.21-.82-.1-1.03.26l-1.05 1.75c-.14.23-.14.52-.01.75.13.24.38.38.65.38 4.27 0 7.75-3.48 7.75-7.75.01-.41-.33-.75-.74-.75z"/><path d="m8 .220703c-4.27 0-7.75 3.479997-7.75 7.749997 0 .41.34.75.75.75s.75-.34.75-.75c0-2.96 2.06-5.44 4.83-6.09l-.27.45c-.21.36-.1.82.26 1.03.35.21.82.1 1.03-.26l1.05-1.75c.13-.23.14-.509997 0-.749997-.13-.23-.38-.38-.65-.38z"/><path d="m21.5002 8.67c0 3.08-2.24 5.62-5.17 6.09 0-.01 0-.01 0-.02-.29-3.73-3.31-6.77-7.08997-7.07.47-2.93 3.00997-5.17 6.08997-5.17 3.41 0 6.17 2.76 6.17 6.17z"/><path d="m9.80914 14.2003c0-.15-.17-.38-.38-.38h-2.06v.75h2.06c.21.01.38-.16.38-.37z"/><path d="m9.82914 16.0801h-.4-2.06v.75h2.47c.31996 0 .53996-.2.53996-.38s-.23-.37-.54996-.37z"/><path d="m14.83 14.8504c-.23-3.03-2.65-5.45001-5.68-5.68001-.16-.01-.31-.02-.48-.02-3.41 0-6.17 2.76001-6.17 6.18001 0 3.41 2.76 6.17 6.17 6.17s6.18-2.76 6.18-6.17c0-.17-.01-.32-.02-.48zm-5 3.48h-.66v.38c0 .41-.34.75-.75.75s-.75-.34-.75-.75v-.38h-1.05c-.41 0-.75-.34-.75-.75v-2.25-2.25c0-.41.34-.75.75-.75h1.05v-.38c0-.41.34-.75.75-.75s.75.34.75.75v.38h.26c1 0 1.88.88 1.88 1.88 0 .29-.07.56-.19.81.46.34.75.86.75 1.44 0 1.03-.91 1.87-2.04 1.87z"/></g></svg>