<svg fill="none" height="70" viewBox="0 0 71 70" width="71" xmlns="http://www.w3.org/2000/svg"><g fill="#282c40"><path d="m64.667 31.9965v6.0083c0 1.6042-1.2834 2.9167-2.9167 2.975h-5.7167c-3.15 0-6.0375-2.3041-6.3-5.4541-.175-1.8375.525-3.5584 1.75-4.7542 1.0792-1.1083 2.5667-1.75 4.2-1.75h6.0667c1.6333.0583 2.9167 1.3708 2.9167 2.975z"/><path d="m60.2038 45.3548h-4.1708c-5.5417 0-10.2083-4.1708-10.675-9.4791-.2625-3.0334.8458-6.0667 3.0625-8.225 1.8667-1.9251 4.4625-3.0042 7.2625-3.0042h4.5208c.8459 0 1.5459-.7 1.4584-1.5458-.6417-7.0875-5.3375-11.9292-12.3084-12.7459-.7-.1166-1.4291-.1458-2.1875-.1458h-26.25c-.8166 0-1.6041.0583-2.3625.175-7.4375.9333-12.22079 6.475-12.22079 14.4083v20.4167c0 8.05 6.53329 14.5833 14.58329 14.5833h26.25c8.1667 0 13.7959-5.1041 14.4959-12.8916.0875-.8459-.6125-1.5459-1.4584-1.5459zm-21.7875-16.9166h-17.5c-1.1958 0-2.1875-.9917-2.1875-2.1875 0-1.1959.9917-2.1875 2.1875-2.1875h17.5c1.1959 0 2.1875.9916 2.1875 2.1875 0 1.1958-.9916 2.1875-2.1875 2.1875z"/></g></svg>