<svg fill="none" height="20" viewBox="0 0 20 20" width="20" xmlns="http://www.w3.org/2000/svg" xmlns:xlink="http://www.w3.org/1999/xlink"><linearGradient id="a" gradientUnits="userSpaceOnUse" x1="10.0003" x2="10.0003" y1="1.66699" y2="18.3337"><stop offset="0" stop-color="#34c796"/><stop offset="1" stop-color="#0b7a55"/></linearGradient><path d="m10.0003 1.66699c-4.59164 0-8.33331 3.74167-8.33331 8.33331 0 4.5917 3.74167 8.3334 8.33331 8.3334 4.5917 0 8.3334-3.7417 8.3334-8.3334 0-4.59164-3.7417-8.33331-8.3334-8.33331zm3.9834 6.41667-4.72504 4.72504c-.11667.1166-.275.1833-.44167.1833-.16666 0-.325-.0667-.44166-.1833l-2.35834-2.3584c-.24166-.2416-.24166-.64164 0-.88331.24167-.24166.64167-.24166.88334 0l1.91666 1.91671 4.28331-4.28337c.2417-.24167.6417-.24167.8834 0 .2416.24166.2416.63333 0 .88333z" fill="url(#a)"/></svg>