<svg width="24" height="24" viewBox="0 0 24 24" fill="none" xmlns="http://www.w3.org/2000/svg">
<path d="M23.0004 15.2207C22.5904 15.2207 22.2504 15.5607 22.2504 15.9707C22.2504 18.9307 20.1904 21.4107 17.4204 22.0607L17.6904 21.6107C17.9004 21.2507 17.7904 20.7907 17.4304 20.5807C17.0804 20.3707 16.6104 20.4807 16.4004 20.8407L15.3504 22.5907C15.2104 22.8207 15.2104 23.1107 15.3404 23.3407C15.4704 23.5807 15.7204 23.7207 15.9904 23.7207C20.2604 23.7207 23.7404 20.2407 23.7404 15.9707C23.7504 15.5607 23.4104 15.2207 23.0004 15.2207Z" fill="white"/>
<path d="M8 0.220703C3.73 0.220703 0.25 3.7007 0.25 7.9707C0.25 8.3807 0.59 8.7207 1 8.7207C1.41 8.7207 1.75 8.3807 1.75 7.9707C1.75 5.0107 3.81 2.5307 6.58 1.8807L6.31 2.3307C6.1 2.6907 6.21 3.1507 6.57 3.3607C6.92 3.5707 7.39 3.4607 7.6 3.1007L8.65 1.3507C8.78 1.1207 8.79 0.840703 8.65 0.600703C8.52 0.370703 8.27 0.220703 8 0.220703Z" fill="white"/>
<path d="M21.5002 8.67C21.5002 11.75 19.2602 14.29 16.3302 14.76C16.3302 14.75 16.3302 14.75 16.3302 14.74C16.0402 11.01 13.0202 7.97 9.24023 7.67C9.71023 4.74 12.2502 2.5 15.3302 2.5C18.7402 2.5 21.5002 5.26 21.5002 8.67Z" fill="white"/>
<path d="M9.80914 14.2003C9.80914 14.0503 9.63914 13.8203 9.42914 13.8203H7.36914V14.5703H9.42914C9.63914 14.5803 9.80914 14.4103 9.80914 14.2003Z" fill="white"/>
<path d="M9.82914 16.0801H9.42914H7.36914V16.8301H9.83914C10.1591 16.8301 10.3791 16.6301 10.3791 16.4501C10.3791 16.2701 10.1491 16.0801 9.82914 16.0801Z" fill="white"/>
<path d="M14.83 14.8504C14.6 11.8204 12.18 9.40039 9.15 9.17039C8.99 9.16039 8.84 9.15039 8.67 9.15039C5.26 9.15039 2.5 11.9104 2.5 15.3304C2.5 18.7404 5.26 21.5004 8.67 21.5004C12.08 21.5004 14.85 18.7404 14.85 15.3304C14.85 15.1604 14.84 15.0104 14.83 14.8504ZM9.83 18.3304H9.17V18.7104C9.17 19.1204 8.83 19.4604 8.42 19.4604C8.01 19.4604 7.67 19.1204 7.67 18.7104V18.3304H6.62C6.21 18.3304 5.87 17.9904 5.87 17.5804V15.3304V13.0804C5.87 12.6704 6.21 12.3304 6.62 12.3304H7.67V11.9504C7.67 11.5404 8.01 11.2004 8.42 11.2004C8.83 11.2004 9.17 11.5404 9.17 11.9504V12.3304H9.43C10.43 12.3304 11.31 13.2104 11.31 14.2104C11.31 14.5004 11.24 14.7704 11.12 15.0204C11.58 15.3604 11.87 15.8804 11.87 16.4604C11.87 17.4904 10.96 18.3304 9.83 18.3304Z" fill="white"/>
</svg>
