<svg fill="none" height="20" viewBox="0 0 20 20" width="20" xmlns="http://www.w3.org/2000/svg"><path d="m13.492 1.66699h-6.98334c-3.03333 0-4.84167 1.80834-4.84167 4.84167v6.97504c0 3.0416 1.80834 4.85 4.84167 4.85h6.97504c3.0333 0 4.8416-1.8084 4.8416-4.8417v-6.98334c.0084-3.03333-1.8-4.84167-4.8333-4.84167zm-4.36667 12.92501c-.24167.2417-.7.475-1.03334.525l-2.05.2917c-.075.0083-.15.0166-.225.0166-.34166 0-.65833-.1166-.88333-.3416-.275-.275-.39167-.675-.325-1.1167l.29167-2.05c.05-.3417.275-.7917.525-1.0333l3.71666-3.71671c.06667.175.13334.35.225.55.08334.175.175.35834.275.525.08333.14167.175.275.25.375.09167.14167.20001.275.26671.35.0416.05834.075.1.0916.11667.2084.25.45.48333.6584.65833.0583.05834.0916.09167.1083.1.125.1.25.20001.3583.27501.1334.1.2667.1917.4084.2667.1666.1.35.1916.5333.2833.1917.0833.3667.1583.5417.2167zm5.34997-5.35001-.7666.77501c-.05.05-.1167.075-.1834.075-.025 0-.0583 0-.075-.0083-1.6916-.48337-3.0416-1.83337-3.52497-3.52504-.02501-.09167 0-.19167.06666-.25l.77501-.775c1.2667-1.26667 2.475-1.24167 3.7167 0 .6333.63333.9416 1.24167.9416 1.875-.0083.6-.3166 1.2-.95 1.83333z" fill="#fff" opacity=".5"/></svg>