<svg fill="none" height="20" viewBox="0 0 20 20" width="20" xmlns="http://www.w3.org/2000/svg"><path d="m16.7501 7.68336c-1.5084 0-2.125-1.06666-1.375-2.375.4333-.75833.175-1.725-.5834-2.15833l-1.4416-.825c-.6584-.39167-1.5084-.15833-1.9.5l-.0917.15833c-.75 1.30834-1.98332 1.30834-2.74165 0l-.09167-.15833c-.375-.65833-1.225-.89167-1.88333-.5l-1.44167.825c-.75833.43333-1.01667 1.40833-.58333 2.16667.75833 1.3.14166 2.36666-1.36667 2.36666-.86667 0-1.58333.70834-1.58333 1.58334v1.4667c0 .8666.70833 1.5833 1.58333 1.5833 1.50833 0 2.125 1.0667 1.36667 2.375-.43334.7583-.175 1.725.58333 2.1583l1.44167.825c.65833.3917 1.50833.1584 1.9-.5l.09166-.1583c.75-1.3083 1.98329-1.3083 2.74169 0l.0916.1583c.3917.6584 1.2417.8917 1.9.5l1.4417-.825c.7583-.4333 1.0167-1.4083.5833-2.1583-.7583-1.3083-.1416-2.375 1.3667-2.375.8667 0 1.5833-.7083 1.5833-1.5833v-1.4667c-.0083-.86667-.7166-1.58334-1.5916-1.58334zm-6.75 5.02504c-1.49168 0-2.70835-1.2167-2.70835-2.7084 0-1.49164 1.21667-2.7083 2.70835-2.7083 1.4916 0 2.7083 1.21666 2.7083 2.7083 0 1.4917-1.2167 2.7084-2.7083 2.7084z" fill="#434665"/></svg>