<svg fill="none" height="47" viewBox="0 0 47 47" width="47" xmlns="http://www.w3.org/2000/svg" xmlns:xlink="http://www.w3.org/1999/xlink"><linearGradient id="a" gradientUnits="userSpaceOnUse" x1="23.4906" x2="23.4906" y1="43.0835" y2="3.91683"><stop offset="0" stop-color="#c44141"/><stop offset="1" stop-color="#7a3636"/></linearGradient><path d="m31.7057 43.0835h-16.4108c-7.12832 0-11.37791-4.2496-11.37791-11.3779v-16.3913c0-7.14789 4.24959-11.39747 11.37791-11.39747h16.3913c7.1283 0 11.3779 4.24958 11.3779 11.37787v16.4109c.0196 7.1283-4.23 11.3779-11.3584 11.3779zm1.2338-17.2725c-.5679-.5679-1.5079-.5679-2.0758 0l-5.8946 5.8946v-19.9554c0-.803-.6659-1.4688-1.4688-1.4688s-1.4687.6658-1.4687 1.4688v19.9554l-5.8946-5.8946c-.5679-.5679-1.5079-.5679-2.0758 0-.2938.2937-.4309.6658-.4309 1.0379s.1567.7638.4309 1.0379l8.4012 8.4013c.2742.2741.6463.4308 1.0379.4308.3917 0 .7638-.1567 1.0379-.4308l8.4013-8.4013c.5679-.5679.5679-1.4883 0-2.0758z" fill="url(#a)"/></svg>