<svg fill="none" height="689" viewBox="0 0 678 689" width="678" xmlns="http://www.w3.org/2000/svg" xmlns:xlink="http://www.w3.org/1999/xlink"><linearGradient id="a"><stop offset="0" stop-color="#34c796"/><stop offset="1" stop-color="#0b7a55"/></linearGradient><linearGradient id="b" gradientUnits="userSpaceOnUse" x1="339" x2="339" xlink:href="#a" y1="425.343" y2="651.807"/><linearGradient id="c" gradientUnits="userSpaceOnUse" x1="339.34" x2="339.34" xlink:href="#a" y1="399.404" y2="589.883"/><linearGradient id="d" gradientUnits="userSpaceOnUse" x1="339.454" x2="339.454" xlink:href="#a" y1="369.571" y2="526.657"/><linearGradient id="e" gradientUnits="userSpaceOnUse" x1="339.495" x2="339.495" xlink:href="#a" y1="329.103" y2="464.222"/><linearGradient id="f" gradientUnits="userSpaceOnUse" x1="343.299" x2="343.299" xlink:href="#a" y1="301.171" y2="433.573"/><linearGradient id="g" gradientUnits="userSpaceOnUse" x1="347.811" x2="347.811" xlink:href="#a" y1="278.082" y2="369.239"/><linearGradient id="h" gradientUnits="userSpaceOnUse" x1="341.481" x2="341.481" xlink:href="#a" y1="262.234" y2="284.13"/><linearGradient id="i" gradientUnits="userSpaceOnUse" x1="334.857" x2="334.857" xlink:href="#a" y1="195.388" y2="252.488"/><linearGradient id="j" gradientUnits="userSpaceOnUse" x1="351.669" x2="351.669" xlink:href="#a" y1="140.875" y2="236.396"/><linearGradient id="k" gradientUnits="userSpaceOnUse" x1="377.966" x2="377.966" xlink:href="#a" y1="45.5488" y2="214.205"/><linearGradient id="l" gradientUnits="userSpaceOnUse" x1="563.858" x2="563.858" xlink:href="#a" y1=".000488" y2="688.387"/><linearGradient id="m" gradientUnits="userSpaceOnUse" x1="518.902" x2="518.902" xlink:href="#a" y1="28.0947" y2="663.64"/><linearGradient id="n" gradientUnits="userSpaceOnUse" x1="468.849" x2="468.849" xlink:href="#a" y1="53.8633" y2="637.503"/><linearGradient id="o" gradientUnits="userSpaceOnUse" x1="425.989" x2="425.989" xlink:href="#a" y1="74.4092" y2="612.87"/><linearGradient id="p" gradientUnits="userSpaceOnUse" x1="389.172" x2="389.172" xlink:href="#a" y1="88.4849" y2="591.87"/><linearGradient id="q" gradientUnits="userSpaceOnUse" x1="347.223" x2="347.223" xlink:href="#a" y1="96.5166" y2="579.61"/><linearGradient id="r" gradientUnits="userSpaceOnUse" x1="273.976" x2="273.976" xlink:href="#a" y1="99.1553" y2="612.643"/><linearGradient id="s" gradientUnits="userSpaceOnUse" x1="182.646" x2="182.646" xlink:href="#a" y1="105.541" y2="631.997"/><linearGradient id="t" gradientUnits="userSpaceOnUse" x1="144.417" x2="144.417" xlink:href="#a" y1="120.979" y2="565.79"/><linearGradient id="u" gradientUnits="userSpaceOnUse" x1="118.423" x2="118.423" xlink:href="#a" y1="146.039" y2="487.125"/><path d="m677.007 651.807c-27.102-9.536-51.99-23.64-76.027-37.262-25.059-14.189-51.082-28.861-78.979-38.056-48.982-16.062-115.729-29.372-183.1-36.523-30.479-3.236-59.227 7.662-87.038 18.19-36.382 13.793-74.013 28.039-115.502 10.501-33.204-14.048-51.6216-42.852-69.4152-70.721-17.3395-27.13-35.275-55.168-66.9458-70.01l1.22029-2.583c32.40871 15.211 50.57121 43.59 68.10931 70.948 18.3895 28.776 35.7294 55.934 68.1094 69.613 40.44 17.027 75.885 3.689 113.515-10.5 28.096-10.671 57.184-21.682 88.344-18.361 67.542 7.151 134.516 20.517 183.668 36.637 28.379 9.28 54.317 24.008 79.461 38.283 23.952 13.565 48.698 27.584 75.573 37.063z" fill="url(#b)"/><path d="m659.184 589.883c-20.915-8.513-36.609-19.638-51.82-30.422-20.659-14.672-40.184-28.549-71.117-35.104-59.438-11.995-119.91-18.126-180.547-18.305-20.234 0-40.326 1.249-59.765 2.554-56.162 3.718-109.231 7.237-164.598-20.716-17.027-8.514-32.0966-24.463-46.7401-39.731-20.0638-21.057-40.8088-42.795-66.3498-45.917l.3689-2.838c26.5342 3.235 47.6198 25.371 68.1093 46.769 14.4737 15.182 29.4577 30.876 45.9737 39.219 54.771 27.641 107.443 24.151 163.207 20.433 19.496-1.305 39.731-2.838 59.965-2.554 60.836.168 121.509 6.318 181.142 18.361 31.501 6.698 51.252 20.717 72.168 35.587 15.069 10.699 30.649 21.738 51.252 30.082z" fill="url(#c)"/><path d="m646.131 526.657c-8.826-5.846-16.545-11.352-24.009-16.715-30.394-21.71-52.359-37.375-100.376-38.709-20.858-.568-41.518 3.121-61.497 6.669-18.475 3.292-37.602 6.697-56.9 6.726h-.51c-82.753 0-175.496-34.878-247.095-65.272-11.383-5.173-22.485-10.942-33.261-17.283-28.3784-16.062-60.7587-34.281-90.812-28.52l-.5392-2.838c31.2168-5.96 63.9093 12.515 92.8272 28.833 10.678 6.265 21.686 11.949 32.976 17.027 135.424 57.524 202.569 65.073 245.847 65.073h.653c19.042 0 38.056-3.406 56.417-6.698 20.092-3.575 40.865-7.293 62.064-6.697 48.897 1.362 71.146 17.254 101.937 39.248 7.436 5.307 15.155 10.812 23.924 16.63z" fill="url(#d)"/><path d="m447.25 464.222c-24.605 0-57.212-13.991-83.803-25.541-9.847-4.228-19.156-8.201-27.13-11.124-51.905-18.957-103.924-40.27-154.211-60.901l-20.944-8.514c-4.824-1.987-9.819-4.143-14.899-6.357-33.742-14.7-71.9685-31.359-104.1785-8.655l-1.646-2.328c33.5438-23.611 72.5365-6.612 106.9595 8.372 5.052 2.214 10.018 4.371 14.843 6.357l20.943 8.514c50.259 20.631 102.164 41.944 154.098 60.872 8.059 2.838 17.396 6.953 27.272 11.182 28.379 12.203 63.824 27.357 88.173 24.916 18.248-1.873 31.217-11.692 45.066-22.107 11.351-8.513 23.214-17.538 38.453-21.88 45.406-13.026 77.247 13.679 102.306 41.518l-2.1 1.902c-25.711-28.549-55.566-53.239-99.326-40.695-14.7 4.2-26.307 12.969-37.517 21.426-13.48 10.188-27.443 20.716-46.485 22.703-1.95.218-3.911.332-5.874.34z" fill="url(#e)"/><path d="m470.777 433.573c-25.201 0-58.29-14.984-85.364-27.243-10.387-4.711-20.177-9.139-28.379-12.289-19.666-7.463-39.73-15.182-58.914-22.703-36.382-14.189-73.984-28.634-111.331-42.057-5.42-1.958-10.954-4.058-16.573-6.187-38.68-14.728-78.723-29.939-115.5872-8.769l-1.3905-2.469c38.0277-21.852 80.5107-5.676 117.9997 8.514 5.675 2.128 11.096 4.2 16.516 6.158 37.375 13.423 75.006 27.982 111.387 42.086 19.298 7.464 39.248 15.183 58.915 22.703 8.514 3.207 18.219 7.634 28.634 12.373 29.372 13.282 65.924 29.855 90.813 26.563 19.297-2.526 36.892-21.086 53.919-39.049 19.468-20.547 37.886-39.958 59.114-38.028 14.501 1.305 28.379 12.6 42.823 34.537l-2.383 1.532c-13.821-21.142-27.131-32.011-40.696-33.26-19.865-1.816-37.829 17.028-56.757 37.177-17.368 18.304-35.304 37.261-55.595 39.9-2.369.334-4.758.505-7.151.511z" fill="url(#f)"/><path d="m436.552 369.125c-49.266 0-102.164-22.221-153.502-43.732-70.493-29.542-143.37-60.106-210.0033-35.701l-.8797-2.554c67.599-24.774 141.015 5.988 211.99 35.758 51.621 21.653 105.002 44.044 154.183 43.505 26.421-.313 50.514-16.347 73.785-31.841 34.509-22.987 70.209-46.769 111.33-14.587l-1.759 2.213c-39.504-30.904-72.764-8.74-108.01 14.729-23.64 15.722-48.074 32.011-75.346 32.324z" fill="url(#g)"/><path d="m350.761 284.13c-33.572 0-67.797-4.824-100.944-9.507-49.89-7.066-101.454-14.36-151.231-5.222l-.5108-2.838c50.2308-9.223 102.1638-1.901 152.1388 5.194 35.531 5.023 72.281 10.188 108.01 9.393 29.004-.624 58.376-4.597 86.783-8.513 45.662-6.159 92.884-12.516 139.88-5.336l-.426 2.838c-46.598-7.123-93.65-.794-139.057 5.335-28.379 3.832-57.949 7.805-87.123 8.514-2.497.114-5.023.142-7.52.142z" fill="url(#h)"/><path d="m129.408 252.488-.284-2.838c29.514-3.065 60.05-6.272 88.4-18.134 8.931-3.969 17.587-8.53 25.91-13.651 12.6-7.378 25.541-15.012 40.752-18.304 44.47-9.621 92.714-.738 139.369 7.832 38.879 7.18 79.092 14.559 116.779 11.153l.255 2.838c-38.056 3.434-78.467-4.001-117.545-11.181-46.371-8.514-94.331-17.34-138.262-7.861-14.7 3.178-26.931 10.358-39.901 17.964-8.43 5.189-17.2 9.807-26.25 13.82-28.748 12.033-59.482 15.24-89.223 18.362z" fill="url(#i)"/><path d="m161.701 236.396-.369-2.838c28.719-4.001 39.503-23.526 51.082-44.186 10.642-19.212 21.653-39.077 48.244-45.406 26.932-6.357 59.085-1.646 90.16 2.838 14.615 2.157 28.379 4.172 40.951 4.91 54.828 3.235 102.391 0 149.67-9.734l.567 2.837c-47.506 9.933-95.324 13.026-150.408 9.791-12.685-.738-26.534-2.838-41.206-4.938-30.819-4.512-62.717-9.166-89.11-2.838-25.285 5.96-35.501 24.406-46.314 43.959-11.465 20.348-23.129 41.405-53.267 45.605z" fill="url(#j)"/><path d="m185.685 214.205-1.902-2.1c11.04-9.99 14.786-21.739 18.787-34.197 2.98-9.365 6.073-19.071 12.572-27.811 17.311-23.299 38.992-28.975 67.712-34.481 21.653-4.143 42.88-7.804 63.398-11.351 76.056-13.1681 147.883-25.5413 224.761-58.7162l1.135 2.6109c-77.19 33.2317-149.188 45.69-225.413 58.8863-20.49 3.547-41.717 7.236-63.342 11.351-28.095 5.364-49.266 10.898-65.981 33.374-6.186 8.343-9.223 17.822-12.146 26.96-3.831 12.316-7.889 24.973-19.581 35.474z" fill="url(#k)"/><path d="m630.607 688.387c-10.046-43.278-10.216-87.662-10.415-130.543 0-21.483-.17-43.732-1.504-65.669-.937-15.693-.653-32.777-.341-50.883.625-37.063 1.278-75.374-8.712-105.967-9.734-29.797-32.777-46.626-55.055-62.887-19.326-14.19-39.333-28.72-50.798-51.763-18.702-37.517-6.016-81.646 6.215-124.3282 9.28-32.2952 18.872-65.6687 14.87-95.977394l2.838-.36891772c4.087 30.87621172-5.675 64.56201172-14.927 97.14091172-12.118 42.1426-24.633 85.7326-6.442 122.2846 11.181 22.391 30.876 36.893 49.947 50.713 22.703 16.517 46.059 33.629 56.077 64.307 10.017 30.677 9.478 69.613 8.854 106.903-.312 18.049-.596 35.076.34 50.656 1.334 22.022 1.419 44.3 1.504 65.839.199 42.739.369 86.953 10.359 129.947z" fill="url(#l)"/><path d="m571.466 663.64-2.838-.341c2.668-21.766 6.3-42 9.791-61.554 7.662-42.994 14.927-83.604 10.727-131.961-1.107-12.969-1.334-27.017-1.589-41.859-.568-35.36-1.135-71.912-13.792-100.348-11.777-26.477-36.439-42.568-60.305-58.205-22.022-14.388-44.811-29.287-58.12-52.444-21.568-37.545-6.528-83.661 8.002-128.2444 7.067-21.6247 13.708-42.0291 15.893-60.5889l2.838.3122c-2.214 18.8436-8.911 39.3899-16.006 61.1565-14.332 43.9876-29.174 89.4786-8.23 125.9736 12.941 22.533 35.445 37.262 57.212 51.48 24.207 15.807 49.237 32.153 61.355 59.425 12.856 28.946 13.452 65.782 14.019 101.426.256 14.814.483 28.776 1.589 41.66 4.229 48.755-3.065 89.536-10.784 132.728-3.49 19.525-7.094 39.617-9.762 61.384z" fill="url(#m)"/><path d="m516.837 637.503-2.696-.908c2.185-6.498 4.512-13.025 6.953-19.865 10.471-29.372 21.255-59.766 21.17-89.535-.377-10.365-1.659-20.678-3.831-30.82-2.207-10.396-3.508-20.964-3.888-31.585 0-14.502 2.696-29.855 5.421-44.697 4.483-24.576 9.138-50.004.964-72.82-11.521-32.296-40.667-52.984-71.514-74.892-28.635-20.348-58.234-41.377-71.998-72.48-18.389-41.547-1.163-76.453 17.028-113.5155 5.193-10.5286 10.557-21.3977 15.097-32.5222l2.639 1.0784c-4.597 11.3515-9.989 22.1355-15.182 32.6924-17.936 36.3539-34.878 70.7199-17.028 111.0179 13.452 30.394 42.739 51.082 70.948 71.317 29.854 21.199 60.702 43.135 72.536 76.254 8.514 23.554 3.718 49.35-.851 74.296-2.696 14.728-5.477 29.939-5.364 44.185.379 10.451 1.671 20.849 3.86 31.075 2.182 10.275 3.473 20.72 3.859 31.217 0 30.28-10.784 60.901-21.312 90.5-2.327 7.01-4.626 13.509-6.811 20.007z" fill="url(#n)"/><path d="m454.29 612.87-2.838-.539c2.695-16.902 4.212-33.97 4.541-51.082 1.419-32.636 2.838-66.378 19.695-93.168 6.018-9.214 12.735-17.952 20.092-26.137 15.864-18.418 28.379-32.976 19.439-63.37-12.202-41.518-52.132-72.026-90.812-101.511-34.055-25.995-69.244-52.87-86.243-87.521-20.462-41.802 5.675-72.564 31.046-102.3339 3.633-4.2569 7.237-8.5137 10.727-12.7989l2.214 1.7878c-3.519 4.2853-7.152 8.5137-10.784 12.8557-24.718 29.0603-50.287 59.1133-30.649 99.3263 16.686 34.054 51.621 60.731 85.42 86.527 39.078 29.684 79.404 60.475 91.863 103.044 9.393 31.869-3.576 46.938-20.008 66.009-7.28 8.081-13.922 16.715-19.865 25.825-16.431 26.137-17.878 59.595-19.269 91.749-.338 17.197-1.865 34.35-4.569 51.337z" fill="url(#o)"/><path d="m376.673 591.87h-2.838c0-7.407 0-14.19 0-20.859-.426-41.149-.681-66.009 46.655-88.854 7.066-3.434 14.672-6.499 22.022-9.45 21.681-8.713 42.171-17.028 48.84-33.346 3.916-9.62 2.838-21.312-3.632-35.785-19.866-45.407-61.015-80.568-100.717-114.566-32.948-28.209-67.003-57.41-88.883-92.316-34.367-54.857-9.308-73.786 32.21-105.0023l4.257-3.2068 1.731 2.2703-4.342 3.4054c-41.575 31.2164-64.477 48.4714-31.5 101.1144 21.624 34.537 55.537 63.568 88.315 91.663 39.957 34.197 81.248 69.585 101.483 115.588 6.669 15.211 7.861 27.641 3.632 37.999-7.123 17.481-28.152 25.938-50.401 34.906-7.321 2.838-14.87 5.988-21.851 9.365-45.719 22.079-45.407 46.229-45.038 86.272.085 6.527.171 13.366.057 20.802z" fill="url(#p)"/><path d="m303.342 579.61-2.838-.17c3.519-58.971 23.98-74.863 73.359-99.468 5.676-2.838 11.55-5.505 17.198-8.088 21.823-9.989 42.426-19.411 48.244-36.069 3.547-10.132 1.532-22.448-6.187-37.659-11.351-22.533-41.036-51.82-72.366-82.838-54.913-54.374-117.12-115.985-109.514-166.442 3.15-20.83 18.276-38.425 44.952-52.3594l1.334 2.5257c-26.222 13.6787-40.44 30.1097-43.477 50.2587-7.406 49.011 54.289 110.11 108.692 164.002 31.5 31.217 61.241 60.617 72.905 83.576 8.088 15.92 10.16 28.975 6.357 39.872-6.215 17.794-27.357 27.471-49.748 37.716-5.676 2.554-11.352 5.221-17.028 8.059-49.436 24.576-68.421 39.333-71.883 97.084z" fill="url(#q)"/><path d="m216.899 612.643-2.837-.511c9.575-54.033 30.887-105.308 62.433-150.209 6.199-8.462 12.83-16.598 19.865-24.378 18.901-21.908 38.454-44.555 34.055-74.92-4.824-33.516-28.379-65.612-51.366-96.63-39.106-53.012-79.461-107.84-18.616-166.8397l1.958 2.0437c-59.113 57.297-21.199 108.691 18.928 163.121 23.101 31.217 46.968 63.683 51.905 97.879 4.598 31.671-15.409 54.828-34.735 77.219-6.896 7.724-13.394 15.794-19.468 24.179-31.373 44.533-52.58 95.414-62.122 149.046z" fill="url(#r)"/><path d="m134.601 631.997-2.838-.283c1.788-17.226 3.263-34.878 4.682-51.934 4.058-48.443 8.258-98.531 19.865-146.407 8.514-35.672 22.704-56.076 39.248-79.687 6.953-9.99 14.19-20.32 21.398-32.579 19.468-32.835 14.048-68.422 8.315-106.109-5.505-35.985-11.153-73.218 5.676-109.457l2.582 1.191c-16.431 35.474-10.812 72.253-5.392 107.84 5.818 38.198 11.352 74.268-8.684 107.84-7.321 12.345-14.529 22.703-21.511 32.749-16.261 23.384-30.308 43.59-38.822 78.723-11.522 47.677-15.722 97.652-19.865 145.981-1.533 17.226-3.008 34.878-4.654 52.132z" fill="url(#s)"/><path d="m79.1487 565.79-2.8379-.198c1.4189-18.958.7662-42.171 0-66.748-2.1284-75.459-4.7961-169.393 52.5572-205.406 6.045-3.831 12.147-7.18 18.021-10.415 18.106-9.989 35.19-19.411 46.768-39.73 14.417-25.059 15.098-60.504 15.722-91.749.227-10.87.426-21.114 1.164-30.565l2.838.228c-.71 9.365-.937 19.581-1.135 30.393-.625 31.586-1.334 67.4-16.091 93.111-11.976 20.859-29.401 30.451-47.847 40.639-5.874 3.235-11.919 6.584-17.907 10.33-55.9632 35.161-53.3524 128.187-51.224 202.937.7379 24.804 1.5041 48.074-.0283 67.173z" fill="url(#t)"/><path d="m37.8555 487.125-2.8379-.738c5.4771-20.66 7.5487-43.306 9.7623-67.258 4.3136-47.052 8.7975-95.722 41.0359-128.273 11.5786-11.692 26.9312-18.247 41.7742-24.547 13.252-5.676 26.959-11.352 37.516-20.944 33.317-29.798 33.516-54.459 33.885-99.326h2.838c-.341 44.072-.568 70.692-34.821 101.341-10.926 9.762-24.832 15.694-38.312 21.426-14.586 6.215-29.684 12.629-40.8653 23.924-31.529 31.841-35.9561 80-40.2413 126.541-1.9865 23.129-4.1717 46.939-9.7339 67.854z" fill="url(#u)"/></svg>