<svg fill="none" height="19" viewBox="0 0 24 19" width="24" xmlns="http://www.w3.org/2000/svg"><g fill="#fff"><path d="m3.89925 14.3551c.14482-.1448.34394-.2293.55513-.2293h19.15222c.35 0 .525.4224.2776.6698l-3.7834 3.7834c-.1448.1448-.3439.2293-.5551.2293h-19.152267c-.3499779 0-.524967-.4224-.277569-.6698z"/><path d="m3.89925.229296c.15085-.1448186.34998-.229296.55513-.229296h19.15222c.35 0 .525.422387.2776.669785l-3.7834 3.783385c-.1448.14482-.3439.22929-.5551.22929h-19.152267c-.3499779 0-.524967-.42238-.277569-.66978z"/><path d="m20.1008 7.24695c-.1448-.14482-.3439-.2293-.5551-.2293h-19.152267c-.3499779 0-.524967.42239-.277569.66978l3.783386 3.78337c.14482.1448.34394.2293.55513.2293h19.15222c.35 0 .525-.4224.2776-.6698z"/></g></svg>