<svg fill="none" height="27" viewBox="0 0 88 27" width="88" xmlns="http://www.w3.org/2000/svg"><g fill="#fff"><path d="m28.9965 2.88039c-2.1831-1.00173-4.5242-1.73976-6.972-2.162457-.0446-.008158-.0891.012229-.1121.053004-.3011.535513-.6346 1.234123-.8681 1.783233-2.6328-.39415-5.252-.39415-7.8308 0-.2336-.56131-.5792-1.24772-.8816-1.783233-.023-.039415-.0675-.059802-.1121-.053004-2.44643.421347-4.78754 1.159377-6.97206 2.162457-.01891.00816-.03512.02176-.04588.03942-4.440601 6.63416-5.657067 13.10529-5.06031 19.49609.002701.0313.020252.0612.044555.0802 2.929785 2.1516 5.767775 3.4578 8.553065 4.3236.04458.0136.09181-.0027.12018-.0395.65886-.8997 1.24615-1.8484 1.74975-2.8461.0297-.0584.0013-.1277-.0594-.1508-.93158-.3534-1.81863-.7843-2.67191-1.2736-.0675-.0394-.0729-.1359-.01081-.1821.17956-.1346.35917-.2746.53063-.4159.03102-.0259.07425-.0313.11072-.015 5.60567 2.5594 11.67457 2.5594 17.21417 0 .0364-.0177.0796-.0122.112.0136.1715.1414.3511.2827.532.4173.0621.0462.058.1427-.0095.1821-.8532.4988-1.7403.9202-2.6732 1.2722-.0608.0231-.0878.0938-.0581.1522.5144.9963 1.1017 1.945 1.7484 2.8448.027.0381.0756.0544.1202.0408 2.7988-.8658 5.6368-2.172 8.5666-4.3236.0256-.019.0418-.0475.0445-.0788.7142-7.3886-1.1962-13.80659-5.0643-19.49614-.0095-.01901-.0256-.03261-.0446-.04077zm-17.5503 15.64421c-1.68769 0-3.07831-1.5495-3.07831-3.4523 0-1.9029 1.36365-3.4523 3.07831-3.4523 1.7282 0 3.1053 1.563 3.0783 3.4523 0 1.9028-1.3637 3.4523-3.0783 3.4523zm11.3816 0c-1.6877 0-3.0783-1.5495-3.0783-3.4523 0-1.9029 1.3636-3.4523 3.0783-3.4523 1.7282 0 3.1053 1.563 3.0783 3.4523 0 1.9028-1.3501 3.4523-3.0783 3.4523z"/><path d="m81.6811 0h4.5304l-9.8953 11.3856 11.6836 15.439h-9.18l-7.1532-9.3588-8.2262 9.3588h-4.5304l10.6106-12.1605-11.2067-14.6641h9.4184l6.4975 8.58387zm-1.6095 24.0825h2.5037l-16.214-21.51926h-2.7421z"/></g></svg>