<svg width="678" height="689" viewBox="0 0 678 689" fill="none" xmlns="http://www.w3.org/2000/svg">
<path d="M677.007 651.807C649.905 642.271 625.017 628.167 600.98 614.545C575.921 600.356 549.898 585.684 522.001 576.489C473.019 560.427 406.272 547.117 338.901 539.966C308.422 536.73 279.674 547.628 251.863 558.156C215.481 571.949 177.85 586.195 136.361 568.657C103.157 554.609 84.7394 525.805 66.9458 497.936C49.6063 470.806 31.6708 442.768 0 427.926L1.22029 425.343C33.629 440.554 51.7915 468.933 69.3296 496.291C87.7191 525.067 105.059 552.225 137.439 565.904C177.879 582.931 213.324 569.593 250.954 555.404C279.05 544.733 308.138 533.722 339.298 537.043C406.84 544.194 473.814 557.56 522.966 573.68C551.345 582.96 577.283 597.688 602.427 611.963C626.379 625.528 651.125 639.547 678 649.026L677.007 651.807Z" fill="url(#paint0_linear_20_4317)"/>
<path d="M659.184 589.883C638.269 581.37 622.575 570.245 607.364 559.461C586.705 544.789 567.18 530.912 536.247 524.357C476.809 512.362 416.337 506.231 355.7 506.052C335.466 506.052 315.374 507.301 295.935 508.606C239.773 512.324 186.704 515.843 131.337 487.89C114.31 479.376 99.2404 463.427 84.5969 448.159C64.5331 427.102 43.7881 405.364 18.2471 402.242L18.616 399.404C45.1502 402.639 66.2358 424.775 86.7253 446.173C101.199 461.355 116.183 477.049 132.699 485.392C187.47 513.033 240.142 509.543 295.906 505.825C315.402 504.52 335.637 502.987 355.871 503.271C416.707 503.439 477.38 509.589 537.013 521.632C568.514 528.33 588.265 542.349 609.181 557.219C624.25 567.918 639.83 578.957 660.433 587.301L659.184 589.883Z" fill="url(#paint1_linear_20_4317)"/>
<path d="M646.131 526.657C637.305 520.811 629.586 515.305 622.122 509.942C591.728 488.232 569.763 472.567 521.746 471.233C500.888 470.665 480.228 474.354 460.249 477.902C441.774 481.194 422.647 484.599 403.349 484.628H402.839C320.086 484.628 227.343 449.75 155.744 419.356C144.361 414.183 133.259 408.414 122.483 402.073C94.1046 386.011 61.7243 367.792 31.671 373.553L31.1318 370.715C62.3486 364.755 95.0411 383.23 123.959 399.548C134.637 405.813 145.645 411.497 156.935 416.575C292.359 474.099 359.504 481.648 402.782 481.648H403.435C422.477 481.648 441.491 478.242 459.852 474.95C479.944 471.375 500.717 467.657 521.916 468.253C570.813 469.615 593.062 485.507 623.853 507.501C631.289 512.808 639.008 518.313 647.777 524.131L646.131 526.657Z" fill="url(#paint2_linear_20_4317)"/>
<path d="M447.25 464.222C422.645 464.222 390.038 450.231 363.447 438.681C353.6 434.453 344.291 430.48 336.317 427.557C284.412 408.6 232.393 387.287 182.106 366.656L161.162 358.142C156.338 356.155 151.343 353.999 146.263 351.785C112.521 337.085 74.2945 320.426 42.0845 343.13L40.4385 340.802C73.9823 317.191 112.975 334.19 147.398 349.174C152.45 351.388 157.416 353.545 162.241 355.531L183.184 364.045C233.443 384.676 285.348 405.989 337.282 424.917C345.341 427.755 354.678 431.87 364.554 436.099C392.933 448.302 428.378 463.456 452.727 461.015C470.975 459.142 483.944 449.323 497.793 438.908C509.144 430.395 521.007 421.37 536.246 417.028C581.652 404.002 613.493 430.707 638.552 458.546L636.452 460.448C610.741 431.899 580.886 407.209 537.126 419.753C522.426 423.953 510.819 432.722 499.609 441.179C486.129 451.367 472.166 461.895 453.124 463.882C451.174 464.1 449.213 464.214 447.25 464.222Z" fill="url(#paint3_linear_20_4317)"/>
<path d="M470.777 433.573C445.576 433.573 412.487 418.589 385.413 406.33C375.026 401.619 365.236 397.191 357.034 394.041C337.368 386.578 317.304 378.859 298.12 371.338C261.738 357.149 224.136 342.704 186.789 329.281C181.369 327.323 175.835 325.223 170.216 323.094C131.536 308.366 91.493 293.155 54.6288 314.325L53.2383 311.856C91.266 290.004 133.749 306.18 171.238 320.37C176.913 322.498 182.334 324.57 187.754 326.528C225.129 339.951 262.76 354.51 299.141 368.614C318.439 376.078 338.389 383.797 358.056 391.317C366.57 394.524 376.275 398.951 386.69 403.69C416.062 416.972 452.614 433.545 477.503 430.253C496.8 427.727 514.395 409.167 531.422 391.204C550.89 370.657 569.308 351.246 590.536 353.176C605.037 354.481 618.915 365.776 633.359 387.713L630.976 389.245C617.155 368.103 603.845 357.234 590.28 355.985C570.415 354.169 552.451 373.013 533.523 393.162C516.155 411.466 498.219 430.423 477.928 433.062C475.559 433.396 473.17 433.567 470.777 433.573Z" fill="url(#paint4_linear_20_4317)"/>
<path d="M436.552 369.125C387.286 369.125 334.388 346.904 283.05 325.393C212.557 295.851 139.68 265.287 73.0467 289.692L72.167 287.138C139.766 262.364 213.182 293.126 284.157 322.896C335.778 344.549 389.159 366.94 438.34 366.401C464.761 366.088 488.854 350.054 512.125 334.56C546.634 311.573 582.334 287.791 623.455 319.973L621.696 322.186C582.192 291.282 548.932 313.446 513.686 336.915C490.046 352.637 465.612 368.926 438.34 369.239L436.552 369.125Z" fill="url(#paint5_linear_20_4317)"/>
<path d="M350.761 284.13C317.189 284.13 282.964 279.306 249.817 274.623C199.927 267.557 148.363 260.263 98.586 269.401L98.0752 266.563C148.306 257.34 200.239 264.662 250.214 271.757C285.745 276.78 322.495 281.945 358.224 281.15C387.228 280.526 416.6 276.553 445.007 272.637C490.669 266.478 537.891 260.121 584.887 267.301L584.461 270.139C537.863 263.016 490.811 269.345 445.404 275.474C417.025 279.306 387.455 283.279 358.281 283.988C355.784 284.102 353.258 284.13 350.761 284.13Z" fill="url(#paint6_linear_20_4317)"/>
<path d="M129.408 252.488L129.124 249.65C158.638 246.585 189.174 243.378 217.524 231.516C226.455 227.547 235.111 222.986 243.434 217.865C256.034 210.487 268.975 202.853 284.186 199.561C328.656 189.94 376.9 198.823 423.555 207.393C462.434 214.573 502.647 221.952 540.334 218.546L540.589 221.384C502.533 224.818 462.122 217.383 423.044 210.203C376.673 201.689 328.713 192.863 284.782 202.342C270.082 205.52 257.851 212.7 244.881 220.306C236.451 225.495 227.681 230.113 218.631 234.126C189.883 246.159 159.149 249.366 129.408 252.488Z" fill="url(#paint7_linear_20_4317)"/>
<path d="M161.701 236.396L161.332 233.558C190.051 229.557 200.835 210.032 212.414 189.372C223.056 170.16 234.067 150.295 260.658 143.966C287.59 137.609 319.743 142.32 350.818 146.804C365.433 148.961 379.197 150.976 391.769 151.714C446.597 154.949 494.16 151.714 541.439 141.98L542.006 144.817C494.5 154.75 446.682 157.843 391.598 154.608C378.913 153.87 365.064 151.77 350.392 149.67C319.573 145.158 287.675 140.504 261.282 146.832C235.997 152.792 225.781 171.238 214.968 190.791C203.503 211.139 191.839 232.196 161.701 236.396Z" fill="url(#paint8_linear_20_4317)"/>
<path d="M185.685 214.205L183.783 212.105C194.823 202.115 198.569 190.366 202.57 177.908C205.55 168.543 208.643 158.837 215.142 150.097C232.453 126.798 254.134 121.122 282.854 115.616C304.507 111.473 325.734 107.812 346.252 104.265C422.308 91.0969 494.135 78.7237 571.013 45.5488L572.148 48.1597C494.958 81.3914 422.96 93.8497 346.735 107.046C326.245 110.593 305.018 114.282 283.393 118.397C255.298 123.761 234.127 129.295 217.412 151.771C211.226 160.114 208.189 169.593 205.266 178.731C201.435 191.047 197.377 203.704 185.685 214.205Z" fill="url(#paint9_linear_20_4317)"/>
<path d="M630.607 688.387C620.561 645.109 620.391 600.725 620.192 557.844C620.192 536.361 620.022 514.112 618.688 492.175C617.751 476.482 618.035 459.398 618.347 441.292C618.972 404.229 619.625 365.918 609.635 335.325C599.901 305.528 576.858 288.699 554.58 272.438C535.254 258.248 515.247 243.718 503.782 220.675C485.08 183.158 497.766 139.029 509.997 96.3468C519.277 64.0516 528.869 30.6781 524.867 0.369406L527.705 0.000488281C531.792 30.8767 522.03 64.5625 512.778 97.1414C500.66 139.284 488.145 182.874 506.336 219.426C517.517 241.817 537.212 256.319 556.283 270.139C578.986 286.656 602.342 303.768 612.36 334.446C622.377 365.123 621.838 404.059 621.214 441.349C620.902 459.398 620.618 476.425 621.554 492.005C622.888 514.027 622.973 536.305 623.058 557.844C623.257 600.583 623.427 644.797 633.417 687.791L630.607 688.387Z" fill="url(#paint10_linear_20_4317)"/>
<path d="M571.466 663.64L568.628 663.299C571.296 641.533 574.928 621.299 578.419 601.745C586.081 558.751 593.346 518.141 589.146 469.784C588.039 456.815 587.812 442.767 587.557 427.925C586.989 392.565 586.422 356.013 573.765 327.577C561.988 301.1 537.326 285.009 513.46 269.372C491.438 254.984 468.649 240.085 455.34 216.928C433.772 179.383 448.812 133.267 463.342 88.6836C470.409 67.0589 477.05 46.6545 479.235 28.0947L482.073 28.4069C479.859 47.2505 473.162 67.7968 466.067 89.5634C451.735 133.551 436.893 179.042 457.837 215.537C470.778 238.07 493.282 252.799 515.049 267.017C539.256 282.824 564.286 299.17 576.404 326.442C589.26 355.388 589.856 392.224 590.423 427.868C590.679 442.682 590.906 456.644 592.012 469.528C596.241 518.283 588.947 559.064 581.228 602.256C577.738 621.781 574.134 641.873 571.466 663.64Z" fill="url(#paint11_linear_20_4317)"/>
<path d="M516.837 637.503L514.141 636.595C516.326 630.097 518.653 623.57 521.094 616.73C531.565 587.358 542.349 556.964 542.264 527.195C541.887 516.83 540.605 506.517 538.433 496.375C536.226 485.979 534.925 475.411 534.545 464.79C534.545 450.288 537.241 434.935 539.966 420.093C544.449 395.517 549.104 370.089 540.93 347.273C529.409 314.977 500.263 294.289 469.416 272.381C440.781 252.033 411.182 231.004 397.418 199.901C379.029 158.354 396.255 123.448 414.446 86.3855C419.639 75.8569 425.003 64.9878 429.543 53.8633L432.182 54.9417C427.585 66.2932 422.193 77.0772 417 87.6341C399.064 123.988 382.122 158.354 399.972 198.652C413.424 229.046 442.711 249.734 470.92 269.969C500.774 291.168 531.622 313.104 543.456 346.223C551.97 369.777 547.174 395.573 542.605 420.519C539.909 435.247 537.128 450.458 537.241 464.704C537.62 475.155 538.912 485.553 541.101 495.779C543.283 506.054 544.574 516.499 544.96 526.996C544.96 557.276 534.176 587.897 523.648 617.496C521.321 624.506 519.022 631.005 516.837 637.503Z" fill="url(#paint12_linear_20_4317)"/>
<path d="M454.29 612.87L451.452 612.331C454.147 595.429 455.664 578.361 455.993 561.249C457.412 528.613 458.831 494.871 475.688 468.081C481.706 458.867 488.423 450.129 495.78 441.944C511.644 423.526 524.159 408.968 515.219 378.574C503.017 337.056 463.087 306.548 424.407 277.063C390.352 251.068 355.163 224.193 338.164 189.542C317.702 147.74 343.839 116.978 369.21 87.2081C372.843 82.9512 376.447 78.6944 379.937 74.4092L382.151 76.197C378.632 80.4823 374.999 84.7107 371.367 89.0527C346.649 118.113 321.08 148.166 340.718 188.379C357.404 222.433 392.339 249.11 426.138 274.906C465.216 304.59 505.542 335.381 518.001 377.95C527.394 409.819 514.425 424.888 497.993 443.959C490.713 452.04 484.071 460.674 478.128 469.784C461.697 495.921 460.25 529.379 458.859 561.533C458.521 578.73 456.994 595.883 454.29 612.87Z" fill="url(#paint13_linear_20_4317)"/>
<path d="M376.673 591.87H373.835C373.835 584.463 373.835 577.68 373.835 571.011C373.409 529.862 373.154 505.002 420.49 482.157C427.556 478.723 435.162 475.658 442.512 472.707C464.193 463.994 484.683 455.679 491.352 439.361C495.268 429.741 494.19 418.049 487.72 403.576C467.854 358.169 426.705 323.008 387.003 289.01C354.055 260.801 320 231.6 298.12 196.694C263.753 141.837 288.812 122.908 330.33 91.6917L334.587 88.4849L336.318 90.7552L331.976 94.1606C290.401 125.377 267.499 142.632 300.476 195.275C322.1 229.812 356.013 258.843 388.791 286.938C428.748 321.135 470.039 356.523 490.274 402.526C496.943 417.737 498.135 430.167 493.906 440.525C486.783 458.006 465.754 466.463 443.505 475.431C436.184 478.269 428.635 481.419 421.654 484.796C375.935 506.875 376.247 531.025 376.616 571.068C376.701 577.595 376.787 584.434 376.673 591.87Z" fill="url(#paint14_linear_20_4317)"/>
<path d="M303.342 579.61L300.504 579.44C304.023 520.469 324.484 504.577 373.863 479.972C379.539 477.134 385.413 474.467 391.061 471.884C412.884 461.895 433.487 452.473 439.305 435.815C442.852 425.683 440.837 413.367 433.118 398.156C421.767 375.623 392.082 346.336 360.752 315.318C305.839 260.944 243.632 199.333 251.238 148.876C254.388 128.046 269.514 110.451 296.19 96.5166L297.524 99.0423C271.302 112.721 257.084 129.152 254.047 149.301C246.641 198.312 308.336 259.411 362.739 313.303C394.239 344.52 423.98 373.92 435.644 396.879C443.732 412.799 445.804 425.854 442.001 436.751C435.786 454.545 414.644 464.222 392.253 474.467C386.577 477.021 380.901 479.688 375.225 482.526C325.789 507.102 306.804 521.859 303.342 579.61Z" fill="url(#paint15_linear_20_4317)"/>
<path d="M216.899 612.643L214.062 612.132C223.637 558.099 244.949 506.824 276.495 461.923C282.694 453.461 289.325 445.325 296.36 437.545C315.261 415.637 334.814 392.99 330.415 362.625C325.591 329.109 302.036 297.013 279.049 265.995C239.943 212.983 199.588 158.155 260.433 99.1553L262.391 101.199C203.278 158.496 241.192 209.89 281.319 264.32C304.42 295.537 328.287 328.003 333.224 362.199C337.822 393.87 317.815 417.027 298.489 439.418C291.593 447.142 285.095 455.212 279.021 463.597C247.648 508.13 226.441 559.011 216.899 612.643Z" fill="url(#paint16_linear_20_4317)"/>
<path d="M134.601 631.997L131.763 631.714C133.551 614.488 135.026 596.836 136.445 579.78C140.503 531.337 144.703 481.249 156.31 433.373C164.824 397.701 179.014 377.297 195.558 353.686C202.511 343.696 209.748 333.366 216.956 321.107C236.424 288.272 231.004 252.685 225.271 214.998C219.766 179.013 214.118 141.78 230.947 105.541L233.529 106.732C217.098 142.206 222.717 178.985 228.137 214.572C233.955 252.77 239.489 288.84 219.453 322.412C212.132 334.757 204.924 345.115 197.942 355.161C181.681 378.545 167.634 398.751 159.12 433.884C147.598 481.561 143.398 531.536 139.255 579.865C137.722 597.091 136.247 614.743 134.601 631.997Z" fill="url(#paint17_linear_20_4317)"/>
<path d="M79.1487 565.79L76.3108 565.592C77.7297 546.634 77.077 523.421 76.3108 498.844C74.1824 423.385 71.5147 329.451 128.868 293.438C134.913 289.607 141.015 286.258 146.889 283.023C164.995 273.034 182.079 263.612 193.657 243.293C208.074 218.234 208.755 182.789 209.379 151.544C209.606 140.674 209.805 130.43 210.543 120.979L213.381 121.207C212.671 130.572 212.444 140.788 212.246 151.6C211.621 183.186 210.912 219 196.155 244.711C184.179 265.57 166.754 275.162 148.308 285.35C142.434 288.585 136.389 291.934 130.401 295.68C74.4378 330.841 77.0486 423.867 79.177 498.617C79.9149 523.421 80.6811 546.691 79.1487 565.79Z" fill="url(#paint18_linear_20_4317)"/>
<path d="M37.8555 487.125L35.0176 486.387C40.4947 465.727 42.5663 443.081 44.7799 419.129C49.0935 372.077 53.5774 323.407 85.8158 290.856C97.3944 279.164 112.747 272.609 127.59 266.309C140.842 260.633 154.549 254.957 165.106 245.365C198.423 215.567 198.622 190.906 198.991 146.039H201.829C201.488 190.111 201.261 216.731 167.008 247.38C156.082 257.142 142.176 263.074 128.696 268.806C114.11 275.021 99.012 281.435 87.8307 292.73C56.3017 324.571 51.8746 372.73 47.5894 419.271C45.6029 442.4 43.4177 466.21 37.8555 487.125Z" fill="url(#paint19_linear_20_4317)"/>
<defs>
<linearGradient id="paint0_linear_20_4317" x1="339" y1="425.343" x2="339" y2="651.807" gradientUnits="userSpaceOnUse">
<stop stop-color="#34C796"/>
<stop offset="1" stop-color="#0B7A55"/>
</linearGradient>
<linearGradient id="paint1_linear_20_4317" x1="339.34" y1="399.404" x2="339.34" y2="589.883" gradientUnits="userSpaceOnUse">
<stop stop-color="#34C796"/>
<stop offset="1" stop-color="#0B7A55"/>
</linearGradient>
<linearGradient id="paint2_linear_20_4317" x1="339.454" y1="369.571" x2="339.454" y2="526.657" gradientUnits="userSpaceOnUse">
<stop stop-color="#34C796"/>
<stop offset="1" stop-color="#0B7A55"/>
</linearGradient>
<linearGradient id="paint3_linear_20_4317" x1="339.495" y1="329.103" x2="339.495" y2="464.222" gradientUnits="userSpaceOnUse">
<stop stop-color="#34C796"/>
<stop offset="1" stop-color="#0B7A55"/>
</linearGradient>
<linearGradient id="paint4_linear_20_4317" x1="343.299" y1="301.171" x2="343.299" y2="433.573" gradientUnits="userSpaceOnUse">
<stop stop-color="#34C796"/>
<stop offset="1" stop-color="#0B7A55"/>
</linearGradient>
<linearGradient id="paint5_linear_20_4317" x1="347.811" y1="278.082" x2="347.811" y2="369.239" gradientUnits="userSpaceOnUse">
<stop stop-color="#34C796"/>
<stop offset="1" stop-color="#0B7A55"/>
</linearGradient>
<linearGradient id="paint6_linear_20_4317" x1="341.481" y1="262.234" x2="341.481" y2="284.13" gradientUnits="userSpaceOnUse">
<stop stop-color="#34C796"/>
<stop offset="1" stop-color="#0B7A55"/>
</linearGradient>
<linearGradient id="paint7_linear_20_4317" x1="334.857" y1="195.388" x2="334.857" y2="252.488" gradientUnits="userSpaceOnUse">
<stop stop-color="#34C796"/>
<stop offset="1" stop-color="#0B7A55"/>
</linearGradient>
<linearGradient id="paint8_linear_20_4317" x1="351.669" y1="140.875" x2="351.669" y2="236.396" gradientUnits="userSpaceOnUse">
<stop stop-color="#34C796"/>
<stop offset="1" stop-color="#0B7A55"/>
</linearGradient>
<linearGradient id="paint9_linear_20_4317" x1="377.966" y1="45.5488" x2="377.966" y2="214.205" gradientUnits="userSpaceOnUse">
<stop stop-color="#34C796"/>
<stop offset="1" stop-color="#0B7A55"/>
</linearGradient>
<linearGradient id="paint10_linear_20_4317" x1="563.858" y1="0.000488281" x2="563.858" y2="688.387" gradientUnits="userSpaceOnUse">
<stop stop-color="#34C796"/>
<stop offset="1" stop-color="#0B7A55"/>
</linearGradient>
<linearGradient id="paint11_linear_20_4317" x1="518.902" y1="28.0947" x2="518.902" y2="663.64" gradientUnits="userSpaceOnUse">
<stop stop-color="#34C796"/>
<stop offset="1" stop-color="#0B7A55"/>
</linearGradient>
<linearGradient id="paint12_linear_20_4317" x1="468.849" y1="53.8633" x2="468.849" y2="637.503" gradientUnits="userSpaceOnUse">
<stop stop-color="#34C796"/>
<stop offset="1" stop-color="#0B7A55"/>
</linearGradient>
<linearGradient id="paint13_linear_20_4317" x1="425.989" y1="74.4092" x2="425.989" y2="612.87" gradientUnits="userSpaceOnUse">
<stop stop-color="#34C796"/>
<stop offset="1" stop-color="#0B7A55"/>
</linearGradient>
<linearGradient id="paint14_linear_20_4317" x1="389.172" y1="88.4849" x2="389.172" y2="591.87" gradientUnits="userSpaceOnUse">
<stop stop-color="#34C796"/>
<stop offset="1" stop-color="#0B7A55"/>
</linearGradient>
<linearGradient id="paint15_linear_20_4317" x1="347.223" y1="96.5166" x2="347.223" y2="579.61" gradientUnits="userSpaceOnUse">
<stop stop-color="#34C796"/>
<stop offset="1" stop-color="#0B7A55"/>
</linearGradient>
<linearGradient id="paint16_linear_20_4317" x1="273.976" y1="99.1553" x2="273.976" y2="612.643" gradientUnits="userSpaceOnUse">
<stop stop-color="#34C796"/>
<stop offset="1" stop-color="#0B7A55"/>
</linearGradient>
<linearGradient id="paint17_linear_20_4317" x1="182.646" y1="105.541" x2="182.646" y2="631.997" gradientUnits="userSpaceOnUse">
<stop stop-color="#34C796"/>
<stop offset="1" stop-color="#0B7A55"/>
</linearGradient>
<linearGradient id="paint18_linear_20_4317" x1="144.417" y1="120.979" x2="144.417" y2="565.79" gradientUnits="userSpaceOnUse">
<stop stop-color="#34C796"/>
<stop offset="1" stop-color="#0B7A55"/>
</linearGradient>
<linearGradient id="paint19_linear_20_4317" x1="118.423" y1="146.039" x2="118.423" y2="487.125" gradientUnits="userSpaceOnUse">
<stop stop-color="#34C796"/>
<stop offset="1" stop-color="#0B7A55"/>
</linearGradient>
</defs>
</svg>
