<svg fill="none" height="90" viewBox="0 0 91 90" width="91" xmlns="http://www.w3.org/2000/svg" xmlns:xlink="http://www.w3.org/1999/xlink"><linearGradient id="a" gradientUnits="userSpaceOnUse" x1="6.43262" x2="75.411" y1="5.93359" y2="81.6266"><stop offset="0" stop-color="#566d74"/><stop offset="1" stop-color="#131a1c"/></linearGradient><radialGradient id="b" cx="0" cy="0" gradientTransform="matrix(12.91435343 12.43744474 -12.43744474 12.91435343 42.3529 44.1621)" gradientUnits="userSpaceOnUse" r="1"><stop offset="0" stop-color="#4d646b"/><stop offset="1" stop-color="#131a1c"/><stop offset="1"/></radialGradient><linearGradient id="c" gradientUnits="userSpaceOnUse" x1="45.5004" x2="45.5004" y1="18.1426" y2="71.8602"><stop offset="0" stop-color="#111516"/><stop offset="1" stop-color="#4b5f65"/></linearGradient><linearGradient id="d" gradientUnits="userSpaceOnUse" x1="45.5004" x2="45.5004" y1="18.1426" y2="71.8602"><stop offset="0" stop-color="#fff" stop-opacity=".33"/><stop offset=".0001" stop-color="#fff" stop-opacity=".23"/><stop offset="1" stop-color="#fff" stop-opacity=".05"/></linearGradient><path d="m42.3221 11.4799c1.407-2.45566 4.9488-2.45567 6.3558 0l8.5192 14.8683c.5202.9079 1.4039 1.55 2.4282 1.7642l16.7732 3.5076c2.7702.5794 3.8646 3.9477 1.964 6.0447l-11.508 12.6968c-.7028.7754-1.0403 1.8142-.9275 2.8545l1.8472 17.0362c.3051 2.8137-2.5603 4.8955-5.1419 3.7358l-15.6316-7.0212c-.9545-.4288-2.0469-.4288-3.0014 0l-15.6316 7.0212c-2.5816 1.1597-5.447-.9221-5.1419-3.7358l1.8472-17.0362c.1128-1.0403-.2247-2.0791-.9274-2.8545l-11.5081-12.6968c-1.9006-2.097-.8062-5.4653 1.964-6.0447l16.7732-3.5076c1.0243-.2142 1.908-.8563 2.4282-1.7642z" fill="url(#a)"/><path d="m43.9115 24.5993c.7035-1.2278 2.4744-1.2278 3.1779 0l4.6082 8.0427c.7804 1.3619 2.1059 2.3249 3.6423 2.6462l9.0731 1.8974c1.3851.2897 1.9323 1.9739.982 3.0224l-6.225 6.868c-1.0541 1.163-1.5604 2.7213-1.3912 4.2818l.9992 9.2153c.1525 1.4069-1.2801 2.4477-2.571 1.8679l-8.4555-3.798c-1.4318-.6431-3.0703-.6431-4.5021 0l-8.4556 3.798c-1.2908.5798-2.7235-.461-2.5709-1.8679l.9992-9.2153c.1692-1.5605-.3371-3.1188-1.3912-4.2818l-6.2251-6.868c-.9503-1.0485-.4031-2.7327.982-3.0224l9.0732-1.8974c1.5363-.3213 2.8619-1.2844 3.6422-2.6462z" fill="url(#b)" stroke="url(#c)" stroke-width="3.66257"/><path d="m48.8372 23.5978c-1.4774-2.5784-5.1962-2.5784-6.6735 0l-4.6083 8.0427c-.4942.8625-1.3338 1.4725-2.3068 1.676l-9.0731 1.8974c-2.9087.6083-4.0579 4.1451-2.0622 6.3469l6.225 6.8681c.6676.7365.9883 1.7234.8811 2.7117l-.9992 9.2154c-.3203 2.9543 2.6882 5.1402 5.399 3.9226l8.4556-3.798c.9068-.4073 1.9445-.4073 2.8513 0l8.4555 3.798c2.7108 1.2176 5.7194-.9683 5.3991-3.9226l-.9993-9.2154c-.1071-.9883.2136-1.9752.8812-2.7117l6.225-6.8681c1.9957-2.2018.8465-5.7386-2.0623-6.3469l-9.0731-1.8974c-.973-.2035-1.8125-.8135-2.3067-1.676z" stroke="url(#d)" stroke-width=".366257"/></svg>