<svg fill="none" height="90" viewBox="0 0 90 90" width="90" xmlns="http://www.w3.org/2000/svg" xmlns:xlink="http://www.w3.org/1999/xlink"><linearGradient id="a" gradientUnits="userSpaceOnUse" x1="14.9259" x2="80.2593" y1="11.5185" y2="80.4815"><stop offset="0" stop-color="#63fefe"/><stop offset="1" stop-color="#1f6d6d"/></linearGradient><radialGradient id="b" cx="0" cy="0" gradientTransform="matrix(29.55555495 30.07406126 -30.07406126 29.55555495 43.9631 49.8891)" gradientUnits="userSpaceOnUse" r="1"><stop offset="0" stop-color="#50d5d5"/><stop offset="1" stop-color="#0e3c3c"/></radialGradient><linearGradient id="c" gradientUnits="userSpaceOnUse" x1="31.0001" x2="49.1482" y1="21.889" y2="73.2224"><stop offset="0" stop-color="#1d6f6f"/><stop offset="1" stop-color="#64e5e5"/></linearGradient><linearGradient id="d" gradientUnits="userSpaceOnUse" x1="26.6162" x2="66.4479" y1="27.0742" y2="76.0978"><stop offset="0" stop-color="#fff" stop-opacity=".44"/><stop offset="1" stop-color="#fff" stop-opacity=".12"/></linearGradient><path d="m41.124 17.7135c1.7227-2.9838 6.0293-2.9838 7.752 0l29.0701 50.3509c1.7227 2.9837-.4306 6.7134-3.876 6.7134h-58.1402c-3.4454 0-5.5987-3.7297-3.876-6.7134z" fill="url(#a)"/><path d="m44.0824 32.2208c.4079-.7065 1.4275-.7065 1.8354 0l18.4347 31.9299c.4079.7064-.1019 1.5895-.9177 1.5895h-36.8694c-.8158 0-1.3256-.8831-.9177-1.5896z" fill="url(#b)" stroke="url(#c)" stroke-width="3.55704"/><path d="m47.6377 31.2278c-1.1723-2.0304-4.1029-2.0304-5.2752 0l-18.4347 31.9299c-1.1723 2.0304.2931 4.5684 2.6376 4.5684h36.8694c2.3445 0 3.8098-2.538 2.6376-4.5684z" stroke="url(#d)" stroke-width=".414815"/></svg>