<svg xmlns="http://www.w3.org/2000/svg" xmlns:xlink="http://www.w3.org/1999/xlink" width="500" zoomAndPan="magnify" viewBox="0 0 375 374.999991" height="500" preserveAspectRatio="xMidYMid meet" version="1.0"><defs><clipPath id="16f4f94702"><path d="M 26.234375 83 L 348.734375 83 L 348.734375 292 L 26.234375 292 Z M 26.234375 83 " clip-rule="nonzero"/></clipPath></defs><path fill="#ffffff" d="M 288.042969 189.617188 C 285.78125 189.617188 283.945312 191.449219 283.945312 193.714844 C 283.945312 195.976562 285.78125 197.808594 288.042969 197.808594 C 290.304688 197.808594 292.140625 195.976562 292.140625 193.714844 C 292.140625 191.449219 290.304688 189.617188 288.042969 189.617188 " fill-opacity="1" fill-rule="nonzero"/><g clip-path="url(#16f4f94702)"><path fill="#ffffff" d="M 297.984375 233.46875 L 269.546875 247.332031 C 267.640625 248.265625 266.769531 250.503906 267.542969 252.480469 L 277.398438 277.519531 C 277.667969 278.210938 278.125 278.816406 278.714844 279.265625 L 284.566406 283.726562 L 251.785156 283.726562 L 233.058594 260.464844 C 232.023438 259.179688 230.316406 258.648438 228.742188 259.109375 C 228.253906 259.253906 179.433594 273.277344 125.636719 264.09375 C 124.179688 263.84375 122.6875 264.414062 121.765625 265.582031 C 120.839844 266.746094 120.625 268.324219 121.207031 269.691406 C 123.605469 275.332031 126.21875 280.171875 128.335938 283.726562 L 93.132812 283.726562 C 86.179688 269.308594 84.121094 243.855469 83.769531 238.832031 C 85.800781 238.433594 87.972656 238.113281 90.304688 237.90625 C 97.390625 237.273438 106.832031 237.863281 116.828125 238.480469 C 140.621094 239.957031 170.234375 241.789062 192.589844 229.300781 C 223.457031 212.050781 245.082031 188.726562 245.984375 187.742188 C 246.855469 186.796875 247.226562 185.496094 246.992188 184.238281 C 246.753906 182.976562 245.933594 181.902344 244.785156 181.335938 C 240.3125 179.136719 233.652344 174.414062 232.847656 170.808594 C 232.703125 170.179688 232.691406 169.449219 233.539062 168.386719 C 236.609375 164.535156 242.25 160.972656 247.945312 161.707031 C 252.511719 162.296875 256.328125 165.761719 258.976562 171.730469 C 259.609375 173.164062 261.015625 174.105469 262.582031 174.144531 C 279.582031 174.617188 292.8125 171.925781 298.441406 170.527344 C 300.675781 173.765625 304.921875 179.800781 309.628906 185.855469 C 323.441406 203.640625 327.980469 204.605469 331.167969 204.121094 C 331.214844 204.113281 331.261719 204.101562 331.3125 204.097656 C 332.871094 203.796875 334.253906 203.539062 335.480469 203.3125 C 325.421875 216.007812 312.613281 226.339844 297.984375 233.46875 Z M 209.792969 277.972656 L 205.5 272.230469 C 216.414062 270.5625 224.449219 268.660156 228.386719 267.636719 L 235.546875 276.527344 C 225.554688 279.957031 213.839844 278.601562 209.792969 277.972656 Z M 136.058594 277.808594 C 135.460938 277.632812 134.84375 277.589844 134.238281 277.6875 C 133.480469 276.347656 132.679688 274.875 131.863281 273.273438 C 140.417969 274.429688 148.773438 275.050781 156.773438 275.285156 C 157.066406 276.183594 157.460938 277.394531 157.871094 278.65625 C 147.761719 278.417969 138.039062 278.078125 136.058594 277.808594 Z M 73.636719 221.53125 C 73.03125 220.148438 71.707031 219.210938 70.195312 219.097656 C 70.117188 219.09375 69.800781 219.074219 69.269531 219.074219 C 66.460938 219.074219 57.621094 219.625 45.605469 225.6875 C 51.039062 217.199219 60.203125 206.886719 66.679688 200.496094 C 67.960938 199.230469 68.261719 197.269531 67.414062 195.679688 C 66.5625 194.09375 64.773438 193.25 63 193.613281 C 62.847656 193.648438 50.414062 196.222656 38.21875 199.257812 C 47.078125 187.027344 67.4375 175.089844 75.914062 170.910156 C 77.585938 170.082031 78.484375 168.230469 78.09375 166.40625 C 77.699219 164.585938 76.121094 163.257812 74.257812 163.191406 C 73.535156 163.167969 60.476562 162.746094 47.933594 164.996094 C 66.492188 143.0625 90.136719 140.058594 90.394531 140.027344 C 92.296875 139.816406 93.789062 138.308594 93.992188 136.410156 C 94.191406 134.507812 93.042969 132.726562 91.226562 132.121094 C 88.664062 131.269531 82.691406 128.984375 78.109375 126.316406 C 102.378906 113.160156 131.753906 126.003906 132.0625 126.140625 C 133.730469 126.894531 135.691406 126.441406 136.859375 125.039062 C 138.027344 123.632812 138.117188 121.621094 137.082031 120.117188 C 136.203125 118.855469 130.253906 110.445312 122.957031 104.878906 C 148.847656 97.785156 173.238281 116.703125 173.503906 116.914062 C 175.078125 118.164062 177.324219 118.078125 178.796875 116.714844 C 180.273438 115.351562 180.53125 113.117188 179.40625 111.453125 C 179.066406 110.949219 172.910156 101.882812 165.78125 95.054688 C 178.214844 93.742188 196.003906 97.960938 224.324219 121.921875 C 225.621094 123.019531 227.472656 123.195312 228.957031 122.355469 C 230.4375 121.515625 231.238281 119.84375 230.96875 118.164062 C 229.785156 110.871094 225.792969 102.585938 222.144531 96.1875 C 232.507812 101.308594 250.757812 112.402344 278.539062 136.113281 C 279.574219 136.996094 280.976562 137.304688 282.28125 136.9375 C 283.585938 136.570312 284.625 135.582031 285.046875 134.289062 C 287.882812 125.648438 282.597656 113.125 277.289062 103.632812 C 284.457031 108.328125 293.246094 115.640625 300.0625 126.214844 C 311.390625 143.78125 300.828125 158.691406 297.898438 162.261719 C 294.273438 163.230469 281.773438 166.175781 265.257812 166.054688 C 260.433594 156.972656 253.839844 154.265625 248.980469 153.640625 C 241.210938 152.640625 232.664062 156.4375 227.179688 163.308594 C 224.957031 166.097656 224.171875 169.308594 224.90625 172.59375 C 226.191406 178.3125 232.050781 183.0625 236.414062 185.890625 C 229.101562 193.105469 211.246094 209.558594 188.617188 222.199219 C 168.351562 233.523438 140.066406 231.769531 117.332031 230.359375 C 107.023438 229.71875 97.277344 229.117188 89.585938 229.800781 C 78.894531 230.753906 70.902344 233.753906 65.179688 236.988281 C 67.425781 233.253906 70.246094 229.222656 73.074219 225.710938 C 74.023438 224.53125 74.238281 222.921875 73.636719 221.53125 Z M 348.085938 195.820312 C 347.378906 194.503906 346.007812 193.683594 344.511719 193.683594 C 344.511719 193.683594 344.507812 193.683594 344.507812 193.683594 C 343.203125 193.683594 338.171875 194.503906 330.316406 196.003906 C 326.417969 194.425781 314.742188 179.917969 305.261719 166.105469 C 311.832031 157.421875 318.613281 139.964844 306.902344 121.804688 C 291.628906 98.113281 267.9375 89.410156 266.9375 89.050781 C 265.25 88.445312 263.363281 89.015625 262.296875 90.457031 C 261.230469 91.894531 261.230469 93.863281 262.292969 95.300781 C 267.792969 102.722656 275.164062 115.214844 277.203125 124.359375 C 232.316406 87.222656 213.5 84.015625 212.6875 83.890625 C 211.0625 83.648438 209.460938 84.398438 208.605469 85.800781 C 207.753906 87.199219 207.824219 88.972656 208.785156 90.296875 C 208.863281 90.410156 214.449219 98.1875 218.644531 106.992188 C 194.039062 88.671875 174.148438 83.121094 155.246094 88.996094 C 153.699219 89.480469 152.582031 90.832031 152.410156 92.445312 C 152.234375 94.054688 153.035156 95.617188 154.441406 96.417969 C 155.828125 97.207031 157.304688 98.335938 158.804688 99.667969 C 146.15625 94.832031 128.902344 91.957031 111.429688 100.605469 C 109.898438 101.363281 109.003906 102.992188 109.1875 104.691406 C 109.371094 106.386719 110.597656 107.785156 112.25 108.199219 C 114.988281 108.878906 118.269531 111.300781 121.390625 114.265625 C 107.796875 111.1875 86.652344 109.707031 68.519531 122.75 C 67.550781 123.445312 66.9375 124.535156 66.839844 125.726562 C 66.746094 126.917969 67.179688 128.09375 68.027344 128.933594 C 70.339844 131.238281 73.757812 133.328125 77.152344 135.050781 C 65.421875 139.191406 47.667969 148.628906 34.433594 169.730469 C 33.496094 171.21875 33.625 173.140625 34.746094 174.492188 C 35.871094 175.84375 37.738281 176.320312 39.371094 175.675781 C 44.71875 173.5625 51.609375 172.457031 57.828125 171.886719 C 45.8125 179.535156 30.175781 191.609375 26.628906 204.382812 C 26.238281 205.792969 26.636719 207.308594 27.671875 208.347656 C 28.707031 209.386719 30.222656 209.78125 31.636719 209.390625 C 38.0625 207.613281 45.59375 205.808594 51.839844 204.386719 C 43.890625 213.367188 33.667969 226.492188 32.964844 235.292969 C 32.839844 236.863281 33.632812 238.371094 35.007812 239.152344 C 36.375 239.933594 38.074219 239.851562 39.363281 238.941406 C 48.042969 232.816406 55.554688 229.882812 60.917969 228.480469 C 56.332031 235.261719 51.378906 244.292969 52.636719 250.140625 C 52.980469 251.726562 54.234375 252.960938 55.828125 253.273438 C 56.09375 253.324219 56.355469 253.351562 56.617188 253.351562 C 57.9375 253.351562 59.203125 252.703125 59.96875 251.582031 C 60.03125 251.496094 64.523438 245.144531 75.773438 241.039062 C 76.417969 249.414062 79.011719 275.382812 87.121094 289.792969 C 87.84375 291.074219 89.199219 291.863281 90.667969 291.863281 L 135.796875 291.863281 C 137.324219 291.863281 138.726562 291.007812 139.421875 289.640625 C 139.972656 288.558594 139.996094 287.308594 139.535156 286.214844 C 143.851562 286.453125 151.070312 286.675781 163.46875 286.914062 C 163.496094 286.914062 163.523438 286.914062 163.546875 286.914062 C 164.847656 286.914062 166.070312 286.296875 166.839844 285.242188 C 167.621094 284.171875 167.828125 282.785156 167.398438 281.527344 C 166.992188 280.339844 166.121094 277.691406 165.363281 275.386719 C 176.722656 275.335938 187.191406 274.550781 196.273438 273.476562 L 204.242188 284.136719 C 204.835938 284.933594 205.699219 285.480469 206.671875 285.6875 C 207.089844 285.773438 212.746094 286.921875 220.214844 286.921875 C 226.417969 286.921875 233.875 286.128906 240.636719 283.289062 C 240.722656 283.253906 240.800781 283.199219 240.882812 283.15625 L 246.671875 290.347656 C 247.445312 291.308594 248.609375 291.863281 249.839844 291.863281 L 296.609375 291.863281 C 298.355469 291.863281 299.90625 290.75 300.464844 289.097656 C 301.023438 287.445312 300.464844 285.617188 299.074219 284.5625 L 284.550781 273.484375 L 276.492188 253 L 301.550781 240.785156 C 320.382812 231.601562 336.410156 217.492188 347.910156 199.984375 C 348.730469 198.734375 348.796875 197.136719 348.085938 195.820312 " fill-opacity="1" fill-rule="nonzero"/></g></svg>