<svg xmlns="http://www.w3.org/2000/svg" xmlns:xlink="http://www.w3.org/1999/xlink" width="500" zoomAndPan="magnify" viewBox="0 0 375 374.999991" height="500" preserveAspectRatio="xMidYMid meet" version="1.0"><defs><clipPath id="244218adc0"><path d="M 43.289062 94 L 332 94 L 332 280.691406 L 43.289062 280.691406 Z M 43.289062 94 " clip-rule="nonzero"/></clipPath></defs><path fill="#000000" d="M 277.417969 189.394531 C 275.394531 189.394531 273.753906 191.035156 273.753906 193.058594 C 273.753906 195.082031 275.394531 196.722656 277.417969 196.722656 C 279.441406 196.722656 281.082031 195.082031 281.082031 193.058594 C 281.082031 191.035156 279.441406 189.394531 277.417969 189.394531 " fill-opacity="1" fill-rule="nonzero"/><g clip-path="url(#244218adc0)"><path fill="#000000" d="M 286.308594 228.613281 L 260.875 241.007812 C 259.167969 241.84375 258.390625 243.84375 259.085938 245.609375 L 267.894531 268.003906 C 268.140625 268.621094 268.546875 269.164062 269.074219 269.566406 L 274.308594 273.554688 L 244.992188 273.554688 L 228.242188 252.75 C 227.320312 251.601562 225.792969 251.128906 224.386719 251.539062 C 223.949219 251.667969 180.289062 264.210938 132.183594 255.996094 C 130.878906 255.773438 129.542969 256.28125 128.71875 257.328125 C 127.890625 258.371094 127.699219 259.777344 128.222656 261.003906 C 130.363281 266.046875 132.703125 270.375 134.597656 273.554688 L 103.117188 273.554688 C 96.898438 260.660156 95.054688 237.898438 94.742188 233.40625 C 96.558594 233.050781 98.5 232.765625 100.585938 232.578125 C 106.921875 232.011719 115.367188 232.539062 124.304688 233.089844 C 145.582031 234.414062 172.066406 236.050781 192.054688 224.882812 C 219.660156 209.457031 238.996094 188.597656 239.804688 187.71875 C 240.582031 186.875 240.914062 185.710938 240.703125 184.585938 C 240.492188 183.457031 239.761719 182.496094 238.730469 181.992188 C 234.734375 180.019531 228.773438 175.796875 228.054688 172.574219 C 227.929688 172.011719 227.917969 171.359375 228.675781 170.410156 C 231.421875 166.964844 236.464844 163.78125 241.558594 164.4375 C 245.640625 164.964844 249.054688 168.0625 251.421875 173.398438 C 251.992188 174.679688 253.246094 175.523438 254.648438 175.558594 C 269.851562 175.980469 281.683594 173.574219 286.714844 172.324219 C 288.714844 175.222656 292.511719 180.617188 296.71875 186.03125 C 309.074219 201.933594 313.132812 202.796875 315.980469 202.367188 C 316.023438 202.359375 316.066406 202.347656 316.109375 202.34375 C 317.503906 202.078125 318.738281 201.84375 319.835938 201.640625 C 310.84375 212.996094 299.386719 222.234375 286.308594 228.613281 Z M 207.4375 268.40625 L 203.597656 263.273438 C 213.359375 261.78125 220.546875 260.082031 224.070312 259.164062 L 230.46875 267.113281 C 221.535156 270.183594 211.058594 268.972656 207.4375 268.40625 Z M 141.503906 268.261719 C 140.96875 268.105469 140.414062 268.066406 139.875 268.152344 C 139.199219 266.957031 138.480469 265.640625 137.75 264.203125 C 145.398438 265.238281 152.871094 265.796875 160.023438 266.003906 C 160.285156 266.808594 160.640625 267.890625 161.007812 269.019531 C 151.96875 268.804688 143.273438 268.5 141.503906 268.261719 Z M 85.679688 217.9375 C 85.140625 216.695312 83.953125 215.859375 82.605469 215.757812 C 82.53125 215.757812 82.25 215.734375 81.773438 215.734375 C 79.261719 215.734375 71.355469 216.230469 60.609375 221.652344 C 65.472656 214.058594 73.664062 204.839844 79.457031 199.125 C 80.605469 197.992188 80.871094 196.238281 80.113281 194.816406 C 79.351562 193.398438 77.753906 192.644531 76.167969 192.96875 C 76.03125 193 64.910156 195.304688 54.003906 198.019531 C 61.929688 187.078125 80.136719 176.402344 87.71875 172.664062 C 89.210938 171.925781 90.011719 170.269531 89.664062 168.636719 C 89.3125 167.007812 87.902344 165.824219 86.234375 165.765625 C 85.589844 165.742188 73.910156 165.367188 62.695312 167.375 C 79.289062 147.761719 100.4375 145.078125 100.667969 145.046875 C 102.367188 144.859375 103.703125 143.511719 103.882812 141.8125 C 104.0625 140.113281 103.035156 138.519531 101.410156 137.980469 C 99.121094 137.21875 93.777344 135.175781 89.679688 132.785156 C 111.382812 121.023438 137.652344 132.507812 137.925781 132.628906 C 139.417969 133.304688 141.171875 132.898438 142.214844 131.644531 C 143.261719 130.386719 143.339844 128.589844 142.414062 127.246094 C 141.628906 126.117188 136.308594 118.59375 129.785156 113.617188 C 152.941406 107.273438 174.75 124.191406 174.988281 124.378906 C 176.394531 125.496094 178.402344 125.417969 179.722656 124.199219 C 181.039062 122.980469 181.269531 120.984375 180.265625 119.496094 C 179.960938 119.042969 174.457031 110.9375 168.082031 104.832031 C 179.199219 103.65625 195.109375 107.429688 220.433594 128.855469 C 221.597656 129.839844 223.25 129.996094 224.578125 129.246094 C 225.902344 128.496094 226.617188 127 226.375 125.496094 C 225.316406 118.972656 221.75 111.566406 218.488281 105.84375 C 227.753906 110.425781 244.070312 120.34375 268.917969 141.550781 C 269.84375 142.339844 271.09375 142.613281 272.265625 142.285156 C 273.433594 141.957031 274.359375 141.070312 274.738281 139.917969 C 277.273438 132.191406 272.546875 120.992188 267.796875 112.5 C 274.210938 116.703125 282.070312 123.238281 288.164062 132.695312 C 298.296875 148.40625 288.851562 161.738281 286.230469 164.933594 C 282.988281 165.800781 271.808594 168.433594 257.039062 168.324219 C 252.726562 160.203125 246.828125 157.78125 242.484375 157.222656 C 235.535156 156.328125 227.890625 159.722656 222.988281 165.871094 C 221 168.363281 220.296875 171.234375 220.957031 174.171875 C 222.105469 179.285156 227.34375 183.535156 231.246094 186.0625 C 224.707031 192.515625 208.738281 207.226562 188.503906 218.53125 C 170.378906 228.660156 145.082031 227.089844 124.757812 225.828125 C 115.535156 225.257812 106.820312 224.71875 99.941406 225.332031 C 90.378906 226.179688 83.234375 228.863281 78.117188 231.757812 C 80.125 228.417969 82.648438 224.8125 85.175781 221.671875 C 86.027344 220.617188 86.21875 219.179688 85.679688 217.9375 Z M 331.113281 194.941406 C 330.476562 193.765625 329.253906 193.03125 327.914062 193.03125 C 327.914062 193.03125 327.910156 193.03125 327.910156 193.03125 C 326.742188 193.03125 322.242188 193.765625 315.222656 195.105469 C 311.734375 193.695312 301.292969 180.71875 292.816406 168.367188 C 298.691406 160.601562 304.753906 144.992188 294.28125 128.753906 C 280.621094 107.566406 259.4375 99.78125 258.542969 99.460938 C 257.03125 98.921875 255.347656 99.429688 254.390625 100.71875 C 253.4375 102.003906 253.4375 103.765625 254.390625 105.050781 C 259.304688 111.6875 265.898438 122.859375 267.722656 131.039062 C 227.582031 97.828125 210.753906 94.960938 210.027344 94.847656 C 208.574219 94.628906 207.144531 95.300781 206.378906 96.554688 C 205.617188 97.804688 205.679688 99.390625 206.539062 100.574219 C 206.609375 100.679688 211.601562 107.632812 215.355469 115.507812 C 193.351562 99.125 175.5625 94.160156 158.660156 99.414062 C 157.277344 99.84375 156.28125 101.054688 156.121094 102.496094 C 155.964844 103.9375 156.683594 105.332031 157.941406 106.050781 C 159.179688 106.753906 160.503906 107.765625 161.839844 108.957031 C 150.53125 104.632812 135.101562 102.0625 119.476562 109.792969 C 118.109375 110.472656 117.308594 111.929688 117.472656 113.449219 C 117.636719 114.964844 118.730469 116.214844 120.210938 116.585938 C 122.660156 117.195312 125.59375 119.359375 128.382812 122.011719 C 116.226562 119.257812 97.316406 117.933594 81.101562 129.597656 C 80.234375 130.21875 79.6875 131.195312 79.601562 132.261719 C 79.515625 133.328125 79.902344 134.375 80.664062 135.128906 C 82.730469 137.1875 85.785156 139.054688 88.824219 140.597656 C 78.332031 144.300781 62.457031 152.738281 50.621094 171.609375 C 49.785156 172.941406 49.898438 174.660156 50.902344 175.867188 C 51.90625 177.078125 53.578125 177.503906 55.039062 176.929688 C 59.816406 175.039062 65.980469 174.050781 71.542969 173.539062 C 60.796875 180.378906 46.816406 191.175781 43.644531 202.601562 C 43.292969 203.863281 43.648438 205.21875 44.574219 206.144531 C 45.5 207.074219 46.859375 207.429688 48.121094 207.078125 C 53.867188 205.488281 60.601562 203.875 66.1875 202.601562 C 59.078125 210.632812 49.9375 222.371094 49.308594 230.238281 C 49.195312 231.648438 49.90625 232.996094 51.136719 233.691406 C 52.355469 234.390625 53.878906 234.320312 55.03125 233.503906 C 62.792969 228.027344 69.511719 225.402344 74.304688 224.148438 C 70.207031 230.214844 65.773438 238.289062 66.902344 243.519531 C 67.207031 244.9375 68.332031 246.039062 69.753906 246.320312 C 69.988281 246.367188 70.226562 246.390625 70.460938 246.390625 C 71.640625 246.390625 72.773438 245.808594 73.457031 244.808594 C 73.511719 244.730469 77.53125 239.050781 87.589844 235.378906 C 88.167969 242.871094 90.488281 266.089844 97.738281 278.976562 C 98.382812 280.125 99.597656 280.832031 100.910156 280.832031 L 141.265625 280.832031 C 142.632812 280.832031 143.886719 280.0625 144.511719 278.839844 C 145 277.875 145.019531 276.753906 144.609375 275.777344 C 148.46875 275.992188 154.925781 276.191406 166.015625 276.40625 C 166.039062 276.40625 166.0625 276.40625 166.085938 276.40625 C 167.246094 276.40625 168.339844 275.851562 169.027344 274.910156 C 169.726562 273.953125 169.914062 272.710938 169.527344 271.589844 C 169.164062 270.523438 168.382812 268.15625 167.707031 266.09375 C 177.867188 266.050781 187.226562 265.351562 195.351562 264.390625 L 202.476562 273.921875 C 203.007812 274.632812 203.777344 275.125 204.648438 275.304688 C 205.023438 275.382812 210.078125 276.410156 216.761719 276.410156 C 222.304688 276.410156 228.972656 275.703125 235.023438 273.164062 C 235.097656 273.132812 235.167969 273.082031 235.242188 273.042969 L 240.417969 279.476562 C 241.109375 280.332031 242.152344 280.832031 243.253906 280.832031 L 285.078125 280.832031 C 286.636719 280.832031 288.023438 279.835938 288.523438 278.359375 C 289.023438 276.878906 288.523438 275.246094 287.28125 274.300781 L 274.292969 264.394531 L 267.089844 246.078125 L 289.496094 235.152344 C 306.335938 226.941406 320.667969 214.324219 330.953125 198.667969 C 331.6875 197.550781 331.746094 196.121094 331.113281 194.941406 " fill-opacity="1" fill-rule="nonzero"/></g></svg>