<svg xmlns="http://www.w3.org/2000/svg" xmlns:xlink="http://www.w3.org/1999/xlink" width="500" zoomAndPan="magnify" viewBox="0 0 375 374.999991" height="500" preserveAspectRatio="xMidYMid meet" version="1.0"><defs><clipPath id="c3a58e772c"><path d="M 80.523438 72.882812 L 294.273438 72.882812 L 294.273438 279 L 80.523438 279 Z M 80.523438 72.882812 " clip-rule="nonzero"/></clipPath><clipPath id="cd9d01799c"><path d="M 80.523438 96 L 294.273438 96 L 294.273438 302.382812 L 80.523438 302.382812 Z M 80.523438 96 " clip-rule="nonzero"/></clipPath></defs><path fill="#6fff90" d="M 253.574219 77.507812 L 253.691406 77.507812 L 253.804688 77.488281 L 253.816406 77.488281 L 253.898438 77.476562 C 253.976562 77.464844 254.105469 77.453125 254.277344 77.441406 C 254.625 77.417969 255.148438 77.402344 255.832031 77.433594 C 257.191406 77.5 259.171875 77.761719 261.566406 78.558594 C 266.332031 80.148438 272.835938 83.90625 279.386719 92.6875 C 285.867188 101.378906 286.917969 109.460938 286.390625 115.339844 C 286.125 118.292969 285.460938 120.703125 284.863281 122.371094 C 284.566406 123.203125 284.289062 123.847656 284.085938 124.277344 C 283.988281 124.492188 283.90625 124.652344 283.851562 124.753906 L 283.792969 124.867188 L 283.78125 124.886719 L 283.78125 124.890625 L 283.777344 124.890625 L 283.769531 124.910156 L 261.144531 166.476562 C 259.929688 168.707031 256.628906 168.632812 255.511719 166.320312 C 251.535156 158.09375 244.855469 144.886719 237.351562 132.605469 C 233.597656 126.464844 229.625 120.527344 225.664062 115.550781 C 221.722656 110.597656 217.722656 106.496094 213.894531 104.117188 C 204.214844 98.105469 191.332031 94.441406 178.386719 96.105469 C 165.390625 97.773438 152.421875 104.800781 142.679688 119.988281 C 132.84375 135.316406 134.097656 151.515625 139.976562 164.738281 C 145.824219 177.894531 156.339844 188.308594 165.398438 192.199219 C 174.042969 195.910156 180.640625 197.203125 186.191406 198.292969 C 186.304688 198.3125 186.417969 198.335938 186.527344 198.355469 C 192.148438 199.457031 196.542969 200.371094 201.128906 203.339844 C 215.902344 212.902344 220.667969 231.234375 211.898438 246.441406 C 207.546875 253.992188 201.371094 258.78125 194.300781 260.914062 C 187.21875 263.054688 179.144531 262.554688 170.980469 259.332031 C 164.183594 256.648438 158.691406 252.816406 153.617188 246.277344 C 153.042969 245.539062 151.59375 243.121094 149.429688 239.289062 C 147.292969 235.515625 144.527344 230.484375 141.355469 224.628906 C 135.003906 212.925781 127.027344 197.945312 119.210938 183.175781 C 111.398438 168.402344 103.746094 153.84375 98.050781 142.976562 C 95.199219 137.539062 92.839844 133.03125 91.191406 129.878906 L 89.28125 126.222656 L 88.78125 125.261719 L 88.652344 125.015625 L 88.617188 124.945312 C 82.128906 111.933594 84.675781 99.726562 88.597656 92.515625 C 90.472656 89.074219 94.710938 85.296875 99.714844 82.359375 C 104.710938 79.425781 110.164062 77.507812 114.296875 77.507812 Z M 253.574219 77.507812 " fill-opacity="1" fill-rule="nonzero"/><g clip-path="url(#c3a58e772c)"><path stroke-linecap="butt" transform="matrix(7.6339, 0, 0, 7.649999, 80.523926, 72.882358)" fill="none" stroke-linejoin="miter" d="M 22.66866 0.604635 L 22.684011 0.604635 L 22.698851 0.602082 L 22.700386 0.602082 L 22.711131 0.60055 C 22.721365 0.599018 22.738251 0.597486 22.760766 0.595954 C 22.806307 0.59289 22.874875 0.590848 22.964422 0.594933 C 23.142493 0.603613 23.401923 0.637825 23.715594 0.741992 C 24.339865 0.949814 25.191842 1.441032 26.049959 2.588908 C 26.898866 3.725039 27.036513 4.781514 26.967434 5.549999 C 26.932638 5.936028 26.84565 6.251081 26.76736 6.469116 C 26.728471 6.577879 26.69214 6.662131 26.665532 6.718299 C 26.652739 6.746383 26.641994 6.767319 26.63483 6.780595 L 26.627155 6.795403 L 26.625619 6.797956 L 26.625619 6.798467 L 26.625108 6.798467 L 26.624084 6.80102 L 23.660331 12.234537 C 23.501193 12.526102 23.068808 12.5164 22.922462 12.214113 C 22.401554 11.138745 21.526551 9.412335 20.543579 7.806943 C 20.051838 7.004247 19.531441 6.228103 19.01258 5.577572 C 18.496276 4.930105 17.972298 4.393953 17.470834 4.082985 C 16.202847 3.297139 14.515268 2.818176 12.819501 3.035701 C 11.117082 3.253736 9.418246 4.172343 8.142071 6.157637 C 6.853616 8.161314 7.017871 10.278859 7.787977 12.007311 C 8.553988 13.727082 9.931479 15.088398 11.118106 15.596976 C 12.250493 16.082066 13.114751 16.251082 13.841873 16.393545 C 13.856713 16.396098 13.871552 16.399162 13.885879 16.401715 C 14.622212 16.54571 15.197872 16.665195 15.798606 17.053267 C 17.733847 18.303267 18.358118 20.699611 17.209357 22.687459 C 16.639325 23.674489 15.830331 24.30051 14.904158 24.579309 C 13.97645 24.85913 12.91877 24.79377 11.849322 24.372508 C 10.958968 24.021711 10.239521 23.520792 9.574825 22.666013 C 9.499606 22.569505 9.309766 22.253431 9.026285 21.752512 C 8.746387 21.259252 8.384105 20.601572 7.968606 19.836151 C 7.136585 18.306331 6.091698 16.3481 5.067791 14.417442 C 4.044395 12.486274 3.041979 10.583189 2.295924 9.162642 C 1.922385 8.451857 1.613319 7.862601 1.397383 7.45053 L 1.147163 6.972589 L 1.081665 6.846976 L 1.064779 6.814807 L 1.060174 6.805615 C 0.210244 5.104737 0.543871 3.509047 1.057615 2.56644 C 1.30323 2.116583 1.858422 1.622813 2.513907 1.238826 C 3.168369 0.85535 3.882699 0.604635 4.424075 0.604635 Z M 22.66866 0.604635 " stroke="#1a3e35" stroke-width="0.375" stroke-opacity="1" stroke-miterlimit="4"/></g><path fill="#6fff90" d="M 114.886719 297.757812 L 114.769531 297.757812 L 114.660156 297.777344 L 114.644531 297.777344 L 114.5625 297.789062 C 114.484375 297.796875 114.359375 297.8125 114.183594 297.824219 C 113.839844 297.847656 113.3125 297.863281 112.632812 297.828125 C 111.269531 297.765625 109.289062 297.503906 106.898438 296.707031 C 102.128906 295.113281 95.625 291.359375 89.078125 282.574219 C 82.597656 273.886719 81.546875 265.804688 82.074219 259.925781 C 82.339844 256.972656 83.003906 254.5625 83.597656 252.894531 C 83.894531 252.0625 84.175781 251.417969 84.375 250.988281 C 84.476562 250.773438 84.554688 250.613281 84.609375 250.511719 L 84.667969 250.398438 L 84.679688 250.375 L 84.683594 250.375 L 84.695312 250.355469 L 107.320312 208.785156 C 108.535156 206.554688 111.832031 206.632812 112.949219 208.941406 C 116.925781 217.171875 123.605469 230.375 131.109375 242.660156 C 134.863281 248.800781 138.835938 254.734375 142.796875 259.714844 C 146.738281 264.667969 150.742188 268.769531 154.566406 271.148438 C 164.246094 277.160156 177.128906 280.824219 190.074219 279.160156 C 203.070312 277.492188 216.039062 270.464844 225.78125 255.277344 C 235.617188 239.945312 234.367188 223.75 228.488281 210.527344 C 222.636719 197.371094 212.125 186.957031 203.0625 183.066406 C 194.417969 179.351562 187.820312 178.0625 182.269531 176.972656 L 181.933594 176.90625 C 176.316406 175.808594 171.921875 174.894531 167.332031 171.921875 C 152.5625 162.359375 147.796875 144.027344 156.5625 128.824219 C 160.914062 121.273438 167.089844 116.484375 174.160156 114.347656 C 181.242188 112.210938 189.320312 112.710938 197.480469 115.933594 C 204.277344 118.617188 209.769531 122.445312 214.84375 128.984375 C 215.421875 129.726562 216.871094 132.144531 219.035156 135.972656 C 221.167969 139.75 223.933594 144.78125 227.109375 150.632812 C 233.457031 162.339844 241.433594 177.320312 249.25 192.089844 C 257.0625 206.863281 264.714844 221.421875 270.414062 232.289062 C 273.261719 237.722656 275.621094 242.234375 277.269531 245.386719 L 279.179688 249.042969 L 279.679688 250.003906 L 279.808594 250.25 L 279.84375 250.3125 L 279.847656 250.320312 C 286.332031 263.332031 283.789062 275.539062 279.863281 282.746094 C 277.988281 286.191406 273.75 289.96875 268.75 292.90625 C 263.75 295.839844 258.296875 297.757812 254.164062 297.757812 Z M 114.886719 297.757812 " fill-opacity="1" fill-rule="nonzero"/><g clip-path="url(#cd9d01799c)"><path stroke-linecap="butt" transform="matrix(7.6339, 0, 0, 7.649999, 80.523926, 72.882358)" fill="none" stroke-linejoin="miter" d="M 4.501342 29.395486 L 4.485991 29.395486 L 4.471663 29.398039 L 4.469616 29.398039 L 4.458871 29.399571 C 4.448637 29.400592 4.432262 29.402635 4.409236 29.404167 C 4.364207 29.407231 4.295127 29.409273 4.206092 29.404677 C 4.027509 29.396507 3.768079 29.362296 3.45492 29.258129 C 2.830137 29.049796 1.97816 28.559089 1.120554 27.410703 C 0.271648 26.275082 0.134001 25.218607 0.20308 24.450122 C 0.237876 24.064093 0.324864 23.74904 0.402642 23.531005 C 0.441531 23.422242 0.478374 23.33799 0.50447 23.281822 C 0.517774 23.253737 0.528008 23.232802 0.535172 23.219526 L 0.542847 23.204718 L 0.544383 23.201654 L 0.544894 23.201654 L 0.546429 23.199101 L 3.510183 17.765073 C 3.669321 17.473508 4.101194 17.483721 4.24754 17.785498 C 4.768448 18.861376 5.643451 20.587275 6.626423 22.193178 C 7.118164 22.995874 7.638561 23.771507 8.157422 24.422549 C 8.673725 25.070016 9.198216 25.606168 9.699168 25.917136 C 10.967155 26.702982 12.654734 27.181944 14.350501 26.96442 C 16.052919 26.746385 17.751756 25.827778 19.027931 23.842483 C 20.316386 21.838296 20.152642 19.721262 19.382537 17.99281 C 18.616014 16.273038 17.239035 14.911723 16.051896 14.403145 C 14.919509 13.917544 14.055251 13.749039 13.328129 13.606576 L 13.284123 13.597895 C 12.548301 13.454411 11.972641 13.334926 11.371396 12.946343 C 9.436667 11.696343 8.812396 9.299999 9.960645 7.312662 C 10.530677 6.325632 11.339671 5.69961 12.265844 5.420301 C 13.193552 5.140991 14.251743 5.206351 15.32068 5.627613 C 16.211034 5.97841 16.930481 6.478818 17.595177 7.333598 C 17.670908 7.430616 17.860748 7.74669 18.144228 8.247098 C 18.423615 8.740869 18.785897 9.398549 19.201908 10.163459 C 20.033417 11.69379 21.078304 13.652021 22.102211 15.582679 C 23.125607 17.513847 24.128022 19.416932 24.87459 20.837479 C 25.247617 21.547753 25.556683 22.13752 25.772619 22.549591 L 26.022839 23.027532 L 26.088337 23.153145 L 26.105223 23.185314 L 26.109828 23.193484 L 26.11034 23.194505 C 26.959758 24.895384 26.626643 26.491074 26.112387 27.43317 C 25.866772 27.883538 25.31158 28.377308 24.656606 28.761295 C 24.001633 29.144771 23.287303 29.395486 22.745927 29.395486 Z M 4.501342 29.395486 " stroke="#1a3e35" stroke-width="0.375" stroke-opacity="1" stroke-miterlimit="4"/></g></svg>