<svg width="24" height="25" viewBox="0 0 24 25" fill="none" xmlns="http://www.w3.org/2000/svg">
<path d="M18.5 13.15V16.85C18.5 19.97 15.59 22.5 12 22.5C8.41 22.5 5.5 19.97 5.5 16.85V13.15M18.5 13.15C18.5 16.27 15.59 18.5 12 18.5C8.41 18.5 5.5 16.27 5.5 13.15M18.5 13.15V8.15M5.5 13.15V8.15M18.5 8.15C18.5 9.06 18.25 9.9 17.81 10.62C16.74 12.38 14.54 13.5 12 13.5C9.46 13.5 7.26 12.38 6.19 10.62C5.75 9.9 5.5 9.06 5.5 8.15M18.5 8.15C18.5 6.59 17.77 5.18 16.6 4.15C15.42 3.13 13.8 2.5 12 2.5M5.5 8.15C5.5 6.59 6.22999 5.18 7.39999 4.16C8.57999 3.13 10.2 2.5 12 2.5M5.5 8.15C5.5 5.03 8.41 2.5 12 2.5" stroke="white" stroke-opacity="0.5" stroke-width="1.5" stroke-linecap="round" stroke-linejoin="round"/>
</svg>
