<svg width="24" height="25" viewBox="0 0 24 25" fill="none" xmlns="http://www.w3.org/2000/svg">
<path d="M18 7.66C17.94 7.65 17.87 7.65 17.81 7.66C16.43 7.61 15.33 6.48 15.33 5.08C15.33 3.65 16.48 2.5 17.91 2.5C19.34 2.5 20.49 3.66 20.49 5.08C20.48 6.48 19.38 7.61 18 7.66Z" stroke="white" stroke-opacity="0.5" stroke-width="1.5" stroke-linecap="round" stroke-linejoin="round"/>
<path d="M16.97 14.94C18.34 15.17 19.85 14.93 20.91 14.22C22.32 13.28 22.32 11.74 20.91 10.8C19.84 10.09 18.31 9.85003 16.94 10.09" stroke="white" stroke-opacity="0.5" stroke-width="1.5" stroke-linecap="round" stroke-linejoin="round"/>
<path d="M5.97 7.66C6.03 7.65 6.1 7.65 6.16 7.66C7.54 7.61 8.64 6.48 8.64 5.08C8.64 3.65 7.49 2.5 6.06 2.5C4.63 2.5 3.48 3.66 3.48 5.08C3.49 6.48 4.59 7.61 5.97 7.66Z" stroke="white" stroke-opacity="0.5" stroke-width="1.5" stroke-linecap="round" stroke-linejoin="round"/>
<path d="M7 14.94C5.63 15.17 4.12 14.93 3.06 14.22C1.65 13.28 1.65 11.74 3.06 10.8C4.13 10.09 5.66 9.85003 7.03 10.09" stroke="white" stroke-opacity="0.5" stroke-width="1.5" stroke-linecap="round" stroke-linejoin="round"/>
<path d="M12 15.13C11.94 15.12 11.87 15.12 11.81 15.13C10.43 15.08 9.33 13.95 9.33 12.55C9.33 11.12 10.48 9.96997 11.91 9.96997C13.34 9.96997 14.49 11.13 14.49 12.55C14.48 13.95 13.38 15.09 12 15.13Z" stroke="white" stroke-opacity="0.5" stroke-width="1.5" stroke-linecap="round" stroke-linejoin="round"/>
<path d="M9.09 18.28C7.68 19.22 7.68 20.76 9.09 21.7C10.69 22.77 13.31 22.77 14.91 21.7C16.32 20.76 16.32 19.22 14.91 18.28C13.32 17.22 10.69 17.22 9.09 18.28Z" stroke="white" stroke-opacity="0.5" stroke-width="1.5" stroke-linecap="round" stroke-linejoin="round"/>
</svg>
