<svg width="40" height="40" viewBox="0 0 40 40" fill="none" xmlns="http://www.w3.org/2000/svg">
<path d="M35.2333 16.5001H21.1333V22.6167L23.75 20.0001C24.2333 19.5167 25.0333 19.5167 25.5167 20.0001C26 20.4834 26 21.2834 25.5167 21.7667L20.7667 26.5001C20.2833 26.9834 19.4833 26.9834 19 26.5001L14.25 21.7667C14 21.5167 13.8833 21.2001 13.8833 20.8834C13.8833 20.5667 14.0167 20.2501 14.2667 20.0001C14.75 19.5167 15.55 19.5167 16.0333 20.0001L18.6333 22.6001V16.5001H4.76668C3.96668 16.5001 3.33334 17.1334 3.33334 17.9334C3.33334 27.7501 10.1833 34.6001 20 34.6001C29.8167 34.6001 36.6667 27.7501 36.6667 17.9334C36.6667 17.1334 36.0333 16.5001 35.2333 16.5001Z" fill="#193A31"/>
<path d="M21.1333 6.64996C21.1333 5.96663 20.5667 5.39996 19.8833 5.39996C19.2 5.39996 18.6333 5.96663 18.6333 6.64996V16.4833H21.1333V6.64996Z" fill="#193A31"/>
</svg>
