<svg width="48" height="49" viewBox="0 0 48 49" fill="none" xmlns="http://www.w3.org/2000/svg">
<path d="M42.28 20.3H25.36V27.64L28.5 24.5C29.08 23.92 30.04 23.92 30.62 24.5C31.2 25.08 31.2 26.0401 30.62 26.6201L24.92 32.3C24.34 32.88 23.38 32.88 22.8 32.3L17.1 26.6201C16.8 26.3201 16.66 25.94 16.66 25.56C16.66 25.18 16.82 24.8 17.12 24.5C17.7 23.92 18.66 23.92 19.24 24.5L22.36 27.6201V20.3H5.72C4.76 20.3 4 21.0601 4 22.0201C4 33.8 12.22 42.0201 24 42.0201C35.78 42.0201 44 33.8 44 22.0201C44 21.0601 43.24 20.3 42.28 20.3Z" fill="#193A31"/>
<path d="M25.3601 8.47998C25.3601 7.65998 24.6801 6.97998 23.8601 6.97998C23.0401 6.97998 22.3601 7.65998 22.3601 8.47998V20.28H25.3601V8.47998Z" fill="#193A31"/>
</svg>
