<svg width="85" height="81" viewBox="0 0 85 81" fill="none" xmlns="http://www.w3.org/2000/svg">
<path d="M42.3553 0L54.5641 14.1815H30.1465L42.3553 0Z" fill="url(#paint0_linear_343_15555)"/>
<path d="M42.3556 80.9297L30.1468 66.7482L54.5644 66.7482L42.3556 80.9297Z" fill="url(#paint1_linear_343_15555)"/>
<g filter="url(#filter0_f_343_15555)">
<path d="M42.3549 3.78125L43.7693 8.04995L48.0701 9.45385L43.7693 10.8577L42.3549 15.1265L40.9404 10.8577L36.6396 9.45385L40.9404 8.04995L42.3549 3.78125Z" fill="white"/>
<path d="M42.3549 3.9095L43.731 8.06264L43.7374 8.08198L43.7568 8.0883L47.9401 9.45385L43.7568 10.8194L43.7374 10.8257L43.731 10.8451L42.3549 14.9982L40.9787 10.8451L40.9723 10.8257L40.9529 10.8194L36.7696 9.45385L40.9529 8.0883L40.9723 8.08198L40.9787 8.06264L42.3549 3.9095Z" stroke="#FAFF00" stroke-width="0.080677"/>
</g>
<path d="M77.6622 60.6959L59.184 64.0995L71.3928 43.1108L77.6622 60.6959Z" fill="url(#paint2_linear_343_15555)"/>
<path d="M7.04876 20.2338L25.527 16.8302L13.3181 37.8188L7.04876 20.2338Z" fill="url(#paint3_linear_343_15555)"/>
<path d="M77.662 20.2311L71.3926 37.8161L59.1838 16.8275L77.662 20.2311Z" fill="url(#paint4_linear_343_15555)"/>
<path d="M7.0489 60.6967L13.3183 43.1116L25.5271 64.1002L7.0489 60.6967Z" fill="url(#paint5_linear_343_15555)"/>
<path d="M73.7778 40.0864C73.7778 57.1001 59.8815 70.8949 42.7363 70.8949C25.5912 70.8949 11.6949 57.1001 11.6949 40.0864C11.6949 23.0727 25.5912 9.27786 42.7363 9.27786C59.8815 9.27786 73.7778 23.0727 73.7778 40.0864Z" fill="url(#paint6_linear_343_15555)" stroke="url(#paint7_linear_343_15555)" stroke-width="0.403385"/>
<g filter="url(#filter1_i_343_15555)">
<ellipse cx="42.7367" cy="40.0859" rx="27.433" ry="27.2285" fill="url(#paint8_linear_343_15555)"/>
</g>
<g filter="url(#filter2_ii_343_15555)">
<ellipse cx="42.7358" cy="40.0869" rx="22.8608" ry="22.6904" fill="url(#paint9_linear_343_15555)"/>
</g>
<g filter="url(#filter3_d_343_15555)">
<path d="M29.2365 36.2105C28.8298 35.1179 30.0514 34.1386 31.0294 34.7732L49.3225 46.645C50.3334 47.301 49.8688 48.8702 48.6638 48.8702H34.7898C34.2843 48.8702 33.832 48.556 33.6556 48.0823L29.2365 36.2105Z" fill="url(#paint10_linear_343_15555)"/>
<path d="M56.2312 36.1959C56.6421 35.1059 55.4267 34.1216 54.4459 34.75L35.888 46.6412C34.8703 47.2933 35.3322 48.8702 36.5409 48.8702H50.6157C51.1194 48.8702 51.5704 48.5583 51.7481 48.087L56.2312 36.1959Z" fill="url(#paint11_linear_343_15555)"/>
<path d="M41.652 31.8476C42.0945 30.9434 43.3833 30.9434 43.8259 31.8476L51.3826 47.2862C51.7761 48.0902 51.1908 49.0284 50.2956 49.0284H35.1822C34.2871 49.0284 33.7017 48.0902 34.0953 47.2862L41.652 31.8476Z" fill="url(#paint12_linear_343_15555)"/>
<mask id="mask0_343_15555" style="mask-type:alpha" maskUnits="userSpaceOnUse" x="33" y="31" width="19" height="19">
<path d="M41.651 31.8496C42.0936 30.9454 43.3823 30.9454 43.8249 31.8496L51.3816 47.2882C51.7751 48.0922 51.1898 49.0303 50.2946 49.0303H35.1812C34.2861 49.0303 33.7008 48.0922 34.0943 47.2882L41.651 31.8496Z" fill="url(#paint13_linear_343_15555)"/>
</mask>
<g mask="url(#mask0_343_15555)">
<g filter="url(#filter4_f_343_15555)">
<ellipse cx="9.94621" cy="2.69926" rx="9.94621" ry="2.69926" transform="matrix(0.204188 0.978932 -0.979534 0.201279 48.8965 32.0625)" fill="#FFF5D2" fill-opacity="0.8"/>
</g>
</g>
<ellipse cx="42.7393" cy="28.2077" rx="1.74812" ry="1.73509" fill="url(#paint14_linear_343_15555)"/>
<ellipse cx="28.9254" cy="33.2536" rx="1.43028" ry="1.41962" fill="url(#paint15_linear_343_15555)"/>
<ellipse cx="56.4791" cy="33.2536" rx="1.43028" ry="1.41962" fill="url(#paint16_linear_343_15555)"/>
<rect x="33.8779" y="50.3965" width="17.3867" height="2.35324" rx="1.17662" fill="url(#paint17_linear_343_15555)"/>
</g>
<path d="M30.5439 20.4219L31.1097 22.1294L32.83 22.6909L31.1097 23.2525L30.5439 24.96L29.9781 23.2525L28.2578 22.6909L29.9781 22.1294L30.5439 20.4219Z" fill="white"/>
<path d="M23.6858 12.8574L25.0059 16.8415L29.02 18.1519L25.0059 19.4622L23.6858 23.4463L22.3656 19.4622L18.3516 18.1519L22.3656 16.8415L23.6858 12.8574Z" fill="white"/>
<defs>
<filter id="filter0_f_343_15555" x="35.4295" y="2.57109" width="13.851" height="13.766" filterUnits="userSpaceOnUse" color-interpolation-filters="sRGB">
<feFlood flood-opacity="0" result="BackgroundImageFix"/>
<feBlend mode="normal" in="SourceGraphic" in2="BackgroundImageFix" result="shape"/>
<feGaussianBlur stdDeviation="0.605078" result="effect1_foregroundBlur_343_15555"/>
</filter>
<filter id="filter1_i_343_15555" x="15.3037" y="12.0507" width="54.8662" height="55.2638" filterUnits="userSpaceOnUse" color-interpolation-filters="sRGB">
<feFlood flood-opacity="0" result="BackgroundImageFix"/>
<feBlend mode="normal" in="SourceGraphic" in2="BackgroundImageFix" result="shape"/>
<feColorMatrix in="SourceAlpha" type="matrix" values="0 0 0 0 0 0 0 0 0 0 0 0 0 0 0 0 0 0 127 0" result="hardAlpha"/>
<feOffset dy="-0.80677"/>
<feGaussianBlur stdDeviation="0.403385"/>
<feComposite in2="hardAlpha" operator="arithmetic" k2="-1" k3="1"/>
<feColorMatrix type="matrix" values="0 0 0 0 0.616667 0 0 0 0 0.407 0 0 0 0 0 0 0 0 0.25 0"/>
<feBlend mode="normal" in2="shape" result="effect1_innerShadow_343_15555"/>
</filter>
<filter id="filter2_ii_343_15555" x="19.875" y="16.5897" width="45.7217" height="46.9944" filterUnits="userSpaceOnUse" color-interpolation-filters="sRGB">
<feFlood flood-opacity="0" result="BackgroundImageFix"/>
<feBlend mode="normal" in="SourceGraphic" in2="BackgroundImageFix" result="shape"/>
<feColorMatrix in="SourceAlpha" type="matrix" values="0 0 0 0 0 0 0 0 0 0 0 0 0 0 0 0 0 0 127 0" result="hardAlpha"/>
<feOffset dy="0.80677"/>
<feGaussianBlur stdDeviation="0.80677"/>
<feComposite in2="hardAlpha" operator="arithmetic" k2="-1" k3="1"/>
<feColorMatrix type="matrix" values="0 0 0 0 0.7 0 0 0 0 0.465967 0 0 0 0 0.0116667 0 0 0 1 0"/>
<feBlend mode="normal" in2="shape" result="effect1_innerShadow_343_15555"/>
<feColorMatrix in="SourceAlpha" type="matrix" values="0 0 0 0 0 0 0 0 0 0 0 0 0 0 0 0 0 0 127 0" result="hardAlpha"/>
<feOffset dy="-0.80677"/>
<feGaussianBlur stdDeviation="0.403385"/>
<feComposite in2="hardAlpha" operator="arithmetic" k2="-1" k3="1"/>
<feColorMatrix type="matrix" values="0 0 0 0 1 0 0 0 0 0.72 0 0 0 0 0 0 0 0 1 0"/>
<feBlend mode="normal" in2="effect1_innerShadow_343_15555" result="effect2_innerShadow_343_15555"/>
</filter>
<filter id="filter3_d_343_15555" x="26.6883" y="26.4727" width="32.0276" height="27.8909" filterUnits="userSpaceOnUse" color-interpolation-filters="sRGB">
<feFlood flood-opacity="0" result="BackgroundImageFix"/>
<feColorMatrix in="SourceAlpha" type="matrix" values="0 0 0 0 0 0 0 0 0 0 0 0 0 0 0 0 0 0 127 0" result="hardAlpha"/>
<feOffset dy="0.80677"/>
<feGaussianBlur stdDeviation="0.403385"/>
<feComposite in2="hardAlpha" operator="out"/>
<feColorMatrix type="matrix" values="0 0 0 0 0.358333 0 0 0 0 0.1935 0 0 0 0 0 0 0 0 1 0"/>
<feBlend mode="normal" in2="BackgroundImageFix" result="effect1_dropShadow_343_15555"/>
<feBlend mode="normal" in="SourceGraphic" in2="effect1_dropShadow_343_15555" result="shape"/>
</filter>
<filter id="filter4_f_343_15555" x="42.5289" y="30.1695" width="11.5086" height="24.3445" filterUnits="userSpaceOnUse" color-interpolation-filters="sRGB">
<feFlood flood-opacity="0" result="BackgroundImageFix"/>
<feBlend mode="normal" in="SourceGraphic" in2="BackgroundImageFix" result="shape"/>
<feGaussianBlur stdDeviation="1.21016" result="effect1_foregroundBlur_343_15555"/>
</filter>
<linearGradient id="paint0_linear_343_15555" x1="37.2802" y1="5.6726" x2="47.4304" y2="5.6726" gradientUnits="userSpaceOnUse">
<stop offset="0.484631" stop-color="#FFE590"/>
<stop offset="0.488859" stop-color="#FFC700"/>
</linearGradient>
<linearGradient id="paint1_linear_343_15555" x1="47.4307" y1="75.2571" x2="37.2805" y2="75.2571" gradientUnits="userSpaceOnUse">
<stop offset="0.484631" stop-color="#FFE590"/>
<stop offset="0.488859" stop-color="#FFC700"/>
</linearGradient>
<linearGradient id="paint2_linear_343_15555" x1="75.2502" y1="53.4972" x2="70.2319" y2="62.2545" gradientUnits="userSpaceOnUse">
<stop offset="0.484631" stop-color="#FFE590"/>
<stop offset="0.488859" stop-color="#FFC700"/>
</linearGradient>
<linearGradient id="paint3_linear_343_15555" x1="9.46072" y1="27.4325" x2="14.4791" y2="18.6752" gradientUnits="userSpaceOnUse">
<stop offset="0.484631" stop-color="#FFE590"/>
<stop offset="0.488859" stop-color="#FFC700"/>
</linearGradient>
<linearGradient id="paint4_linear_343_15555" x1="70.175" y1="18.705" x2="75.1933" y2="27.4623" gradientUnits="userSpaceOnUse">
<stop offset="0.484631" stop-color="#FFE590"/>
<stop offset="0.488859" stop-color="#FFC700"/>
</linearGradient>
<linearGradient id="paint5_linear_343_15555" x1="14.536" y1="62.2228" x2="9.51762" y2="53.4654" gradientUnits="userSpaceOnUse">
<stop offset="0.484631" stop-color="#FFE590"/>
<stop offset="0.488859" stop-color="#FFC700"/>
</linearGradient>
<linearGradient id="paint6_linear_343_15555" x1="22.7087" y1="17.0275" x2="64.0208" y2="63.4526" gradientUnits="userSpaceOnUse">
<stop stop-color="#FFECA9"/>
<stop offset="0.237301" stop-color="#FFD600"/>
<stop offset="1" stop-color="#FF9900"/>
</linearGradient>
<linearGradient id="paint7_linear_343_15555" x1="42.7363" y1="9.07617" x2="42.7363" y2="71.0966" gradientUnits="userSpaceOnUse">
<stop stop-color="white" stop-opacity="0.5"/>
<stop offset="1" stop-color="white" stop-opacity="0"/>
</linearGradient>
<linearGradient id="paint8_linear_343_15555" x1="25.2101" y1="19.2864" x2="59.9528" y2="61.5191" gradientUnits="userSpaceOnUse">
<stop stop-color="#FFC700"/>
<stop offset="1" stop-color="#D58500"/>
</linearGradient>
<linearGradient id="paint9_linear_343_15555" x1="27.6073" y1="21.4007" x2="46.201" y2="62.8817" gradientUnits="userSpaceOnUse">
<stop stop-color="#FFB13C"/>
<stop offset="0.484375" stop-color="#B45F1D"/>
<stop offset="1" stop-color="#743110"/>
</linearGradient>
<linearGradient id="paint10_linear_343_15555" x1="29.4635" y1="37.3556" x2="38.6939" y2="44.1189" gradientUnits="userSpaceOnUse">
<stop stop-color="#FFE176"/>
<stop offset="1" stop-color="#FFA800"/>
</linearGradient>
<linearGradient id="paint11_linear_343_15555" x1="55.049" y1="35.4021" x2="49.4897" y2="45.4839" gradientUnits="userSpaceOnUse">
<stop stop-color="#FFE483"/>
<stop offset="1" stop-color="#F29100"/>
</linearGradient>
<linearGradient id="paint12_linear_343_15555" x1="37.8808" y1="39.6142" x2="47.7358" y2="39.6142" gradientUnits="userSpaceOnUse">
<stop offset="0.49738" stop-color="#FCE77B"/>
<stop offset="0.49738" stop-color="#FFCC1D"/>
</linearGradient>
<linearGradient id="paint13_linear_343_15555" x1="37.8798" y1="39.6161" x2="47.7349" y2="39.6161" gradientUnits="userSpaceOnUse">
<stop offset="0.49738" stop-color="#FCE77B"/>
<stop offset="0.49738" stop-color="#FFCC1D"/>
</linearGradient>
<linearGradient id="paint14_linear_343_15555" x1="42.7393" y1="26.4727" x2="42.7393" y2="29.9428" gradientUnits="userSpaceOnUse">
<stop stop-color="#FFCD1D"/>
<stop offset="1" stop-color="#FF971D"/>
</linearGradient>
<linearGradient id="paint15_linear_343_15555" x1="28.9254" y1="31.834" x2="28.9254" y2="34.6732" gradientUnits="userSpaceOnUse">
<stop stop-color="#FFCD1D"/>
<stop offset="1" stop-color="#FF971D"/>
</linearGradient>
<linearGradient id="paint16_linear_343_15555" x1="56.4791" y1="31.834" x2="56.4791" y2="34.6732" gradientUnits="userSpaceOnUse">
<stop stop-color="#FFCD1D"/>
<stop offset="1" stop-color="#FF971D"/>
</linearGradient>
<linearGradient id="paint17_linear_343_15555" x1="34.0755" y1="51.5731" x2="51.4622" y2="51.5731" gradientUnits="userSpaceOnUse">
<stop stop-color="#FDE07C"/>
<stop offset="1" stop-color="#FDE07C" stop-opacity="0"/>
</linearGradient>
</defs>
</svg>
