<svg width="85" height="81" viewBox="0 0 85 81" fill="none" xmlns="http://www.w3.org/2000/svg">
<path d="M42.4999 0L54.7087 14.1815H30.2911L42.4999 0Z" fill="url(#paint0_linear_341_13316)"/>
<path d="M42.5001 80.9297L30.2913 66.7482L54.7089 66.7482L42.5001 80.9297Z" fill="url(#paint1_linear_341_13316)"/>
<g filter="url(#filter0_f_341_13316)">
<path d="M42.4994 3.78125L43.9138 8.04995L48.2146 9.45385L43.9138 10.8577L42.4994 15.1265L41.0849 10.8577L36.7842 9.45385L41.0849 8.04995L42.4994 3.78125Z" fill="white"/>
<path d="M42.4994 3.9095L43.8755 8.06264L43.8819 8.08198L43.9013 8.0883L48.0846 9.45385L43.9013 10.8194L43.8819 10.8257L43.8755 10.8451L42.4994 14.9982L41.1232 10.8451L41.1168 10.8257L41.0975 10.8194L36.9142 9.45385L41.0975 8.0883L41.1168 8.08198L41.1232 8.06264L42.4994 3.9095Z" stroke="#FAFF00" stroke-width="0.080677"/>
</g>
<path d="M77.8067 60.6959L59.3285 64.0995L71.5373 43.1108L77.8067 60.6959Z" fill="url(#paint2_linear_341_13316)"/>
<path d="M7.19329 20.2338L25.6715 16.8302L13.4627 37.8188L7.19329 20.2338Z" fill="url(#paint3_linear_341_13316)"/>
<path d="M77.8066 20.2311L71.5372 37.8161L59.3284 16.8275L77.8066 20.2311Z" fill="url(#paint4_linear_341_13316)"/>
<path d="M7.19343 60.6967L13.4628 43.1116L25.6716 64.1002L7.19343 60.6967Z" fill="url(#paint5_linear_341_13316)"/>
<path d="M73.9223 40.0864C73.9223 57.1001 60.026 70.8949 42.8808 70.8949C25.7357 70.8949 11.8394 57.1001 11.8394 40.0864C11.8394 23.0727 25.7357 9.27786 42.8808 9.27786C60.026 9.27786 73.9223 23.0727 73.9223 40.0864Z" fill="url(#paint6_linear_341_13316)" stroke="url(#paint7_linear_341_13316)" stroke-width="0.403385"/>
<g filter="url(#filter1_i_341_13316)">
<ellipse cx="42.8812" cy="40.0859" rx="27.433" ry="27.2285" fill="url(#paint8_linear_341_13316)"/>
</g>
<g filter="url(#filter2_ii_341_13316)">
<ellipse cx="42.8804" cy="40.0869" rx="22.8608" ry="22.6904" fill="url(#paint9_linear_341_13316)"/>
</g>
<g filter="url(#filter3_d_341_13316)">
<path d="M29.381 36.2105C28.9743 35.1179 30.196 34.1386 31.1739 34.7732L49.4671 46.645C50.4779 47.301 50.0134 48.8702 48.8083 48.8702H34.9343C34.4288 48.8702 33.9765 48.556 33.8002 48.0823L29.381 36.2105Z" fill="url(#paint10_linear_341_13316)"/>
<path d="M56.3757 36.1959C56.7867 35.1059 55.5713 34.1216 54.5905 34.75L36.0326 46.6412C35.0148 47.2933 35.4767 48.8702 36.6854 48.8702H50.7602C51.2639 48.8702 51.7149 48.5583 51.8926 48.087L56.3757 36.1959Z" fill="url(#paint11_linear_341_13316)"/>
<path d="M41.7965 31.8476C42.2391 30.9434 43.5278 30.9434 43.9704 31.8476L51.5271 47.2862C51.9206 48.0902 51.3353 49.0284 50.4402 49.0284H35.3267C34.4316 49.0284 33.8463 48.0902 34.2398 47.2862L41.7965 31.8476Z" fill="url(#paint12_linear_341_13316)"/>
<mask id="mask0_341_13316" style="mask-type:alpha" maskUnits="userSpaceOnUse" x="34" y="31" width="18" height="19">
<path d="M41.7955 31.8496C42.2381 30.9454 43.5268 30.9454 43.9694 31.8496L51.5261 47.2882C51.9196 48.0922 51.3343 49.0303 50.4392 49.0303H35.3258C34.4306 49.0303 33.8453 48.0922 34.2388 47.2882L41.7955 31.8496Z" fill="url(#paint13_linear_341_13316)"/>
</mask>
<g mask="url(#mask0_341_13316)">
<g filter="url(#filter4_f_341_13316)">
<ellipse cx="9.94621" cy="2.69926" rx="9.94621" ry="2.69926" transform="matrix(0.204188 0.978932 -0.979534 0.201279 49.041 32.0625)" fill="#FFF5D2" fill-opacity="0.8"/>
</g>
</g>
<ellipse cx="42.8839" cy="28.2077" rx="1.74812" ry="1.73509" fill="url(#paint14_linear_341_13316)"/>
<ellipse cx="29.0699" cy="33.2536" rx="1.43028" ry="1.41962" fill="url(#paint15_linear_341_13316)"/>
<ellipse cx="56.6236" cy="33.2536" rx="1.43028" ry="1.41962" fill="url(#paint16_linear_341_13316)"/>
<rect x="34.0225" y="50.3965" width="17.3867" height="2.35324" rx="1.17662" fill="url(#paint17_linear_341_13316)"/>
</g>
<path d="M30.6884 20.4219L31.2542 22.1294L32.9745 22.6909L31.2542 23.2525L30.6884 24.96L30.1227 23.2525L28.4023 22.6909L30.1227 22.1294L30.6884 20.4219Z" fill="white"/>
<path d="M23.8303 12.8574L25.1504 16.8415L29.1645 18.1519L25.1504 19.4622L23.8303 23.4463L22.5101 19.4622L18.4961 18.1519L22.5101 16.8415L23.8303 12.8574Z" fill="white"/>
<defs>
<filter id="filter0_f_341_13316" x="35.574" y="2.57109" width="13.851" height="13.766" filterUnits="userSpaceOnUse" color-interpolation-filters="sRGB">
<feFlood flood-opacity="0" result="BackgroundImageFix"/>
<feBlend mode="normal" in="SourceGraphic" in2="BackgroundImageFix" result="shape"/>
<feGaussianBlur stdDeviation="0.605078" result="effect1_foregroundBlur_341_13316"/>
</filter>
<filter id="filter1_i_341_13316" x="15.4482" y="12.0507" width="54.8662" height="55.2638" filterUnits="userSpaceOnUse" color-interpolation-filters="sRGB">
<feFlood flood-opacity="0" result="BackgroundImageFix"/>
<feBlend mode="normal" in="SourceGraphic" in2="BackgroundImageFix" result="shape"/>
<feColorMatrix in="SourceAlpha" type="matrix" values="0 0 0 0 0 0 0 0 0 0 0 0 0 0 0 0 0 0 127 0" result="hardAlpha"/>
<feOffset dy="-0.80677"/>
<feGaussianBlur stdDeviation="0.403385"/>
<feComposite in2="hardAlpha" operator="arithmetic" k2="-1" k3="1"/>
<feColorMatrix type="matrix" values="0 0 0 0 0.616667 0 0 0 0 0.407 0 0 0 0 0 0 0 0 0.25 0"/>
<feBlend mode="normal" in2="shape" result="effect1_innerShadow_341_13316"/>
</filter>
<filter id="filter2_ii_341_13316" x="20.0195" y="16.5897" width="45.7217" height="46.9944" filterUnits="userSpaceOnUse" color-interpolation-filters="sRGB">
<feFlood flood-opacity="0" result="BackgroundImageFix"/>
<feBlend mode="normal" in="SourceGraphic" in2="BackgroundImageFix" result="shape"/>
<feColorMatrix in="SourceAlpha" type="matrix" values="0 0 0 0 0 0 0 0 0 0 0 0 0 0 0 0 0 0 127 0" result="hardAlpha"/>
<feOffset dy="0.80677"/>
<feGaussianBlur stdDeviation="0.80677"/>
<feComposite in2="hardAlpha" operator="arithmetic" k2="-1" k3="1"/>
<feColorMatrix type="matrix" values="0 0 0 0 0.7 0 0 0 0 0.465967 0 0 0 0 0.0116667 0 0 0 1 0"/>
<feBlend mode="normal" in2="shape" result="effect1_innerShadow_341_13316"/>
<feColorMatrix in="SourceAlpha" type="matrix" values="0 0 0 0 0 0 0 0 0 0 0 0 0 0 0 0 0 0 127 0" result="hardAlpha"/>
<feOffset dy="-0.80677"/>
<feGaussianBlur stdDeviation="0.403385"/>
<feComposite in2="hardAlpha" operator="arithmetic" k2="-1" k3="1"/>
<feColorMatrix type="matrix" values="0 0 0 0 1 0 0 0 0 0.72 0 0 0 0 0 0 0 0 1 0"/>
<feBlend mode="normal" in2="effect1_innerShadow_341_13316" result="effect2_innerShadow_341_13316"/>
</filter>
<filter id="filter3_d_341_13316" x="26.8329" y="26.4727" width="32.0276" height="27.8909" filterUnits="userSpaceOnUse" color-interpolation-filters="sRGB">
<feFlood flood-opacity="0" result="BackgroundImageFix"/>
<feColorMatrix in="SourceAlpha" type="matrix" values="0 0 0 0 0 0 0 0 0 0 0 0 0 0 0 0 0 0 127 0" result="hardAlpha"/>
<feOffset dy="0.80677"/>
<feGaussianBlur stdDeviation="0.403385"/>
<feComposite in2="hardAlpha" operator="out"/>
<feColorMatrix type="matrix" values="0 0 0 0 0.358333 0 0 0 0 0.1935 0 0 0 0 0 0 0 0 1 0"/>
<feBlend mode="normal" in2="BackgroundImageFix" result="effect1_dropShadow_341_13316"/>
<feBlend mode="normal" in="SourceGraphic" in2="effect1_dropShadow_341_13316" result="shape"/>
</filter>
<filter id="filter4_f_341_13316" x="42.6734" y="30.1695" width="11.5086" height="24.3445" filterUnits="userSpaceOnUse" color-interpolation-filters="sRGB">
<feFlood flood-opacity="0" result="BackgroundImageFix"/>
<feBlend mode="normal" in="SourceGraphic" in2="BackgroundImageFix" result="shape"/>
<feGaussianBlur stdDeviation="1.21016" result="effect1_foregroundBlur_341_13316"/>
</filter>
<linearGradient id="paint0_linear_341_13316" x1="37.4248" y1="5.6726" x2="47.575" y2="5.6726" gradientUnits="userSpaceOnUse">
<stop offset="0.484631" stop-color="#FFE590"/>
<stop offset="0.488859" stop-color="#FFC700"/>
</linearGradient>
<linearGradient id="paint1_linear_341_13316" x1="47.5752" y1="75.2571" x2="37.425" y2="75.2571" gradientUnits="userSpaceOnUse">
<stop offset="0.484631" stop-color="#FFE590"/>
<stop offset="0.488859" stop-color="#FFC700"/>
</linearGradient>
<linearGradient id="paint2_linear_341_13316" x1="75.3947" y1="53.4972" x2="70.3764" y2="62.2545" gradientUnits="userSpaceOnUse">
<stop offset="0.484631" stop-color="#FFE590"/>
<stop offset="0.488859" stop-color="#FFC700"/>
</linearGradient>
<linearGradient id="paint3_linear_341_13316" x1="9.60525" y1="27.4325" x2="14.6236" y2="18.6752" gradientUnits="userSpaceOnUse">
<stop offset="0.484631" stop-color="#FFE590"/>
<stop offset="0.488859" stop-color="#FFC700"/>
</linearGradient>
<linearGradient id="paint4_linear_341_13316" x1="70.3195" y1="18.705" x2="75.3379" y2="27.4623" gradientUnits="userSpaceOnUse">
<stop offset="0.484631" stop-color="#FFE590"/>
<stop offset="0.488859" stop-color="#FFC700"/>
</linearGradient>
<linearGradient id="paint5_linear_341_13316" x1="14.6805" y1="62.2228" x2="9.66215" y2="53.4654" gradientUnits="userSpaceOnUse">
<stop offset="0.484631" stop-color="#FFE590"/>
<stop offset="0.488859" stop-color="#FFC700"/>
</linearGradient>
<linearGradient id="paint6_linear_341_13316" x1="22.8532" y1="17.0275" x2="64.1654" y2="63.4526" gradientUnits="userSpaceOnUse">
<stop stop-color="#FFECA9"/>
<stop offset="0.237301" stop-color="#FFD600"/>
<stop offset="1" stop-color="#FF9900"/>
</linearGradient>
<linearGradient id="paint7_linear_341_13316" x1="42.8808" y1="9.07617" x2="42.8808" y2="71.0966" gradientUnits="userSpaceOnUse">
<stop stop-color="white" stop-opacity="0.5"/>
<stop offset="1" stop-color="white" stop-opacity="0"/>
</linearGradient>
<linearGradient id="paint8_linear_341_13316" x1="25.3546" y1="19.2864" x2="60.0973" y2="61.5191" gradientUnits="userSpaceOnUse">
<stop stop-color="#FFC700"/>
<stop offset="1" stop-color="#D58500"/>
</linearGradient>
<linearGradient id="paint9_linear_341_13316" x1="27.7519" y1="21.4007" x2="46.3456" y2="62.8817" gradientUnits="userSpaceOnUse">
<stop stop-color="#FFB13C"/>
<stop offset="0.484375" stop-color="#B45F1D"/>
<stop offset="1" stop-color="#743110"/>
</linearGradient>
<linearGradient id="paint10_linear_341_13316" x1="29.6081" y1="37.3556" x2="38.8384" y2="44.1189" gradientUnits="userSpaceOnUse">
<stop stop-color="#FFE176"/>
<stop offset="1" stop-color="#FFA800"/>
</linearGradient>
<linearGradient id="paint11_linear_341_13316" x1="55.1935" y1="35.4021" x2="49.6343" y2="45.4839" gradientUnits="userSpaceOnUse">
<stop stop-color="#FFE483"/>
<stop offset="1" stop-color="#F29100"/>
</linearGradient>
<linearGradient id="paint12_linear_341_13316" x1="38.0253" y1="39.6142" x2="47.8804" y2="39.6142" gradientUnits="userSpaceOnUse">
<stop offset="0.49738" stop-color="#FCE77B"/>
<stop offset="0.49738" stop-color="#FFCC1D"/>
</linearGradient>
<linearGradient id="paint13_linear_341_13316" x1="38.0243" y1="39.6161" x2="47.8794" y2="39.6161" gradientUnits="userSpaceOnUse">
<stop offset="0.49738" stop-color="#FCE77B"/>
<stop offset="0.49738" stop-color="#FFCC1D"/>
</linearGradient>
<linearGradient id="paint14_linear_341_13316" x1="42.8839" y1="26.4727" x2="42.8839" y2="29.9428" gradientUnits="userSpaceOnUse">
<stop stop-color="#FFCD1D"/>
<stop offset="1" stop-color="#FF971D"/>
</linearGradient>
<linearGradient id="paint15_linear_341_13316" x1="29.0699" y1="31.834" x2="29.0699" y2="34.6732" gradientUnits="userSpaceOnUse">
<stop stop-color="#FFCD1D"/>
<stop offset="1" stop-color="#FF971D"/>
</linearGradient>
<linearGradient id="paint16_linear_341_13316" x1="56.6236" y1="31.834" x2="56.6236" y2="34.6732" gradientUnits="userSpaceOnUse">
<stop stop-color="#FFCD1D"/>
<stop offset="1" stop-color="#FF971D"/>
</linearGradient>
<linearGradient id="paint17_linear_341_13316" x1="34.22" y1="51.5731" x2="51.6067" y2="51.5731" gradientUnits="userSpaceOnUse">
<stop stop-color="#FDE07C"/>
<stop offset="1" stop-color="#FDE07C" stop-opacity="0"/>
</linearGradient>
</defs>
</svg>
