<svg width="85" height="81" viewBox="0 0 85 81" fill="none" xmlns="http://www.w3.org/2000/svg">
<path d="M42.4989 0L54.7077 14.1815H30.2901L42.4989 0Z" fill="url(#paint0_linear_415_4407)"/>
<path d="M42.5001 80.9297L30.2913 66.7482L54.7089 66.7482L42.5001 80.9297Z" fill="url(#paint1_linear_415_4407)"/>
<g filter="url(#filter0_f_415_4407)">
<path d="M42.1644 3.63281L43.5789 7.90152L47.8796 9.30541L43.5789 10.7093L42.1644 14.978L40.75 10.7093L36.4492 9.30541L40.75 7.90152L42.1644 3.63281Z" fill="white"/>
<path d="M42.1644 3.76106L43.5406 7.91421L43.547 7.93354L43.5664 7.93986L47.7496 9.30541L43.5664 10.671L43.547 10.6773L43.5406 10.6966L42.1644 14.8498L40.7883 10.6966L40.7819 10.6773L40.7625 10.671L36.5792 9.30541L40.7625 7.93986L40.7819 7.93354L40.7883 7.91421L42.1644 3.76106Z" stroke="#3E74FF" stroke-width="0.080677"/>
</g>
<path d="M77.8067 60.6979L59.3285 64.1014L71.5373 43.1128L77.8067 60.6979Z" fill="url(#paint2_linear_415_4407)"/>
<path d="M7.19329 20.2338L25.6715 16.8302L13.4627 37.8188L7.19329 20.2338Z" fill="url(#paint3_linear_415_4407)"/>
<path d="M77.8056 20.233L71.5362 37.8181L59.3274 16.8295L77.8056 20.233Z" fill="url(#paint4_linear_415_4407)"/>
<path d="M7.19343 60.6986L13.4628 43.1135L25.6716 64.1022L7.19343 60.6986Z" fill="url(#paint5_linear_415_4407)"/>
<path d="M73.9223 40.0883C73.9223 57.102 60.026 70.8969 42.8808 70.8969C25.7357 70.8969 11.8394 57.102 11.8394 40.0883C11.8394 23.0747 25.7357 9.27982 42.8808 9.27982C60.026 9.27982 73.9223 23.0747 73.9223 40.0883Z" fill="url(#paint6_linear_415_4407)" stroke="url(#paint7_linear_415_4407)" stroke-width="0.403385"/>
<g filter="url(#filter1_i_415_4407)">
<ellipse cx="42.8812" cy="40.0859" rx="27.433" ry="27.2285" fill="url(#paint8_linear_415_4407)"/>
</g>
<g filter="url(#filter2_ii_415_4407)">
<ellipse cx="42.8804" cy="40.0869" rx="22.8608" ry="22.6904" fill="url(#paint9_linear_415_4407)"/>
</g>
<g filter="url(#filter3_d_415_4407)">
<path d="M29.381 36.2105C28.9743 35.1179 30.196 34.1386 31.1739 34.7732L49.4671 46.645C50.4779 47.301 50.0134 48.8702 48.8083 48.8702H34.9343C34.4288 48.8702 33.9765 48.556 33.8002 48.0823L29.381 36.2105Z" fill="url(#paint10_linear_415_4407)"/>
<path d="M56.3767 36.1959C56.7876 35.1059 55.5723 34.1216 54.5915 34.75L36.0335 46.6412C35.0158 47.2933 35.4777 48.8702 36.6864 48.8702H50.7612C51.2649 48.8702 51.7159 48.5583 51.8936 48.087L56.3767 36.1959Z" fill="url(#paint11_linear_415_4407)"/>
<path d="M41.7965 31.8476C42.2391 30.9434 43.5278 30.9434 43.9704 31.8476L51.5271 47.2862C51.9206 48.0902 51.3353 49.0284 50.4402 49.0284H35.3267C34.4316 49.0284 33.8463 48.0902 34.2398 47.2862L41.7965 31.8476Z" fill="url(#paint12_linear_415_4407)"/>
<mask id="mask0_415_4407" style="mask-type:alpha" maskUnits="userSpaceOnUse" x="34" y="31" width="18" height="19">
<path d="M41.7965 31.8476C42.2391 30.9434 43.5278 30.9434 43.9704 31.8476L51.5271 47.2862C51.9206 48.0902 51.3353 49.0284 50.4402 49.0284H35.3267C34.4316 49.0284 33.8463 48.0902 34.2398 47.2862L41.7965 31.8476Z" fill="url(#paint13_linear_415_4407)"/>
</mask>
<g mask="url(#mask0_415_4407)">
<g filter="url(#filter4_f_415_4407)">
<ellipse cx="9.94621" cy="2.69926" rx="9.94621" ry="2.69926" transform="matrix(0.204188 0.978932 -0.979534 0.201279 49.042 32.0605)" fill="#7BB0FF"/>
</g>
</g>
<ellipse cx="42.8839" cy="28.2077" rx="1.74812" ry="1.73509" fill="url(#paint14_linear_415_4407)"/>
<ellipse cx="29.0699" cy="33.2536" rx="1.43028" ry="1.41962" fill="url(#paint15_linear_415_4407)"/>
<ellipse cx="56.6246" cy="33.2536" rx="1.43028" ry="1.41962" fill="url(#paint16_linear_415_4407)"/>
<rect x="34.0225" y="50.3965" width="17.3867" height="2.35324" rx="1.17662" fill="url(#paint17_linear_415_4407)"/>
</g>
<path d="M30.6875 20.4219L31.2532 22.1294L32.9735 22.6909L31.2532 23.2525L30.6875 24.96L30.1217 23.2525L28.4014 22.6909L30.1217 22.1294L30.6875 20.4219Z" fill="white"/>
<path d="M23.8293 12.8574L25.1495 16.8415L29.1635 18.1519L25.1495 19.4622L23.8293 23.4463L22.5092 19.4622L18.4951 18.1519L22.5092 16.8415L23.8293 12.8574Z" fill="white"/>
<defs>
<filter id="filter0_f_415_4407" x="34.4323" y="1.61589" width="15.4645" height="15.3796" filterUnits="userSpaceOnUse" color-interpolation-filters="sRGB">
<feFlood flood-opacity="0" result="BackgroundImageFix"/>
<feBlend mode="normal" in="SourceGraphic" in2="BackgroundImageFix" result="shape"/>
<feGaussianBlur stdDeviation="1.00846" result="effect1_foregroundBlur_415_4407"/>
</filter>
<filter id="filter1_i_415_4407" x="15.4482" y="12.0507" width="54.8662" height="55.2638" filterUnits="userSpaceOnUse" color-interpolation-filters="sRGB">
<feFlood flood-opacity="0" result="BackgroundImageFix"/>
<feBlend mode="normal" in="SourceGraphic" in2="BackgroundImageFix" result="shape"/>
<feColorMatrix in="SourceAlpha" type="matrix" values="0 0 0 0 0 0 0 0 0 0 0 0 0 0 0 0 0 0 127 0" result="hardAlpha"/>
<feOffset dy="-0.80677"/>
<feGaussianBlur stdDeviation="0.80677"/>
<feComposite in2="hardAlpha" operator="arithmetic" k2="-1" k3="1"/>
<feColorMatrix type="matrix" values="0 0 0 0 0 0 0 0 0 0.172667 0 0 0 0 0.616667 0 0 0 0.15 0"/>
<feBlend mode="normal" in2="shape" result="effect1_innerShadow_415_4407"/>
</filter>
<filter id="filter2_ii_415_4407" x="20.0195" y="16.5897" width="45.7217" height="46.9944" filterUnits="userSpaceOnUse" color-interpolation-filters="sRGB">
<feFlood flood-opacity="0" result="BackgroundImageFix"/>
<feBlend mode="normal" in="SourceGraphic" in2="BackgroundImageFix" result="shape"/>
<feColorMatrix in="SourceAlpha" type="matrix" values="0 0 0 0 0 0 0 0 0 0 0 0 0 0 0 0 0 0 127 0" result="hardAlpha"/>
<feOffset dy="0.80677"/>
<feGaussianBlur stdDeviation="2.01693"/>
<feComposite in2="hardAlpha" operator="arithmetic" k2="-1" k3="1"/>
<feColorMatrix type="matrix" values="0 0 0 0 0 0 0 0 0 0.193203 0 0 0 0 0.4875 0 0 0 1 0"/>
<feBlend mode="normal" in2="shape" result="effect1_innerShadow_415_4407"/>
<feColorMatrix in="SourceAlpha" type="matrix" values="0 0 0 0 0 0 0 0 0 0 0 0 0 0 0 0 0 0 127 0" result="hardAlpha"/>
<feOffset dy="-0.80677"/>
<feGaussianBlur stdDeviation="2.01693"/>
<feComposite in2="hardAlpha" operator="arithmetic" k2="-1" k3="1"/>
<feColorMatrix type="matrix" values="0 0 0 0 0.4375 0 0 0 0 0.62875 0 0 0 0 1 0 0 0 1 0"/>
<feBlend mode="normal" in2="effect1_innerShadow_415_4407" result="effect2_innerShadow_415_4407"/>
</filter>
<filter id="filter3_d_415_4407" x="26.0261" y="25.6659" width="33.6421" height="29.5044" filterUnits="userSpaceOnUse" color-interpolation-filters="sRGB">
<feFlood flood-opacity="0" result="BackgroundImageFix"/>
<feColorMatrix in="SourceAlpha" type="matrix" values="0 0 0 0 0 0 0 0 0 0 0 0 0 0 0 0 0 0 127 0" result="hardAlpha"/>
<feOffset dy="0.80677"/>
<feGaussianBlur stdDeviation="0.80677"/>
<feComposite in2="hardAlpha" operator="out"/>
<feColorMatrix type="matrix" values="0 0 0 0 0.111875 0 0 0 0 0.364131 0 0 0 0 0.745833 0 0 0 0.68 0"/>
<feBlend mode="normal" in2="BackgroundImageFix" result="effect1_dropShadow_415_4407"/>
<feBlend mode="normal" in="SourceGraphic" in2="effect1_dropShadow_415_4407" result="shape"/>
</filter>
<filter id="filter4_f_415_4407" x="42.6744" y="30.1676" width="11.5086" height="24.3445" filterUnits="userSpaceOnUse" color-interpolation-filters="sRGB">
<feFlood flood-opacity="0" result="BackgroundImageFix"/>
<feBlend mode="normal" in="SourceGraphic" in2="BackgroundImageFix" result="shape"/>
<feGaussianBlur stdDeviation="1.21016" result="effect1_foregroundBlur_415_4407"/>
</filter>
<linearGradient id="paint0_linear_415_4407" x1="37.4238" y1="5.6726" x2="47.574" y2="5.6726" gradientUnits="userSpaceOnUse">
<stop offset="0.488759" stop-color="#E3EBFF"/>
<stop offset="0.488859" stop-color="#D1E5EE"/>
<stop offset="0.488959" stop-color="#B3C2D9"/>
</linearGradient>
<linearGradient id="paint1_linear_415_4407" x1="47.5752" y1="75.2571" x2="37.425" y2="75.2571" gradientUnits="userSpaceOnUse">
<stop offset="0.488759" stop-color="#E3EBFF"/>
<stop offset="0.488859" stop-color="#D1E5EE"/>
<stop offset="0.488959" stop-color="#B3C2D9"/>
</linearGradient>
<linearGradient id="paint2_linear_415_4407" x1="75.3947" y1="53.4992" x2="70.3764" y2="62.2565" gradientUnits="userSpaceOnUse">
<stop offset="0.488759" stop-color="#E3EBFF"/>
<stop offset="0.488859" stop-color="#D1E5EE"/>
<stop offset="0.488959" stop-color="#B3C2D9"/>
</linearGradient>
<linearGradient id="paint3_linear_415_4407" x1="9.60525" y1="27.4325" x2="14.6236" y2="18.6752" gradientUnits="userSpaceOnUse">
<stop offset="0.488759" stop-color="#E3EBFF"/>
<stop offset="0.488859" stop-color="#D1E5EE"/>
<stop offset="0.488959" stop-color="#B3C2D9"/>
</linearGradient>
<linearGradient id="paint4_linear_415_4407" x1="70.3185" y1="18.7069" x2="75.3369" y2="27.4643" gradientUnits="userSpaceOnUse">
<stop offset="0.488759" stop-color="#E3EBFF"/>
<stop offset="0.488859" stop-color="#D1E5EE"/>
<stop offset="0.488959" stop-color="#B3C2D9"/>
</linearGradient>
<linearGradient id="paint5_linear_415_4407" x1="14.6805" y1="62.2247" x2="9.66215" y2="53.4674" gradientUnits="userSpaceOnUse">
<stop offset="0.488759" stop-color="#E3EBFF"/>
<stop offset="0.488859" stop-color="#D1E5EE"/>
<stop offset="0.488959" stop-color="#B3C2D9"/>
</linearGradient>
<linearGradient id="paint6_linear_415_4407" x1="22.8532" y1="17.0295" x2="64.1654" y2="63.4545" gradientUnits="userSpaceOnUse">
<stop stop-color="#D5E3FF"/>
<stop offset="0.520833" stop-color="#F0F5FF"/>
<stop offset="1" stop-color="#D0DFFE"/>
</linearGradient>
<linearGradient id="paint7_linear_415_4407" x1="42.8808" y1="9.07812" x2="42.8808" y2="71.0986" gradientUnits="userSpaceOnUse">
<stop stop-color="white" stop-opacity="0.5"/>
<stop offset="1" stop-color="white" stop-opacity="0"/>
</linearGradient>
<linearGradient id="paint8_linear_415_4407" x1="25.3546" y1="19.2864" x2="60.0973" y2="61.5191" gradientUnits="userSpaceOnUse">
<stop stop-color="#B1CCFF"/>
<stop offset="1" stop-color="#D5E3FF"/>
</linearGradient>
<linearGradient id="paint9_linear_415_4407" x1="27.7519" y1="21.4007" x2="46.3456" y2="62.8817" gradientUnits="userSpaceOnUse">
<stop stop-color="#78A6FF"/>
<stop offset="0.484375" stop-color="#376EC1"/>
<stop offset="1" stop-color="#1352B0"/>
</linearGradient>
<linearGradient id="paint10_linear_415_4407" x1="29.6081" y1="37.3556" x2="38.8384" y2="44.1189" gradientUnits="userSpaceOnUse">
<stop stop-color="#90BDFF"/>
<stop offset="1" stop-color="#408CFF"/>
</linearGradient>
<linearGradient id="paint11_linear_415_4407" x1="55.1945" y1="35.4021" x2="49.6353" y2="45.4839" gradientUnits="userSpaceOnUse">
<stop stop-color="#90BDFF"/>
<stop offset="1" stop-color="#408CFF"/>
</linearGradient>
<linearGradient id="paint12_linear_415_4407" x1="38.0253" y1="39.6142" x2="47.8804" y2="39.6142" gradientUnits="userSpaceOnUse">
<stop offset="0.49728" stop-color="#90BDFF"/>
<stop offset="0.49738" stop-color="#408CFF"/>
</linearGradient>
<linearGradient id="paint13_linear_415_4407" x1="38.0253" y1="39.6142" x2="47.8804" y2="39.6142" gradientUnits="userSpaceOnUse">
<stop offset="0.416667" stop-color="#B1B0D8"/>
<stop offset="0.49738" stop-color="#FFCC1D"/>
</linearGradient>
<linearGradient id="paint14_linear_415_4407" x1="42.8839" y1="26.4727" x2="42.8839" y2="29.9428" gradientUnits="userSpaceOnUse">
<stop stop-color="#B0C6FF"/>
<stop offset="1" stop-color="#408CFF"/>
</linearGradient>
<linearGradient id="paint15_linear_415_4407" x1="29.0699" y1="31.834" x2="29.0699" y2="34.6732" gradientUnits="userSpaceOnUse">
<stop stop-color="#B0C6FF"/>
<stop offset="1" stop-color="#408CFF"/>
</linearGradient>
<linearGradient id="paint16_linear_415_4407" x1="56.6246" y1="31.834" x2="56.6246" y2="34.6732" gradientUnits="userSpaceOnUse">
<stop stop-color="#B0C6FF"/>
<stop offset="1" stop-color="#408CFF"/>
</linearGradient>
<linearGradient id="paint17_linear_415_4407" x1="34.22" y1="51.5731" x2="51.6067" y2="51.5731" gradientUnits="userSpaceOnUse">
<stop stop-color="#90BDFF"/>
<stop offset="1" stop-color="#458FFF"/>
</linearGradient>
</defs>
</svg>
