<svg fill="none" height="81" viewBox="0 0 85 81" width="85" xmlns="http://www.w3.org/2000/svg" xmlns:xlink="http://www.w3.org/1999/xlink"><filter id="a" color-interpolation-filters="sRGB" filterUnits="userSpaceOnUse" height="15.3796" width="15.4645" x="34.4323" y="1.61198"><feFlood flood-opacity="0" result="BackgroundImageFix"/><feBlend in="SourceGraphic" in2="BackgroundImageFix" mode="normal" result="shape"/><feGaussianBlur result="effect1_foregroundBlur_415_4592" stdDeviation="1.00846"/></filter><filter id="b" color-interpolation-filters="sRGB" filterUnits="userSpaceOnUse" height="55.2638" width="54.8662" x="15.4482" y="12.0507"><feFlood flood-opacity="0" result="BackgroundImageFix"/><feBlend in="SourceGraphic" in2="BackgroundImageFix" mode="normal" result="shape"/><feColorMatrix in="SourceAlpha" result="hardAlpha" type="matrix" values="0 0 0 0 0 0 0 0 0 0 0 0 0 0 0 0 0 0 127 0"/><feOffset dy="-.80677"/><feGaussianBlur stdDeviation=".80677"/><feComposite in2="hardAlpha" k2="-1" k3="1" operator="arithmetic"/><feColorMatrix type="matrix" values="0 0 0 0 0 0 0 0 0 0.172667 0 0 0 0 0.616667 0 0 0 0.15 0"/><feBlend in2="shape" mode="normal" result="effect1_innerShadow_415_4592"/></filter><filter id="c" color-interpolation-filters="sRGB" filterUnits="userSpaceOnUse" height="46.9944" width="45.7217" x="20.0205" y="16.5878"><feFlood flood-opacity="0" result="BackgroundImageFix"/><feBlend in="SourceGraphic" in2="BackgroundImageFix" mode="normal" result="shape"/><feColorMatrix in="SourceAlpha" result="hardAlpha" type="matrix" values="0 0 0 0 0 0 0 0 0 0 0 0 0 0 0 0 0 0 127 0"/><feOffset dy=".80677"/><feGaussianBlur stdDeviation="2.01693"/><feComposite in2="hardAlpha" k2="-1" k3="1" operator="arithmetic"/><feColorMatrix type="matrix" values="0 0 0 0 0.4875 0 0 0 0 0.1755 0 0 0 0 0 0 0 0 1 0"/><feBlend in2="shape" mode="normal" result="effect1_innerShadow_415_4592"/><feColorMatrix in="SourceAlpha" result="hardAlpha" type="matrix" values="0 0 0 0 0 0 0 0 0 0 0 0 0 0 0 0 0 0 127 0"/><feOffset dy="-.80677"/><feGaussianBlur stdDeviation="2.01693"/><feComposite in2="hardAlpha" k2="-1" k3="1" operator="arithmetic"/><feColorMatrix type="matrix" values="0 0 0 0 1 0 0 0 0 0.716167 0 0 0 0 0.454167 0 0 0 1 0"/><feBlend in2="effect1_innerShadow_415_4592" mode="normal" result="effect2_innerShadow_415_4592"/></filter><filter id="d" color-interpolation-filters="sRGB" filterUnits="userSpaceOnUse" height="29.5044" width="33.6421" x="26.0261" y="25.6659"><feFlood flood-opacity="0" result="BackgroundImageFix"/><feColorMatrix in="SourceAlpha" result="hardAlpha" type="matrix" values="0 0 0 0 0 0 0 0 0 0 0 0 0 0 0 0 0 0 127 0"/><feOffset dy=".80677"/><feGaussianBlur stdDeviation=".80677"/><feComposite in2="hardAlpha" operator="out"/><feColorMatrix type="matrix" values="0 0 0 0 0.6 0 0 0 0 0.361709 0 0 0 0 0.19 0 0 0 1 0"/><feBlend in2="BackgroundImageFix" mode="normal" result="effect1_dropShadow_415_4592"/><feBlend in="SourceGraphic" in2="effect1_dropShadow_415_4592" mode="normal" result="shape"/></filter><filter id="e" color-interpolation-filters="sRGB" filterUnits="userSpaceOnUse" height="24.3445" width="11.5086" x="42.6744" y="30.1676"><feFlood flood-opacity="0" result="BackgroundImageFix"/><feBlend in="SourceGraphic" in2="BackgroundImageFix" mode="normal" result="shape"/><feGaussianBlur result="effect1_foregroundBlur_415_4592" stdDeviation="1.21016"/></filter><linearGradient id="f"><stop offset=".488759" stop-color="#ffc786"/><stop offset=".488859" stop-color="#d1e5ee"/><stop offset=".488959" stop-color="#d18e5c"/></linearGradient><linearGradient id="g" gradientUnits="userSpaceOnUse" x1="37.4238" x2="47.574" xlink:href="#f" y1="5.6726" y2="5.6726"/><linearGradient id="h" gradientUnits="userSpaceOnUse" x1="47.5752" x2="37.425" xlink:href="#f" y1="75.2551" y2="75.2551"/><linearGradient id="i" gradientUnits="userSpaceOnUse" x1="75.3947" x2="70.3764" xlink:href="#f" y1="53.4972" y2="62.2545"/><linearGradient id="j" gradientUnits="userSpaceOnUse" x1="9.60525" x2="14.6236" xlink:href="#f" y1="27.4286" y2="18.6712"/><linearGradient id="k" gradientUnits="userSpaceOnUse" x1="70.3195" x2="75.3379" xlink:href="#f" y1="18.705" y2="27.4623"/><linearGradient id="l" gradientUnits="userSpaceOnUse" x1="14.6815" x2="9.66312" xlink:href="#f" y1="62.2208" y2="53.4635"/><linearGradient id="m" gradientUnits="userSpaceOnUse" x1="22.8532" x2="64.1654" y1="17.0256" y2="63.4506"><stop offset="0" stop-color="#ffc887"/><stop offset=".520833" stop-color="#ffe7cb"/><stop offset="1" stop-color="#b45612"/></linearGradient><linearGradient id="n" gradientUnits="userSpaceOnUse" x1="42.8808" x2="42.8808" y1="9.07422" y2="71.0947"><stop offset="0" stop-color="#fff" stop-opacity=".5"/><stop offset="1" stop-color="#fff" stop-opacity="0"/></linearGradient><linearGradient id="o" gradientUnits="userSpaceOnUse" x1="25.3546" x2="60.0973" y1="19.2864" y2="61.5191"><stop offset="0" stop-color="#d28e5d"/><stop offset="1" stop-color="#ffc887"/></linearGradient><linearGradient id="p" gradientUnits="userSpaceOnUse" x1="27.7528" x2="46.3466" y1="21.3987" y2="62.8797"><stop offset="0" stop-color="#ffcd92"/><stop offset=".484375" stop-color="#d88335"/><stop offset="1" stop-color="#9c5a2a"/></linearGradient><linearGradient id="q" gradientUnits="userSpaceOnUse" x1="29.6081" x2="38.8384" y1="37.3556" y2="44.1189"><stop offset="0" stop-color="#ffdbb0"/><stop offset="1" stop-color="#d4905f"/></linearGradient><linearGradient id="r" gradientUnits="userSpaceOnUse" x1="55.1945" x2="49.6353" y1="35.4021" y2="45.4839"><stop offset="0" stop-color="#ffdbaf"/><stop offset="1" stop-color="#d28e5d"/></linearGradient><linearGradient id="s" gradientUnits="userSpaceOnUse" x1="38.0253" x2="47.8804" y1="39.6142" y2="39.6142"><stop offset=".49728" stop-color="#ffc886"/><stop offset=".49738" stop-color="#d28e5d"/></linearGradient><linearGradient id="t" gradientUnits="userSpaceOnUse" x1="38.0253" x2="47.8804" y1="39.6142" y2="39.6142"><stop offset=".416667" stop-color="#b1b0d8"/><stop offset=".49738" stop-color="#ffcc1d"/></linearGradient><linearGradient id="u"><stop offset="0" stop-color="#ffe5c7"/><stop offset="1" stop-color="#d28e5d"/></linearGradient><linearGradient id="v" gradientUnits="userSpaceOnUse" x1="42.8848" x2="42.8848" xlink:href="#u" y1="26.4727" y2="29.9428"/><linearGradient id="w" gradientUnits="userSpaceOnUse" x1="29.0699" x2="29.0699" xlink:href="#u" y1="31.834" y2="34.6732"/><linearGradient id="x" gradientUnits="userSpaceOnUse" x1="56.6246" x2="56.6246" xlink:href="#u" y1="31.834" y2="34.6732"/><linearGradient id="y" gradientUnits="userSpaceOnUse" x1="34.22" x2="51.6067" y1="51.5731" y2="51.5731"><stop offset="0" stop-color="#ffc886"/><stop offset="1" stop-color="#d28e5d"/></linearGradient><mask id="z" height="19" maskUnits="userSpaceOnUse" width="18" x="34" y="31"><path d="m41.7965 31.8476c.4426-.9042 1.7313-.9042 2.1739 0l7.5567 15.4386c.3935.804-.1918 1.7422-1.0869 1.7422h-15.1135c-.8951 0-1.4804-.9382-1.0869-1.7422z" fill="url(#t)"/></mask><path d="m42.4989 0 12.2088 14.1815h-24.4176z" fill="url(#g)"/><path d="m42.5001 80.9277-12.2088-14.1815h24.4176z" fill="url(#h)"/><g filter="url(#a)"><path d="m42.1644 3.62891 1.4145 4.2687 4.3007 1.4039-4.3007 1.40389-1.4145 4.2687-1.4144-4.2687-4.3008-1.40389 4.3008-1.4039z" fill="#fff" fill-opacity=".62"/><path d="m42.1644 3.75715 1.3762 4.15315.0064.01934.0194.00632 4.1832 1.36555-4.1832 1.36559-.0194.0063-.0064.0193-1.3762 4.1532-1.3761-4.1532-.0064-.0193-.0194-.0063-4.1833-1.36559 4.1833-1.36555.0194-.00632.0064-.01934z" stroke="#ffc886" stroke-width=".080677"/></g><path d="m77.8067 60.6959-18.4782 3.4036 12.2088-20.9887z" fill="url(#i)"/><path d="m7.19329 20.2299 18.47821-3.4036-12.2088 20.9886z" fill="url(#j)"/><path d="m77.8066 20.2311-6.2694 17.585-12.2088-20.9886z" fill="url(#k)"/><path d="m7.19441 60.6947 6.26939-17.5851 12.2088 20.9887z" fill="url(#l)"/><path d="m73.9223 40.0844c0 17.0137-13.8963 30.8086-31.0415 30.8086-17.1451 0-31.0414-13.7949-31.0414-30.8086 0-17.0136 13.8963-30.80849 31.0414-30.80849 17.1452 0 31.0415 13.79489 31.0415 30.80849z" fill="url(#m)" stroke="url(#n)" stroke-width=".403385"/><g filter="url(#b)"><ellipse cx="42.8812" cy="40.0859" fill="url(#o)" rx="27.433" ry="27.2285"/></g><g filter="url(#c)"><ellipse cx="42.8813" cy="40.0849" fill="url(#p)" rx="22.8608" ry="22.6904"/></g><g filter="url(#d)"><path d="m29.381 36.2105c-.4067-1.0926.815-2.0719 1.7929-1.4373l18.2932 11.8718c1.0108.656.5463 2.2252-.6588 2.2252h-13.874c-.5055 0-.9578-.3142-1.1341-.7879z" fill="url(#q)"/><path d="m56.3767 36.1959c.4109-1.09-.8044-2.0743-1.7852-1.4459l-18.558 11.8912c-1.0177.6521-.5558 2.229.6529 2.229h14.0748c.5037 0 .9547-.3119 1.1324-.7832z" fill="url(#r)"/><path d="m41.7965 31.8476c.4426-.9042 1.7313-.9042 2.1739 0l7.5567 15.4386c.3935.804-.1918 1.7422-1.0869 1.7422h-15.1135c-.8951 0-1.4804-.9382-1.0869-1.7422z" fill="url(#s)"/><g mask="url(#z)"><g filter="url(#e)"><ellipse cx="9.94621" cy="2.69926" fill="#eca26c" rx="9.94621" ry="2.69926" transform="matrix(.204188 .978932 -.979534 .201279 49.042 32.0605)"/></g></g><ellipse cx="42.8848" cy="28.2077" fill="url(#v)" rx="1.74812" ry="1.73509"/><ellipse cx="29.0699" cy="33.2536" fill="url(#w)" rx="1.43028" ry="1.41962"/><ellipse cx="56.6246" cy="33.2536" fill="url(#x)" rx="1.43028" ry="1.41962"/><rect fill="url(#y)" height="2.35324" rx="1.17662" width="17.3867" x="34.0225" y="50.3965"/></g><g fill="#fff"><path d="m30.6875 20.4199.5657 1.7075 1.7203.5616-1.7203.5615-.5657 1.7075-.5658-1.7075-1.7203-.5615 1.7203-.5616z"/><path d="m23.8293 12.8574 1.3202 3.9841 4.014 1.3104-4.014 1.3103-1.3202 3.9841-1.3201-3.9841-4.0141-1.3103 4.0141-1.3104z"/></g></svg>