<svg fill="none" height="191" viewBox="0 0 191 191" width="191" xmlns="http://www.w3.org/2000/svg" xmlns:xlink="http://www.w3.org/1999/xlink"><linearGradient id="a"><stop offset="0" stop-color="#34c796"/><stop offset="1" stop-color="#0b7a55"/></linearGradient><linearGradient id="b" gradientUnits="userSpaceOnUse" x1="107.404" x2="83.6367" xlink:href="#a" y1="22.3271" y2="81.3523"/><linearGradient id="c" gradientUnits="userSpaceOnUse" x1="114.28" x2="112.031" xlink:href="#a" y1="26.9145" y2="32.4993"/><linearGradient id="d" gradientUnits="userSpaceOnUse" x1="102.159" x2="98.3847" xlink:href="#a" y1="41.1985" y2="50.572"/><linearGradient id="e" gradientUnits="userSpaceOnUse" x1="103.978" x2="83.4048" xlink:href="#a" y1="21.3134" y2="72.4052"/><linearGradient id="f" gradientUnits="userSpaceOnUse" x1="120.48" x2="100.841" xlink:href="#a" y1="27.0245" y2="75.7958"/><linearGradient id="g" gradientUnits="userSpaceOnUse" x1="156.222" x2="125.914" xlink:href="#a" y1="41.9861" y2="117.254"/><linearGradient id="h" gradientUnits="userSpaceOnUse" x1="146.183" x2="141.012" xlink:href="#a" y1="40.8506" y2="53.6924"/><linearGradient id="i" gradientUnits="userSpaceOnUse" x1="156.712" x2="147.935" xlink:href="#a" y1="65.0269" y2="86.8231"/><linearGradient id="j" gradientUnits="userSpaceOnUse" x1="150.294" x2="128.081" xlink:href="#a" y1="41.1287" y2="96.2918"/><linearGradient id="k" gradientUnits="userSpaceOnUse" x1="155.486" x2="129.998" xlink:href="#a" y1="44.1803" y2="107.479"/><linearGradient id="l" gradientUnits="userSpaceOnUse" x1="137.325" x2="103.671" xlink:href="#a" y1="36.878" y2="120.454"/><linearGradient id="m" gradientUnits="userSpaceOnUse" x1="124.391" x2="122.141" xlink:href="#a" y1="46.7153" y2="52.3019"/><linearGradient id="n" gradientUnits="userSpaceOnUse" x1="119.458" x2="115.682" xlink:href="#a" y1="75.094" y2="84.4718"/><linearGradient id="o" gradientUnits="userSpaceOnUse" x1="140.512" x2="108.197" xlink:href="#a" y1="38.1699" y2="118.422"/><linearGradient id="p" gradientUnits="userSpaceOnUse" x1="124.29" x2="90.7549" xlink:href="#a" y1="31.7465" y2="115.029"/><linearGradient id="q" gradientUnits="userSpaceOnUse" x1="88.5967" x2="55.4765" xlink:href="#a" y1="16.6622" y2="98.9137"/><linearGradient id="r" gradientUnits="userSpaceOnUse" x1="95.4165" x2="90.247" xlink:href="#a" y1="25.5293" y2="38.3674"/><linearGradient id="s" gradientUnits="userSpaceOnUse" x1="69.9065" x2="61.1298" xlink:href="#a" y1="38.8243" y2="60.6204"/><linearGradient id="t" gradientUnits="userSpaceOnUse" x1="93.7914" x2="63.5167" xlink:href="#a" y1="19.3491" y2="94.5341"/><linearGradient id="u" gradientUnits="userSpaceOnUse" x1="88.2606" x2="61.5886" xlink:href="#a" y1="17.1176" y2="83.3556"/><linearGradient id="v" gradientUnits="userSpaceOnUse" x1="88.0416" x2="54.3898" xlink:href="#a" y1="70.4356" y2="154.007"/><linearGradient id="w" gradientUnits="userSpaceOnUse" x1="76.0352" x2="72.2608" xlink:href="#a" y1="106.424" y2="115.798"/><linearGradient id="x" gradientUnits="userSpaceOnUse" x1="69.5635" x2="67.3147" xlink:href="#a" y1="138.565" y2="144.15"/><linearGradient id="y" gradientUnits="userSpaceOnUse" x1="83.5181" x2="51.2046" xlink:href="#a" y1="72.4505" y2="152.699"/><linearGradient id="z" gradientUnits="userSpaceOnUse" x1="100.96" x2="67.4263" xlink:href="#a" y1="75.8442" y2="159.123"/><linearGradient id="A" gradientUnits="userSpaceOnUse" x1="136.253" x2="103.127" xlink:href="#a" y1="91.948" y2="174.214"/><linearGradient id="B" gradientUnits="userSpaceOnUse" x1="130.579" x2="121.804" xlink:href="#a" y1="130.237" y2="152.029"/><linearGradient id="C" gradientUnits="userSpaceOnUse" x1="101.465" x2="96.2959" xlink:href="#a" y1="152.5" y2="165.338"/><linearGradient id="D" gradientUnits="userSpaceOnUse" x1="128.2" x2="97.9265" xlink:href="#a" y1="96.3396" y2="171.521"/><linearGradient id="E" gradientUnits="userSpaceOnUse" x1="130.128" x2="103.457" xlink:href="#a" y1="107.518" y2="173.753"/><linearGradient id="F" gradientUnits="userSpaceOnUse" x1="108.083" x2="84.3112" xlink:href="#a" y1="109.505" y2="168.539"/><linearGradient id="G" gradientUnits="userSpaceOnUse" x1="93.3409" x2="89.5647" xlink:href="#a" y1="140.3" y2="149.678"/><linearGradient id="H" gradientUnits="userSpaceOnUse" x1="79.6757" x2="77.4261" xlink:href="#a" y1="158.365" y2="163.952"/><linearGradient id="I" gradientUnits="userSpaceOnUse" x1="108.31" x2="87.7379" xlink:href="#a" y1="118.468" y2="169.557"/><linearGradient id="J" gradientUnits="userSpaceOnUse" x1="90.8749" x2="71.2395" xlink:href="#a" y1="115.081" y2="163.844"/><linearGradient id="K" gradientUnits="userSpaceOnUse" x1="65.7897" x2="35.4926" xlink:href="#a" y1="73.6408" y2="148.881"/><linearGradient id="L" gradientUnits="userSpaceOnUse" x1="43.7835" x2="35.0068" xlink:href="#a" y1="104.051" y2="125.847"/><linearGradient id="M" gradientUnits="userSpaceOnUse" x1="50.6997" x2="45.5302" xlink:href="#a" y1="137.179" y2="150.017"/><linearGradient id="N" gradientUnits="userSpaceOnUse" x1="63.6377" x2="41.4254" xlink:href="#a" y1="94.5818" y2="149.744"/><linearGradient id="O" gradientUnits="userSpaceOnUse" x1="61.7073" x2="36.2272" xlink:href="#a" y1="83.4202" y2="146.698"/><linearGradient id="P" gradientUnits="userSpaceOnUse" x1="122.997" x2="68.6909" xlink:href="#a" y1="27.9755" y2="162.84"/><linearGradient id="Q" gradientUnits="userSpaceOnUse" x1="107.403" x2="83.6357" xlink:href="#a" y1="22.3271" y2="81.3523"/><linearGradient id="R" gradientUnits="userSpaceOnUse" x1="114.279" x2="112.03" xlink:href="#a" y1="26.9145" y2="32.4993"/><linearGradient id="S" gradientUnits="userSpaceOnUse" x1="102.158" x2="98.3837" xlink:href="#a" y1="41.1985" y2="50.572"/><linearGradient id="T" gradientUnits="userSpaceOnUse" x1="103.977" x2="83.4038" xlink:href="#a" y1="21.3134" y2="72.4052"/><linearGradient id="U" gradientUnits="userSpaceOnUse" x1="120.479" x2="100.84" xlink:href="#a" y1="27.0245" y2="75.7958"/><linearGradient id="V" gradientUnits="userSpaceOnUse" x1="156.221" x2="125.913" xlink:href="#a" y1="41.9861" y2="117.254"/><linearGradient id="W" gradientUnits="userSpaceOnUse" x1="146.182" x2="141.011" xlink:href="#a" y1="40.8506" y2="53.6924"/><linearGradient id="X" gradientUnits="userSpaceOnUse" x1="156.711" x2="147.934" xlink:href="#a" y1="65.0269" y2="86.8231"/><linearGradient id="Y" gradientUnits="userSpaceOnUse" x1="150.293" x2="128.08" xlink:href="#a" y1="41.1287" y2="96.2918"/><linearGradient id="Z" gradientUnits="userSpaceOnUse" x1="155.485" x2="129.997" xlink:href="#a" y1="44.1803" y2="107.479"/><linearGradient id="aa" gradientUnits="userSpaceOnUse" x1="137.324" x2="103.67" xlink:href="#a" y1="36.878" y2="120.454"/><linearGradient id="ab" gradientUnits="userSpaceOnUse" x1="124.39" x2="122.14" xlink:href="#a" y1="46.7153" y2="52.3019"/><linearGradient id="ac" gradientUnits="userSpaceOnUse" x1="119.457" x2="115.681" xlink:href="#a" y1="75.094" y2="84.4718"/><linearGradient id="ad" gradientUnits="userSpaceOnUse" x1="140.511" x2="108.196" xlink:href="#a" y1="38.1699" y2="118.422"/><linearGradient id="ae" gradientUnits="userSpaceOnUse" x1="124.289" x2="90.7539" xlink:href="#a" y1="31.7465" y2="115.029"/><linearGradient id="af" gradientUnits="userSpaceOnUse" x1="88.5958" x2="55.4756" xlink:href="#a" y1="16.6622" y2="98.9137"/><linearGradient id="ag" gradientUnits="userSpaceOnUse" x1="95.4155" x2="90.246" xlink:href="#a" y1="25.5293" y2="38.3674"/><linearGradient id="ah" gradientUnits="userSpaceOnUse" x1="69.9055" x2="61.1289" xlink:href="#a" y1="38.8243" y2="60.6204"/><linearGradient id="ai" gradientUnits="userSpaceOnUse" x1="93.7904" x2="63.5157" xlink:href="#a" y1="19.3491" y2="94.5341"/><linearGradient id="aj" gradientUnits="userSpaceOnUse" x1="88.2596" x2="61.5876" xlink:href="#a" y1="17.1176" y2="83.3556"/><linearGradient id="ak" gradientUnits="userSpaceOnUse" x1="88.0406" x2="54.3888" xlink:href="#a" y1="70.4356" y2="154.007"/><linearGradient id="al" gradientUnits="userSpaceOnUse" x1="76.0342" x2="72.2598" xlink:href="#a" y1="106.424" y2="115.798"/><linearGradient id="am" gradientUnits="userSpaceOnUse" x1="69.5625" x2="67.3137" xlink:href="#a" y1="138.565" y2="144.15"/><linearGradient id="an" gradientUnits="userSpaceOnUse" x1="83.5172" x2="51.2037" xlink:href="#a" y1="72.4505" y2="152.699"/><linearGradient id="ao" gradientUnits="userSpaceOnUse" x1="100.959" x2="67.4253" xlink:href="#a" y1="75.8442" y2="159.123"/><linearGradient id="ap" gradientUnits="userSpaceOnUse" x1="136.252" x2="103.126" xlink:href="#a" y1="91.948" y2="174.214"/><linearGradient id="aq" gradientUnits="userSpaceOnUse" x1="130.578" x2="121.803" xlink:href="#a" y1="130.237" y2="152.029"/><linearGradient id="ar" gradientUnits="userSpaceOnUse" x1="101.464" x2="96.295" xlink:href="#a" y1="152.5" y2="165.338"/><linearGradient id="as" gradientUnits="userSpaceOnUse" x1="128.199" x2="97.9255" xlink:href="#a" y1="96.3396" y2="171.521"/><linearGradient id="at" gradientUnits="userSpaceOnUse" x1="130.127" x2="103.456" xlink:href="#a" y1="107.518" y2="173.753"/><linearGradient id="au" gradientUnits="userSpaceOnUse" x1="108.082" x2="84.3102" xlink:href="#a" y1="109.505" y2="168.539"/><linearGradient id="av" gradientUnits="userSpaceOnUse" x1="93.3399" x2="89.5638" xlink:href="#a" y1="140.3" y2="149.678"/><linearGradient id="aw" gradientUnits="userSpaceOnUse" x1="79.6747" x2="77.4251" xlink:href="#a" y1="158.365" y2="163.952"/><linearGradient id="ax" gradientUnits="userSpaceOnUse" x1="108.309" x2="87.7369" xlink:href="#a" y1="118.468" y2="169.557"/><linearGradient id="ay" gradientUnits="userSpaceOnUse" x1="90.8739" x2="71.2385" xlink:href="#a" y1="115.081" y2="163.844"/><linearGradient id="az" gradientUnits="userSpaceOnUse" x1="65.7887" x2="35.4916" xlink:href="#a" y1="73.6408" y2="148.881"/><linearGradient id="aA" gradientUnits="userSpaceOnUse" x1="43.7825" x2="35.0059" xlink:href="#a" y1="104.051" y2="125.847"/><linearGradient id="aB" gradientUnits="userSpaceOnUse" x1="50.6987" x2="45.5292" xlink:href="#a" y1="137.179" y2="150.017"/><linearGradient id="aC" gradientUnits="userSpaceOnUse" x1="63.6367" x2="41.4244" xlink:href="#a" y1="94.5818" y2="149.744"/><linearGradient id="aD" gradientUnits="userSpaceOnUse" x1="61.7063" x2="36.2262" xlink:href="#a" y1="83.4202" y2="146.698"/><linearGradient id="aE" gradientUnits="userSpaceOnUse" x1="122.98" x2="68.6916" xlink:href="#a" y1="28.0287" y2="162.849"/><linearGradient id="aF" gradientUnits="userSpaceOnUse" x1="87.999" x2="54.1628" xlink:href="#a" y1="70.2925" y2="154.322"/><linearGradient id="aG" gradientUnits="userSpaceOnUse" x1="69.4021" x2="67.1411" xlink:href="#a" y1="138.797" y2="144.412"/><linearGradient id="aH" gradientUnits="userSpaceOnUse" x1="75.9254" x2="72.1308" xlink:href="#a" y1="106.486" y2="115.91"/><linearGradient id="aI" gradientUnits="userSpaceOnUse" x1="83.4493" x2="50.9581" xlink:href="#a" y1="72.3245" y2="153.014"/><linearGradient id="aJ" gradientUnits="userSpaceOnUse" x1="100.989" x2="67.2702" xlink:href="#a" y1="75.7366" y2="159.475"/><linearGradient id="aK" gradientUnits="userSpaceOnUse" x1="136.467" x2="103.168" xlink:href="#a" y1="91.9533" y2="174.65"/><linearGradient id="aL" gradientUnits="userSpaceOnUse" x1="101.493" x2="96.2966" xlink:href="#a" y1="152.818" y2="165.723"/><linearGradient id="aM" gradientUnits="userSpaceOnUse" x1="130.775" x2="121.949" xlink:href="#a" y1="130.437" y2="152.355"/><linearGradient id="aN" gradientUnits="userSpaceOnUse" x1="128.377" x2="97.9377" xlink:href="#a" y1="96.3477" y2="171.941"/><linearGradient id="aO" gradientUnits="userSpaceOnUse" x1="130.319" x2="103.501" xlink:href="#a" y1="107.583" y2="174.184"/><linearGradient id="aP" gradientUnits="userSpaceOnUse" x1="108.146" x2="84.2422" xlink:href="#a" y1="109.578" y2="168.943"/><linearGradient id="aQ" gradientUnits="userSpaceOnUse" x1="79.5974" x2="77.3374" xlink:href="#a" y1="158.718" y2="164.331"/><linearGradient id="aR" gradientUnits="userSpaceOnUse" x1="93.3189" x2="89.5233" xlink:href="#a" y1="140.547" y2="149.973"/><linearGradient id="aS" gradientUnits="userSpaceOnUse" x1="108.395" x2="87.7095" xlink:href="#a" y1="118.602" y2="169.972"/><linearGradient id="aT" gradientUnits="userSpaceOnUse" x1="90.8484" x2="71.1039" xlink:href="#a" y1="115.187" y2="164.221"/><linearGradient id="aU" gradientUnits="userSpaceOnUse" x1="65.6271" x2="35.1612" xlink:href="#a" y1="73.52" y2="149.18"/><linearGradient id="aV" gradientUnits="userSpaceOnUse" x1="50.4589" x2="45.2595" xlink:href="#a" y1="137.411" y2="150.323"/><linearGradient id="aW" gradientUnits="userSpaceOnUse" x1="43.5175" x2="34.6945" xlink:href="#a" y1="104.095" y2="126.006"/><linearGradient id="aX" gradientUnits="userSpaceOnUse" x1="63.4526" x2="41.1238" xlink:href="#a" y1="94.5904" y2="150.042"/><linearGradient id="aY" gradientUnits="userSpaceOnUse" x1="61.514" x2="35.8965" xlink:href="#a" y1="83.3601" y2="146.979"/><linearGradient id="aZ" gradientUnits="userSpaceOnUse" x1="107.475" x2="83.5753" xlink:href="#a" y1="21.9244" y2="81.2769"/><linearGradient id="a0" gradientUnits="userSpaceOnUse" x1="102.192" x2="98.3959" xlink:href="#a" y1="40.9" y2="50.3274"/><linearGradient id="a1" gradientUnits="userSpaceOnUse" x1="114.374" x2="112.114" xlink:href="#a" y1="26.5559" y2="32.1679"/><linearGradient id="a2" gradientUnits="userSpaceOnUse" x1="104.015" x2="83.3287" xlink:href="#a" y1="20.9023" y2="72.2756"/><linearGradient id="a3" gradientUnits="userSpaceOnUse" x1="120.617" x2="100.868" xlink:href="#a" y1="26.6423" y2="75.6873"/><linearGradient id="a4" gradientUnits="userSpaceOnUse" x1="156.562" x2="126.088" xlink:href="#a" y1="41.6965" y2="117.376"/><linearGradient id="a5" gradientUnits="userSpaceOnUse" x1="157.034" x2="148.208" xlink:href="#a" y1="64.8733" y2="86.7919"/><linearGradient id="a6" gradientUnits="userSpaceOnUse" x1="146.456" x2="141.26" xlink:href="#a" y1="40.5553" y2="53.4602"/><linearGradient id="a7" gradientUnits="userSpaceOnUse" x1="150.592" x2="128.256" xlink:href="#a" y1="40.8284" y2="96.2982"/><linearGradient id="a8" gradientUnits="userSpaceOnUse" x1="155.821" x2="130.189" xlink:href="#a" y1="43.9016" y2="107.556"/><linearGradient id="a9" gradientUnits="userSpaceOnUse" x1="137.545" x2="103.701" xlink:href="#a" y1="36.5533" y2="120.6"/><linearGradient id="ba" gradientUnits="userSpaceOnUse" x1="119.588" x2="115.792" xlink:href="#a" y1="74.9615" y2="84.3875"/><linearGradient id="bb" gradientUnits="userSpaceOnUse" x1="124.558" x2="122.298" xlink:href="#a" y1="46.4555" y2="52.0681"/><linearGradient id="bc" gradientUnits="userSpaceOnUse" x1="140.757" x2="108.264" xlink:href="#a" y1="37.8645" y2="118.558"/><linearGradient id="bd" gradientUnits="userSpaceOnUse" x1="124.446" x2="90.7272" xlink:href="#a" y1="31.3997" y2="115.138"/><linearGradient id="be" gradientUnits="userSpaceOnUse" x1="88.5539" x2="55.2516" xlink:href="#a" y1="16.2315" y2="98.9354"/><linearGradient id="bf" gradientUnits="userSpaceOnUse" x1="69.7689" x2="60.9444" xlink:href="#a" y1="38.5159" y2="60.4308"/><linearGradient id="bg" gradientUnits="userSpaceOnUse" x1="95.4266" x2="90.2288" xlink:href="#a" y1="25.1506" y2="38.0592"/><linearGradient id="bh" gradientUnits="userSpaceOnUse" x1="93.7782" x2="63.3377" xlink:href="#a" y1="18.9299" y2="94.5266"/><linearGradient id="bi" gradientUnits="userSpaceOnUse" x1="88.2119" x2="61.3935" xlink:href="#a" y1="16.7011" y2="83.3026"/><linearGradient id="bj" gradientUnits="userSpaceOnUse" x1="123.192" x2="68.5948" xlink:href="#a" y1="27.6434" y2="163.232"/><linearGradient id="bk" gradientUnits="userSpaceOnUse" x1="88" x2="54.1638" xlink:href="#a" y1="70.2925" y2="154.322"/><linearGradient id="bl" gradientUnits="userSpaceOnUse" x1="69.4031" x2="67.1421" xlink:href="#a" y1="138.797" y2="144.412"/><linearGradient id="bm" gradientUnits="userSpaceOnUse" x1="75.9264" x2="72.1318" xlink:href="#a" y1="106.486" y2="115.91"/><linearGradient id="bn" gradientUnits="userSpaceOnUse" x1="83.4503" x2="50.9591" xlink:href="#a" y1="72.3245" y2="153.014"/><linearGradient id="bo" gradientUnits="userSpaceOnUse" x1="100.99" x2="67.2712" xlink:href="#a" y1="75.7366" y2="159.475"/><linearGradient id="bp" gradientUnits="userSpaceOnUse" x1="136.468" x2="103.169" xlink:href="#a" y1="91.9533" y2="174.65"/><linearGradient id="bq" gradientUnits="userSpaceOnUse" x1="101.494" x2="96.2976" xlink:href="#a" y1="152.818" y2="165.723"/><linearGradient id="br" gradientUnits="userSpaceOnUse" x1="130.776" x2="121.95" xlink:href="#a" y1="130.437" y2="152.355"/><linearGradient id="bs" gradientUnits="userSpaceOnUse" x1="128.378" x2="97.9387" xlink:href="#a" y1="96.3477" y2="171.941"/><linearGradient id="bt" gradientUnits="userSpaceOnUse" x1="130.32" x2="103.502" xlink:href="#a" y1="107.583" y2="174.184"/><linearGradient id="bu" gradientUnits="userSpaceOnUse" x1="108.147" x2="84.2432" xlink:href="#a" y1="109.578" y2="168.943"/><linearGradient id="bv" gradientUnits="userSpaceOnUse" x1="79.5984" x2="77.3384" xlink:href="#a" y1="158.718" y2="164.331"/><linearGradient id="bw" gradientUnits="userSpaceOnUse" x1="93.3199" x2="89.5243" xlink:href="#a" y1="140.547" y2="149.973"/><linearGradient id="bx" gradientUnits="userSpaceOnUse" x1="108.396" x2="87.7105" xlink:href="#a" y1="118.602" y2="169.972"/><linearGradient id="by" gradientUnits="userSpaceOnUse" x1="90.8493" x2="71.1049" xlink:href="#a" y1="115.187" y2="164.221"/><linearGradient id="bz" gradientUnits="userSpaceOnUse" x1="65.6281" x2="35.1622" xlink:href="#a" y1="73.52" y2="149.18"/><linearGradient id="bA" gradientUnits="userSpaceOnUse" x1="50.4598" x2="45.2605" xlink:href="#a" y1="137.411" y2="150.323"/><linearGradient id="bB" gradientUnits="userSpaceOnUse" x1="43.5194" x2="34.6965" xlink:href="#a" y1="104.095" y2="126.006"/><linearGradient id="bC" gradientUnits="userSpaceOnUse" x1="63.4536" x2="41.1248" xlink:href="#a" y1="94.5904" y2="150.042"/><linearGradient id="bD" gradientUnits="userSpaceOnUse" x1="61.515" x2="35.8975" xlink:href="#a" y1="83.3601" y2="146.979"/><linearGradient id="bE" gradientUnits="userSpaceOnUse" x1="107.476" x2="83.5763" xlink:href="#a" y1="21.9244" y2="81.2768"/><linearGradient id="bF" gradientUnits="userSpaceOnUse" x1="102.193" x2="98.3969" xlink:href="#a" y1="40.9" y2="50.3274"/><linearGradient id="bG" gradientUnits="userSpaceOnUse" x1="114.375" x2="112.115" xlink:href="#a" y1="26.5559" y2="32.1679"/><linearGradient id="bH" gradientUnits="userSpaceOnUse" x1="104.016" x2="83.3297" xlink:href="#a" y1="20.9023" y2="72.2756"/><linearGradient id="bI" gradientUnits="userSpaceOnUse" x1="120.618" x2="100.869" xlink:href="#a" y1="26.6423" y2="75.6873"/><linearGradient id="bJ" gradientUnits="userSpaceOnUse" x1="156.563" x2="126.089" xlink:href="#a" y1="41.6965" y2="117.376"/><linearGradient id="bK" gradientUnits="userSpaceOnUse" x1="157.035" x2="148.209" xlink:href="#a" y1="64.8733" y2="86.7919"/><linearGradient id="bL" gradientUnits="userSpaceOnUse" x1="146.457" x2="141.261" xlink:href="#a" y1="40.5553" y2="53.4602"/><linearGradient id="bM" gradientUnits="userSpaceOnUse" x1="150.593" x2="128.257" xlink:href="#a" y1="40.8284" y2="96.2982"/><linearGradient id="bN" gradientUnits="userSpaceOnUse" x1="155.822" x2="130.19" xlink:href="#a" y1="43.9016" y2="107.556"/><linearGradient id="bO" gradientUnits="userSpaceOnUse" x1="137.546" x2="103.702" xlink:href="#a" y1="36.5533" y2="120.6"/><linearGradient id="bP" gradientUnits="userSpaceOnUse" x1="119.589" x2="115.793" xlink:href="#a" y1="74.9615" y2="84.3875"/><linearGradient id="bQ" gradientUnits="userSpaceOnUse" x1="124.56" x2="122.3" xlink:href="#a" y1="46.4555" y2="52.0681"/><linearGradient id="bR" gradientUnits="userSpaceOnUse" x1="140.758" x2="108.265" xlink:href="#a" y1="37.8645" y2="118.558"/><linearGradient id="bS" gradientUnits="userSpaceOnUse" x1="124.447" x2="90.7282" xlink:href="#a" y1="31.3997" y2="115.138"/><linearGradient id="bT" gradientUnits="userSpaceOnUse" x1="88.5559" x2="55.2535" xlink:href="#a" y1="16.2315" y2="98.9354"/><linearGradient id="bU" gradientUnits="userSpaceOnUse" x1="69.7699" x2="60.9454" xlink:href="#a" y1="38.5159" y2="60.4308"/><linearGradient id="bV" gradientUnits="userSpaceOnUse" x1="95.4276" x2="90.2297" xlink:href="#a" y1="25.1506" y2="38.0592"/><linearGradient id="bW" gradientUnits="userSpaceOnUse" x1="93.7791" x2="63.3386" xlink:href="#a" y1="18.9299" y2="94.5267"/><linearGradient id="bX" gradientUnits="userSpaceOnUse" x1="88.2128" x2="61.3945" xlink:href="#a" y1="16.7011" y2="83.3026"/><linearGradient id="bY" gradientUnits="userSpaceOnUse" x1="123.157" x2="68.5724" xlink:href="#a" y1="27.6678" y2="163.224"/><path d="m38.5013 63.1776.254-.0313c20.0553-2.7014 61.9427 9.6434 93.4167 27.5201l.151.0865.064-.1595c9.656-24.1102 10.97-45.1008 3.429-54.7759-3.262-4.1888-8.112-5.9866-14.022-5.2153-14.654-8.2931-31.0763-9.914-46.3281-4.5715-8.1175 2.8642-15.4936 7.5036-21.5907 13.58-6.5233 6.426-11.665 14.2704-15.3006 23.3421zm65.4667 13.6532c-24.9046-10.0283-50.5154-15.8621-64.9973-14.016 3.5982-8.9358 8.704-16.6697 15.1342-23.0038 6.0696-6.043 13.409-10.6583 21.4851-13.5104 15.1596-5.3064 31.534-3.6834 46.097 4.5992l.045.0179.051-.0096c5.921-.7883 10.554.9176 13.803 5.0841 7.451 9.5784 6.144 30.3818-3.413 54.3297-9.096-5.11-18.518-9.6167-28.205-13.4911z" fill="url(#b)"/><path d="m89.4285 23.3978c10.0915-1.3595 31.2055 4.8709 47.0675 13.87l.147-.2596c-15.907-9.0349-37.1045-15.2728-47.2547-13.9068z" fill="url(#c)"/><path d="m59.6294 34.9664c17.2876-2.3157 53.4626 8.3282 80.6296 23.7549l.148-.2596c-27.212-15.4535-63.4707-26.1265-80.8178-23.7917z" fill="url(#d)"/><path d="m64.7598 64.8974.2782.1121c8.9763-22.4099 22.6221-37.5207 36.509-40.4256 7.403-1.5454 14.363.6107 20.107 6.2904l.226-.2067c-5.83-5.7355-12.874-7.9386-20.382-6.3705-14.0058 2.9128-27.7245 18.0978-36.7382 40.6003z" fill="url(#e)"/><path d="m98.308 74.7759.2782.112c12.6408-31.5519 21.0408-47.6283 22.7998-47.1698.173.0434.552.429.224 3.0301l.3.0386c.269-2.1461.127-3.2165-.449-3.3619-2.62-.6758-13.517 23.2927-23.153 47.351z" fill="url(#f)"/><path d="m152.749 128.059.254-.031c6.277-.848 9.953-3.135 10.629-6.613.629-3.265-1.386-7.425-5.64-12.074 3.08-22.9134-3.742-46.6538-18.022-63.539-.763-4.0271-2.143-7.4067-4.168-9.9895-3.271-4.2008-8.138-5.9971-14.077-5.1984l-.453.0547.389.2214c6.839 3.9172 12.934 9.0084 18.007 15.0403 2.061 11.0251-.537 26.9418-7.589 44.5398l-.049.1224.118.0478c11.442 6.4955 20.198 13.0045 25.509 18.7515-.848 6.31-2.469 12.492-4.825 18.408zm5.196-18.353c4.074 4.494 5.999 8.502 5.39 11.654-.637 3.295-4.135 5.482-10.121 6.335 2.288-5.787 3.876-11.826 4.731-17.989zm-17.872-63.3149c13.954 16.7322 20.634 40.0966 17.658 62.6679-5.33-5.724-14.015-12.17-25.28-18.5812 6.906-17.3332 9.516-33.0427 7.622-44.0867zm-10.047-14.6589c2.201.9026 4.119 2.3807 5.553 4.2795 1.895 2.4355 3.217 5.6063 3.988 9.3654-4.92-5.7791-10.781-10.6853-17.335-14.5116 2.635-.3677 5.32-.0677 7.809.8727z" fill="url(#g)"/><path d="m147.047 56.1228c3.194-.4382 5.079-1.6064 5.424-3.3944.721-3.7401-5.341-9.7635-15.828-15.7192l-.148.2595c10.368 5.899 16.384 11.7701 15.68 15.4011-.32 1.6515-2.108 2.7419-5.151 3.1589z" fill="url(#h)"/><path d="m158.252 90.9774c5.433-.7308 8.61-2.7106 9.202-5.7226 1.231-6.3542-9.133-16.6097-27.04-26.7905l-.147.2595c17.787 10.1026 28.097 20.2333 26.902 26.4769-.558 2.8747-3.646 4.7737-8.941 5.4826z" fill="url(#i)"/><path d="m155.97 107.522.278.112c7.435-18.5605 7.064-37.7854-1.016-52.7383-6.862-12.6779-18.733-21.3078-33.442-24.2732l-.062.2939c14.621 2.9474 26.427 11.5036 33.241 24.119 8.04 14.8682 8.403 34.0077 1.001 52.4866z" fill="url(#j)"/><path d="m163.404 120.931.279.112c6.739-16.823 6.387-35.3249-1.008-52.097-7.789-17.6982-22.315-31.2981-40.88-38.3127l-.112.2782c18.548 6.9729 32.978 20.543 40.738 38.152 7.345 16.6918 7.698 35.1075.983 51.8675z" fill="url(#k)"/><path d="m87.751 114.043c25.053 10.088 50.808 15.928 65.251 13.984l.087-.012.033-.082c14.308-35.7253.272-79.3725-31.287-97.2925l-.049-.0194-.049.0059c-20.114 2.7079-48.1086 33.9572-62.4077 69.661l-.0493.122.1187.048c9.1409 5.148 18.6123 9.687 28.3523 13.585zm65.126 13.697c-20.036 2.653-61.8042-9.657-93.2172-27.47 14.2645-35.5322 42.0812-66.6074 62.0692-69.3446 31.38 17.852 45.342 61.254 31.148 96.8146z" fill="url(#l)"/><path d="m114.094 49.0611c12.649 5.0933 25.646 8.0378 32.938 7.0558l-.038-.3001c-10.092 1.3594-31.206-4.862-47.0675-13.87l-.1476.2595c4.6151 2.5993 9.3971 4.8893 14.3151 6.8548z" fill="url(#m)"/><path d="m101.902 78.9224c21.633 8.7109 43.873 13.752 56.35 12.0773l-.039-.3001c-17.293 2.3305-53.464-8.3245-80.6292-23.7549l-.1491.2633c7.8889 4.439 16.0624 8.3523 24.4673 11.7144z" fill="url(#n)"/><path d="m126.659 125.856.278.112c14.319-35.7 12.039-78.4587-5.057-95.3007l-.21.2127c17.014 16.766 19.271 59.3777 4.989 94.976z" fill="url(#o)"/><path d="m93.1289 115.985.2782.112c14.2879-35.6649 27.0729-73.9352 28.5019-85.3094l-.299-.0386c-1.425 11.3542-14.201 49.5896-28.4811 85.236z" fill="url(#p)"/><path d="m59.5462 100.552.0642-.159c14.2633-35.6145 42.1546-66.7891 62.1696-69.4764l.453-.0547-.387-.2162c-14.645-8.3154-31.1092-9.9401-46.3468-4.6221-8.1175 2.8643-15.4936 7.5037-21.5907 13.5801-6.5002 6.4007-11.6381 14.2251-15.2678 23.2604-6.2246.856-9.8832 3.1332-10.5424 6.6009-1.4248 7.3495 10.5736 19.2291 31.3085 31.005zm61.7508-69.86c-20.049 3.0919-47.6876 34.0577-61.9035 69.437-20.5279-11.6803-32.396-23.391-31.0169-30.5951.6478-3.343 4.2335-5.5461 10.3726-6.3718l.0869-.0124.0329-.0816c3.634-9.0249 8.7415-16.8486 15.2298-23.2412 6.0696-6.0431 13.409-10.6583 21.4851-13.5105 15.0311-5.2762 31.2491-3.7159 45.7131 4.3756z" fill="url(#q)"/><path d="m99.7944 42.2118.1476-.2595c-10.3674-5.899-16.3835-11.7701-15.6801-15.4011.3186-1.6477 2.1033-2.7397 5.1517-3.1589l-.0402-.2964c-3.194.4382-5.0768 1.6027-5.4232 3.3944-.6955 3.7506 5.3573 9.7659 15.8442 15.7215z" fill="url(#r)"/><path d="m77.4314 67.1846.1491-.2633c-17.7952-10.1055-28.1009-20.2473-26.8955-26.4739.5583-2.8746 3.645-4.77 8.9411-5.4825l-.0401-.2964c-5.4328.7308-8.6096 2.7106-9.2016 5.7225-1.2198 6.3587 9.1554 16.6277 27.047 26.7936z" fill="url(#s)"/><path d="m35.4703 83.2406.2782.1121c14.2558-35.5959 52.8249-59.1169 85.9785-52.4356l.063-.2939c-33.2894-6.7099-72.0131 16.8954-86.3197 52.6174z" fill="url(#t)"/><path d="m28.0319 69.8434.2783.112c14.2498-35.5811 56.1473-53.0975 93.3948-39.0473l.112-.2782c-37.4047-14.1092-79.474 3.4803-93.7851 39.2135z" fill="url(#u)"/><path d="m69.9311 160.257.0498-.006c20.1103-2.71 48.1081-33.957 62.4061-69.6571l.049-.1225-.122-.0492c-31.519-17.9036-73.5124-30.2649-93.6033-27.5607l-.0869.0124-.0329.0816c-14.3066 35.7221-.2708 79.3695 31.289 97.2895zm62.1279-69.6528c-14.267 35.5268-42.0792 66.6038-62.067 69.3408-31.3788-17.856-45.3356-61.2599-31.1498-96.8107 20.047-2.6486 61.7968 9.6751 93.2168 27.4699z" fill="url(#v)"/><path d="m33.5073 100.193c17.2921-2.3268 53.4629 8.328 80.6297 23.755l.147-.26c-27.2152-15.455-63.4698-26.1263-80.8206-23.793z" fill="url(#w)"/><path d="m44.7117 135.048c10.0915-1.359 31.2052 4.862 47.0671 13.87l.1476-.259c-15.9071-9.035-37.1084-15.275-47.2549-13.907z" fill="url(#x)"/><path d="m69.8553 160.209.2106-.213c-17.0328-16.773-19.2866-59.383-5.0278-94.9868l-.2782-.112c-14.3006 35.7068-12.0153 78.4638 5.0954 95.3118z" fill="url(#y)"/><path d="m69.8114 160.083.2955.037c1.4288-11.352 14.204-49.588 28.4792-85.2318l-.2782-.112c-14.2842 35.6668-27.0677 73.9328-28.4965 85.3068z" fill="url(#z)"/><path d="m77.2706 163.803c12.6601 5.097 26.2334 5.506 38.9674 1.034 8.117-2.865 15.493-7.504 21.59-13.58 6.499-6.397 11.633-14.223 15.267-23.257 6.224-.856 9.883-3.133 10.542-6.601 1.421-7.351-10.576-19.234-31.312-31.007l-.147-.085-.064.1595c-14.262 35.6105-42.1536 66.7765-62.168 69.4725l-.4531.055.3871.216c2.3803 1.362 4.8494 2.562 7.3906 3.593zm55.0554-73.0612c20.528 11.6802 32.396 23.3912 31.017 30.5952-.648 3.343-4.233 5.546-10.372 6.372l-.087.012-.033.082c-3.634 9.024-8.742 16.848-15.232 23.236-6.066 6.044-13.403 10.661-21.478 13.513-15.029 5.26-31.236 3.704-45.7173-4.386 20.0443-3.081 47.6833-34.038 61.9023-69.4242z" fill="url(#A)"/><path d="m132.121 156.184c5.427-.729 8.609-2.711 9.2-5.719 1.231-6.354-9.136-16.611-27.04-26.791l-.147.26c17.795 10.105 28.099 20.251 26.892 26.472-.555 2.876-3.647 4.774-8.938 5.484z" fill="url(#B)"/><path d="m102.328 167.767c3.194-.438 5.077-1.602 5.426-3.389.723-3.744-5.341-9.763-15.828-15.719l-.1476.26c10.3676 5.899 16.3756 11.788 15.6796 15.401-.32 1.651-2.107 2.738-5.151 3.159z" fill="url(#C)"/><path d="m69.93 160.248c33.28 6.71 72.013-16.896 86.318-52.614l-.278-.112c-14.255 35.592-52.824 59.113-85.9814 52.43z" fill="url(#D)"/><path d="m69.9062 160.242c37.4018 14.108 79.4708-3.481 93.7798-39.211l-.278-.112c-14.25 35.581-56.146 53.094-93.3972 39.042z" fill="url(#E)"/><path d="m61.5709 159.382c2.6633 1.013 5.5447 1.315 8.36.875 2.3649 1.344 4.8171 2.529 7.3402 3.546 12.66 5.098 26.2339 5.507 38.9669 1.034 8.118-2.864 15.494-7.503 21.591-13.58 6.523-6.426 11.665-14.27 15.299-23.338l.096-.237-.251.032c-20.055 2.702-61.9463-9.645-93.4202-27.521l-.1468-.085-.0642.159c-9.6567 24.111-10.9725 45.096-3.4318 54.771 1.4647 1.928 3.4195 3.428 5.6609 4.344zm8.4208.563-.0512.01c-5.9215.788-10.5541-.918-13.8036-5.084-7.4571-9.573-6.1499-30.376 3.4092-54.319 31.3708 17.779 73.0429 30.072 93.2019 27.507-3.598 8.936-8.702 16.666-15.136 22.999-6.066 6.044-13.403 10.661-21.478 13.513-15.16 5.307-31.5374 3.682-46.1007-4.6z" fill="url(#F)"/><path d="m75.7865 144.129c21.633 8.711 43.8725 13.752 56.3515 12.074l-.04-.296c-17.293 2.33-53.4643-8.325-80.6332-23.757l-.1491.263c7.8903 4.44 16.065 8.354 24.4708 11.716z" fill="url(#G)"/><path d="m69.377 160.711c12.6489 5.093 25.6458 8.037 32.94 7.052l-.04-.297c-10.0917 1.36-31.2054-4.862-47.0636-13.868l-.1476.259c4.6134 2.599 9.3943 4.888 14.3112 6.854z" fill="url(#H)"/><path d="m77.8394 165.571c3.9373 1.573 8.257 1.924 12.3969 1.009 13.9797-2.924 27.7087-18.1 36.7187-40.605l-.297-.119c-8.973 22.411-22.622 37.521-36.5034 40.423-7.4032 1.546-14.356-.629-20.1074-6.29l-.2107.213c2.285 2.303 5.0054 4.128 8.0029 5.369z" fill="url(#I)"/><path d="m70.1946 163.423.0594.024c2.6241.678 13.5176-23.292 23.1519-47.347l-.2782-.112c-12.6366 31.553-21.0393 47.625-22.7966 47.171-.1632-.065-.55-.432-.2262-3.035l-.2954-.037c-.2565 2.061-.1379 3.126.3851 3.336z" fill="url(#J)"/><path d="m61.5709 159.382c2.4556.989 5.2841 1.287 8.4097.869l.4531-.054-.3856-.22c-6.8389-3.92-12.9353-9.011-18.0103-15.042-2.0576-11.024.5408-26.941 7.5873-44.536l.0463-.115-.1224-.05c-11.4383-6.4936-20.1974-13.0037-25.5053-18.7492.8488-6.3105 2.4696-12.4928 4.8259-18.408l.0955-.2374-.254.0313c-6.2757.8224-9.9403 3.1145-10.6241 6.5895-.6327 3.2629 1.382 7.4236 5.6373 12.0684-3.086 22.8984 3.7421 46.6544 18.0265 63.5404.7623 4.027 2.1431 7.407 4.1495 9.982 1.4691 1.925 3.4273 3.42 5.6706 4.331zm7.9365.631c-5.6991.654-10.1891-1.085-13.3594-5.138-1.8946-2.435-3.221-5.608-3.9958-9.347 4.9258 5.768 10.7894 10.664 17.3441 14.481zm-10.2135-59.605c-6.9211 17.327-9.5331 33.031-7.639 44.075-13.9543-16.732-20.6319-40.091-17.6558-62.6626 5.3184 5.7195 14.0041 12.1656 25.2837 18.5826zm-20.7907-37.2244c-2.2858 5.7862-3.8722 11.8247-4.7254 17.9873-4.0745-4.4945-6.0033-8.5043-5.3902-11.6543.6321-3.2933 4.1309-5.4839 10.1119-6.3345z" fill="url(#K)"/><path d="m51.3083 132.411.1491-.263c-17.7915-10.104-28.0971-20.246-26.8917-26.473.5583-2.874 3.645-4.77 8.9411-5.482l-.0439-.2979c-5.429.7319-8.6095 2.7109-9.2016 5.7229-1.2198 6.358 9.1406 16.621 27.047 26.793z" fill="url(#L)"/><path d="m55.0776 153.861.1476-.259c-10.3711-5.901-16.3835-11.77-15.6801-15.401.3186-1.648 2.1033-2.74 5.1517-3.159l-.0402-.297c-3.194.439-5.0768 1.603-5.4232 3.395-.7103 3.744 5.3574 9.766 15.8442 15.721z" fill="url(#M)"/><path d="m60.6494 157.485c3.0023 1.203 6.109 2.128 9.2809 2.762l.0586-.295c-14.6224-2.944-26.4272-11.504-33.2409-24.119-8.0374-14.876-8.4056-33.991-.9991-52.4811l-.2782-.1121c-7.4349 18.5602-7.067 37.7842 1.0178 52.7342 5.265 9.795 13.8227 17.414 24.1609 21.511z" fill="url(#N)"/><path d="m68.3169 159.62c.5267.212 1.0534.424 1.5839.637l.112-.278c-18.5019-6.98-32.9573-20.53-40.7151-38.155-7.3412-16.691-7.6939-35.1062-.9857-51.8511l-.2783-.112c-6.7395 16.8227-6.3855 35.3211.9904 52.0851 7.5614 17.171 21.4804 30.501 39.2928 37.674z" fill="url(#O)"/><path d="m68.6402 162.819c1.5209.613 2.8431 1.076 3.5338 1.32.9898.347 3.2915 1.075 4.8752 1.489 1.5837.413 1.5614.404 3.8147.911.4222.097.927.192 1.4206.283l.645.122c2.9544.531 5.9386.882 8.9357 1.05 1.7553.073 3.8373.106 5.3128.092 1.2438-.016 2.892-.094 4.093-.197 1.858-.161 4.233-.451 5.885-.699 1.652-.249 3.551-.618 4.849-.94 3.675-.845 7.279-1.968 10.782-3.362 1.665-.666 3.584-1.514 4.897-2.163 1.565-.771 3.808-1.962 5.483-2.965 3.341-1.995 6.517-4.253 9.5-6.753 2.819-2.47 5.495-5.099 8.016-7.873 1.389-1.559 2.693-3.193 3.905-4.893.7-.956 1.48-2.155 2.234-3.308.339-.523.666-1.025.972-1.484 1.148-1.79 2.179-3.653 3.086-5.577l.138-.289c1.042-2.08 1.972-4.213 2.785-6.392.149-.445.318-.929.493-1.427.478-1.368 1.017-2.923 1.38-4.186.616-2.048 1.119-4.128 1.508-6.23.06-.407.145-.873.222-1.342.243-1.428.514-3.043.655-4.336.215-1.991.394-4.5442.439-6.3581.045-1.814.016-4.0328-.076-5.6347-.068-1.1913-.27-4.1998-.633-6.467-.556-3.4913-1.623-7.9387-2.366-10.6864-.405-1.4563-1.08-3.2712-1.682-4.8587-.222-.5203-.395-1.0212-.553-1.5161-.632-1.646-1.354-3.2562-2.162-4.8234-1.056-2.0675-2.586-4.7227-3.644-6.5369-1.001-1.6687-2.1-3.2769-3.29-4.8164-1.518-1.9691-3.677-4.55-5.37-6.4169-.999-1.105-2.581-2.6562-4.234-4.1495-1.279-1.1614-2.997-2.5903-4.268-3.5548-2.065-1.5963-4.214-3.0806-6.439-4.4464-1.172-.7393-3.559-2.0925-5.366-2.9885-1.284-.6334-2.297-1.1147-3.017-1.426-2.004-.8674-2.203-.9518-4.384-1.7655-.286-.115-2.904-1.096-6.348-2.0172-2.023-.543-3.746-.9005-3.819-.9125-.649-.1322-1.566-.3162-2.262-.4411-.511-.0895-1.144-.189-1.733-.2668l-.705-.1116c-.758-.1198-1.823-.247-3.162-.3807-.739-.0693-1.768-.1474-3.139-.2337-1.7767-.1163-3.8661-.1515-5.3217-.091-1.0783.0443-2.2799.1165-3.4764.2081-1.6006.0711-3.1984.2137-4.7935.4278l-.101.0154c-2.4874.3389-4.9558.8053-7.3954 1.3976-1.7134.4653-4.2991 1.17-6.1725 1.7865-.7008.2308-3.1286 1.0465-4.9498 1.8866l-.3427.1551c-1.6732.7618-3.7568 1.7074-5.3224 2.5125-1.3568.7038-3.2581 1.7962-4.7319 2.7158-1.4739.9196-3.5311 2.3458-5.1013 3.4939-1.6751 1.2481-3.2917 2.5542-4.323 3.5098-1.2502 1.1562-3.1418 2.8991-4.463 4.2639-.9981 1.0335-2.4037 2.6186-3.7596 4.241-2.2059 2.6677-4.2095 5.4964-5.9941 8.4625-1.9877 3.3875-3.7383 6.9087-5.2392 10.5382-.717 1.7805-1.5677 4.2357-2.1363 6.0975-.3928 1.2859-.7924 2.9313-1.1447 4.3844-.1094.443-.2129.8712-.3103 1.2631-.4616 2.0634-.8166 4.1492-1.0636 6.2491-.2146 1.6035-.3965 3.8322-.4787 5.6743s-.0952 4.2725-.013 6.3058c.0434 1.1555.1754 2.541.2985 3.884.0551.591.1102 1.16.1521 1.677.2414 2.133.5987 4.252 1.0703 6.346.2291 1.122.581 2.454.9203 3.741.145.55.2827 1.075.4026 1.559.6093 2.159 1.3371 4.283 2.1804 6.361.6466 1.67 1.4776 3.579 2.1125 4.86.9284 1.87 2.3178 4.425 3.5367 6.515.8358 1.436 2.0592 3.205 2.712 4.131.7698 1.086 1.8359 2.464 2.6984 3.566l.2621.334c1.7285 2.185 3.6083 4.245 5.6256 6.166 1.7286 1.628 3.058 2.822 4.0571 3.66 1.2547 1.048 3.01 2.406 4.3755 3.383 1.4234 1.004 3.1109 2.145 4.3129 2.875l.1638.096c.5984.366 1.3452.813 1.9296 1.139 1.056.589 2.4281 1.314 3.2818 1.752.0741.03 1.8445.954 4.4803 2.063zm54.3618-134.458c.631.2539 1.191.4794 2.273.9623.716.3098 1.725.7896 3.002 1.42 1.796.8915 4.176 2.2381 5.341 2.9744 2.212 1.3623 4.351 2.8395 6.409 4.4255 1.275.9445 2.976 2.3838 4.252 3.5399 1.642 1.4889 3.223 3.0222 4.21 4.1264 1.688 1.8655 3.839 4.4345 5.355 6.3983 1.185 1.5227 2.279 3.1147 3.275 4.7674 1.058 1.8143 2.583 4.4627 3.636 6.525.802 1.5563 1.518 3.1557 2.145 4.7907l.557 1.5176c.601 1.5786 1.277 3.3682 1.672 4.829.741 2.7425 1.799 7.1906 2.361 10.6545.359 2.2567.561 5.2564.628 6.4387.096 1.5818.125 3.7791.082 5.5983s-.222 4.351-.438 6.333c-.142 1.284-.413 2.899-.653 4.319-.08.468-.156.925-.221 1.342-.388 2.092-.889 4.161-1.5 6.199-.359 1.244-.895 2.791-1.372 4.155-.176.502-.345.986-.494 1.431-.809 2.167-1.733 4.29-2.768 6.36l-.138.289c-.904 1.911-1.93 3.761-3.071 5.54-.304.455-.633.961-.973 1.484-.749 1.155-1.527 2.346-2.223 3.294-1.205 1.691-2.501 3.315-3.881 4.865-2.202 2.373-5.375 5.66-7.988 7.845-2.969 2.494-6.136 4.744-9.468 6.728-1.643.998-3.894 2.178-5.454 2.946-1.302.644-3.216 1.49-4.872 2.155-3.491 1.385-7.082 2.504-10.742 3.348-1.291.316-3.186.687-4.824.933-1.638.245-4.03.533-5.883.692-1.197.104-2.8323.183-4.0709.197-1.4629.014-3.5434-.022-5.295-.093-2.9832-.164-5.9536-.51-8.8949-1.034l-.6487-.124c-.4884-.093-.9932-.188-1.408-.282-2.2347-.499-2.2347-.499-3.8036-.907-1.5688-.407-3.8587-1.122-4.844-1.48-.8221-.293-2.5211-.89-4.3876-1.672-2.6247-1.104-4.3884-2.013-4.4596-2.05-.8484-.441-2.2183-1.161-3.2743-1.75-.577-.323-1.3222-.774-1.9184-1.134l-.1639-.097c-1.1946-.726-2.8806-1.849-4.2958-2.863-1.3529-.976-3.1075-2.325-4.3548-3.37-.9931-.831-2.3188-2.025-4.0452-3.647-2.0049-1.912-3.8747-3.961-5.596-6.133l-.2584-.332c-.8514-1.097-1.9264-2.474-2.6939-3.555-.5196-.744-1.8348-2.627-2.6972-4.104-1.2168-2.085-2.5987-4.637-3.5264-6.498-.6327-1.276-1.4592-3.174-2.1014-4.833-.8353-2.066-1.5538-4.178-2.1523-6.325-.1214-.479-.2613-1.01-.4078-1.556-.343-1.289-.6727-2.612-.9122-3.73-.4576-2.078-.8044-4.179-1.0392-6.294-.0419-.517-.0955-1.09-.1506-1.681-.1231-1.343-.2559-2.7158-.2985-3.8624-.0762-2.0482-.0713-4.512.0077-6.2821.0791-1.77.2797-4.0775.4823-5.6512.2446-2.0881.5964-4.1623 1.0539-6.2143.0974-.3918.2024-.8238.3103-1.2631.3509-1.4494.7542-3.0933 1.144-4.3718.5656-1.8544 1.4229-4.2939 2.1272-6.0752 1.4998-3.6216 3.2499-7.1345 5.2377-10.5129 1.769-2.9545 3.7567-5.7724 5.9465-8.43 1.3515-1.6112 2.7548-3.2015 3.7485-4.224 1.3145-1.3588 3.2009-3.0995 4.4465-4.2446 1.0217-.9422 2.6294-2.2476 4.3015-3.4883 1.5465-1.1534 3.588-2.5514 5.0753-3.4828 1.4872-.9315 3.3632-2.0039 4.7133-2.7018 1.553-.8058 3.6314-1.7492 5.2994-2.5088l.3427-.1551c1.8048-.8208 4.217-1.6299 4.9141-1.8622 1.8667-.6105 4.4487-1.3167 6.1569-1.7798 2.4308-.5875 4.8896-1.052 7.3672-1.3917l.0906-.011c1.3488-.138 3.0489-.3026 4.7682-.4293 10.4628-.4728 20.9438 2.1139 30.5758 7.5701l.03.0119.147-.2595c-7.511-4.3291-15.899-6.9129-24.5445-7.56.8554.0168 1.7412.0545 2.5453.1024 1.3702.0863 2.3962.1629 3.1302.2344 1.335.1323 2.391.2602 3.145.3785l.705.1115c.58.0912 1.218.1885 1.73.2654.693.1197 1.603.3007 2.251.4366.071.0284 1.788.3665 3.804.9065 3.427.919 6.033 1.8992 6.32 2.0105.99.4114 1.554.6385 2.091.8551z" fill="url(#P)"/><path d="m38.5003 63.1776.2541-.0313c20.0552-2.7014 61.9426 9.6434 93.4166 27.5201l.151.0865.064-.1595c9.656-24.1102 10.97-45.1008 3.429-54.7759-3.262-4.1888-8.112-5.9866-14.022-5.2153-14.654-8.2931-31.0763-9.914-46.3281-4.5715-8.1175 2.8642-15.4936 7.5036-21.5907 13.58-6.5233 6.426-11.665 14.2704-15.3006 23.3421zm65.4667 13.6532c-24.9046-10.0283-50.5154-15.8621-64.9973-14.016 3.5982-8.9358 8.704-16.6697 15.1343-23.0038 6.0695-6.043 13.4089-10.6583 21.485-13.5104 15.1597-5.3064 31.534-3.6834 46.097 4.5992l.045.0179.051-.0096c5.921-.7883 10.554.9176 13.804 5.0841 7.45 9.5784 6.143 30.3818-3.414 54.3296-9.096-5.1099-18.518-9.6166-28.205-13.491z" fill="url(#Q)"/><path d="m89.4275 23.3977c10.0915-1.3594 31.2055 4.871 47.0675 13.8701l.147-.2596c-15.907-9.0349-37.1044-15.2728-47.2546-13.9068z" fill="url(#R)"/><path d="m59.6284 34.9664c17.2876-2.3157 53.4626 8.3282 80.6296 23.7549l.148-.2596c-27.212-15.4535-63.4707-26.1265-80.8178-23.7917z" fill="url(#S)"/><path d="m64.7588 64.8974.2782.1121c8.9763-22.4099 22.6222-37.5207 36.509-40.4256 7.403-1.5454 14.363.6107 20.107 6.2904l.226-.2067c-5.83-5.7355-12.874-7.9386-20.382-6.3705-14.0058 2.9128-27.7245 18.0978-36.7382 40.6003z" fill="url(#T)"/><path d="m98.307 74.7759.2782.112c12.6408-31.5519 21.0408-47.6283 22.8008-47.1698.172.0434.551.429.223 3.0301l.3.0386c.269-2.1461.127-3.2165-.449-3.3619-2.62-.6758-13.517 23.2927-23.153 47.351z" fill="url(#U)"/><path d="m152.748 128.059.254-.031c6.277-.848 9.953-3.135 10.629-6.613.629-3.265-1.386-7.425-5.639-12.074 3.079-22.9134-3.743-46.6538-18.023-63.539-.763-4.0271-2.143-7.4067-4.168-9.9895-3.271-4.2008-8.138-5.9971-14.077-5.1984l-.453.0547.389.2214c6.839 3.9172 12.934 9.0084 18.007 15.0403 2.061 11.0251-.537 26.9418-7.589 44.5398l-.049.1224.118.0478c11.442 6.4955 20.198 13.0045 25.509 18.7515-.848 6.31-2.469 12.492-4.825 18.408zm5.196-18.353c4.074 4.494 6 8.502 5.39 11.654-.637 3.295-4.134 5.482-10.121 6.335 2.288-5.787 3.876-11.826 4.731-17.989zm-17.872-63.3149c13.954 16.7322 20.634 40.0966 17.658 62.6679-5.33-5.724-14.015-12.17-25.28-18.5812 6.906-17.3332 9.516-33.0427 7.622-44.0867zm-10.047-14.6589c2.201.9026 4.119 2.3807 5.553 4.2795 1.895 2.4355 3.217 5.6063 3.988 9.3654-4.92-5.7791-10.781-10.6853-17.335-14.5116 2.635-.3677 5.32-.0677 7.809.8727z" fill="url(#V)"/><path d="m147.046 56.1228c3.194-.4382 5.079-1.6064 5.424-3.3944.721-3.7401-5.341-9.7635-15.828-15.7192l-.148.2595c10.368 5.899 16.384 11.7701 15.68 15.4011-.32 1.6515-2.108 2.7419-5.151 3.1589z" fill="url(#W)"/><path d="m158.251 90.9774c5.433-.7308 8.61-2.7106 9.202-5.7226 1.231-6.3542-9.133-16.6097-27.04-26.7905l-.147.2595c17.787 10.1026 28.097 20.2333 26.902 26.4769-.558 2.8747-3.646 4.7737-8.941 5.4826z" fill="url(#X)"/><path d="m155.969 107.522.278.112c7.435-18.5605 7.064-37.7854-1.016-52.7383-6.862-12.6779-18.733-21.3078-33.442-24.2732l-.062.2939c14.621 2.9474 26.427 11.5036 33.241 24.119 8.04 14.8682 8.403 34.0077 1.001 52.4866z" fill="url(#Y)"/><path d="m163.403 120.931.279.112c6.739-16.823 6.387-35.3249-1.008-52.097-7.789-17.6982-22.315-31.2981-40.88-38.3127l-.112.2782c18.548 6.9729 32.978 20.543 40.738 38.152 7.345 16.6918 7.698 35.1075.983 51.8675z" fill="url(#Z)"/><path d="m87.75 114.043c25.053 10.088 50.808 15.928 65.251 13.984l.087-.012.033-.082c14.308-35.7253.272-79.3725-31.287-97.2925l-.049-.0194-.049.0059c-20.114 2.7079-48.1086 33.9572-62.4077 69.661l-.0493.122.1187.048c9.1409 5.148 18.6123 9.687 28.3523 13.585zm65.126 13.697c-20.036 2.653-61.8042-9.657-93.2172-27.47 14.2645-35.5322 42.0812-66.6074 62.0692-69.3446 31.38 17.852 45.342 61.254 31.148 96.8146z" fill="url(#aa)"/><path d="m114.093 49.0611c12.649 5.0933 25.646 8.0378 32.938 7.0558l-.038-.3001c-10.092 1.3594-31.206-4.862-47.0675-13.87l-.1476.2595c4.6151 2.5993 9.3971 4.8893 14.3151 6.8548z" fill="url(#ab)"/><path d="m101.901 78.9224c21.633 8.7109 43.873 13.752 56.35 12.0773l-.039-.3001c-17.293 2.3305-53.464-8.3245-80.6292-23.7549l-.1491.2633c7.889 4.439 16.0624 8.3523 24.4673 11.7144z" fill="url(#ac)"/><path d="m126.658 125.856.278.112c14.319-35.6999 12.039-78.4587-5.057-95.3007l-.21.2127c17.014 16.766 19.271 59.3777 4.989 94.976z" fill="url(#ad)"/><path d="m93.1279 115.985.2782.112c14.2879-35.6649 27.0729-73.9352 28.5019-85.3094l-.299-.0386c-1.425 11.3542-14.201 49.5896-28.4811 85.236z" fill="url(#ae)"/><path d="m59.5452 100.552.0643-.159c14.2632-35.6145 42.1545-66.7891 62.1695-69.4764l.453-.0547-.387-.2162c-14.645-8.3154-31.1092-9.9401-46.3468-4.6221-8.1175 2.8643-15.4936 7.5037-21.5907 13.5801-6.5002 6.4007-11.6381 14.2251-15.2677 23.2604-6.2246.856-9.8833 3.1331-10.5425 6.6009-1.4248 7.3495 10.5737 19.2291 31.3085 31.005zm61.7508-69.86c-20.049 3.0919-47.6876 34.0577-61.9035 69.437-20.5279-11.6803-32.396-23.391-31.0169-30.5951.6478-3.343 4.2335-5.5461 10.3726-6.3718l.0869-.0124.0329-.0816c3.634-9.0249 8.7415-16.8486 15.2298-23.2412 6.0696-6.0431 13.409-10.6583 21.4851-13.5105 15.0311-5.2762 31.2491-3.7159 45.7131 4.3756z" fill="url(#af)"/><path d="m99.7934 42.2118.1476-.2595c-10.3674-5.899-16.3834-11.7701-15.6801-15.4011.3187-1.6477 2.1033-2.7397 5.1517-3.1589l-.0401-.2964c-3.194.4382-5.0769 1.6027-5.4233 3.3944-.6955 3.7506 5.3574 9.7659 15.8442 15.7215z" fill="url(#ag)"/><path d="m77.4304 67.1846.1491-.2633c-17.7952-10.1055-28.1009-20.2473-26.8955-26.4739.5583-2.8746 3.6451-4.77 8.9411-5.4825l-.0401-.2964c-5.4328.7308-8.6095 2.7106-9.2016 5.7225-1.2198 6.3587 9.1554 16.6277 27.047 26.7936z" fill="url(#ah)"/><path d="m35.4693 83.2407.2782.112c14.2558-35.5959 52.8249-59.1169 85.9785-52.4356l.063-.2939c-33.2894-6.7099-72.0131 16.8954-86.3197 52.6175z" fill="url(#ai)"/><path d="m28.031 69.8434.2782.112c14.2498-35.5811 56.1473-53.0975 93.3948-39.0473l.112-.2782c-37.4047-14.1092-79.474 3.4803-93.785 39.2135z" fill="url(#aj)"/><path d="m69.9302 160.257.0497-.006c20.1103-2.71 48.1081-33.957 62.4061-69.6571l.049-.1225-.122-.0492c-31.519-17.9036-73.5123-30.2649-93.6033-27.5607l-.0869.0124-.0329.0816c-14.3065 35.7221-.2708 79.3695 31.2891 97.2895zm62.1278-69.6528c-14.266 35.5268-42.0792 66.6038-62.067 69.3408-31.3788-17.856-45.3356-61.2599-31.1497-96.8107 20.047-2.6486 61.7967 9.6751 93.2167 27.4699z" fill="url(#ak)"/><path d="m33.5063 100.193c17.2921-2.3268 53.4629 8.328 80.6297 23.755l.147-.26c-27.2151-15.455-63.4698-26.1263-80.8206-23.793z" fill="url(#al)"/><path d="m44.7107 135.048c10.0915-1.359 31.2053 4.862 47.0671 13.87l.1477-.259c-15.9072-9.035-37.1084-15.275-47.2549-13.907z" fill="url(#am)"/><path d="m69.8543 160.209.2106-.213c-17.0328-16.773-19.2865-59.383-5.0277-94.9868l-.2783-.112c-14.3006 35.7068-12.0152 78.4638 5.0954 95.3118z" fill="url(#an)"/><path d="m69.8104 160.083.2955.037c1.4288-11.352 14.204-49.588 28.4792-85.2318l-.2782-.112c-14.2841 35.6668-27.0676 73.9328-28.4965 85.3068z" fill="url(#ao)"/><path d="m77.2697 163.802c12.66 5.098 26.2333 5.507 38.9673 1.035 8.117-2.865 15.493-7.504 21.59-13.58 6.499-6.397 11.633-14.223 15.267-23.257 6.224-.856 9.883-3.133 10.542-6.601 1.421-7.351-10.576-19.234-31.312-31.007l-.147-.085-.064.1595c-14.262 35.6105-42.1535 66.7765-62.168 69.4725l-.453.055.3871.216c2.3802 1.362 4.8493 2.562 7.3906 3.592zm55.0553-73.0602c20.528 11.6802 32.396 23.3912 31.017 30.5952-.648 3.343-4.233 5.546-10.372 6.371l-.087.013-.033.082c-3.634 9.024-8.742 16.848-15.232 23.236-6.066 6.044-13.403 10.661-21.478 13.513-15.029 5.26-31.2359 3.704-45.7173-4.386 20.0443-3.081 47.6833-34.038 61.9023-69.4242z" fill="url(#ap)"/><path d="m132.12 156.184c5.427-.729 8.609-2.711 9.2-5.719 1.231-6.354-9.136-16.611-27.04-26.791l-.147.26c17.795 10.105 28.099 20.251 26.892 26.472-.555 2.876-3.647 4.774-8.938 5.484z" fill="url(#aq)"/><path d="m102.327 167.767c3.194-.438 5.077-1.602 5.426-3.389.723-3.744-5.341-9.763-15.828-15.719l-.1476.26c10.3676 5.899 16.3756 11.788 15.6806 15.401-.321 1.651-2.107 2.738-5.152 3.159z" fill="url(#ar)"/><path d="m69.929 160.248c33.28 6.71 72.013-16.896 86.318-52.614l-.278-.112c-14.255 35.592-52.824 59.113-85.9814 52.43z" fill="url(#as)"/><path d="m69.9052 160.242c37.4018 14.108 79.4708-3.481 93.7798-39.211l-.278-.112c-14.25 35.581-56.146 53.094-93.3972 39.042z" fill="url(#at)"/><path d="m61.5699 159.382c2.6633 1.013 5.5447 1.315 8.36.875 2.365 1.344 4.8172 2.529 7.3402 3.546 12.66 5.098 26.2339 5.507 38.9669 1.034 8.118-2.864 15.494-7.503 21.591-13.58 6.523-6.426 11.665-14.27 15.299-23.338l.096-.237-.251.032c-20.055 2.702-61.9463-9.645-93.4201-27.521l-.1469-.085-.0642.159c-9.6567 24.111-10.9725 45.096-3.4318 54.771 1.4647 1.928 3.4196 3.428 5.6609 4.344zm8.4209.563-.0513.01c-5.9215.788-10.5541-.918-13.8036-5.084-7.457-9.573-6.1498-30.376 3.4092-54.319 31.3708 17.779 73.0429 30.072 93.2019 27.507-3.598 8.936-8.702 16.666-15.136 22.999-6.066 6.044-13.403 10.661-21.478 13.513-15.16 5.307-31.5374 3.682-46.1007-4.6z" fill="url(#au)"/><path d="m75.7856 144.129c21.6329 8.711 43.8724 13.752 56.3514 12.074l-.04-.296c-17.293 2.33-53.4642-8.325-80.6331-23.757l-.1492.263c7.8903 4.44 16.065 8.354 24.4709 11.716z" fill="url(#av)"/><path d="m69.376 160.711c12.6489 5.093 25.6458 8.037 32.94 7.052l-.04-.297c-10.0917 1.36-31.2054-4.862-47.0636-13.868l-.1476.259c4.6134 2.599 9.3943 4.888 14.3112 6.854z" fill="url(#aw)"/><path d="m77.8384 165.571c3.9373 1.573 8.257 1.924 12.3969 1.009 13.9797-2.924 27.7087-18.1 36.7187-40.605l-.297-.119c-8.972 22.411-22.622 37.521-36.5034 40.423-7.4032 1.546-14.3559-.629-20.1074-6.29l-.2106.213c2.2849 2.303 5.0054 4.128 8.0028 5.369z" fill="url(#ax)"/><path d="m70.1936 163.423.0594.024c2.6241.678 13.5176-23.292 23.1519-47.347l-.2782-.112c-12.6366 31.553-21.0392 47.625-22.7966 47.171-.1632-.065-.55-.432-.2262-3.035l-.2954-.037c-.2565 2.061-.1379 3.126.3851 3.336z" fill="url(#ay)"/><path d="m61.5699 159.382c2.4556.989 5.2841 1.287 8.4097.869l.4531-.054-.3856-.22c-6.8389-3.92-12.9352-9.011-18.0103-15.042-2.0576-11.024.5409-26.941 7.5874-44.536l.0463-.115-.1224-.05c-11.4383-6.4936-20.1974-13.0037-25.5054-18.7492.8489-6.3105 2.4696-12.4928 4.8259-18.408l.0956-.2374-.2541.0313c-6.2757.8224-9.9403 3.1145-10.624 6.5895-.6328 3.2629 1.3819 7.4236 5.6372 12.0684-3.086 22.8984 3.7421 46.6544 18.0265 63.5404.7623 4.027 2.1431 7.407 4.1495 9.982 1.4691 1.925 3.4273 3.42 5.6706 4.331zm7.9365.631c-5.6991.654-10.1891-1.085-13.3594-5.138-1.8946-2.435-3.2209-5.608-3.9957-9.347 4.9257 5.768 10.7893 10.664 17.344 14.481zm-10.2134-59.605c-6.9212 17.327-9.5332 33.031-7.6391 44.075-13.9543-16.732-20.6319-40.091-17.6558-62.6626 5.3184 5.7195 14.0042 12.1656 25.2837 18.5826zm-20.7908-37.2244c-2.2858 5.7862-3.8722 11.8247-4.7254 17.9873-4.0744-4.4945-6.0033-8.5043-5.3901-11.6543.632-3.2933 4.1308-5.4839 10.1118-6.3345z" fill="url(#az)"/><path d="m51.3073 132.411.1492-.263c-17.7915-10.104-28.0972-20.246-26.8918-26.473.5583-2.874 3.645-4.77 8.9411-5.482l-.0439-.2979c-5.429.7319-8.6095 2.7109-9.2015 5.7229-1.2198 6.358 9.1405 16.621 27.0469 26.793z" fill="url(#aA)"/><path d="m55.0766 153.861.1476-.259c-10.3711-5.901-16.3834-11.77-15.6801-15.401.3187-1.648 2.1033-2.74 5.1517-3.159l-.0401-.297c-3.194.439-5.0769 1.603-5.4233 3.395-.7103 3.744 5.3574 9.766 15.8442 15.721z" fill="url(#aB)"/><path d="m60.6485 157.485c3.0023 1.203 6.109 2.128 9.2808 2.762l.0586-.295c-14.6224-2.944-26.4272-11.504-33.2409-24.119-8.0374-14.876-8.4056-33.991-.9991-52.4811l-.2782-.1121c-7.4348 18.5602-7.0669 37.7842 1.0178 52.7342 5.2651 9.795 13.8227 17.414 24.161 21.511z" fill="url(#aC)"/><path d="m68.3159 159.62c.5267.212 1.0535.424 1.5839.637l.112-.278c-18.5019-6.98-32.9573-20.53-40.7151-38.155-7.3412-16.691-7.6939-35.1062-.9857-51.8511l-.2782-.112c-6.7395 16.8227-6.3856 35.3211.9903 52.0851 7.5614 17.171 21.4805 30.501 39.2928 37.674z" fill="url(#aD)"/><path d="m68.7282 162.855.5045.203c.9274.352 2.113.791 2.9462 1.088 1.7992.638 3.8548 1.207 4.8403 1.479 1.4663.405 3.6306.875 3.7745.903 1.7584.355 3.0149.606 4.5642.816.9145.127 1.9575.267 2.7481.348 1.0386.108 2.2212.222 3.1182.264l.4841.019c1.0699.051 2.4019.105 3.4036.111 1.7613.016 3.0779-.01 4.0308-.075 1.4553-.104 4.2123-.313 6.2963-.573 1.818-.233 3.66-.526 4.847-.82.435-.105.918-.212 1.422-.319 1.191-.271 2.423-.547 3.429-.84.903-.261 4.043-1.187 6.503-2.123 1.293-.493 3.358-1.329 4.922-2.075 1.392-.664 4.006-1.943 5.894-3.076 3.422-1.986 6.677-4.25 9.73-6.768 2.845-2.434 5.542-5.036 8.078-7.791 1.417-1.575 2.749-3.225 3.99-4.942.706-.94 1.489-2.125 2.247-3.268.345-.525.678-1.02.992-1.489 1.166-1.79 2.218-3.653 3.147-5.578.959-1.954 2.005-4.262 2.661-5.882.484-1.202 1.01-2.744 1.472-4.106.177-.523.348-1.024.507-1.481.763-2.271 1.358-4.594 1.781-6.952l.203-1.177c.264-1.48.56-3.158.717-4.5.229-1.917.424-4.4252.487-6.2406.061-1.7471.053-4.0089-.032-5.6168-.054-1.1384-.215-4.0266-.543-6.232-.495-3.3724-1.48-7.7565-2.234-10.7329-.561-2.0064-1.223-3.9834-1.982-5.9235-.785-2.087-1.678-4.1317-2.676-6.1256-.636-1.2259-2.876-5.4688-4.977-8.5909-1.024-1.5246-2.612-3.7374-3.995-5.3764l-.239-.2857c-.764-.9069-1.719-2.0371-2.488-2.8683-.768-.8312-2.27-2.423-3.457-3.5217l-.441-.4146c-.533-.4951-1.134-1.0601-1.636-1.4822-1.084-.9151-2.89-2.4571-4.288-3.4814-2.484-1.8648-5.082-3.573-7.778-5.1148l-.074.1298.074-.1298c-1.621-.92-3.425-1.8576-4.827-2.5083-1.238-.5761-1.699-.7917-2.96-1.3211s-2.559-1.0306-2.922-1.1466c-.902-.3288-1.756-.6381-3.029-1.0428-1.272-.4046-1.945-.5978-3.295-.9692-1.167-.3145-1.328-.3535-3.747-.8967-.466-.1058-1.031-.2125-1.532-.3065l-.552-.106c-1.304-.2532-3.811-.6117-5.254-.7531-1.964-.1961-4.5122-.3557-6.3478-.4007-1.537-.037-3.3793-.0115-4.6953.0664-1.7675.1073-4.3024.3324-6.2997.5714-.7874.114-1.5673.231-2.3324.354-.8699.1369-1.7212.2812-2.4545.4429-2.4829.5564-5.4177 1.3145-7.4775 1.9335-3.0689.9197-7.0753 2.6688-9.8212 3.8996-2.1139.9622-4.1571 2.0726-6.1144 3.323l-1.0069.6593c-1.4472.939-3.0848 2.0082-4.3388 2.9172-1.5091 1.0831-2.9625 2.2416-4.355 3.4711l-.5848.5318c-1.2732 1.1599-2.8567 2.6087-4.0037 3.7764-1.1469 1.1676-2.6649 2.8497-3.793 4.206s-2.6981 3.414-3.8141 5.008c-1.1734 1.6829-2.5598 3.9697-3.1085 4.8826-1.7874 3.0656-3.3445 6.2599-4.6585 9.5564-1.3781 3.6735-2.5401 7.4244-3.4802 11.2336-.5085 2.0429-.8775 4.1181-1.1043 6.2112-.0503.5315-.1133 1.1269-.1785 1.7386-.1413 1.3571-.2893 2.7632-.347 3.934-.1328 2.0641-.1532 4.1339-.061 6.2003.033.4961.063 1.0427.098 1.6086.0713 1.3215.1689 2.7925.2976 3.9605.2199 1.917.5966 4.375.9402 6.112.3435 1.738.8436 3.836 1.2642 5.329.2379.833 1.0814 3.737 1.9169 5.945.8053 2.1 1.5047 3.757 2.0249 4.906.8866 1.909 2.0236 4.138 2.8873 5.676.6767 1.199 1.7168 2.941 2.6026 4.242 1.1582 1.717 2.7838 3.91 3.9172 5.388 1.8687 2.323 3.871 4.536 5.9966 6.627.7498.707 2.6659 2.5 4.232 3.803 1.2236 1.019 2.9818 2.369 4.3741 3.365 1.3922.996 3.0916 2.107 4.3054 2.85 2.3411 1.413 3.234 1.871 5.1869 2.878.4398.224 2.0597 1.04 4.4988 2.07zm54.2658-134.4971.827.333c1.258.5279 1.714.7421 2.945 1.3152 1.402.6507 3.195 1.5838 4.81 2.4971 2.684 1.5358 5.27 3.2378 7.742 5.0962 1.38 1.0257 3.196 2.5543 4.288 3.4509.495.4192 1.093.9789 1.622 1.4725l.441.4146c1.181 1.092 2.664 2.6675 3.442 3.5069.779.8393 1.714 1.9531 2.48 2.8563l.238.2857c1.415 1.7146 2.742 3.4994 3.977 5.3474 2.091 3.1139 4.323 7.345 4.958 8.562.994 1.9824 1.882 4.0162 2.66 6.0928.757 1.9306 1.417 3.8982 1.975 5.8953.754 2.9675 1.732 7.336 2.227 10.6994.325 2.1913.49 5.0684.541 6.2054.08 1.61.086 3.863.024 5.6138-.063 1.7508-.26 4.3056-.485 6.2146-.158 1.333-.453 3.008-.714 4.481-.068.403-.143.804-.207 1.179-.417 2.343-1.008 4.651-1.768 6.906-.159.457-.33.957-.506 1.481-.461 1.358-.986 2.897-1.465 4.088-.651 1.617-1.698 3.916-2.654 5.863-.923 1.912-1.967 3.764-3.125 5.544-.313.456-.647.964-.997 1.491-.752 1.141-1.533 2.318-2.233 3.256-1.237 1.707-2.566 3.345-3.981 4.907-2.526 2.746-5.214 5.339-8.049 7.764-3.043 2.508-6.285 4.764-9.695 6.744-1.875 1.124-4.481 2.403-5.866 3.061-1.553.741-3.609 1.564-4.902 2.065-2.445.934-5.58 1.857-6.465 2.139-1.001.291-2.224.566-3.413.832l-1.423.324c-1.589.352-3.195.623-4.811.813-2.078.258-4.828.47-6.2672.576-.9394.053-2.2568.091-4.007.081-1.0128-.012-2.3352-.078-3.4021-.116l-.4863-.023c-.8895-.039-2.067-.156-3.1018-.262-.7855-.084-1.8248-.222-2.7356-.347-1.5403-.211-2.7932-.461-4.5292-.807-.164-.031-2.3119-.499-3.7694-.905-.9855-.272-3.0336-.838-4.8217-1.472-.8333-.297-2.0152-.734-2.9425-1.086-.4711-.189-1.1129-.448-1.4467-.582-2.4317-1.027-4.0457-1.836-4.4803-2.063-1.9506-1.001-2.8347-1.46-5.1698-2.866-1.2131-.734-2.8947-1.847-4.2847-2.838s-3.1408-2.338-4.3585-3.35c-1.5587-1.3-3.4689-3.086-4.2187-3.794-2.1158-2.078-4.1087-4.278-5.9684-6.589-1.1297-1.476-2.7494-3.663-3.9054-5.374-.8725-1.291-1.9066-3.027-2.5848-4.223-.8667-1.53-1.9977-3.753-2.8933-5.661-.5343-1.146-1.2129-2.79-2.016-4.885-.843-2.189-1.6798-5.078-1.9289-5.915-.4273-1.466-.9229-3.618-1.2569-5.304-.3339-1.687-.7218-4.171-.9364-6.089-.1318-1.161-.2286-2.644-.2961-3.9433l-.1018-1.6101c-.0897-2.0562-.0691-4.1157.0617-6.1697.0584-1.162.2086-2.5629.3484-3.9162.0652-.6118.1282-1.2072.18-1.7424.2246-2.0743.589-4.1311 1.0908-6.1563.9391-3.7969 2.0979-7.5361 3.4705-11.1987 1.3068-3.2821 2.8568-6.462 4.6369-9.5134.5456-.9054 1.935-3.1997 3.0957-4.8618 1.1146-1.5903 2.6407-3.5924 3.7978-4.9887 1.1572-1.3963 2.6408-3.0362 3.7781-4.1905s2.7208-2.6031 3.994-3.763l.5812-.5333c1.3837-1.2153 2.8274-2.3604 4.3258-3.4311 1.2489-.9068 2.8812-1.9738 4.3232-2.9105l1.0107-.6578c1.9427-1.2435 3.9716-2.3468 6.0713-3.3016 2.7406-1.2286 6.7336-2.9659 9.7862-3.8878l.752-.2188c-15.4982 5.5796-28.2796 18.0511-35.5437 35.0205-.2061.5119-.4293 1.0126-.6369 1.5282l-.0508.1261c-14.3065 35.722-.2708 79.3692 31.289 97.2892l.1477-.26c-31.4398-17.832-45.4113-61.3287-31.1585-96.9172l.0508-.1261c8.4242-20.9208 25.1454-35.2761 45.0505-38.8354l.8223-.1259c.5333-.0827 1.0436-.1617 1.5117-.2534 1.9868-.2346 4.4995-.4686 6.2655-.5722 1.3219-.0713 3.1457-.1042 4.6701-.068 1.8296.0384 4.3735.1964 6.3105.3858 1.437.1473 3.927.5035 5.223.7538l.564.1194c.496.0961 1.057.2014 1.5.3019 2.43.5477 2.578.577 3.754.8997 1.349.3662 1.975.5451 3.285.9647 1.309.4196 2.115.7096 3.03 1.0391.284.0972 1.144.4438 2.083.8217z" fill="url(#aE)"/><path d="m69.7865 160.613.0497-.005c20.2165-2.727 48.3838-34.14 62.7498-70.0405l.052-.1298-.122-.0493c-31.696-18.0004-73.915-30.4314-94.1195-27.7126l-.087.0125-.0328.0816c-14.3828 35.9112-.2555 79.8021 31.4645 97.8171zm62.4575-70.0411c-14.346 35.7231-42.3138 66.9711-62.4055 69.7091-31.5665-17.957-45.5941-61.5924-31.3186-97.3443 20.162-2.6454 62.1391 9.7227 93.7241 27.6352z" fill="url(#aF)"/><path d="m44.4139 135.261c10.1464-1.368 31.3841 4.878 47.326 13.944l.1477-.26c-15.9954-9.083-37.3124-15.356-47.5124-13.984z" fill="url(#aG)"/><path d="m33.1603 100.217c17.3879-2.3396 53.759 8.375 81.0767 23.888l.147-.26c-27.366-15.541-63.821-26.272-81.2639-23.924z" fill="url(#aH)"/><path d="m69.7107 160.565.2107-.212c-17.1247-16.867-19.392-59.711-5.0541-95.5109l-.2782-.112c-14.3797 35.9039-12.0809 78.8939 5.1216 95.8349z" fill="url(#aI)"/><path d="m69.6664 160.44.2992.039c1.4326-11.416 14.2789-49.86 28.6348-85.7043l-.2782-.112c-14.3633 35.8633-27.2194 74.3413-28.6558 85.7773z" fill="url(#aJ)"/><path d="m77.1699 164.181c12.7305 5.126 26.3781 5.535 39.1791 1.055 8.165-2.884 15.584-7.555 21.714-13.673 6.53-6.423 11.7-14.303 15.349-23.387 6.261-.862 9.926-3.154 10.602-6.633 1.408-7.382-10.648-19.311-31.498-31.1547l-.147-.085-.064.1595c-14.341 35.8072-42.3837 67.1452-62.5117 69.8562l-.4531.054.3871.216c2.398 1.362 4.8844 2.562 7.4426 3.592zm55.3561-73.4526c20.638 11.7586 32.588 23.5326 31.185 30.7746-.65 3.36-4.258 5.575-10.432 6.404l-.087.012-.038.093c-3.635 9.081-8.787 16.942-15.311 23.368-6.1 6.078-13.48 10.719-21.601 13.585-15.109 5.288-31.4223 3.728-45.9703-4.411 20.1631-3.119 47.9563-34.255 62.2503-69.8271z" fill="url(#aK)"/><path d="m102.366 168.167c3.216-.43 5.102-1.614 5.45-3.41.729-3.758-5.368-9.813-15.9149-15.801l-.1476.259c10.4305 5.925 16.4695 11.857 15.7515 15.482-.32 1.66-2.119 2.755-5.196 3.171z" fill="url(#aL)"/><path d="m132.327 156.534c5.467-.73 8.657-2.721 9.247-5.76 1.24-6.398-9.178-16.71-27.187-26.936l-.148.259c17.893 10.162 28.253 20.361 27.044 26.62-.561 2.891-3.659 4.803-8.993 5.514z" fill="url(#aM)"/><path d="m69.7855 160.605c33.4915 6.752 72.4015-16.972 86.7915-52.902l-.278-.112c-14.334 35.789-53.115 59.44-86.4512 52.72z" fill="url(#aN)"/><path d="m69.7624 160.599c37.6216 14.192 79.9086-3.499 94.2986-39.429l-.278-.112c-14.327 35.774-56.457 53.386-93.9108 39.258z" fill="url(#aO)"/><path d="m61.3795 159.737c2.6786 1.017 5.5759 1.319 8.4067.876 14.7117 8.342 31.2388 9.993 46.5578 4.621 8.166-2.883 15.585-7.555 21.715-13.672 6.555-6.452 11.732-14.352 15.381-23.469l.096-.238-.254.032c-20.147 2.716-62.2866-9.7-93.9295-27.671l-.1505-.086-.0642.159c-9.709 24.24-11.0296 45.344-3.4533 55.081 1.473 1.94 3.4398 3.448 5.695 4.367zm8.4676.564-.0513.01c-5.9274.803-10.6135-.92-13.8889-5.119-7.5007-9.624-6.1851-30.545 3.4262-54.617 31.5474 17.876 73.4469 30.234 93.7149 27.657-3.618 8.984-8.749 16.76-15.215 23.131-6.101 6.078-13.481 10.719-21.602 13.584-15.245 5.337-31.7064 3.696-46.3535-4.625z" fill="url(#aP)"/><path d="m69.2326 161.067c12.7157 5.12 25.7935 8.088 33.1324 7.099l-.04-.296c-10.1468 1.367-31.3845-4.878-47.3249-13.948l-.1491.263c4.6372 2.608 9.4416 4.907 14.3816 6.882z" fill="url(#aQ)"/><path d="m75.6784 144.398c21.7479 8.757 44.1106 13.826 56.6496 12.137l-.04-.296c-17.39 2.343-53.7558-8.373-81.0767-23.888l-.1439.261c7.9348 4.467 16.1564 8.404 24.611 11.786z" fill="url(#aR)"/><path d="m77.7461 165.96c3.9586 1.582 8.3015 1.935 12.4637 1.014 14.0592-2.938 27.8622-18.202 36.9252-40.827l-.279-.112c-9.025 22.533-22.747 37.725-36.7079 40.643-7.4433 1.559-14.4338-.639-20.2194-6.323l-.2107.213c2.2924 2.312 5.0212 4.145 8.0281 5.392z" fill="url(#aS)"/><path d="m70.0516 163.798.0631.025c2.6352.682 13.5869-23.411 23.2795-47.611l-.2782-.112c-12.7113 31.739-21.1564 47.884-22.9249 47.426-.1915-.038-.5559-.439-.2254-3.048l-.2992-.038c-.2609 2.071-.1379 3.147.3851 3.358z" fill="url(#aT)"/><path d="m61.3799 159.737c2.4704.995 5.3212 1.281 8.4565.871l.4531-.055-.3894-.221c-6.8771-3.939-13.0064-9.058-18.1066-15.124-2.0715-11.085.5397-27.087 7.625-44.78l.0493-.122-.1187-.048c-11.5043-6.5334-20.322-13.08-25.6521-18.856.8579-6.3441 2.4917-12.5588 4.8647-18.5045l.0956-.2374-.254.0313c-6.313.8506-10.0073 3.1522-10.6859 6.6466-.6365 3.2829 1.3937 7.4585 5.6683 12.1412-3.1094 23.0308 3.7646 46.9088 18.1245 63.8858.7659 4.051 2.1719 7.453 4.1738 10.04 1.4777 1.927 3.4444 3.423 5.6959 4.332zm7.9736.624c-5.7311.659-10.2515-1.08-13.4373-5.169-1.908-2.445-3.2469-5.618-4.0179-9.399 4.9532 5.808 10.8546 10.735 17.4537 14.572zm-10.2706-59.934c-6.96 17.423-9.5848 33.213-7.6834 44.325-14.0284-16.827-20.7472-40.319-17.7375-63.0063 5.3444 5.7515 14.0761 12.2333 25.4194 18.6843zm-20.895-37.4257c-2.3006 5.8181-3.8963 11.8907-4.7531 18.0882-4.1034-4.519-6.0396-8.5533-5.4242-11.7197.6381-3.3081 4.1577-5.5076 10.1759-6.3648z" fill="url(#aU)"/><path d="m54.8514 154.185.1491-.263c-10.4304-5.924-16.4746-11.854-15.7712-15.485.3231-1.659 2.1219-2.754 5.1993-3.17l-.0387-.3c-3.2163.429-5.1029 1.614-5.4508 3.409-.7415 3.758 5.3669 9.817 15.9123 15.809z" fill="url(#aV)"/><path d="m51.086 132.607.144-.261c-17.8931-10.163-28.2499-20.359-27.04-26.619.5606-2.891 3.6585-4.803 8.9887-5.515l-.0401-.2961c-5.4684.7341-8.6549 2.7271-9.247 5.7601-1.2533 6.389 9.1656 16.71 27.1944 26.931z" fill="url(#aW)"/><path d="m60.4554 157.826c3.0183 1.21 6.1417 2.141 9.3305 2.778l.0624-.294c-14.7011-2.962-26.5756-11.563-33.43-24.238-8.0818-14.958-8.4504-34.19-1.0103-52.7743l-.2782-.112c-7.473 18.6653-7.1075 37.9913 1.0328 53.0073 5.2931 9.85 13.8975 17.512 24.2928 21.633z" fill="url(#aX)"/><path d="m68.1642 159.973c.5305.213 1.0609.427 1.5913.64l.1121-.278c-18.6169-7.026-33.1442-20.644-40.9404-38.367-7.3907-16.771-7.7417-35.2974-.994-52.1298l-.2782-.112c-6.7754 16.9117-6.4186 35.5098.9972 52.3678 7.6064 17.263 21.5995 30.666 39.512 37.879z" fill="url(#aY)"/><path d="m38.1877 63.0006.254-.0313c20.1474-2.716 62.2833 9.6984 93.9293 27.6706l.151.0864.064-.1595c9.71-24.2437 11.031-45.3479 3.449-55.0824-3.279-4.209-8.155-6.0172-14.096-5.2452-14.71-8.3371-31.2388-9.9924-46.5582-4.6211-8.1653 2.885-15.5837 7.5561-21.7142 13.6726-6.5553 6.4519-11.7305 14.3475-15.3856 23.4673zm65.8243 13.7283c-25.0455-10.0851-50.7876-15.9459-65.3587-14.0925 3.6192-8.9878 8.754-16.7617 15.2192-23.1292 6.1011-6.0791 13.4811-10.7211 21.6026-13.5881 15.2451-5.3366 31.6979-3.6949 46.3499 4.6235l.049.0194.049-.0058c5.929-.8069 10.614.9199 13.891 5.1148 7.483 9.6259 6.167 30.5467-3.457 54.6183-9.141-5.1361-18.61-9.666-28.345-13.5604z" fill="url(#aZ)"/><path d="m59.4254 34.6351c17.3968-2.3406 53.7626 8.3757 81.0766 23.8874l.149-.2633c-27.366-15.5415-63.8177-26.2706-81.2643-23.9242z" fill="url(#a0)"/><path d="m89.3868 23.0163c10.1465-1.3675 31.3802 4.8765 47.3242 13.9479l.148-.2596c-15.995-9.0833-37.3109-15.3602-47.5124-13.9847z" fill="url(#a1)"/><path d="m64.5891 64.7297.2782.112c9.0256-22.5322 22.7489-37.7283 36.7097-40.6464 7.443-1.5593 14.43.6376 20.218 6.3263l.212-.2163c-5.866-5.772-12.944-7.9796-20.492-6.4064-14.0608 2.9424-27.8659 18.2133-36.9259 40.8308z" fill="url(#a2)"/><path d="m98.3222 74.6622.2782.112c12.6906-31.73 21.1576-47.8872 22.9296-47.4369.177.0413.553.4342.225 3.048l.299.0386c.269-2.1551.119-3.2284-.449-3.3797-2.639-.6744-13.595 23.4299-23.2828 47.618z" fill="url(#a3)"/><path d="m153.06 128.237.254-.031c6.316-.849 10.011-3.151 10.689-6.645.633-3.285-1.393-7.459-5.668-12.142 3.111-23.034-3.763-46.9119-18.127-63.8908-.766-4.0502-2.172-7.4529-4.174-10.0394-3.288-4.2208-8.181-6.0276-14.152-5.2245l-.453.0547.386.2199c6.883 3.9387 13.017 9.0604 18.121 15.1297 2.072 11.0852-.558 27.0798-7.625 44.7795l-.049.1225.118.0478c11.505 6.5334 20.319 13.0786 25.649 18.8546-.858 6.344-2.492 12.559-4.865 18.504zm5.224-18.455c4.099 4.518 6.039 8.554 5.424 11.72-.64 3.312-4.159 5.511-10.177 6.369 2.3-5.818 3.896-11.891 4.753-18.089zm-17.966-63.6707c14.022 16.8542 20.748 40.3278 17.752 63.0247-5.359-5.758-14.091-12.2394-25.434-18.6908 6.961-17.4275 9.587-33.2208 7.682-44.3339zm-10.105-14.7296c2.218.9024 4.153 2.3856 5.6 4.2937 1.906 2.4489 3.247 5.6183 4.025 9.3804-4.961-5.7976-10.865-10.7154-17.464-14.5461 2.94-.3363 5.553-.0456 7.839.872z" fill="url(#a4)"/><path d="m158.59 90.9724c5.468-.7337 8.655-2.7268 9.243-5.7618 1.244-6.3965-9.178-16.7101-27.188-26.9364l-.149.2633c17.895 10.1585 28.254 20.3605 27.044 26.6197-.561 2.891-3.657 4.7997-8.987 5.5114z" fill="url(#a5)"/><path d="m147.329 55.9039c3.216-.4292 5.102-1.6137 5.45-3.4091.729-3.7587-5.372-9.8149-15.915-15.8019l-.148.2596c10.431 5.9243 16.47 11.8564 15.753 15.4777-.319 1.6604-2.12 2.7589-5.197 3.1751z" fill="url(#a6)"/><path d="m156.299 107.59.278.112c7.478-18.6676 7.109-37.995-1.024-53.0298-6.893-12.7596-18.836-21.4267-33.621-24.4057l-.062.2939c14.701 2.9625 26.575 11.5633 33.43 24.2382 8.076 14.973 8.443 34.2091.999 52.7914z" fill="url(#a7)"/><path d="m163.774 121.08.278.112c6.772-16.914 6.42-35.5142-.999-52.3739-7.827-17.8082-22.428-31.4774-41.102-38.5353l-.112.2782c18.608 7.0184 33.141 20.6428 40.937 38.3656 7.391 16.7921 7.748 35.2914.998 52.1534z" fill="url(#a8)"/><path d="m87.6995 114.156c25.1905 10.144 51.0925 16.004 65.6025 14.045l.087-.013.028-.07c14.388-35.9353.291-79.8143-31.444-97.8349l-.045-.018-.049.0059c-20.224 2.7239-48.375 34.1474-62.7517 70.044l-.0493.122.1224.049c9.1877 5.181 18.7082 9.748 28.4991 13.67zm65.4885 13.761c-20.156 2.661-62.1422-9.706-93.7303-27.62 14.3423-35.7249 42.3113-66.9758 62.4053-69.709 31.559 17.9326 45.601 61.5738 31.325 97.329z" fill="url(#a9)"/><path d="m101.945 78.8112c21.748 8.7572 44.109 13.8298 56.652 12.1426l-.039-.3001c-17.383 2.3593-53.76-8.3704-81.0762-23.8874l-.1491.2633c7.9354 4.4655 16.1576 8.4013 24.6123 11.7816z" fill="url(#ba)"/><path d="m114.195 48.8049c12.716 5.1202 25.795 8.0849 33.133 7.0993l-.04-.2964c-10.149 1.3623-31.385-4.878-47.3287-13.9493l-.1477.2595c4.6374 2.6111 9.4424 4.9118 14.3834 6.8869z" fill="url(#bb)"/><path d="m126.846 126.04.278.112c14.38-35.9034 12.083-78.8977-5.12-95.8386l-.212.2164c17.129 16.8553 19.397 59.6995 5.054 95.5102z" fill="url(#bc)"/><path d="m93.116 116.1.2782.112c14.3638-35.8626 27.2158-74.3429 28.6558-85.7772l-.299-.0385c-1.431 11.412-14.279 49.8596-28.635 85.7037z" fill="url(#bd)"/><path d="m59.3424 100.583.0643-.16c14.3424-35.8109 42.3853-67.1485 62.5113-69.8556l.454-.0547-.39-.2214c-14.737-8.3654-31.2719-10.0059-46.5995-4.6464-8.1653 2.885-15.5837 7.556-21.7142 13.6725-6.5307 6.423-11.7 14.3038-15.3527 23.3858-6.2602.8588-9.9263 3.1546-10.5989 6.6341-1.4301 7.3949 10.6328 19.3392 31.4841 31.1797zm62.1026-70.2625c-20.153 3.0932-47.9542 34.2479-62.2478 69.8195-20.6384-11.7586-32.5888-23.5326-31.1858-30.7745.65-3.3593 4.258-5.575 10.4328-6.4036l.0832-.0139.0329-.0816c3.6534-9.0731 8.7915-16.9406 15.3148-23.3666 6.101-6.0791 13.481-10.7211 21.6025-13.5881 15.095-5.285 31.4124-3.7148 45.9674 4.4088z" fill="url(#be)"/><path d="m77.3328 67.0298.1491-.2632c-17.8946-10.1585-28.2536-20.3606-27.0437-26.6198.5591-2.8873 3.657-4.7997 8.9873-5.5114l-.0387-.3001c-5.4684.7337-8.6549 2.7268-9.2433 5.7618-1.2376 6.3817 9.1798 16.7064 27.1893 26.9327z" fill="url(#bf)"/><path d="m99.8119 41.918.1476-.2595c-10.4267-5.9229-16.4694-11.8564-15.7512-15.4814.3231-1.6589 2.1182-2.7553 5.1993-3.17l-.0402-.2963c-3.2163.4292-5.1066 1.6122-5.4508 3.4091-.7452 3.7564 5.3521 9.8112 15.8953 15.7981z" fill="url(#bg)"/><path d="m35.1355 83.1705.2782.112c14.3335-35.7888 53.1197-59.4422 86.4563-52.7219l.062-.2939c-33.4669-6.76-72.4108 16.9851-86.7965 52.9038z" fill="url(#bh)"/><path d="m27.6514 69.7157.2782.112c14.3289-35.7776 56.4591-53.39 93.9124-39.2614l.112-.2782c-37.6046-14.2025-79.9079 3.4867-94.3026 39.4276z" fill="url(#bi)"/><path d="m68.5535 163.215c3.2964 1.327 6.6853 2.41 10.1396 3.243 3.0599.74 5.5429 1.115 6.6036 1.275 2.9373.446 5.8737.615 5.9005.613 2.655.169 5.3174.19 7.9749.064 1.8679-.067 4.4289-.294 6.3389-.573 1.601-.217 3.436-.504 4.816-.815 2.497-.559 5.446-1.32 7.516-1.944 3.08-.915 7.116-2.683 9.877-3.92 2.126-.967 4.181-2.085 6.149-3.344l1.004-.652c1.455-.948 3.105-2.026 4.37-2.943 1.626-1.177 3.6-2.827 4.376-3.48 1.525-1.291 3.396-3.081 4.618-4.339.813-.828 1.739-1.887 2.626-2.891.414-.472.806-.93 1.184-1.334 1.395-1.591 2.677-3.277 3.838-5.046 2.15-3.264 4.115-6.647 5.886-10.131 1.33-2.737 3.058-6.804 3.917-10.019.148-.548.326-1.162.501-1.768.416-1.449.891-3.09 1.124-4.428.092-.54.203-1.138.318-1.755.256-1.363.521-2.769.673-3.95.299-2.082.485-4.178.558-6.2798.004-.5116.004-1.0804.027-1.6618.026-1.3818.05-2.8119.008-4.0016-.071-1.9642-.263-4.4857-.492-6.272-.229-1.7864-.569-3.9406-.871-5.4806-.398-2.0953-.903-4.169-1.512-6.2128-1.054-3.4112-2.296-6.7618-3.718-10.0368-.759-1.6465-1.903-3.8917-2.912-5.7118-.767-1.391-1.815-3.1021-2.595-4.2608-1.079-1.6027-2.678-3.7858-3.935-5.4171-.784-1.0094-1.891-2.3174-2.755-3.2647-.942-1.0128-2.022-2.1632-2.866-3.0117-.655-.652-1.555-1.4887-2.257-2.1334l-.242-.2225c-1.597-1.4747-3.736-3.1422-4.355-3.6159-.959-.7351-1.679-1.2707-2.205-1.6335-1.111-.7622-2.909-1.973-4.326-2.8629-.949-.5977-3.27-1.9329-5.24-2.9072-4.411-2.2116-9.036-3.9698-13.802-5.2475-3.343-.8936-5.93-1.3317-5.932-1.328-1.671-.2719-3.63-.5563-4.992-.7169-1.119-.1318-2.577-.2361-3.335-.2824-1.1684-.074-2.7499-.1288-3.9276-.1375-1.3321-.0105-3.1077.0419-4.0545.0917-1.2075.044-2.6558.1721-4.0061.3138-.7747.0717-1.5516.1598-2.3219.2635l-.2547.0439c-2.9937.5189-6.7028 1.1333-9.4877 1.9475-2.1839.638-4.7499 1.4756-6.5409 2.1339-1.5697.5793-3.5579 1.4168-4.9547 2.0915-1.996.9637-4.3238 2.1732-5.9216 3.0903-1.2997.744-3.1328 1.9027-4.6679 2.9528-1.535 1.0502-3.4943 2.533-5.1169 3.854-1.1174.9123-2.4531 2.1419-3.6303 3.224l-.5626.5193c-1.4131 1.2932-3.1528 3.205-4.3582 4.5819-.7832.8745-1.6605 1.9826-2.4842 3.0648-.3888.4944-.7671.9844-1.1067 1.3994-1.3164 1.6685-2.5066 3.4327-3.5608 5.2781-.2647.4754-.5637.993-.8753 1.5314-.7075 1.2325-1.4389 2.5028-1.9842 3.5894-.8758 1.7467-1.9535 4.1234-2.6786 5.9135-1.4131 3.6856-2.5817 7.4603-3.4982 11.2996-.5628 2.3091-.9669 4.6539-1.2095 7.0182-.0396.4409-.083.9235-.1398 1.4179-.1369 1.4106-.2854 3.0104-.3366 4.2831-.1095 2.076-.1068 4.1565.0079 6.2323l.0484 1.2394c.0999 1.433.2135 3.056.371 4.335.2421 1.925.65 4.392 1.0136 6.133.8011 3.846 1.9103 7.621 3.317 11.289.2695.691 1.2219 3.079 2.0835 4.9.9201 1.922 2.086 4.155 2.9728 5.689.696 1.194 1.7516 2.93 2.6375 4.209 1.1908 1.721 2.8528 3.921 4.0115 5.4 1.9424 2.364 4.0253 4.61 6.2376 6.724 1.156 1.068 2.8759 2.61 4.2263 3.71 1.2215.992 2.9716 2.309 4.3543 3.275 4.4885 3.135 9.3182 5.751 14.3966 7.797zm36.9135 4.325c-1.912.273-4.444.503-6.3068.568-2.6483.126-5.3014.107-7.9475-.058-.026-.01-2.9491-.17-5.8663-.612-1.0607-.159-3.5348-.535-6.5836-1.271-8.7669-2.107-17.0607-5.84-24.4509-11.005-1.3767-.96-3.1172-2.269-4.3313-3.258-1.3467-1.098-3.0622-2.629-4.2181-3.698-2.1925-2.102-4.2585-4.331-6.1872-6.677-1.1572-1.484-2.8296-3.679-4.0034-5.389-.88-1.272-1.9297-3.001-2.622-4.194-.8861-1.525-2.0497-3.752-2.9676-5.669-.5808-1.213-1.3623-3.041-2.0724-4.874-1.4005-3.654-2.5056-7.415-3.3045-11.246-.3599-1.74-.7664-4.188-.9899-6.106-.1605-1.271-.2718-2.89-.3695-4.3171l-.0892-1.2558c-.111-2.0653-.1122-4.135-.0036-6.2004.0512-1.2726.1989-2.8599.3328-4.263.0457-.4989.0929-.98.1414-1.4217.2414-2.348.6419-4.6769 1.1989-6.9706.9129-3.825 2.0773-7.5857 3.4855-11.2573.7214-1.7917 1.7947-4.1572 2.6675-5.8965.5408-1.0755 1.2722-2.3458 1.9767-3.5709.3131-.5421.6076-1.0485.8783-1.5388 1.0466-1.8279 2.2274-3.5757 3.5324-5.2291.3456-.4299.7195-.9087 1.1082-1.4031.8371-1.0726 1.7055-2.18 2.4708-3.0529 1.2061-1.368 2.934-3.2717 4.3352-4.5568l.5677-.5215c1.172-1.0799 2.5048-2.3021 3.617-3.2121 1.6174-1.3188 3.6161-2.8246 5.0968-3.8362 1.4808-1.0117 3.3488-2.2037 4.6344-2.9448 1.5964-.9134 3.9152-2.1221 5.906-3.0836 1.3849-.6666 3.3643-1.5034 4.9235-2.0782 1.7896-.6546 4.3466-1.4915 6.5171-2.1177 2.7776-.8171 6.4836-1.4457 9.4721-1.9408l.2459-.0432c.6788-.0802 1.4751-.1734 2.3077-.2606 11.3301-1.0417 22.7529 1.5189 33.2139 7.4426l.022.0089.048.0195.148-.2596c-7.498-4.3267-15.869-6.9226-24.4995-7.5977.9994.023 2.1064.0679 2.9695.1182.77.047 2.22.1521 3.334.2861 1.357.1628 3.299.4665 4.977.7109.022.009 2.559.4314 5.912 1.3242 4.755 1.2771 9.368 3.0351 13.768 5.2467 1.962.9713 4.273 2.2984 5.211 2.8916 1.414.8884 3.209 2.094 4.317 2.8547.526.3628 1.24.8917 2.195 1.6253.616.4722 2.749 2.133 4.332 3.598l.246.224c.71.6566 1.596 1.4747 2.248 2.1252.841.8433 1.914 1.9908 2.855 3.0035.863.9295 1.966 2.227 2.742 3.2335 1.255 1.6261 2.834 3.7965 3.929 5.4015.777 1.175 1.827 2.8608 2.601 4.246.994 1.8141 2.142 4.0481 2.885 5.6835 1.424 3.2676 2.668 6.6108 3.726 10.0145.605 2.035 1.108 4.0992 1.506 6.1845.309 1.5126.66 3.7144.864 5.4561.204 1.7418.404 4.284.483 6.2297.043 1.1771.02 2.5946-.009 3.9838-.012.5859-.031 1.1472-.028 1.6655-.071 2.089-.257 4.173-.557 6.242-.149 1.173-.412 2.576-.666 3.935-.115.617-.222 1.204-.324 1.758-.23 1.321-.699 2.956-1.115 4.396-.178.623-.351 1.225-.499 1.773-.855 3.195-2.575 7.24-3.9 9.966-1.763 3.469-3.719 6.836-5.859 10.086-1.156 1.754-2.43 3.428-3.814 5.008-.366.404-.778.859-1.18 1.335-.891 1.012-1.811 2.056-2.622 2.88-1.22 1.233-3.075 3.034-4.595 4.314-.772.655-2.74 2.298-4.359 3.47-1.257.916-2.905 1.99-4.358 2.935l-1.006.656c-1.953 1.249-3.993 2.358-6.104 3.318-2.752 1.237-6.771 2.985-9.842 3.909-2.06.619-5.005 1.381-7.491 1.936-1.375.309-3.196.58-4.797.81z" fill="url(#bj)"/><path d="m69.7874 160.613.0498-.005c20.2165-2.727 48.3838-34.14 62.7498-70.0405l.052-.1298-.122-.0493c-31.696-18.0004-73.915-30.4314-94.1196-27.7126l-.0869.0125-.0328.0816c-14.3828 35.9112-.2555 79.8021 31.4645 97.8171zm62.4576-70.0411c-14.346 35.7231-42.3138 66.9711-62.4056 69.7091-31.5664-17.957-45.594-61.5924-31.3186-97.3443 20.1621-2.6454 62.1392 9.7227 93.7242 27.6352z" fill="url(#bk)"/><path d="m44.4148 135.261c10.1465-1.368 31.3842 4.878 47.3261 13.944l.1476-.26c-15.9953-9.083-37.3124-15.356-47.5123-13.984z" fill="url(#bl)"/><path d="m33.1613 100.217c17.3879-2.3396 53.759 8.375 81.0767 23.888l.147-.26c-27.366-15.541-63.821-26.272-81.2639-23.924z" fill="url(#bm)"/><path d="m69.7117 160.565.2106-.212c-17.1247-16.867-19.3919-59.711-5.054-95.5109l-.2782-.112c-14.3798 35.9039-12.0809 78.8939 5.1216 95.8349z" fill="url(#bn)"/><path d="m69.6674 160.44.2992.039c1.4326-11.416 14.2789-49.86 28.6348-85.7043l-.2782-.112c-14.3634 35.8633-27.2194 74.3413-28.6558 85.7773z" fill="url(#bo)"/><path d="m77.1708 164.181c12.7306 5.126 26.3782 5.535 39.1792 1.055 8.165-2.884 15.584-7.555 21.714-13.673 6.53-6.423 11.7-14.303 15.349-23.387 6.261-.862 9.926-3.154 10.602-6.633 1.408-7.382-10.648-19.311-31.498-31.1547l-.147-.085-.064.1595c-14.341 35.8072-42.3837 67.1452-62.5118 69.8562l-.453.054.3871.216c2.398 1.362 4.8844 2.562 7.4425 3.592zm55.3562-73.4526c20.638 11.7586 32.588 23.5326 31.185 30.7746-.65 3.36-4.258 5.575-10.432 6.404l-.087.012-.038.093c-3.635 9.081-8.787 16.942-15.311 23.368-6.1 6.078-13.48 10.719-21.601 13.585-15.109 5.288-31.4223 3.728-45.9704-4.411 20.1632-3.119 47.9564-34.255 62.2504-69.8271z" fill="url(#bp)"/><path d="m102.367 168.167c3.216-.43 5.102-1.614 5.45-3.41.729-3.758-5.368-9.813-15.9149-15.801l-.1477.259c10.4306 5.925 16.4696 11.857 15.7516 15.482-.32 1.66-2.119 2.755-5.196 3.171z" fill="url(#bq)"/><path d="m132.328 156.534c5.467-.73 8.657-2.721 9.247-5.76 1.24-6.398-9.178-16.71-27.187-26.936l-.148.259c17.893 10.162 28.253 20.361 27.044 26.62-.561 2.891-3.659 4.803-8.993 5.514z" fill="url(#br)"/><path d="m69.7864 160.605c33.4916 6.752 72.4016-16.972 86.7916-52.902l-.278-.112c-14.334 35.789-53.115 59.44-86.4513 52.72z" fill="url(#bs)"/><path d="m69.7634 160.599c37.6216 14.192 79.9086-3.499 94.2986-39.429l-.278-.112c-14.327 35.774-56.457 53.386-93.9108 39.258z" fill="url(#bt)"/><path d="m61.3805 159.737c2.6786 1.017 5.5759 1.319 8.4067.876 14.7117 8.342 31.2388 9.993 46.5578 4.621 8.166-2.883 15.585-7.555 21.715-13.672 6.555-6.452 11.732-14.352 15.381-23.469l.096-.238-.254.032c-20.147 2.716-62.2866-9.7-93.9295-27.671l-.1505-.086-.0643.159c-9.7089 24.24-11.0295 45.344-3.4532 55.081 1.4729 1.94 3.4398 3.448 5.695 4.367zm8.4676.564-.0513.01c-5.9275.803-10.6135-.92-13.8889-5.119-7.5007-9.624-6.1851-30.545 3.4262-54.617 31.5474 17.876 73.4469 30.234 93.7149 27.657-3.618 8.984-8.749 16.76-15.216 23.131-6.1 6.078-13.48 10.719-21.601 13.584-15.245 5.337-31.7064 3.696-46.3535-4.625z" fill="url(#bu)"/><path d="m69.2336 161.067c12.7156 5.12 25.7935 8.088 33.1324 7.099l-.04-.296c-10.1468 1.367-31.3845-4.878-47.325-13.948l-.1491.263c4.6373 2.608 9.4416 4.907 14.3817 6.882z" fill="url(#bv)"/><path d="m75.6793 144.398c21.748 8.757 44.1107 13.826 56.6497 12.137l-.04-.296c-17.39 2.343-53.7558-8.373-81.0767-23.888l-.144.261c7.9349 4.467 16.1565 8.404 24.611 11.786z" fill="url(#bw)"/><path d="m77.747 165.96c3.9587 1.582 8.3016 1.935 12.4638 1.014 14.0592-2.938 27.8622-18.202 36.9252-40.827l-.279-.112c-9.025 22.533-22.747 37.725-36.7079 40.643-7.4433 1.559-14.4339-.639-20.2194-6.323l-.2107.213c2.2923 2.312 5.0212 4.145 8.028 5.392z" fill="url(#bx)"/><path d="m70.0526 163.798.063.025c2.6353.682 13.587-23.411 23.2796-47.611l-.2782-.112c-12.7114 31.739-21.1565 47.884-22.9249 47.426-.1915-.038-.5559-.439-.2254-3.048l-.2992-.038c-.2609 2.071-.1379 3.147.3851 3.358z" fill="url(#by)"/><path d="m61.3809 159.737c2.4704.995 5.3212 1.281 8.4564.871l.4531-.055-.3893-.221c-6.8771-3.939-13.0064-9.058-18.1067-15.124-2.0715-11.085.5398-27.087 7.6251-44.78l.0493-.122-.1187-.048c-11.5043-6.5334-20.322-13.08-25.6522-18.856.858-6.3441 2.4918-12.5588 4.8648-18.5045l.0956-.2374-.2541.0313c-6.3129.8506-10.0072 3.1522-10.6858 6.6466-.6365 3.2829 1.3937 7.4585 5.6682 12.1412-3.1093 23.0308 3.7646 46.9088 18.1245 63.8858.766 4.051 2.172 7.453 4.1739 10.04 1.4777 1.927 3.4444 3.423 5.6959 4.332zm7.9736.624c-5.7311.659-10.2515-1.08-13.4373-5.169-1.908-2.445-3.2469-5.618-4.0179-9.399 4.9531 5.808 10.8546 10.735 17.4537 14.572zm-10.2706-59.934c-6.96 17.423-9.5849 33.213-7.6835 44.325-14.0283-16.827-20.7472-40.319-17.7374-63.0063 5.3443 5.7515 14.076 12.2333 25.4194 18.6843zm-20.895-37.4257c-2.3006 5.8181-3.8964 11.8907-4.7531 18.0882-4.1034-4.519-6.0396-8.5533-5.4242-11.7197.6381-3.3081 4.1577-5.5076 10.1758-6.3648z" fill="url(#bz)"/><path d="m54.8524 154.185.1491-.263c-10.4305-5.924-16.4746-11.854-15.7712-15.485.3231-1.659 2.1219-2.754 5.1992-3.17l-.0386-.3c-3.2163.429-5.1029 1.614-5.4508 3.409-.7416 3.758 5.3669 9.817 15.9123 15.809z" fill="url(#bA)"/><path d="m51.088 132.607.1439-.261c-17.8931-10.163-28.2499-20.359-27.0399-26.619.5605-2.891 3.6584-4.803 8.9887-5.515l-.0402-.2961c-5.4684.7341-8.6548 2.7271-9.2469 5.7601-1.2533 6.389 9.1656 16.71 27.1944 26.931z" fill="url(#bB)"/><path d="m60.4564 157.826c3.0183 1.21 6.1416 2.141 9.3305 2.778l.0623-.294c-14.701-2.962-26.5755-11.563-33.4299-24.238-8.0818-14.958-8.4504-34.19-1.0103-52.7743l-.2782-.112c-7.473 18.6653-7.1075 37.9913 1.0328 53.0073 5.2931 9.85 13.8975 17.512 24.2928 21.633z" fill="url(#bC)"/><path d="m68.1652 159.973c.5304.213 1.0609.427 1.5913.64l.112-.278c-18.6168-7.026-33.1441-20.644-40.9403-38.367-7.3908-16.771-7.7417-35.2974-.994-52.1298l-.2782-.112c-6.7754 16.9117-6.4186 35.5098.9971 52.3678 7.6065 17.263 21.5996 30.666 39.5121 37.879z" fill="url(#bD)"/><path d="m38.1887 63.0006.254-.0313c20.1474-2.716 62.2823 9.6984 93.9293 27.6705l.151.0865.064-.1595c9.71-24.2437 11.031-45.3479 3.449-55.0824-3.279-4.209-8.155-6.0172-14.096-5.2452-14.71-8.3371-31.2388-9.9924-46.5583-4.6211-8.1652 2.885-15.5836 7.5561-21.7141 13.6726-6.5553 6.4519-11.7305 14.3475-15.3856 23.4673zm65.8243 13.7283c-25.0455-10.0851-50.7876-15.9459-65.3587-14.0925 3.6191-8.9878 8.754-16.7617 15.2192-23.1292 6.1011-6.0791 13.481-10.7211 21.6026-13.5881 15.2451-5.3366 31.6979-3.6949 46.3499 4.6235l.049.0194.049-.0058c5.929-.8069 10.614.9199 13.891 5.1148 7.483 9.6259 6.167 30.5467-3.457 54.6183-9.141-5.1361-18.61-9.666-28.345-13.5604z" fill="url(#bE)"/><path d="m59.4264 34.6351c17.3968-2.3406 53.7626 8.3757 81.0766 23.8874l.149-.2633c-27.366-15.5415-63.8177-26.2706-81.2643-23.9242z" fill="url(#bF)"/><path d="m89.3877 23.0163c10.1465-1.3675 31.3803 4.8765 47.3243 13.9479l.148-.2596c-15.995-9.0833-37.311-15.3602-47.5124-13.9847z" fill="url(#bG)"/><path d="m64.5901 64.7297.2782.112c9.0256-22.5322 22.7488-37.7283 36.7097-40.6464 7.443-1.5593 14.43.6376 20.218 6.3263l.212-.2163c-5.866-5.772-12.944-7.9796-20.492-6.4064-14.0608 2.9424-27.866 18.2133-36.9259 40.8308z" fill="url(#bH)"/><path d="m98.3232 74.6622.2782.112c12.6906-31.7301 21.1576-47.8872 22.9296-47.4369.177.0413.553.4342.225 3.048l.299.0386c.269-2.1551.119-3.2284-.449-3.3797-2.639-.6744-13.595 23.4299-23.2828 47.618z" fill="url(#bI)"/><path d="m153.061 128.237.254-.031c6.316-.849 10.011-3.151 10.689-6.645.633-3.285-1.393-7.459-5.668-12.142 3.111-23.034-3.763-46.9119-18.127-63.8908-.766-4.0502-2.172-7.4529-4.174-10.0394-3.288-4.2208-8.181-6.0276-14.152-5.2245l-.453.0547.386.2199c6.883 3.9387 13.017 9.0604 18.121 15.1297 2.072 11.0852-.558 27.0798-7.625 44.7795l-.049.1225.118.0478c11.505 6.5334 20.319 13.0786 25.649 18.8546-.858 6.344-2.492 12.559-4.865 18.504zm5.224-18.455c4.099 4.518 6.039 8.554 5.424 11.72-.64 3.312-4.159 5.511-10.177 6.369 2.3-5.818 3.896-11.891 4.753-18.089zm-17.966-63.6707c14.022 16.8542 20.748 40.3278 17.752 63.0247-5.359-5.758-14.091-12.2394-25.434-18.6908 6.961-17.4275 9.587-33.2208 7.682-44.3339zm-10.105-14.7296c2.218.9024 4.153 2.3856 5.6 4.2937 1.906 2.4489 3.247 5.6183 4.025 9.3804-4.961-5.7976-10.865-10.7154-17.464-14.5461 2.94-.3363 5.553-.0456 7.839.872z" fill="url(#bJ)"/><path d="m158.591 90.9724c5.468-.7337 8.655-2.7268 9.243-5.7618 1.244-6.3965-9.178-16.7101-27.188-26.9364l-.149.2633c17.895 10.1585 28.254 20.3605 27.044 26.6197-.561 2.891-3.657 4.7997-8.988 5.5114z" fill="url(#bK)"/><path d="m147.329 55.9039c3.217-.4292 5.103-1.6137 5.451-3.4091.729-3.7587-5.372-9.8149-15.915-15.8019l-.148.2596c10.431 5.9243 16.47 11.8564 15.753 15.4777-.319 1.6604-2.12 2.7589-5.197 3.1751z" fill="url(#bL)"/><path d="m156.3 107.59.278.112c7.478-18.6676 7.109-37.995-1.024-53.0298-6.893-12.7596-18.836-21.4267-33.621-24.4057l-.062.2939c14.701 2.9625 26.575 11.5633 33.43 24.2382 8.076 14.973 8.443 34.2091.999 52.7914z" fill="url(#bM)"/><path d="m163.775 121.08.278.112c6.772-16.914 6.42-35.5142-.999-52.3739-7.827-17.8082-22.428-31.4774-41.102-38.5353l-.112.2782c18.608 7.0184 33.141 20.6428 40.937 38.3656 7.391 16.7921 7.748 35.2914.998 52.1534z" fill="url(#bN)"/><path d="m87.7005 114.156c25.1905 10.144 51.0925 16.004 65.6025 14.045l.087-.013.028-.07c14.388-35.9353.291-79.8143-31.444-97.8349l-.045-.018-.049.0059c-20.224 2.7239-48.375 34.1474-62.7518 70.044l-.0493.122.1225.049c9.1876 5.181 18.7082 9.748 28.4991 13.67zm65.4885 13.761c-20.156 2.661-62.1422-9.706-93.7303-27.62 14.3422-35.7249 42.3113-66.9758 62.4053-69.709 31.559 17.9326 45.601 61.5738 31.325 97.329z" fill="url(#bO)"/><path d="m101.946 78.8112c21.748 8.7572 44.109 13.8298 56.652 12.1426l-.039-.3001c-17.383 2.3593-53.761-8.3704-81.0762-23.8874l-.1491.2633c7.9354 4.4655 16.1575 8.4013 24.6123 11.7816z" fill="url(#bP)"/><path d="m114.197 48.8049c12.716 5.1202 25.795 8.0849 33.133 7.0993l-.04-.2964c-10.149 1.3623-31.385-4.878-47.3288-13.9493l-.1476.2595c4.6374 2.6111 9.4424 4.9118 14.3834 6.8869z" fill="url(#bQ)"/><path d="m126.847 126.04.278.112c14.38-35.9034 12.083-78.8977-5.12-95.8386l-.212.2164c17.129 16.8553 19.397 59.6995 5.054 95.5102z" fill="url(#bR)"/><path d="m93.117 116.1.2782.112c14.3638-35.8626 27.2158-74.3429 28.6558-85.7772l-.299-.0385c-1.431 11.412-14.279 49.8596-28.635 85.7037z" fill="url(#bS)"/><path d="m59.3444 100.583.0642-.16c14.3424-35.8109 42.3854-67.1485 62.5114-69.8556l.453-.0547-.389-.2214c-14.737-8.3654-31.272-10.0059-46.5996-4.6464-8.1652 2.885-15.5836 7.556-21.7141 13.6725-6.5307 6.423-11.7 14.3038-15.3527 23.3858-6.2603.8588-9.9264 3.1546-10.599 6.6341-1.43 7.3949 10.6328 19.3392 31.4841 31.1797zm62.1016-70.2625c-20.152 3.0932-47.9533 34.2479-62.2469 69.8195-20.6383-11.7586-32.5887-23.5326-31.1857-30.7745.65-3.3593 4.258-5.575 10.4328-6.4036l.0832-.0139.0328-.0816c3.6535-9.0731 8.7915-16.9406 15.3148-23.3665 6.1011-6.0792 13.4811-10.7212 21.6026-13.5882 15.095-5.285 31.4124-3.7148 45.9664 4.4088z" fill="url(#bT)"/><path d="m77.3338 67.0298.1491-.2632c-17.8946-10.1585-28.2536-20.3606-27.0437-26.6198.5591-2.8873 3.657-4.7997 8.9872-5.5114l-.0386-.3001c-5.4684.7337-8.6549 2.7268-9.2433 5.7618-1.2376 6.3817 9.1797 16.7064 27.1893 26.9327z" fill="url(#bU)"/><path d="m99.8129 41.918.1476-.2595c-10.4268-5.9229-16.4694-11.8564-15.7512-15.4814.3231-1.6589 2.1182-2.7553 5.1992-3.17l-.0401-.2963c-3.2163.4292-5.1066 1.6122-5.4508 3.4092-.7453 3.7563 5.3521 9.8111 15.8953 15.798z" fill="url(#bV)"/><path d="m35.1365 83.1705.2782.112c14.3334-35.7888 53.1197-59.4422 86.4563-52.7219l.062-.2939c-33.4669-6.76-72.4108 16.9852-86.7965 52.9038z" fill="url(#bW)"/><path d="m27.6523 69.7157.2782.112c14.329-35.7776 56.4592-53.39 93.9125-39.2614l.112-.2782c-37.6046-14.2025-79.908 3.4867-94.3027 39.4276z" fill="url(#bX)"/><path d="m68.7998 163.311.2856.115 1.0201.389.4525.183c.4118.165 1.0024.369 1.5077.538 2.8542.982 5.7662 1.787 8.7195 2.412 5.3919 1.137 10.896 1.655 16.4055 1.545 2.7823-.072 5.5593-.286 8.3193-.642 2.539-.32 5.056-.793 7.538-1.418.426-.117.885-.239 1.361-.362 1.616-.427 3.448-.909 4.851-1.439.467-.174.979-.364 1.518-.557 1.197-.436 2.44-.888 3.451-1.322 1.772-.76 4.06-1.839 5.689-2.684 2.303-1.193 5.353-3.103 9.327-5.831 1.7-1.23 3.337-2.545 4.905-3.939 1.577-1.347 3.077-2.781 4.493-4.295 2.562-2.827 4.98-5.781 7.245-8.851 1.815-2.567 3.823-6.195 5.375-9.066.724-1.346 1.468-3.12 2.12-4.685l.308-.765c.848-1.999 1.566-4.051 2.15-6.143.138-.535.298-1.126.464-1.74.369-1.356.749-2.759.999-3.939.408-1.922.837-4.443 1.065-6.274.221-1.769.417-4.065.485-5.7107.06-1.4026.041-3.1736.022-4.7331l-.011-1.5995c-.046-2.1782-.236-4.3511-.567-6.5046-.46-3.0091-1.351-7.243-2.264-10.7879-.577-2.1771-1.301-4.3124-2.169-6.391l-.599-1.4226c-.479-1.1454-1.022-2.4506-1.522-3.4579-.93-1.8749-2.327-4.4458-3.556-6.5531-.877-1.5042-2.199-3.403-2.726-4.1497-.774-1.0963-1.854-2.4711-2.717-3.5943l-.256-.3273c-1.74-2.1959-3.631-4.268-5.659-6.2015-1.746-1.6384-3.083-2.8452-4.082-3.6828-1.31-1.0924-3.13-2.4718-4.395-3.3992-1.592-1.1628-3.732-2.5073-4.337-2.8888-1.379-.8572-2.545-1.4947-3.776-2.1629-.449-.2453-2.202-1.1493-3.165-1.5934-1.316-.6074-2.45-1.1328-4.431-1.9178-3.14-1.2264-6.361-2.2352-9.639-3.0191-1.589-.3898-3.467-.758-4.34-.9115-1.254-.216-3.122-.4809-5.004-.7213-1.069-.1287-2.589-.2496-3.7793-.3021-1.7678-.0738-3.861-.1106-5.3432-.0909-2.599.0311-6.0335.4027-8.3159.6432-.5289.0716-1.057.152-1.5785.2266-1.6357.2509-3.547.5762-5.0263.9634-.434.1141-.9139.2355-1.4117.3584-1.1427.2899-2.4385.6174-3.4536.9328-2.0273.5942-4.023 1.2912-5.9794 2.0885-.4676.2083-.9841.4314-1.5312.6766-1.1826.5067-2.4053 1.0274-3.3955 1.5167-1.8511.9143-4.0117 2.0833-5.5018 2.9576s-3.3611 2.0952-4.6397 3.0115c-.7006.4982-3.1351 2.2509-4.9163 3.7839-3.0295 2.5381-5.8464 5.3196-8.4226 8.3167-2.6878 3.1207-5.6312 7.5611-6.7713 9.3221-1.0604 1.6378-2.2724 3.9518-3.1168 5.5991-.593 1.1838-1.2552 2.7104-1.8383 4.062-.1971.4897-.4128.9503-.6009 1.3746-.9509 2.2486-1.7461 4.5598-2.3802 6.9174-.5362 1.9955-1.0756 4.063-1.3979 5.6878-.3846 1.9186-.7862 4.4468-.9961 6.2849-.2053 1.7624-.3732 4.0528-.426 5.7041-.0412 1.4405-.0149 3.2487.0326 4.8542l.0286 1.4815c.0703 1.8714.2412 3.7374.5121 5.5904.2074 1.519.5661 3.422.8831 5.097l.2206 1.262c.4721 2.258 1.0774 4.487 1.8128 6.674 1.1045 3.381 2.442 6.68 4.0027 9.876.964 1.888 2.3927 4.464 3.662 6.579.705 1.171 1.7331 2.633 2.5583 3.806l.1947.277c1.8367 2.524 3.8264 4.933 5.958 7.214.7593.78 2.6973 2.754 4.2542 4.166 1.1656 1.055 2.8784 2.486 4.2942 3.574 2.0785 1.601 4.2386 3.094 6.4715 4.472 1.6728 1.027 2.6392 1.55 3.7613 2.157.6548.354 2.2754 1.179 3.1663 1.59 1.264.586 2.0821.963 2.9709 1.325l1.1759.474zm54.1842-135.3877c1.692.6811 2.743 1.1647 3.945 1.7222.96.4425 2.703 1.3384 3.148 1.5822 1.23.6719 2.39 1.3027 3.761 2.1569 1.637 1.021 3.252 2.094 4.317 2.8762 1.256.937 3.075 2.2986 4.381 3.3894.997.8325 2.329 2.0326 4.071 3.6695 2.019 1.915 3.901 3.9693 5.633 6.1479l.256.3273c.849 1.1047 1.936 2.5039 2.713 3.5839.524.7416 1.837 2.6322 2.715 4.1111 1.227 2.1021 2.618 4.6663 3.546 6.536.495.9969 1.036 2.2969 1.515 3.4423l.6 1.4226c.866 2.0654 1.589 4.1885 2.161 6.3539.917 3.5374 1.804 7.7572 2.263 10.7611.322 2.1434.502 4.3056.54 6.4727.003.4967.013 1.0396.015 1.6009.015 1.558.036 3.3253-.025 4.7316-.07 1.64-.283 3.913-.484 5.685-.2 1.773-.659 4.335-1.063 6.25-.248 1.171-.626 2.571-.989 3.912-.17.613-.33 1.204-.469 1.742-.578 2.079-1.291 4.117-2.134 6.103l-.308.764c-.653 1.557-1.392 3.319-2.111 4.655-1.544 2.87-3.544 6.488-5.368 9.047-2.258 3.061-4.669 6.007-7.226 8.824-1.407 1.506-2.898 2.932-4.466 4.271-1.558 1.387-3.185 2.695-4.875 3.917-2.983 2.117-6.088 4.058-9.298 5.813-1.631.839-3.903 1.92-5.67 2.679-1.004.428-2.237.879-3.435 1.315-.535.194-1.049.38-1.516.554-1.393.525-3.22 1.005-4.827 1.431-.48.122-.934.245-1.361.362-2.468.62-4.97 1.091-7.495 1.409-2.75.355-5.5168.569-8.289.641-8.5093.167-16.9814-1.167-25.027-3.943-.4905-.163-1.0744-.372-1.4891-.531l-.4488-.181-1.0164-.387c-.3042-.123-.6751-.272-1.0201-.411l-.4414-.178c-.8829-.355-1.6995-.736-2.9242-1.302-.9079-.422-2.5174-1.242-3.1723-1.597-1.1146-.604-2.081-1.126-3.7442-2.145-2.2258-1.372-4.3783-2.858-6.4485-4.455-1.3988-1.076-3.1152-2.509-4.2749-3.558-1.5547-1.406-3.483-3.372-4.2409-4.156-2.1193-2.268-4.0989-4.663-5.9277-7.172l-.1931-.28c-.8231-1.168-1.8474-2.628-2.548-3.789-1.2671-2.11-2.701-4.683-3.6531-6.558-1.5529-3.184-2.8839-6.471-3.9835-9.838-.7323-2.174-1.3343-4.39-1.8025-6.636l-.2348-1.258c-.3147-1.67-.6727-3.564-.8756-5.095-.2714-1.839-.4449-3.692-.5197-5.5499l-.027-1.4852c-.0342-1.5958-.0731-3.4048-.0312-4.8363.0498-1.6439.2184-3.9254.4207-5.6804.2122-1.8329.6078-4.3463.9894-6.2575.3282-1.618.8661-3.6818 1.3994-5.6699.6281-2.3427 1.4174-4.6391 2.3623-6.8729.1747-.434.3904-.8946.6039-1.382.5801-1.3442 1.237-2.8686 1.8271-4.045.8265-1.6458 2.0229-3.9531 3.1033-5.5657 1.1402-1.761 4.0871-6.1784 6.7578-9.2887 2.5661-2.9903 5.3721-5.7661 8.39-8.2996 1.773-1.5234 4.1955-3.268 4.8962-3.7662 1.2688-.903 3.0826-2.078 4.6196-2.9937 1.537-.9158 3.6373-2.053 5.5018-2.9576.9775-.4686 2.2025-1.0056 3.3798-1.5101.5203-.2215 1.0406-.4431 1.535-.6751 1.946-.7951 3.9319-1.489 5.9497-2.0789l.1241-.0405c-15.8704 5.6797-28.9526 18.4914-36.2512 35.9641-.1195.2968-.2405.5972-.3615.8977l-.0523.1298c-14.4117 35.9297-.2845 79.8206 31.4355 97.8356l.1477-.26c-31.6073-17.952-45.6556-61.6644-31.331-97.4525l.0523-.1298c8.578-21.3029 25.7118-35.8369 46.067-39.1762l1.5711-.2295c2.2735-.2398 5.7176-.6032 8.2854-.6426 1.4733-.0189 3.5628.0164 5.3255.0924 1.1844.0458 2.6944.1711 3.7584.302 1.879.2263 3.743.4898 4.988.7154.871.1483 2.737.5157 4.318.9025 3.263.7896 6.468 1.8008 9.593 3.0264z" fill="url(#bY)"/></svg>