<svg width="17" height="14" viewBox="0 0 17 14" fill="none" xmlns="http://www.w3.org/2000/svg">
<mask id="mask0_734_17620" style="mask-type:luminance" maskUnits="userSpaceOnUse" x="0" y="0" width="17" height="14">
<path d="M16.7005 0.849609H0.980469V13.1496H16.7005V0.849609Z" fill="white"/>
</mask>
<g mask="url(#mask0_734_17620)">
<path d="M3.53474 10.2378C3.6296 10.1432 3.76004 10.0879 3.8984 10.0879H16.4443C16.6736 10.0879 16.7882 10.3641 16.6261 10.5259L14.1478 13.0001C14.0529 13.0948 13.9225 13.1501 13.7842 13.1501H1.23819C1.00893 13.1501 0.894307 12.8738 1.05637 12.7121L3.53474 10.2378Z" fill="url(#paint0_linear_734_17620)"/>
<path d="M3.53474 0.999561C3.63356 0.904857 3.764 0.849609 3.8984 0.849609H16.4443C16.6736 0.849609 16.7882 1.12585 16.6261 1.28761L14.1478 3.76183C14.0529 3.85651 13.9225 3.91177 13.7842 3.91177H1.23819C1.00893 3.91177 0.894307 3.63553 1.05637 3.47377L3.53474 0.999561Z" fill="url(#paint1_linear_734_17620)"/>
<path d="M14.1478 5.58939C14.0529 5.49465 13.9225 5.43945 13.7842 5.43945H1.23819C1.00893 5.43945 0.894307 5.71563 1.05637 5.87745L3.53474 8.35167C3.6296 8.44635 3.76004 8.50161 3.8984 8.50161H16.4443C16.6736 8.50161 16.7882 8.22537 16.6261 8.06355L14.1478 5.58939Z" fill="url(#paint2_linear_734_17620)"/>
</g>
<defs>
<linearGradient id="paint0_linear_734_17620" x1="15.2458" y1="-0.627964" x2="6.58592" y2="15.9872" gradientUnits="userSpaceOnUse">
<stop stop-color="#00FFA3"/>
<stop offset="1" stop-color="#DC1FFF"/>
</linearGradient>
<linearGradient id="paint1_linear_734_17620" x1="11.4492" y1="-2.60723" x2="2.78931" y2="14.0078" gradientUnits="userSpaceOnUse">
<stop stop-color="#00FFA3"/>
<stop offset="1" stop-color="#DC1FFF"/>
</linearGradient>
<linearGradient id="paint2_linear_734_17620" x1="13.3354" y1="-1.62362" x2="4.67552" y2="14.9915" gradientUnits="userSpaceOnUse">
<stop stop-color="#00FFA3"/>
<stop offset="1" stop-color="#DC1FFF"/>
</linearGradient>
</defs>
</svg>
