<svg fill="none" height="60" viewBox="0 0 61 60" width="61" xmlns="http://www.w3.org/2000/svg" xmlns:xlink="http://www.w3.org/1999/xlink"><linearGradient id="a"><stop offset="0" stop-color="#34c796"/><stop offset="1" stop-color="#0b7a55"/></linearGradient><linearGradient id="b" gradientUnits="userSpaceOnUse" x1="30.1006" x2="30.1006" xlink:href="#a" y1="0" y2="60"/><linearGradient id="c" gradientUnits="userSpaceOnUse" x1="40.0891" x2="40.0891" xlink:href="#a" y1="34.293" y2="45.6263"/><linearGradient id="d" gradientUnits="userSpaceOnUse" x1="20.1011" x2="20.1011" xlink:href="#a" y1="14.293" y2="25.6263"/><linearGradient id="e" gradientUnits="userSpaceOnUse" x1="34.5942" x2="34.5942" xlink:href="#a" y1="17.334" y2="33.6807"/><linearGradient id="f" gradientUnits="userSpaceOnUse" x1="25.5544" x2="25.5544" xlink:href="#a" y1="32.4258" y2="33.4263"/><linearGradient id="g" gradientUnits="userSpaceOnUse" x1="25.9344" x2="25.9344" xlink:href="#a" y1="35.4395" y2="36.4395"/><linearGradient id="h" gradientUnits="userSpaceOnUse" x1="25.6669" x2="25.6669" xlink:href="#a" y1="26.1992" y2="42.6659"/><circle cx="30.1006" cy="30" fill="#151722" r="29" stroke="url(#b)" stroke-width="2"/><path d="m44.7665 34.293c-.5466 0-1 .4533-1 1 0 3.9466-2.7466 7.2533-6.44 8.12l.36-.6c.28-.48.1334-1.0934-.3466-1.3734-.4667-.28-1.0934-.1333-1.3734.3467l-1.4 2.3333c-.1866.3067-.1866.6934-.0133 1 .1733.32.5067.5067.8667.5067 5.6933 0 10.3333-4.64 10.3333-10.3333.0133-.5467-.44-1-.9867-1z" fill="url(#c)"/><path d="m24.7669 14.293c-5.6933 0-10.3333 4.64-10.3333 10.3333 0 .5467.4533 1 1 1s1-.4533 1-1c0-3.9467 2.7467-7.2533 6.44-8.12l-.36.6c-.28.48-.1333 1.0933.3467 1.3733.4666.28 1.0933.1334 1.3733-.3466l1.4-2.3334c.1733-.3066.1867-.68 0-1-.1733-.3066-.5067-.5066-.8667-.5066z" fill="url(#d)"/><path d="m42.7676 25.5607c0 4.1066-2.9867 7.4933-6.8934 8.12 0-.0134 0-.0134 0-.0267-.3866-4.9734-4.4133-9.0267-9.4533-9.4267.6267-3.9066 4.0133-6.8933 8.12-6.8933 4.5467 0 8.2267 3.68 8.2267 8.2267z" fill="url(#e)"/><path d="m27.1811 32.9324c0-.2-.2267-.5066-.5067-.5066h-2.7467v1h2.7467c.28.0133.5067-.2134.5067-.4934z" fill="url(#f)"/><path d="m27.2077 35.4395h-.5333-2.7467v1h3.2934c.4266 0 .72-.2667.72-.5067s-.3067-.4933-.7334-.4933z" fill="url(#g)"/><path d="m33.8736 33.7992c-.3067-4.04-3.5333-7.2666-7.5733-7.5733-.2134-.0133-.4134-.0267-.64-.0267-4.5467 0-8.2267 3.68-8.2267 8.24 0 4.5467 3.68 8.2267 8.2267 8.2267 4.5466 0 8.24-3.68 8.24-8.2267 0-.2266-.0134-.4266-.0267-.64z" fill="url(#h)"/></svg>