<svg fill="none" height="40" viewBox="0 0 40 40" width="40" xmlns="http://www.w3.org/2000/svg" xmlns:xlink="http://www.w3.org/1999/xlink"><linearGradient id="a"><stop offset="0" stop-color="#34c796"/><stop offset="1" stop-color="#0b7a55"/></linearGradient><linearGradient id="b" gradientUnits="userSpaceOnUse" x1="20" x2="20" xlink:href="#a" y1="0" y2="40"/><linearGradient id="c" gradientUnits="userSpaceOnUse" x1="26.66" x2="26.66" xlink:href="#a" y1="22.8633" y2="30.4188"/><linearGradient id="d" gradientUnits="userSpaceOnUse" x1="13.334" x2="13.334" xlink:href="#a" y1="9.5293" y2="17.0849"/><linearGradient id="e" gradientUnits="userSpaceOnUse" x1="22.9948" x2="22.9948" xlink:href="#a" y1="11.5566" y2="22.4544"/><linearGradient id="f" gradientUnits="userSpaceOnUse" x1="16.9682" x2="16.9682" xlink:href="#a" y1="21.6191" y2="22.2862"/><linearGradient id="g" gradientUnits="userSpaceOnUse" x1="17.2216" x2="17.2216" xlink:href="#a" y1="23.627" y2="24.2936"/><linearGradient id="h" gradientUnits="userSpaceOnUse" x1="17.0446" x2="17.0446" xlink:href="#a" y1="17.4668" y2="28.4446"/><circle cx="20" cy="20" fill="#151722" r="19" stroke="url(#b)" stroke-width="2"/><path d="m29.7783 22.8633c-.3645 0-.6667.3022-.6667.6666 0 2.6312-1.8311 4.8356-4.2933 5.4134l.24-.4c.1866-.32.0889-.7289-.2311-.9156-.3112-.1866-.7289-.0889-.9156.2311l-.9333 1.5556c-.1245.2044-.1245.4622-.0089.6667.1155.2133.3378.3377.5778.3377 3.7955 0 6.8888-3.0933 6.8888-6.8889.0089-.3644-.2933-.6666-.6577-.6666z" fill="url(#c)"/><path d="m16.4446 9.5293c-3.7956 0-6.88894 3.0933-6.88894 6.8889 0 .3644.30223.6667.66664.6667.3645 0 .6667-.3023.6667-.6667 0-2.6311 1.8311-4.8356 4.2933-5.4133l-.24.4c-.1866.32-.0889.7288.2311.9155.3112.1867.7289.0889.9156-.2311l.9333-1.5556c.1156-.2044.1245-.4533 0-.66663-.1155-.20444-.3377-.33777-.5777-.33777z" fill="url(#d)"/><path d="m28.4437 17.0411c0 2.7378-1.9911 4.9955-4.5956 5.4133 0-.0089 0-.0089 0-.0178-.2578-3.3155-2.9422-6.0177-6.3022-6.2844.4178-2.6044 2.6756-4.5956 5.4133-4.5956 3.0311 0 5.4845 2.4534 5.4845 5.4845z" fill="url(#e)"/><path d="m18.0527 21.9569c0-.1333-.1511-.3378-.3378-.3378h-1.8311v.6667h1.8311c.1867.0089.3378-.1422.3378-.3289z" fill="url(#f)"/><path d="m18.0705 23.627h-.3556-1.8311v.6666h2.1955c.2845 0 .48-.1778.48-.3378s-.2044-.3288-.4888-.3288z" fill="url(#g)"/><path d="m22.5157 22.5335c-.2045-2.6934-2.3556-4.8445-5.0489-5.0489-.1422-.0089-.2756-.0178-.4267-.0178-3.0311 0-5.4844 2.4533-5.4844 5.4933 0 3.0311 2.4533 5.4845 5.4844 5.4845s5.4933-2.4534 5.4933-5.4845c0-.1511-.0088-.2844-.0177-.4266z" fill="url(#h)"/></svg>