<svg width="43" height="42" viewBox="0 0 43 42" fill="none" xmlns="http://www.w3.org/2000/svg">
<rect x="0.5" width="42" height="42" rx="8" fill="white" fill-opacity="0.03"/>
<path d="M31.14 18.8984H22.75V24.3784C22.75 24.7884 22.41 25.1284 22 25.1284C21.59 25.1284 21.25 24.7884 21.25 24.3784V18.8984H12.86C12.38 18.8984 12 19.2784 12 19.7584C12 25.6484 16.11 29.7584 22 29.7584C27.89 29.7584 32 25.6484 32 19.7584C32 19.2784 31.62 18.8984 31.14 18.8984Z" fill="white" fill-opacity="0.2"/>
<path d="M22.7484 14.7997L24.3084 16.3597C24.5984 16.6497 25.0784 16.6497 25.3684 16.3597C25.6584 16.0697 25.6584 15.5897 25.3684 15.2997L22.5184 12.4597C22.2284 12.1697 21.7484 12.1697 21.4584 12.4597L18.6184 15.3097C18.4784 15.4597 18.3984 15.6497 18.3984 15.8397C18.3984 16.0297 18.4684 16.2197 18.6184 16.3697C18.9084 16.6597 19.3884 16.6597 19.6784 16.3697L21.2384 14.8097V18.8997H22.7384V14.7997H22.7484Z" fill="white" fill-opacity="0.2"/>
</svg>
