<svg fill="none" height="40" viewBox="0 0 40 40" width="40" xmlns="http://www.w3.org/2000/svg" xmlns:xlink="http://www.w3.org/1999/xlink"><linearGradient id="a"><stop offset="0" stop-color="#34c796"/><stop offset="1" stop-color="#0b7a55"/></linearGradient><linearGradient id="b" gradientUnits="userSpaceOnUse" x1="20" x2="20" xlink:href="#a" y1="0" y2="40"/><linearGradient id="c" gradientUnits="userSpaceOnUse" x1="19.9823" x2="19.9823" xlink:href="#a" y1="11.1113" y2="28.889"/><circle cx="20" cy="20" fill="#151722" r="19" stroke="url(#b)" stroke-width="2"/><path clip-rule="evenodd" d="m13.111 15.3335c0-2.3288 1.8933-4.2222 4.2222-4.2222s4.2222 1.8934 4.2222 4.2222c-.0088 2.2845-1.7955 4.1334-4.0711 4.2134h-.0177-.0445c-.0533-.0089-.1244-.0089-.1955 0-2.3289-.08-4.1156-1.9289-4.1156-4.2134zm-.2847 6.5777c2.4978-1.6533 6.5422-1.6533 9.0222 0 1.12.7467 1.7334 1.76 1.7423 2.8534 0 1.1022-.6223 2.1155-1.7423 2.8711-1.2444.8355-2.88 1.2533-4.5155 1.2533-1.6356 0-3.2711-.4178-4.5156-1.2533-1.12-.7467-1.7422-1.76-1.7422-2.8534 0-1.0933.6222-2.1155 1.7511-2.8711zm14.2757-6.0531c.1422 1.7244-1.0845 3.2355-2.7822 3.44h-.0178-.0267c-.0533 0-.1066 0-.1511.0178-.8622.0444-1.6533-.2312-2.2489-.7378.9156-.8178 1.44-2.0445 1.3334-3.3778-.0623-.72-.3112-1.3778-.6845-1.9378.3378-.1689.7289-.2755 1.1289-.3111 1.7422-.1511 3.2978 1.1467 3.4489 2.9067zm.231 10.338c.9244-.5066 1.4756-1.2533 1.5467-2.1155.08-.8534-.3378-1.68-1.1556-2.3378-1.52-1.2267-3.9911-1.6089-5.9555-1.04.7555.2755 1.4488.6489 2.0444 1.12 1.0489.8444 1.5733 1.9022 1.4844 3.0044-.0711.7645-.4444 1.4845-1.0844 2.0623 1.1111.0266 2.2311-.2045 3.12-.6934z" fill="url(#c)" fill-rule="evenodd"/></svg>