<svg fill="none" height="42" viewBox="0 0 42 42" width="42" xmlns="http://www.w3.org/2000/svg"><rect fill="#1d202f" height="42" rx="8" width="42"/><path clip-rule="evenodd" d="m13.2502 15.75c0-2.62 2.13-4.75 4.75-4.75s4.75 2.13 4.75 4.75c-.01 2.57-2.02 4.65-4.58 4.74h-.02-.05c-.06-.01-.14-.01-.22 0-2.62-.09-4.63-2.17-4.63-4.74zm-.3202 7.3999c2.81-1.86 7.36-1.86 10.15 0 1.26.84 1.95 1.98 1.96 3.21 0 1.24-.7 2.38-1.96 3.23-1.4.94-3.24 1.41-5.08 1.41s-3.68-.47-5.08-1.41c-1.26-.84-1.96-1.98-1.96-3.21s.7-2.38 1.97-3.23zm16.0601-6.8098c.16 1.94-1.22 3.64-3.13 3.87h-.02-.03c-.06 0-.12 0-.17.02-.97.05-1.86-.26-2.53-.83 1.03-.92 1.62-2.3 1.5-3.8-.07-.81-.35-1.55-.77-2.18.38-.19.82-.31 1.27-.35 1.96-.17 3.71 1.29 3.88 3.27zm.2599 11.6303c1.04-.57 1.66-1.41 1.74-2.38.09-.96-.38-1.89-1.3-2.63-1.71-1.38-4.49-1.81-6.7-1.17.85.31 1.63.73 2.3 1.26 1.18.95 1.77 2.14 1.67 3.38-.08.86-.5 1.67-1.22 2.32 1.25.03 2.51-.23 3.51-.78z" fill="#434665" fill-rule="evenodd"/></svg>