<svg fill="none" height="42" viewBox="0 0 42 42" width="42" xmlns="http://www.w3.org/2000/svg"><rect fill="#1d202f" height="42" rx="8" width="42"/><g fill="#434665"><path d="m30.639 18.8984h-8.39v5.48c0 .41-.34.75-.75.75s-.75-.34-.75-.75v-5.48h-8.39c-.48 0-.86.38-.86.86 0 5.89 4.11 10 10 10s10-4.11 10-10c0-.48-.38-.86-.86-.86z"/><path d="m22.2504 14.7997 1.56 1.56c.29.29.77.29 1.06 0s.29-.77 0-1.06l-2.85-2.84c-.29-.29-.77-.29-1.06 0l-2.84 2.85c-.14.15-.22.34-.22.53s.07.38.22.53c.29.29.77.29 1.06 0l1.56-1.56v4.09h1.5v-4.1z"/></g></svg>