<svg fill="none" height="60" viewBox="0 0 61 60" width="61" xmlns="http://www.w3.org/2000/svg" xmlns:xlink="http://www.w3.org/1999/xlink"><linearGradient id="a"><stop offset="0" stop-color="#34c796"/><stop offset="1" stop-color="#0b7a55"/></linearGradient><linearGradient id="b" gradientUnits="userSpaceOnUse" x1="30.5" x2="30.5" xlink:href="#a" y1="0" y2="60"/><linearGradient id="c" gradientUnits="userSpaceOnUse" x1="30.4739" x2="30.4739" xlink:href="#a" y1="16.666" y2="43.3325"/><circle cx="30.5" cy="30" fill="#151722" r="29" stroke="url(#b)" stroke-width="2"/><path clip-rule="evenodd" d="m20.167 22.9993c0-3.4933 2.84-6.3333 6.3333-6.3333 3.4934 0 6.3334 2.84 6.3334 6.3333-.0134 3.4267-2.6934 6.2-6.1067 6.32h-.0267-.0666c-.08-.0133-.1867-.0133-.2934 0-3.4933-.12-6.1733-2.8933-6.1733-6.32zm-.4271 9.8666c3.7467-2.48 9.8134-2.48 13.5334 0 1.68 1.12 2.6 2.64 2.6133 4.28 0 1.6533-.9333 3.1733-2.6133 4.3066-1.8667 1.2534-4.32 1.88-6.7734 1.88-2.4533 0-4.9066-.6266-6.7733-1.88-1.68-1.12-2.6133-2.64-2.6133-4.28s.9333-3.1733 2.6266-4.3066zm21.4136-9.0798c.2133 2.5867-1.6267 4.8534-4.1734 5.16h-.0266-.04c-.08 0-.16 0-.2267.0267-1.2933.0667-2.48-.3467-3.3733-1.1067 1.3733-1.2266 2.16-3.0666 2-5.0666-.0934-1.08-.4667-2.0667-1.0267-2.9067.5067-.2533 1.0933-.4133 1.6933-.4667 2.6134-.2266 4.9467 1.72 5.1734 4.36zm.3465 15.5071c1.3867-.76 2.2133-1.88 2.32-3.1733.12-1.28-.5067-2.52-1.7333-3.5067-2.28-1.84-5.9867-2.4133-8.9334-1.56 1.1334.4133 2.1734.9733 3.0667 1.68 1.5733 1.2667 2.36 2.8533 2.2267 4.5067-.1067 1.1466-.6667 2.2266-1.6267 3.0933 1.6667.04 3.3467-.3067 4.68-1.04z" fill="url(#c)" fill-rule="evenodd"/></svg>