<svg fill="none" height="60" viewBox="0 0 61 60" width="61" xmlns="http://www.w3.org/2000/svg" xmlns:xlink="http://www.w3.org/1999/xlink"><linearGradient id="a"><stop offset="0" stop-color="#34c796"/><stop offset="1" stop-color="#0b7a55"/></linearGradient><linearGradient id="b" gradientUnits="userSpaceOnUse" x1="30.9004" x2="30.9004" xlink:href="#a" y1="0" y2="60"/><linearGradient id="c" gradientUnits="userSpaceOnUse" x1="30.9007" x2="30.9007" xlink:href="#a" y1="16.666" y2="43.3327"/><circle cx="30.9004" cy="30" fill="#151722" r="29" stroke="url(#b)" stroke-width="2"/><path d="m30.9007 16.666c-7.36 0-13.3333 5.9733-13.3333 13.3333s5.9733 13.3334 13.3333 13.3334 13.3333-5.9734 13.3333-13.3334-5.9733-13.3333-13.3333-13.3333zm-4.36 7.5467c1.08 0 1.9733.88 1.9733 1.9733 0 1.08-.88 1.9733-1.9733 1.9733-1.08 0-1.9733-.88-1.9733-1.9733s.88-1.9733 1.9733-1.9733zm.16 10.8533c-.2.2-.4533.2933-.7067.2933-.2533 0-.5066-.0933-.7066-.2933-.3867-.3867-.3867-1.0267 0-1.4133l8.7333-8.7334c.3867-.3866 1.0267-.3866 1.4133 0 .3867.3867.3867 1.0267 0 1.4134zm8.56.72c-1.08 0-1.9733-.88-1.9733-1.9733 0-1.08.88-1.9734 1.9733-1.9734 1.08 0 1.9733.88 1.9733 1.9734 0 1.0933-.88 1.9733-1.9733 1.9733z" fill="url(#c)"/></svg>