<svg fill="none" height="40" viewBox="0 0 40 40" width="40" xmlns="http://www.w3.org/2000/svg" xmlns:xlink="http://www.w3.org/1999/xlink"><linearGradient id="a"><stop offset="0" stop-color="#34c796"/><stop offset="1" stop-color="#0b7a55"/></linearGradient><linearGradient id="b" gradientUnits="userSpaceOnUse" x1="20" x2="20" xlink:href="#a" y1="0" y2="40"/><linearGradient id="c" gradientUnits="userSpaceOnUse" x1="20.0001" x2="20.0001" xlink:href="#a" y1="10.4453" y2="29.5568"/><circle cx="20" cy="20" fill="#151722" r="19" stroke="url(#b)" stroke-width="2"/><g fill="url(#c)"><path d="m20.0001 29.5568c-3.5555 0-6.4444-2.5511-6.4444-5.6889v-3.2889c0-.3645.3022-.6667.6666-.6667.3645 0 .6667.3022.6667.6667 0 2.3289 2.1956 4.0889 5.1111 4.0889 2.9156 0 5.1111-1.76 5.1111-4.0889 0-.3645.3022-.6667.6667-.6667.3644 0 .6667.3022.6667.6667v3.2889c0 3.1378-2.8889 5.6889-6.4445 5.6889zm-5.1111-5.5911c.0622 2.3555 2.3289 4.2577 5.1111 4.2577s5.0489-1.9022 5.1111-4.2577c-1.1555 1.2533-2.9866 2.0355-5.1111 2.0355-2.1244 0-3.9467-.7822-5.1111-2.0355z"/><path d="m20.0001 21.5564c-2.4533 0-4.6578-1.1022-5.7333-2.88-.4623-.7555-.7111-1.6355-.7111-2.5422 0-1.5289.6844-2.9689 1.92-4.0533 1.2089-1.0578 2.8177-1.6356 4.5244-1.6356s3.3067.5778 4.5245 1.6267c1.2355 1.0933 1.92 2.5333 1.92 4.0622 0 .9067-.2489 1.7778-.7111 2.5422-1.0756 1.7778-3.2801 2.88-5.7334 2.88zm0-9.7778c-1.3867 0-2.6844.4623-3.6533 1.3156-.9422.8178-1.4578 1.9022-1.4578 3.04 0 .6667.1778 1.2889.5155 1.8489.8445 1.3867 2.6045 2.24 4.5956 2.24s3.7511-.8622 4.5956-2.24c.3466-.56.5155-1.1822.5155-1.8489 0-1.1378-.5155-2.2222-1.4666-3.0578-.9689-.8355-2.2578-1.2978-3.6445-1.2978z"/><path d="m20.0001 26.0012c-3.6711 0-6.4444-2.3289-6.4444-5.4222v-4.4448c0-3.1378 2.8889-5.6889 6.4444-5.6889 1.7067 0 3.3067.5778 4.5245 1.6267 1.2355 1.0933 1.92 2.5333 1.92 4.0622v4.4448c0 3.0933-2.7734 5.4222-6.4445 5.4222zm0-14.2226c-2.8178 0-5.1111 1.9556-5.1111 4.3556v4.4448c0 2.3289 2.1956 4.0889 5.1111 4.0889 2.9156 0 5.1111-1.76 5.1111-4.0889v-4.4448c0-1.1378-.5155-2.2222-1.4666-3.0578-.9689-.8355-2.2578-1.2978-3.6445-1.2978z"/></g></svg>