<svg fill="none" height="42" viewBox="0 0 42 42" width="42" xmlns="http://www.w3.org/2000/svg"><rect fill="#1d202f" height="42" rx="8" width="42"/><g fill="#434665"><path d="m30.139 18.8984h-8.46v3.67l1.57-1.57c.29-.29.77-.29 1.06 0s.29.77 0 1.06l-2.85 2.84c-.29.29-.77.29-1.06 0l-2.85-2.84c-.15-.15-.22-.34-.22-.53s.08-.38.23-.53c.29-.29.77-.29 1.06 0l1.56 1.56v-3.66h-8.32c-.48 0-.86.38-.86.86 0 5.89 4.11 10 10 10s10-4.11 10-10c0-.48-.38-.86-.86-.86z"/><path d="m21.6797 12.9883c0-.41-.34-.75-.75-.75s-.75.34-.75.75v5.9h1.5z"/></g></svg>