<svg fill="none" height="60" viewBox="0 0 61 60" width="61" xmlns="http://www.w3.org/2000/svg" xmlns:xlink="http://www.w3.org/1999/xlink"><linearGradient id="a"><stop offset="0" stop-color="#34c796"/><stop offset="1" stop-color="#0b7a55"/></linearGradient><linearGradient id="b" gradientUnits="userSpaceOnUse" x1="30.2998" x2="30.2998" xlink:href="#a" y1="0" y2="60"/><linearGradient id="c" gradientUnits="userSpaceOnUse" x1="30.3026" x2="30.3026" xlink:href="#a" y1="16.668" y2="43.3335"/><circle cx="30.2998" cy="30" fill="#151722" r="29" stroke="url(#b)" stroke-width="2"/><path clip-rule="evenodd" d="m37.0333 17.1072c2.8934.8533 5.3067 3.2667 6.16 6.16.6534 2.2.5867 3.72-.2266 4.76-.9467 1.2667-2.6667 1.4133-3.8667 1.4133h-3.8267c-2.9333 0-4.4266-1.6666-4.4266-4.9466v-3.32c0-1.2134.1466-2.92 1.4133-3.8667 1.0533-.7867 2.5733-.84 4.7733-.2zm1.1064 14.0797c.52 0 1.0266.2266 1.3733.6266.3467.3867.5067.9067.44 1.4267-.4 3.1333-2.12 6.0133-4.7067 7.8933-1.9866 1.4534-4.32 2.2-6.7333 2.2-.7333 0-1.4667-.0666-2.2-.2133-4.6-.8667-8.2667-4.5333-9.1333-9.12-.6-3.1733.0933-6.3467 1.9866-8.9467 1.88-2.5866 4.76-4.3066 7.8934-4.7066.5066-.0667 1.04.0933 1.4266.44.4.3466.6267.8533.6267 1.3733v4.7733c0 2.3467 1.9067 4.2534 4.2533 4.2534z" fill="url(#c)" fill-rule="evenodd"/></svg>