<svg fill="none" height="42" viewBox="0 0 42 42" width="42" xmlns="http://www.w3.org/2000/svg"><rect fill="#1d202f" height="42" rx="8" width="42"/><path clip-rule="evenodd" d="m27.78 17.28v1.25c2.8.35 3.72 1.77 3.72 5.26v1.86c0 4.1-1.25 5.35-5.35 5.35h-9.3c-4.1 0-5.35-1.25-5.35-5.35v-1.86c0-3.49.92-4.91 3.72-5.26v-1.25c0-2.7.65-6.28 6.28-6.28s6.28 3.58 6.28 6.28zm-9.3 7.44c0 1.66 1.35 3.02 3.02 3.02s3.02-1.35 3.02-3.02c0-1.66-1.36-3.02-3.02-3.02s-3.02 1.35-3.02 3.02zm-1.86-6.28h.23v.01h9.3.23v-1.17c0-2.93-.83-4.88-4.88-4.88s-4.88 1.95-4.88 4.88zm6.5111 6.2798c0 .9003-.7298 1.63-1.63 1.63s-1.63-.7297-1.63-1.63c0-.9002.7298-1.63 1.63-1.63s1.63.7298 1.63 1.63z" fill="#434665" fill-rule="evenodd"/></svg>