<svg fill="none" height="60" viewBox="0 0 61 60" width="61" xmlns="http://www.w3.org/2000/svg" xmlns:xlink="http://www.w3.org/1999/xlink"><linearGradient id="a"><stop offset="0" stop-color="#34c796"/><stop offset="1" stop-color="#0b7a55"/></linearGradient><linearGradient id="b" gradientUnits="userSpaceOnUse" x1="30.5" x2="30.5" xlink:href="#a" y1="0" y2="60"/><linearGradient id="c" gradientUnits="userSpaceOnUse" x1="30.5003" x2="30.5003" xlink:href="#a" y1="16.666" y2="43.334"/><circle cx="30.5" cy="30" fill="#151722" r="29" stroke="url(#b)" stroke-width="2"/><path clip-rule="evenodd" d="m27.5 41.334v-22.0013c0-1.4667.6-2.6667 2.4-2.6667h1.2c1.8 0 2.4 1.2 2.4 2.6667v22.0013h3.667v-7.3333c0-1.4667.5333-2.6667 2.1333-2.6667h1.0667c1.6 0 2.1333 1.2 2.1333 2.6667v7.3333h1.3334c.5466 0 1 .4533 1 1s-.4534 1-1 1h-1.3334-5.3333-20c-.5467 0-1-.4533-1-1s.4533-1 1-1h1.333v-14.0013c0-1.4667.5333-2.6667 2.1333-2.6667h1.0667c1.6 0 2.1333 1.2 2.1333 2.6667v14.0013z" fill="url(#c)" fill-rule="evenodd"/></svg>