<svg fill="none" height="40" viewBox="0 0 40 40" width="40" xmlns="http://www.w3.org/2000/svg" xmlns:xlink="http://www.w3.org/1999/xlink"><linearGradient id="a"><stop offset="0" stop-color="#34c796"/><stop offset="1" stop-color="#0b7a55"/></linearGradient><linearGradient id="b" gradientUnits="userSpaceOnUse" x1="20" x2="20" xlink:href="#a" y1="0" y2="40"/><linearGradient id="c" gradientUnits="userSpaceOnUse" x1="19.9996" x2="19.9996" xlink:href="#a" y1="11.1113" y2="19.5469"/><linearGradient id="d" gradientUnits="userSpaceOnUse" x1="20" x2="20" xlink:href="#a" y1="20.6719" y2="28.8897"/><circle cx="20" cy="20" fill="#151722" r="19" stroke="url(#b)" stroke-width="2"/><path d="m19.9996 11.1113c-2.3289 0-4.2223 1.8934-4.2223 4.2223 0 2.2844 1.7867 4.1333 4.1156 4.2133.0711-.0089.1422-.0089.1956 0h.0444.0178c2.2755-.08 4.0622-1.9289 4.0711-4.2133 0-2.3289-1.8933-4.2223-4.2222-4.2223z" fill="url(#c)"/><path d="m24.5155 21.9119c-2.48-1.6534-6.5244-1.6534-9.0222 0-1.1289.7555-1.7511 1.7778-1.7511 2.8711s.6222 2.1067 1.7422 2.8533c1.2445.8356 2.88 1.2534 4.5156 1.2534 1.6355 0 3.2711-.4178 4.5155-1.2534 1.12-.7555 1.7422-1.7689 1.7422-2.8711-.0088-1.0933-.6222-2.1067-1.7422-2.8533z" fill="url(#d)"/></svg>