<svg fill="none" height="40" viewBox="0 0 40 40" width="40" xmlns="http://www.w3.org/2000/svg" xmlns:xlink="http://www.w3.org/1999/xlink"><linearGradient id="a"><stop offset="0" stop-color="#34c796"/><stop offset="1" stop-color="#0b7a55"/></linearGradient><linearGradient id="b" gradientUnits="userSpaceOnUse" x1="20" x2="20" xlink:href="#a" y1="0" y2="40"/><linearGradient id="c" gradientUnits="userSpaceOnUse" x1="20.0019" x2="20.0019" xlink:href="#a" y1="11.1133" y2="28.8903"/><circle cx="20" cy="20" fill="#151722" r="19" stroke="url(#b)" stroke-width="2"/><path clip-rule="evenodd" d="m24.489 11.4061c1.9289.5689 3.5378 2.1778 4.1067 4.1067.4355 1.4666.3911 2.48-.1511 3.1733-.6311.8444-1.7778.9422-2.5778.9422h-2.5511c-1.9556 0-2.9511-1.1111-2.9511-3.2978v-2.2133c0-.8089.0978-1.9467.9422-2.5778.7022-.5244 1.7156-.56 3.1822-.1333zm.7376 9.3864c.3466 0 .6844.1512.9155.4178.2311.2578.3378.6045.2934.9511-.2667 2.0889-1.4134 4.0089-3.1378 5.2623-1.3245.9688-2.88 1.4666-4.4889 1.4666-.4889 0-.9778-.0444-1.4667-.1422-3.0666-.5778-5.5111-3.0222-6.0889-6.08-.4-2.1156.0623-4.2311 1.3245-5.9644 1.2533-1.7245 3.1733-2.8712 5.2622-3.1378.3378-.0445.6933.0622.9511.2933.2667.2311.4178.5689.4178.9156v3.1822c0 1.5644 1.2711 2.8355 2.8356 2.8355z" fill="url(#c)" fill-rule="evenodd"/></svg>