<svg width="42" height="42" viewBox="0 0 42 42" fill="none" xmlns="http://www.w3.org/2000/svg">
<rect width="42" height="42" rx="8" fill="#1D202F"/>
<path d="M13.5743 25.1588C13.7071 25.0261 13.8896 24.9487 14.0832 24.9487H31.6394C31.9602 24.9487 32.1206 25.3358 31.8938 25.5626L28.4257 29.0307C28.2929 29.1635 28.1104 29.2409 27.9168 29.2409H10.3606C10.0398 29.2409 9.87943 28.8537 10.1062 28.6269L13.5743 25.1588Z" fill="#434665"/>
<path d="M13.5743 12.2102C13.7126 12.0774 13.8951 12 14.0832 12H31.6394C31.9602 12 32.1206 12.3872 31.8938 12.614L28.4257 16.0821C28.2929 16.2148 28.1104 16.2922 27.9168 16.2922H10.3606C10.0398 16.2922 9.87943 15.9051 10.1062 15.6783L13.5743 12.2102Z" fill="#434665"/>
<path d="M28.4257 18.643C28.2929 18.5103 28.1104 18.4328 27.9168 18.4328H10.3606C10.0398 18.4328 9.87943 18.82 10.1062 19.0468L13.5743 22.5149C13.7071 22.6476 13.8896 22.7251 14.0832 22.7251H31.6394C31.9602 22.7251 32.1206 22.3379 31.8938 22.1111L28.4257 18.643Z" fill="#434665"/>
</svg>
