<svg fill="none" height="40" viewBox="0 0 40 40" width="40" xmlns="http://www.w3.org/2000/svg" xmlns:xlink="http://www.w3.org/1999/xlink"><linearGradient id="a"><stop offset="0" stop-color="#34c796"/><stop offset="1" stop-color="#0b7a55"/></linearGradient><linearGradient id="b" gradientUnits="userSpaceOnUse" x1="20" x2="20" xlink:href="#a" y1="0" y2="40"/><linearGradient id="c" gradientUnits="userSpaceOnUse" x1="19.9992" x2="19.9992" xlink:href="#a" y1="11.1113" y2="28.8891"/><circle cx="20" cy="20" fill="#151722" r="19" stroke="url(#b)" stroke-width="2"/><path d="m19.9992 11.1113c-4.9066 0-8.8888 3.9822-8.8888 8.8889s3.9822 8.8889 8.8888 8.8889c4.9067 0 8.8889-3.9822 8.8889-8.8889s-3.9822-8.8889-8.8889-8.8889zm-2.9066 5.0311c.72 0 1.3155.5867 1.3155 1.3156 0 .72-.5866 1.3155-1.3155 1.3155-.72 0-1.3156-.5866-1.3156-1.3155s.5867-1.3156 1.3156-1.3156zm.1066 7.2356c-.1333.1333-.3022.1955-.4711.1955s-.3377-.0622-.4711-.1955c-.2578-.2578-.2578-.6845 0-.9422l5.8222-5.8223c.2578-.2577.6845-.2577.9423 0 .2577.2578.2577.6845 0 .9423zm5.7067.48c-.72 0-1.3156-.5867-1.3156-1.3156 0-.72.5867-1.3155 1.3156-1.3155.72 0 1.3156.5866 1.3156 1.3155s-.5867 1.3156-1.3156 1.3156z" fill="url(#c)"/></svg>