<svg width="42" height="42" viewBox="0 0 42 42" fill="none" xmlns="http://www.w3.org/2000/svg">
<rect width="42" height="42" rx="8" fill="#1D202F"/>
<path fill-rule="evenodd" clip-rule="evenodd" d="M20.9701 10.8985C15.4501 10.9185 10.9801 15.4085 11.0001 20.9285C11.0201 26.4485 15.5101 30.9185 21.0301 30.8985C26.5501 30.8785 31.0201 26.3885 31.0001 20.8685C30.9801 15.3485 26.4901 10.8885 20.9701 10.8985ZM23.2601 20.9985C24.0401 21.2685 25.0901 21.8485 25.0901 23.6385C25.0901 25.1785 23.8801 26.4185 22.4001 26.4185H21.7501V26.9985C21.7501 27.4085 21.4101 27.7485 21.0001 27.7485C20.5901 27.7485 20.2501 27.4085 20.2501 26.9985V26.4185H19.8901C18.2501 26.4185 16.9201 25.0385 16.9201 23.3385C16.9201 22.9285 17.2601 22.5885 17.6701 22.5885C18.0801 22.5885 18.4201 22.9285 18.4201 23.3385C18.4201 24.2085 19.0801 24.9185 19.8901 24.9185H20.2501V21.5385L18.7401 20.9985C17.9601 20.7285 16.9101 20.1485 16.9101 18.3585C16.9101 16.8185 18.1201 15.5785 19.6001 15.5785H20.2501V14.9985C20.2501 14.5885 20.5901 14.2485 21.0001 14.2485C21.4101 14.2485 21.7501 14.5885 21.7501 14.9985V15.5785H22.1101C23.7501 15.5785 25.0801 16.9585 25.0801 18.6585C25.0801 19.0685 24.7401 19.4085 24.3301 19.4085C23.9201 19.4085 23.5801 19.0685 23.5801 18.6585C23.5801 17.7885 22.9201 17.0785 22.1101 17.0785H21.7501V20.4585L23.2601 20.9985ZM21.7598 24.9184H22.3998C23.0498 24.9184 23.5898 24.3384 23.5898 23.6384C23.5898 22.7684 23.2798 22.5984 22.7698 22.4184L21.7598 22.0684V24.9184ZM19.2394 19.5881C18.7294 19.4081 18.4194 19.2381 18.4194 18.3681C18.4194 17.6581 18.9494 17.0781 19.5994 17.0781H20.2494V19.9381L19.2394 19.5881Z" fill="#434665"/>
</svg>
