<svg width="42" height="42" viewBox="0 0 42 42" fill="none" xmlns="http://www.w3.org/2000/svg">
<rect width="42" height="42" rx="8" fill="#1D202F"/>
<path fill-rule="evenodd" clip-rule="evenodd" d="M27.78 17.28V18.53C30.58 18.88 31.5 20.3 31.5 23.79V25.65C31.5 29.75 30.25 31 26.15 31H16.85C12.75 31 11.5 29.75 11.5 25.65V23.79C11.5 20.3 12.42 18.88 15.22 18.53V17.28C15.22 14.58 15.87 11 21.5 11C27.13 11 27.78 14.58 27.78 17.28ZM18.48 24.72C18.48 26.38 19.83 27.74 21.5 27.74C23.17 27.74 24.52 26.39 24.52 24.72C24.52 23.06 23.16 21.7 21.5 21.7C19.84 21.7 18.48 23.05 18.48 24.72ZM16.62 18.44H16.85V18.45H26.15H26.38V17.28C26.38 14.35 25.55 12.4 21.5 12.4C17.45 12.4 16.62 14.35 16.62 17.28V18.44ZM23.1311 24.7198C23.1311 25.6201 22.4013 26.3498 21.5011 26.3498C20.6009 26.3498 19.8711 25.6201 19.8711 24.7198C19.8711 23.8196 20.6009 23.0898 21.5011 23.0898C22.4013 23.0898 23.1311 23.8196 23.1311 24.7198Z" fill="#434665"/>
</svg>
