<svg fill="none" height="60" viewBox="0 0 61 60" width="61" xmlns="http://www.w3.org/2000/svg" xmlns:xlink="http://www.w3.org/1999/xlink"><linearGradient id="a"><stop offset="0" stop-color="#34c796"/><stop offset="1" stop-color="#0b7a55"/></linearGradient><linearGradient id="b" gradientUnits="userSpaceOnUse" x1="30.5" x2="30.5" xlink:href="#a" y1="0" y2="60"/><linearGradient id="c" gradientUnits="userSpaceOnUse" x1="30.4997" x2="30.4997" xlink:href="#a" y1="15.666" y2="44.3332"/><circle cx="30.5" cy="30" fill="#151722" r="29" stroke="url(#b)" stroke-width="2"/><g fill="url(#c)"><path d="m30.4997 44.3332c-5.3334 0-9.6667-3.8267-9.6667-8.5333v-4.9334c0-.5466.4533-1 1-1s1 .4534 1 1c0 3.4934 3.2933 6.1334 7.6667 6.1334 4.3733 0 7.6666-2.64 7.6666-6.1334 0-.5466.4534-1 1-1 .5467 0 1 .4534 1 1v4.9334c0 4.7066-4.3333 8.5333-9.6666 8.5333zm-7.6667-8.3867c.0933 3.5334 3.4933 6.3867 7.6667 6.3867 4.1733 0 7.5733-2.8533 7.6666-6.3867-1.7333 1.88-4.48 3.0534-7.6666 3.0534-3.1867 0-5.92-1.1734-7.6667-3.0534z"/><path d="m30.4997 32.3327c-3.68 0-6.9867-1.6534-8.6-4.32-.6934-1.1334-1.0667-2.4533-1.0667-3.8133 0-2.2934 1.0267-4.4534 2.88-6.0801 1.8133-1.5866 4.2267-2.4533 6.7867-2.4533s4.96.8667 6.7866 2.44c1.8534 1.64 2.88 3.8 2.88 6.0934 0 1.36-.3733 2.6666-1.0666 3.8133-1.6133 2.6666-4.92 4.32-8.6 4.32zm0-14.6667c-2.08 0-4.0267.6933-5.48 1.9733-1.4133 1.2267-2.1867 2.8534-2.1867 4.5601 0 1 .2667 1.9333.7733 2.7733 1.2667 2.08 3.9067 3.36 6.8934 3.36 2.9866 0 5.6267-1.2934 6.8933-3.36.52-.84.7733-1.7733.7733-2.7733 0-1.7067-.7733-3.3334-2.2-4.5867-1.4533-1.2534-3.3866-1.9467-5.4666-1.9467z"/><path d="m30.4997 38.9999c-5.5067 0-9.6667-3.4934-9.6667-8.1334v-6.6671c0-4.7067 4.3333-8.5334 9.6667-8.5334 2.56 0 4.96.8667 6.7866 2.44 1.8534 1.64 2.88 3.8 2.88 6.0934v6.6671c0 4.64-4.16 8.1334-9.6666 8.1334zm0-21.3339c-4.2267 0-7.6667 2.9333-7.6667 6.5334v6.6671c0 3.4934 3.2933 6.1334 7.6667 6.1334 4.3733 0 7.6666-2.64 7.6666-6.1334v-6.6671c0-1.7067-.7733-3.3334-2.2-4.5867-1.4533-1.2534-3.3866-1.9467-5.4666-1.9467z"/></g></svg>