<svg fill="none" height="42" viewBox="0 0 42 42" width="42" xmlns="http://www.w3.org/2000/svg"><rect fill="#1d202f" height="42" rx="8" width="42"/><g fill="#434665"><path d="m13.5743 25.1588c.1328-.1327.3153-.2101.5089-.2101h17.5562c.3208 0 .4812.3871.2544.6139l-3.4681 3.4681c-.1328.1328-.3153.2102-.5089.2102h-17.5562c-.3208 0-.48117-.3872-.2544-.614z"/><path d="m13.5743 12.2102c.1383-.1328.3208-.2102.5089-.2102h17.5562c.3208 0 .4812.3872.2544.614l-3.4681 3.4681c-.1328.1327-.3153.2101-.5089.2101h-17.5562c-.3208 0-.48117-.3871-.2544-.6139z"/><path d="m28.4257 18.643c-.1328-.1327-.3153-.2102-.5089-.2102h-17.5562c-.3208 0-.48117.3872-.2544.614l3.4681 3.4681c.1328.1327.3153.2102.5089.2102h17.5562c.3208 0 .4812-.3872.2544-.614z"/></g></svg>