<svg fill="none" height="40" viewBox="0 0 40 40" width="40" xmlns="http://www.w3.org/2000/svg" xmlns:xlink="http://www.w3.org/1999/xlink"><linearGradient id="a"><stop offset="0" stop-color="#34c796"/><stop offset="1" stop-color="#0b7a55"/></linearGradient><linearGradient id="b" gradientUnits="userSpaceOnUse" x1="20" x2="20" xlink:href="#a" y1="0" y2="40"/><linearGradient id="c" gradientUnits="userSpaceOnUse" x1="19.9999" x2="19.9999" xlink:href="#a" y1="11.1113" y2="28.89"/><circle cx="20" cy="20" fill="#151722" r="19" stroke="url(#b)" stroke-width="2"/><path clip-rule="evenodd" d="m17.9997 27.5566v-14.6675c0-.9778.4-1.7778 1.6-1.7778h.8c1.2 0 1.6.8 1.6 1.7778v14.6675h2.4446v-4.8888c0-.9778.3556-1.7778 1.4223-1.7778h.7111c1.0666 0 1.4222.8 1.4222 1.7778v4.8888h.8889c.3644 0 .6666.3023.6666.6667s-.3022.6667-.6666.6667h-.8889-3.5556-13.3333c-.3644 0-.6667-.3023-.6667-.6667s.3023-.6667.6667-.6667h.8887v-9.3342c0-.9777.3555-1.7777 1.4222-1.7777h.7111c1.0667 0 1.4222.8 1.4222 1.7777v9.3342z" fill="url(#c)" fill-rule="evenodd"/></svg>