<svg fill="none" height="42" viewBox="0 0 42 42" width="42" xmlns="http://www.w3.org/2000/svg"><rect fill="#1d202f" height="42" rx="8" width="42"/><path clip-rule="evenodd" d="m20.9701 10.9004c-5.52.02-9.99 4.51-9.97 10.03s4.51 9.99 10.03 9.97 9.99-4.51 9.97-10.03-4.51-9.98-10.03-9.97zm2.29 10.1c.78.27 1.83.85 1.83 2.64 0 1.54-1.21 2.78-2.69 2.78h-.65v.58c0 .41-.34.75-.75.75s-.75-.34-.75-.75v-.58h-.36c-1.64 0-2.97-1.38-2.97-3.08 0-.41.34-.75.75-.75s.75.34.75.75c0 .87.66 1.58 1.47 1.58h.36v-3.38l-1.51-.54c-.78-.27-1.83-.85-1.83-2.64 0-1.54 1.21-2.78 2.69-2.78h.65v-.58c0-.41.34-.75.75-.75s.75.34.75.75v.58h.36c1.64 0 2.97 1.38 2.97 3.08 0 .41-.34.75-.75.75s-.75-.34-.75-.75c0-.87-.66-1.58-1.47-1.58h-.36v3.38zm-1.5003 3.9194h.64c.65 0 1.19-.58 1.19-1.28 0-.87-.31-1.04-.82-1.22l-1.01-.35zm-2.5204-5.3292c-.51-.18-.82-.35-.82-1.22 0-.71.53-1.29 1.18-1.29h.65v2.86z" fill="#434665" fill-rule="evenodd"/></svg>