<svg fill="none" height="60" viewBox="0 0 61 60" width="61" xmlns="http://www.w3.org/2000/svg" xmlns:xlink="http://www.w3.org/1999/xlink"><linearGradient id="a"><stop offset="0" stop-color="#34c796"/><stop offset="1" stop-color="#0b7a55"/></linearGradient><linearGradient id="b" gradientUnits="userSpaceOnUse" x1="30.7002" x2="30.7002" xlink:href="#a" y1="0" y2="60"/><linearGradient id="c" gradientUnits="userSpaceOnUse" x1="30.7005" x2="30.7005" xlink:href="#a" y1="16.666" y2="29.3193"/><linearGradient id="d" gradientUnits="userSpaceOnUse" x1="30.7001" x2="30.7001" xlink:href="#a" y1="31.0059" y2="43.3325"/><circle cx="30.7002" cy="30" fill="#151722" r="29" stroke="url(#b)" stroke-width="2"/><path d="m30.7005 16.666c-3.4933 0-6.3333 2.84-6.3333 6.3333 0 3.4267 2.68 6.2 6.1733 6.32.1067-.0133.2134-.0133.2934 0h.0666.0267c3.4133-.12 6.0933-2.8933 6.1067-6.32 0-3.4933-2.84-6.3333-6.3334-6.3333z" fill="url(#c)"/><path d="m37.4735 32.8659c-3.72-2.48-9.7867-2.48-13.5334 0-1.6933 1.1333-2.6266 2.6666-2.6266 4.3066s.9333 3.16 2.6133 4.28c1.8667 1.2534 4.32 1.88 6.7733 1.88 2.4534 0 4.9067-.6266 6.7734-1.88 1.68-1.1333 2.6133-2.6533 2.6133-4.3066-.0133-1.64-.9333-3.16-2.6133-4.28z" fill="url(#d)"/></svg>