<svg width="42" height="42" viewBox="0 0 42 42" fill="none" xmlns="http://www.w3.org/2000/svg">
<rect width="42" height="42" rx="8" fill="white" fill-opacity="0.03"/>
<path d="M30.14 18.8984H21.68V22.5684L23.25 20.9984C23.54 20.7084 24.02 20.7084 24.31 20.9984C24.6 21.2884 24.6 21.7684 24.31 22.0584L21.46 24.8984C21.17 25.1884 20.69 25.1884 20.4 24.8984L17.55 22.0584C17.4 21.9084 17.33 21.7184 17.33 21.5284C17.33 21.3384 17.41 21.1484 17.56 20.9984C17.85 20.7084 18.33 20.7084 18.62 20.9984L20.18 22.5584V18.8984H11.86C11.38 18.8984 11 19.2784 11 19.7584C11 25.6484 15.11 29.7584 21 29.7584C26.89 29.7584 31 25.6484 31 19.7584C31 19.2784 30.62 18.8984 30.14 18.8984Z" fill="white" fill-opacity="0.2"/>
<path d="M21.6797 12.9883C21.6797 12.5783 21.3397 12.2383 20.9297 12.2383C20.5197 12.2383 20.1797 12.5783 20.1797 12.9883V18.8883H21.6797V12.9883Z" fill="white" fill-opacity="0.2"/>
</svg>
