<svg width="42" height="42" viewBox="0 0 42 42" fill="none" xmlns="http://www.w3.org/2000/svg">
<rect width="42" height="42" rx="8" fill="white" fill-opacity="0.03"/>
<path d="M21 11C15.49 11 11 15.49 11 21C11 26.51 15.49 31 21 31C26.51 31 31 26.51 31 21C31 15.49 26.51 11 21 11ZM25.35 24.57C25.21 24.81 24.96 24.94 24.7 24.94C24.57 24.94 24.44 24.91 24.32 24.83L21.22 22.98C20.45 22.52 19.88 21.51 19.88 20.62V16.52C19.88 16.11 20.22 15.77 20.63 15.77C21.04 15.77 21.38 16.11 21.38 16.52V20.62C21.38 20.98 21.68 21.51 21.99 21.69L25.09 23.54C25.45 23.75 25.57 24.21 25.35 24.57Z" fill="white" fill-opacity="0.2"/>
</svg>
