<svg width="43" height="42" viewBox="0 0 43 42" fill="none" xmlns="http://www.w3.org/2000/svg">
<rect x="0.5" width="42" height="42" rx="8" fill="white" fill-opacity="0.03"/>
<path d="M22 11C16.49 11 12 15.49 12 21C12 26.51 16.49 31 22 31C27.51 31 32 26.51 32 21C32 15.49 27.51 11 22 11ZM26.35 24.57C26.21 24.81 25.96 24.94 25.7 24.94C25.57 24.94 25.44 24.91 25.32 24.83L22.22 22.98C21.45 22.52 20.88 21.51 20.88 20.62V16.52C20.88 16.11 21.22 15.77 21.63 15.77C22.04 15.77 22.38 16.11 22.38 16.52V20.62C22.38 20.98 22.68 21.51 22.99 21.69L26.09 23.54C26.45 23.75 26.57 24.21 26.35 24.57Z" fill="white" fill-opacity="0.2"/>
</svg>
