<svg width="40" height="40" viewBox="0 0 40 40" fill="none" xmlns="http://www.w3.org/2000/svg">
<circle cx="20" cy="20" r="19.5" fill="white" fill-opacity="0.03" stroke="#43E3AE"/>
<path d="M19.9996 11.1104C17.6707 11.1104 15.7773 13.0037 15.7773 15.3326C15.7773 17.617 17.564 19.4659 19.8929 19.5459C19.964 19.537 20.0351 19.537 20.0885 19.5459C20.1062 19.5459 20.1151 19.5459 20.1329 19.5459C20.1418 19.5459 20.1418 19.5459 20.1507 19.5459C22.4262 19.4659 24.2129 17.617 24.2218 15.3326C24.2218 13.0037 22.3285 11.1104 19.9996 11.1104Z" fill="#43E3AE"/>
<path d="M24.5155 21.9109C22.0355 20.2576 17.9911 20.2576 15.4933 21.9109C14.3644 22.6665 13.7422 23.6887 13.7422 24.782C13.7422 25.8753 14.3644 26.8887 15.4844 27.6353C16.7289 28.4709 18.3644 28.8887 20 28.8887C21.6355 28.8887 23.2711 28.4709 24.5155 27.6353C25.6355 26.8798 26.2577 25.8665 26.2577 24.7642C26.2489 23.6709 25.6355 22.6576 24.5155 21.9109Z" fill="#43E3AE"/>
</svg>
