<svg width="16" height="12" viewBox="0 0 16 12" fill="none" xmlns="http://www.w3.org/2000/svg">
<g clip-path="url(#clip0_792_3507)">
<path d="M12.9027 1.0509C11.9655 0.606039 10.9621 0.278811 9.91322 0.0927401C9.8946 0.0884626 9.87597 0.0991563 9.86564 0.116267C9.73736 0.353667 9.59254 0.663785 9.49324 0.907603C8.36365 0.732225 7.24026 0.732225 6.1355 0.907603C6.03619 0.659508 5.88723 0.353667 5.75689 0.116267C5.74655 0.0991563 5.72793 0.0906014 5.70931 0.0927401C4.6604 0.278811 3.65701 0.606039 2.71981 1.0509C2.71155 1.05518 2.70534 1.06159 2.69913 1.06801C0.795786 4.00878 0.274435 6.87684 0.528904 9.71068C0.530973 9.72352 0.537179 9.73849 0.547524 9.74703C1.80332 10.7009 3.02187 11.2806 4.2156 11.6634C4.23421 11.6697 4.25491 11.6612 4.26732 11.6463C4.55075 11.2463 4.80108 10.8271 5.01832 10.3844C5.03072 10.3587 5.01832 10.3288 4.99349 10.3181C4.5942 10.162 4.21353 9.96947 3.84734 9.75346C3.81838 9.73635 3.81631 9.69357 3.8432 9.67218C3.91975 9.61229 3.9963 9.55027 4.07078 9.48825C4.0832 9.47755 4.10181 9.47542 4.11836 9.48184C6.52237 10.6175 9.12499 10.6175 11.5001 9.48184C11.5166 9.47328 11.5352 9.47542 11.5477 9.48825C11.6221 9.55027 11.6986 9.61443 11.7752 9.67218C11.8021 9.69357 11.8 9.73635 11.7711 9.75346C11.4049 9.97375 11.0242 10.162 10.6249 10.3181C10.598 10.3288 10.5877 10.3587 10.6001 10.3865C10.8214 10.8292 11.0718 11.2484 11.349 11.6484C11.3614 11.6655 11.3821 11.6719 11.4007 11.6655C12.6007 11.2826 13.8172 10.7031 15.075 9.74918C15.0853 9.74062 15.0936 9.72779 15.0936 9.71496C15.3998 6.4384 14.5806 3.59386 12.9214 1.07229C12.9193 1.05945 12.911 1.05304 12.9027 1.0509ZM5.37829 7.98686C4.6542 7.98686 4.05837 7.30032 4.05837 6.45551C4.05837 5.6107 4.64385 4.92416 5.37829 4.92416C6.11894 4.92416 6.71064 5.61712 6.69822 6.45551C6.69822 7.29817 6.11273 7.98686 5.37829 7.98686ZM10.2587 7.98686C9.53461 7.98686 8.93879 7.30032 8.93879 6.45551C8.93879 5.6107 9.52428 4.92416 10.2587 4.92416C10.9994 4.92416 11.591 5.61712 11.5786 6.45551C11.5786 7.29817 10.9994 7.98686 10.2587 7.98686Z" fill="white" fill-opacity="0.5"/>
</g>
<defs>
<clipPath id="clip0_792_3507">
<rect width="15.25" height="12" fill="white" transform="translate(0.46875)"/>
</clipPath>
</defs>
</svg>
