<svg fill="none" height="12" viewBox="0 0 16 12" width="16" xmlns="http://www.w3.org/2000/svg" xmlns:xlink="http://www.w3.org/1999/xlink"><clipPath id="a"><path d="m.729492 0h15.25v12h-15.25z"/></clipPath><g clip-path="url(#a)"><path d="m15.4833 1.39534c-.5406.23593-1.1215.39587-1.7311.46751.6221-.36764 1.1002-.9495 1.3249-1.642809-.5823.340141-1.2272.587649-1.9139.72081-.5494-.577517-1.3323-.93792131-2.1989-.93792131-1.66429 0-3.01345 1.32945031-3.01345 2.96936031 0 .23304.02643.45956.07785.67666-2.50446-.12374-4.72541-1.30556-6.21192-3.102518-.25926.438565-.40835.948778-.40835 1.493008 0 1.03055.53174 1.9388 1.34036 2.47144-.49428-.01519-.95845-.14908-1.36533-.37126v.03763c0 1.43873 1.0385 2.63864 2.41705 2.91147-.25264.06803-.51925.10422-.79393.10422-.19389 0-.38265-.01882-.56699-.05356.38338 1.17964 1.49679 2.03868 2.81512 2.06256-1.03116.7968-2.33112 1.27156-3.74272 1.27156-.2431 0-.48326-.0138-.719021-.0413 1.333751.8424 2.917941 1.3345 4.619641 1.3345 5.54279 0 8.57469-4.52455 8.57469-8.44921 0-.12882-.003-.2569-.0088-.38428.5897-.41902 1.1009-.94226 1.5048-1.53787z" fill="#a9aab7"/></g></svg>