<svg width="61" height="60" viewBox="0 0 61 60" fill="none" xmlns="http://www.w3.org/2000/svg">
<circle cx="30.0977" cy="30" r="29.5" stroke="#43E3AE"/>
<path d="M44.7636 34.293C44.2169 34.293 43.7636 34.7463 43.7636 35.293C43.7636 39.2396 41.0169 42.5463 37.3236 43.413L37.6836 42.813C37.9636 42.333 37.8169 41.7196 37.3369 41.4396C36.8703 41.1596 36.2436 41.3063 35.9636 41.7863L34.5636 44.1196C34.3769 44.4263 34.3769 44.813 34.5503 45.1196C34.7236 45.4396 35.0569 45.6263 35.4169 45.6263C41.1103 45.6263 45.7503 40.9863 45.7503 35.293C45.7636 34.7463 45.3103 34.293 44.7636 34.293Z" fill="#43E3AE"/>
<path d="M24.763 14.293C19.0697 14.293 14.4297 18.933 14.4297 24.6263C14.4297 25.173 14.883 25.6263 15.4297 25.6263C15.9764 25.6263 16.4297 25.173 16.4297 24.6263C16.4297 20.6796 19.1764 17.373 22.8697 16.5063L22.5097 17.1063C22.2297 17.5863 22.3764 18.1996 22.8564 18.4796C23.323 18.7596 23.9497 18.613 24.2297 18.133L25.6297 15.7996C25.803 15.493 25.8164 15.1196 25.6297 14.7996C25.4564 14.493 25.123 14.293 24.763 14.293Z" fill="#43E3AE"/>
<path d="M42.7646 25.5597C42.7646 29.6663 39.778 33.053 35.8713 33.6797C35.8713 33.6663 35.8713 33.6663 35.8713 33.653C35.4846 28.6797 31.458 24.6263 26.418 24.2263C27.0446 20.3197 30.4313 17.333 34.538 17.333C39.0846 17.333 42.7646 21.013 42.7646 25.5597Z" fill="#43E3AE"/>
<path d="M27.1791 32.9334C27.1791 32.7334 26.9524 32.4268 26.6724 32.4268H23.9258V33.4268H26.6724C26.9524 33.4401 27.1791 33.2134 27.1791 32.9334Z" fill="#43E3AE"/>
<path d="M27.2058 35.4404H26.6724H23.9258V36.4404H27.2191C27.6458 36.4404 27.9391 36.1738 27.9391 35.9338C27.9391 35.6938 27.6324 35.4404 27.2058 35.4404Z" fill="#43E3AE"/>
<path d="M33.8697 33.8002C33.563 29.7602 30.3364 26.5335 26.2964 26.2269C26.083 26.2135 25.883 26.2002 25.6564 26.2002C21.1097 26.2002 17.4297 29.8802 17.4297 34.4402C17.4297 38.9869 21.1097 42.6669 25.6564 42.6669C30.203 42.6669 33.8964 38.9869 33.8964 34.4402C33.8964 34.2135 33.883 34.0135 33.8697 33.8002Z" fill="#43E3AE"/>
</svg>
