<svg width="61" height="60" viewBox="0 0 61 60" fill="none" xmlns="http://www.w3.org/2000/svg">
<circle cx="30.5" cy="30" r="29.5" fill="white" fill-opacity="0.03" stroke="#43E3AE"/>
<path d="M30.4987 44.3342C25.1654 44.3342 20.832 40.5075 20.832 35.8008V30.8675C20.832 30.3208 21.2854 29.8675 21.832 29.8675C22.3787 29.8675 22.832 30.3208 22.832 30.8675C22.832 34.3608 26.1254 37.0008 30.4987 37.0008C34.872 37.0008 38.1654 34.3608 38.1654 30.8675C38.1654 30.3208 38.6187 29.8675 39.1654 29.8675C39.712 29.8675 40.1654 30.3208 40.1654 30.8675V35.8008C40.1654 40.5075 35.832 44.3342 30.4987 44.3342ZM22.832 35.9475C22.9254 39.4808 26.3254 42.3342 30.4987 42.3342C34.672 42.3342 38.072 39.4808 38.1654 35.9475C36.432 37.8275 33.6854 39.0008 30.4987 39.0008C27.312 39.0008 24.5787 37.8275 22.832 35.9475Z" fill="#43E3AE"/>
<path d="M30.4987 32.3337C26.8187 32.3337 23.512 30.6803 21.8987 28.0137C21.2053 26.8803 20.832 25.5603 20.832 24.2003C20.832 21.907 21.8587 19.747 23.712 18.1203C25.5254 16.5337 27.9387 15.667 30.4987 15.667C33.0587 15.667 35.4587 16.5337 37.2854 18.107C39.1387 19.747 40.1654 21.907 40.1654 24.2003C40.1654 25.5603 39.792 26.867 39.0987 28.0137C37.4854 30.6803 34.1787 32.3337 30.4987 32.3337ZM30.4987 17.667C28.4187 17.667 26.4721 18.3603 25.0187 19.6403C23.6054 20.867 22.832 22.4937 22.832 24.2003C22.832 25.2003 23.0987 26.1337 23.6053 26.9737C24.872 29.0537 27.512 30.3337 30.4987 30.3337C33.4854 30.3337 36.1254 29.0403 37.392 26.9737C37.9121 26.1337 38.1654 25.2003 38.1654 24.2003C38.1654 22.4937 37.392 20.867 35.9654 19.6137C34.512 18.3603 32.5787 17.667 30.4987 17.667Z" fill="#43E3AE"/>
<path d="M30.4987 39.0008C24.992 39.0008 20.832 35.5075 20.832 30.8675V24.2003C20.832 19.4937 25.1654 15.667 30.4987 15.667C33.0587 15.667 35.4587 16.5337 37.2854 18.107C39.1387 19.747 40.1654 21.907 40.1654 24.2003V30.8675C40.1654 35.5075 36.0054 39.0008 30.4987 39.0008ZM30.4987 17.667C26.272 17.667 22.832 20.6003 22.832 24.2003V30.8675C22.832 34.3608 26.1254 37.0008 30.4987 37.0008C34.872 37.0008 38.1654 34.3608 38.1654 30.8675V24.2003C38.1654 22.4937 37.392 20.867 35.9654 19.6137C34.512 18.3603 32.5787 17.667 30.4987 17.667Z" fill="#43E3AE"/>
</svg>
