<svg fill="none" height="32" viewBox="0 0 32 32" width="32" xmlns="http://www.w3.org/2000/svg" xmlns:xlink="http://www.w3.org/1999/xlink"><linearGradient id="a"><stop offset="0" stop-color="#34c796"/><stop offset="1" stop-color="#0b7a55"/></linearGradient><linearGradient id="b" gradientUnits="userSpaceOnUse" x1="15.9937" x2="15.9937" xlink:href="#a" y1="2.66699" y2="29.3337"/><linearGradient id="c" gradientUnits="userSpaceOnUse" x1="16.0189" x2="16.0189" xlink:href="#a" y1="11.9736" y2="20.0403"/><path d="m21.587 2.66699h-11.1733c-4.85337 0-7.74671 2.89334-7.74671 7.74671v11.16c0 4.8666 2.89334 7.76 7.74671 7.76h11.16c4.8533 0 7.7466-2.8934 7.7466-7.7467v-11.1733c.0134-4.85337-2.88-7.74671-7.7333-7.74671z" fill="url(#b)" opacity=".25"/><path d="m22.4406 12.547c-.0934-.2267-.28-.4134-.5067-.5067-.1067-.04-.2267-.0667-.3467-.0667h-2.48c-.52 0-.9333.4134-.9333.9334s.4133.9333.9333.9333h.24l-2.8133 2.8133-1.36-2.0266c-.16-.2267-.4-.3867-.68-.4134-.2933-.0266-.5467.0667-.7467.2667l-3.97329 3.9733c-.36.36-.36.9467 0 1.32.18666.1867.41329.2667.65329.2667s.48-.0933.6534-.2667l3.1733-3.1733 1.36 2.0267c.16.2266.4.3866.68.4133.2933.0267.5467-.0667.7467-.2667l3.6266-3.6266v.24c0 .52.4134.9333.9334.9333s.9333-.4133.9333-.9333v-2.4934c-.0267-.12-.04-.24-.0933-.3466z" fill="url(#c)"/></svg>