<svg fill="none" height="24" viewBox="0 0 25 24" width="25" xmlns="http://www.w3.org/2000/svg" xmlns:xlink="http://www.w3.org/1999/xlink"><linearGradient id="a"><stop offset="0" stop-color="#34c796"/><stop offset="1" stop-color="#0b7a55"/></linearGradient><linearGradient id="b" gradientUnits="userSpaceOnUse" x1="9.5" x2="9.5" xlink:href="#a" y1="8" y2="22"/><linearGradient id="c" gradientUnits="userSpaceOnUse" x1="15.5" x2="15.5" xlink:href="#a" y1="2" y2="16"/><g stroke-linecap="round" stroke-linejoin="round" stroke-width="1.5"><path d="m16.5 12.9v4.2c0 3.5-1.4 4.9-4.9 4.9h-4.2c-3.5 0-4.9-1.4-4.9-4.9v-4.2c0-3.5 1.4-4.9 4.9-4.9h4.2c3.5 0 4.9 1.4 4.9 4.9z" stroke="url(#b)"/><path d="m22.5 6.9v4.2c0 3.5-1.4 4.9-4.9 4.9h-1.1v-3.1c0-3.5-1.4-4.9-4.9-4.9h-3.1v-1.1c0-3.5 1.4-4.9 4.9-4.9h4.2c3.5 0 4.9 1.4 4.9 4.9z" stroke="url(#c)"/></g></svg>