<svg fill="none" height="32" viewBox="0 0 32 32" width="32" xmlns="http://www.w3.org/2000/svg" xmlns:xlink="http://www.w3.org/1999/xlink"><linearGradient id="a" gradientUnits="userSpaceOnUse" x1="15.9937" x2="15.9937" y1="29.333" y2="2.66634"><stop offset="0" stop-color="#dc5252"/><stop offset="1" stop-color="#aa4e4e"/></linearGradient><linearGradient id="b" gradientUnits="userSpaceOnUse" x1="16.0189" x2="16.0189" y1="20.0264" y2="11.9597"><stop offset="0" stop-color="#ff4c4c"/><stop offset="1" stop-color="#ff4c4c" stop-opacity=".54"/></linearGradient><path d="m21.587 29.333h-11.1733c-4.85337 0-7.74671-2.8933-7.74671-7.7467v-11.16c0-4.86662 2.89334-7.75996 7.74671-7.75996h11.16c4.8533 0 7.7466 2.89334 7.7466 7.74666v11.1733c.0134 4.8534-2.88 7.7467-7.7333 7.7467z" fill="url(#a)" opacity=".25"/><path d="m22.4406 19.453c-.0934.2267-.28.4134-.5067.5067-.1067.04-.2267.0667-.3467.0667h-2.48c-.52 0-.9333-.4134-.9333-.9334s.4133-.9333.9333-.9333h.24l-2.8133-2.8133-1.36 2.0266c-.16.2267-.4.3867-.68.4134-.2933.0266-.5467-.0667-.7467-.2667l-3.97329-3.9733c-.36-.36-.36-.9467 0-1.32.18666-.1867.41329-.2667.65329-.2667s.48.0933.6534.2667l3.1733 3.1733 1.36-2.0267c.16-.2266.4-.3866.68-.4133.2933-.0267.5467.0667.7467.2667l3.6266 3.6266v-.24c0-.52.4134-.9333.9334-.9333s.9333.4133.9333.9333v2.4934c-.0267.12-.04.24-.0933.3466z" fill="url(#b)"/></svg>