<svg fill="none" height="32" viewBox="0 0 32 32" width="32" xmlns="http://www.w3.org/2000/svg" xmlns:xlink="http://www.w3.org/1999/xlink"><linearGradient id="a"><stop offset="0" stop-color="#34c796"/><stop offset="1" stop-color="#0b7a55"/></linearGradient><linearGradient id="b" gradientUnits="userSpaceOnUse" x1="15.9872" x2="15.9872" xlink:href="#a" y1="2.7002" y2="29.3269"/><linearGradient id="c" gradientUnits="userSpaceOnUse" x1="15.9935" x2="15.9935" xlink:href="#a" y1="10.667" y2="21.3337"/><path d="m5.32048 19.5468-2.02665-2.0266c-.82667-.8266-.82667-2.1867 0-3.0133l2.02665-2.0267c.34667-.3467.62667-1.0267.62667-1.5067v-2.8666c0-1.17334.96001-2.13338 2.13334-2.13338h2.86661c.48 0 1.1601-.27997 1.5067-.62663l2.0267-2.02669c.8266-.82667 2.1867-.82667 3.0133 0l2.0267 2.02669c.3467.34666 1.0266.62663 1.5066.62663h2.8667c1.1734 0 2.1333.96004 2.1333 2.13338v2.8666c0 .48.28 1.16.6267 1.5067l2.0267 2.0267c.8267.8266.8267 2.1867 0 3.0133l-2.0267 2.0266c-.3467.3467-.6267 1.0267-.6267 1.5067v2.8667c0 1.1733-.9599 2.1333-2.1333 2.1333h-2.8667c-.48 0-1.1599.2801-1.5066.6267l-2.0267 2.0267c-.8266.8267-2.1867.8267-3.0133 0l-2.0267-2.0267c-.3466-.3466-1.0267-.6267-1.5067-.6267h-2.86661c-1.17333 0-2.13334-.96-2.13334-2.1333v-2.8667c0-.4933-.28-1.1733-.62667-1.5067z" fill="url(#b)" opacity=".4"/><path clip-rule="evenodd" d="m12.0137 13.3337c-.7467 0-1.3467-.6-1.3467-1.3334 0-.7333.6-1.3333 1.3333-1.3333.7334 0 1.3334.6 1.3334 1.3333 0 .7334-.5867 1.3334-1.32 1.3334zm7.9863 8c-.7467 0-1.3467-.6-1.3467-1.3334 0-.7333.6-1.3333 1.3334-1.3333.7333 0 1.3333.6 1.3333 1.3333 0 .7334-.5867 1.3334-1.32 1.3334zm-8.7071-.6274c.2.2.4534.2933.7067.2933s.5067-.0933.7067-.2933l8-8c.3866-.3866.3866-1.0267 0-1.4134-.3867-.3866-1.0267-.3866-1.4134 0l-8 8c-.3866.3867-.3866 1.0268 0 1.4134z" fill="url(#c)" fill-rule="evenodd"/></svg>