<svg width="61" height="60" viewBox="0 0 61 60" fill="none" xmlns="http://www.w3.org/2000/svg">
<circle cx="30.8984" cy="30" r="29.5" stroke="#43E3AE"/>
<path d="M30.8997 16.667C23.5397 16.667 17.5664 22.6403 17.5664 30.0003C17.5664 37.3603 23.5397 43.3337 30.8997 43.3337C38.2597 43.3337 44.2331 37.3603 44.2331 30.0003C44.2331 22.6403 38.2597 16.667 30.8997 16.667ZM26.5397 24.2137C27.6197 24.2137 28.5131 25.0937 28.5131 26.187C28.5131 27.267 27.6331 28.1603 26.5397 28.1603C25.4597 28.1603 24.5664 27.2803 24.5664 26.187C24.5664 25.0937 25.4464 24.2137 26.5397 24.2137ZM26.6997 35.067C26.4997 35.267 26.2464 35.3603 25.9931 35.3603C25.7397 35.3603 25.4864 35.267 25.2864 35.067C24.8997 34.6803 24.8997 34.0403 25.2864 33.6537L34.0197 24.9203C34.4064 24.5337 35.0464 24.5337 35.4331 24.9203C35.8197 25.307 35.8197 25.947 35.4331 26.3337L26.6997 35.067ZM35.2597 35.787C34.1797 35.787 33.2864 34.907 33.2864 33.8137C33.2864 32.7337 34.1664 31.8403 35.2597 31.8403C36.3397 31.8403 37.2331 32.7203 37.2331 33.8137C37.2331 34.907 36.3531 35.787 35.2597 35.787Z" fill="#43E3AE"/>
</svg>
